<svg width="170" height="170" viewBox="0 0 170 170" fill="none" xmlns="http://www.w3.org/2000/svg">
<circle cx="85" cy="85" r="80" fill="url(#paint0_linear_304_2254)"/>
<circle cx="85" cy="85" r="82.5" stroke="#6573FC" stroke-opacity="0.2" stroke-width="5"/>
<path d="M131.669 125.241L116.226 109.798C122.917 101.68 126.939 91.2861 126.939 79.9697C126.939 54.0706 105.869 33 79.9696 33C54.0703 33 33 54.0706 33 79.9697C33 105.869 54.0703 126.939 79.9696 126.939C91.286 126.939 101.68 122.916 109.798 116.226L125.241 131.669C126.128 132.556 127.291 133 128.454 133C129.618 133 130.781 132.556 131.669 131.668C133.444 129.893 133.444 127.016 131.669 125.241ZM42.0909 79.9697C42.0909 59.0833 59.083 42.0909 79.9696 42.0909C100.856 42.0909 117.848 59.0833 117.848 79.9697C117.848 100.856 100.856 117.848 79.9696 117.848C59.083 117.848 42.0909 100.856 42.0909 79.9697Z" fill="white"/>
<path fill-rule="evenodd" clip-rule="evenodd" d="M57.2979 88.2649C58.8156 71.7419 68.5846 62.0453 79.3782 62.0453C90.1724 62.0453 99.9408 71.7419 101.459 88.2649C88.5656 95.611 86.0733 84.1946 79.3782 84.1946C72.6831 84.1946 70.1914 95.611 57.2979 88.2649ZM78.5504 92.1591H78.598V94.4407L75.4422 96.2868L76.2224 97.656L79.3782 95.8104L82.534 97.656L83.3142 96.2868L80.1584 94.4407V92.1591H80.206C80.935 92.0017 81.6279 91.6352 82.1908 91.0582L83.1487 90.0769C83.6869 89.525 84.0366 88.8516 84.1974 88.1423C85.2328 88.9346 86.2418 89.7512 87.3658 90.4471C92.2403 93.4661 96.8988 92.5872 101.59 90.0537V90.0574C102.253 102.304 89.4313 104 79.3782 104C69.3251 104 56.5033 102.304 57.1661 90.0574V90.0537C61.8582 92.5872 66.5161 93.4661 71.3912 90.4471C72.5146 89.7512 73.5242 88.9346 74.559 88.1423C74.7198 88.8516 75.0696 89.525 75.6084 90.0769L76.5662 91.0582C77.1291 91.6352 77.822 92.0017 78.5504 92.1591ZM71.6224 80.7469C72.1913 80.8341 72.5501 81.5867 72.4249 82.4277C72.2991 83.2687 71.7368 83.8805 71.1685 83.7933C70.6002 83.706 70.2408 82.954 70.3666 82.1124C70.4918 81.2714 71.0541 80.6603 71.6224 80.7469ZM87.134 80.7469C86.5657 80.8341 86.2063 81.5867 86.3321 82.4277C86.4574 83.2687 87.0196 83.8805 87.5879 83.7933C88.1569 83.706 88.5157 82.954 88.3904 82.1124C88.2646 81.2714 87.7023 80.6603 87.134 80.7469ZM70.7073 62.4375C57.5658 53.8125 55.0235 57.3236 58.281 76.8259C58.9649 75.0792 59.7885 73.3941 60.7638 71.7998C59.4243 62.6003 60.9089 60.7292 67.209 64.5873C68.3125 63.7579 69.4816 63.0364 70.7073 62.4375ZM88.0497 62.4375C101.191 53.8125 103.733 57.3242 100.476 76.8259C99.7915 75.0792 98.9679 73.3941 97.9932 71.7998C99.3327 62.6003 97.8476 60.7292 91.548 64.5873C90.4439 63.7579 89.2748 63.0364 88.0497 62.4375ZM76.0713 87.0421C77.0707 86.3737 78.1495 85.8248 79.3782 85.8248C80.6069 85.8248 81.6864 86.3737 82.6851 87.0421C82.7339 87.7197 82.5069 88.415 82.0036 88.9303L81.0458 89.9122C80.1289 90.8521 78.6281 90.8521 77.7106 89.9122L76.7528 88.9303C76.2501 88.415 76.0232 87.7197 76.0713 87.0421ZM74.0365 75.6671C75.2983 76.1794 76.1303 77.0747 75.8961 77.6669C75.6619 78.2597 74.4495 78.3244 73.1882 77.8127C71.9264 77.3004 71.0938 76.4051 71.328 75.8129C71.5628 75.2201 72.7753 75.1554 74.0365 75.6671ZM84.7199 75.6671C83.4587 76.1794 82.6261 77.0747 82.8603 77.6669C83.0945 78.2597 84.3075 78.3244 85.5688 77.8127C86.83 77.3004 87.6626 76.4051 87.4284 75.8129C87.1942 75.2201 85.9812 75.1554 84.7199 75.6671ZM85.6043 81.5849C85.5941 81.7178 85.5886 81.8532 85.5886 81.991C85.5886 83.9488 86.6789 85.5357 88.025 85.5357C89.3705 85.5357 90.4614 83.9488 90.4614 81.991C90.4614 81.0799 90.2248 80.2492 89.8365 79.621C90.1953 79.4118 90.5541 79.2014 90.9123 78.9916C88.9912 78.4891 85.6952 80.1913 85.0071 81.2945C85.2064 81.3909 85.405 81.4879 85.6043 81.5849ZM73.1521 81.5849C73.163 81.7178 73.1684 81.8532 73.1684 81.991C73.1684 83.9488 72.0775 85.5357 70.732 85.5357C69.3859 85.5357 68.295 83.9488 68.295 81.991C68.295 81.0799 68.5316 80.2492 68.9199 79.621C68.5611 79.4118 68.2029 79.2014 67.8441 78.9916C69.7652 78.4891 73.0612 80.1913 73.7493 81.2945C73.5507 81.3909 73.3514 81.4879 73.1521 81.5849Z" fill="white"/>
<defs>
<linearGradient id="paint0_linear_304_2254" x1="85" y1="5" x2="85" y2="165" gradientUnits="userSpaceOnUse">
<stop stop-color="#9D50F1"/>
<stop offset="1" stop-color="#6573FC"/>
</linearGradient>
</defs>
</svg>
