<svg width="100" height="96" viewBox="0 0 100 96" fill="none" xmlns="http://www.w3.org/2000/svg">
<path d="M96.2891 67.2589C94.3737 67.1173 90.4207 69.241 89.3407 69.787C85.4896 71.7085 80.1307 74.7221 76.6056 77.1289C76.361 77.2907 76.035 77.5132 75.7905 77.675C74.2012 78.6863 72.5303 79.3537 70.6761 79.7582C60.4472 81.9224 45.5521 82.1449 45.5521 82.1449L44.6759 82.1853C44.0239 82.2258 43.4329 81.7606 43.3514 81.1336C43.2496 80.4459 43.759 79.7987 44.4925 79.738L66.6415 77.6548C69.0867 77.3919 71.0225 75.1266 70.7576 72.5782C70.4927 70.0298 68.129 68.169 65.6839 68.4319L45.98 68.1892C44.6351 68.169 42.4956 67.8454 41.2119 67.4611C28.5175 63.7801 21.345 67.2184 17.5347 68.8364C16.6789 67.4409 15.0691 66.5307 13.276 66.6521L4.77911 67.2184C1.94681 67.4004 -0.17233 69.7466 0.011057 72.4568L1.37627 91.1857C1.58003 93.8959 4.02519 95.9387 6.85749 95.7364L15.3544 95.1701C17.1475 95.0488 18.6146 93.9566 19.2463 92.4599L56.5757 94.0577C60.7324 94.5027 64.6243 93.997 68.292 92.0958L69.3516 91.5497L97.5728 75.167C98.9584 74.358 99.9364 72.9625 99.9976 71.4253C100.059 69.5443 98.9787 67.4611 96.2891 67.2589ZM9.97507 91.307C8.38571 91.307 7.08163 90.0733 7.08163 88.5361C7.08163 86.999 8.38571 85.7652 9.97507 85.7652C11.5644 85.7652 12.8685 86.999 12.8685 88.5361C12.8685 90.0733 11.5644 91.307 9.97507 91.307ZM74.9143 70.1309C77.8893 68.5128 83.7169 65.7217 86.8956 64.488C88.4849 63.861 90.0539 63.9014 91.5006 64.8722C90.3596 65.2767 89.3 65.7824 88.3016 66.2678C84.9598 67.9263 79.0711 71.1017 76.198 73.104C75.9128 73.3063 75.6071 73.5086 75.3218 73.7108C75.3626 73.2052 75.3626 72.6793 75.3015 72.1534C75.2403 71.486 75.0773 70.859 74.8736 70.2522C74.8736 70.2118 74.894 70.1713 74.9143 70.1309ZM83.8188 62.607C81.5162 63.6183 77.0946 65.1554 74.9958 66.3083L73.5695 67.0768C73.4269 67.1577 73.3046 67.2386 73.1823 67.3398C72.5507 66.5914 71.7968 65.9644 70.9613 65.4588C72.9174 64.4273 77.278 63.0317 79.2545 62.2631C80.8438 61.6362 82.372 61.6766 83.8188 62.607Z" fill="url(#paint0_linear_170_1440)"/>
<path d="M50.6579 0C35.0347 0 22.3684 12.6662 22.3684 28.2895C22.3684 43.9127 35.0347 56.5789 50.6579 56.5789C66.2811 56.5789 78.9474 43.9127 78.9474 28.2895C78.9474 12.6662 66.2811 0 50.6579 0ZM58.7838 39.4423C57.5498 40.9441 55.9432 41.9569 54.0689 42.4691C53.254 42.6903 52.8815 43.1211 52.928 43.9709C52.963 44.8091 52.928 45.6357 52.9164 46.4739C52.9164 47.219 52.5322 47.6148 51.7988 47.6381C51.3215 47.6497 50.8442 47.6614 50.3668 47.6614C49.9477 47.6614 49.5286 47.6614 49.1095 47.6497C48.3179 47.6381 47.9454 47.1841 47.9454 46.4157C47.9337 45.8103 47.9337 45.1933 47.9337 44.5879C47.9221 43.2375 47.8755 43.1909 46.5833 42.9814C44.9302 42.7136 43.3003 42.3411 41.7869 41.6076C40.5994 41.0256 40.4714 40.7345 40.809 39.4772C41.0651 38.5459 41.3212 37.6145 41.6122 36.6948C41.8218 36.0196 42.0197 35.7169 42.3806 35.7169C42.5902 35.7169 42.8579 35.8217 43.2188 36.008C44.8952 36.8811 46.6764 37.37 48.5507 37.6029C48.8651 37.6378 49.1794 37.6611 49.4937 37.6611C50.3669 37.6611 51.2167 37.4981 52.0433 37.1372C54.1271 36.2292 54.4531 33.8193 52.6952 32.3757C52.1015 31.8868 51.4146 31.5259 50.7045 31.2116C48.8767 30.4083 46.9791 29.8029 45.2561 28.7668C42.4621 27.0904 40.6925 24.7969 40.9021 21.3976C41.1349 17.5558 43.3119 15.1576 46.8394 13.877C48.2946 13.3531 48.3063 13.3647 48.3063 11.8513C48.3063 11.3391 48.2946 10.8268 48.3179 10.303C48.3528 9.16206 48.5391 8.96415 49.68 8.92923C49.808 8.92923 49.9477 8.92923 50.0758 8.92923C50.297 8.92923 50.5182 8.92923 50.7394 8.92923C50.8325 8.92923 50.9257 8.92923 51.0071 8.92923C53.1725 8.92923 53.1725 9.02236 53.1842 11.3624C53.1958 13.0853 53.1958 13.0853 54.9071 13.3531C56.2227 13.5626 57.4683 13.9468 58.6791 14.4823C59.3426 14.7734 59.5988 15.2391 59.3892 15.9492C59.0865 16.997 58.7955 18.0564 58.4695 19.0925C58.26 19.7211 58.0621 20.0122 57.6895 20.0122C57.48 20.0122 57.2238 19.9307 56.8979 19.7677C55.2215 18.9528 53.4636 18.557 51.6242 18.557C51.3913 18.557 51.1468 18.5686 50.914 18.5802C50.3668 18.6152 49.8313 18.685 49.3191 18.9062C47.503 19.6979 47.2119 21.7002 48.7603 22.9343C49.5403 23.5629 50.4367 24.0053 51.3564 24.3895C52.963 25.0531 54.5695 25.6934 56.0946 26.5316C60.891 29.2092 62.1949 35.2978 58.7838 39.4423Z" fill="url(#paint1_linear_170_1440)"/>
<defs>
<linearGradient id="paint0_linear_170_1440" x1="50" y1="0" x2="50" y2="95.7502" gradientUnits="userSpaceOnUse">
<stop stop-color="#9D50F1"/>
<stop offset="1" stop-color="#6573FC"/>
</linearGradient>
<linearGradient id="paint1_linear_170_1440" x1="50" y1="0" x2="50" y2="95.7502" gradientUnits="userSpaceOnUse">
<stop stop-color="#9D50F1"/>
<stop offset="1" stop-color="#6573FC"/>
</linearGradient>
</defs>
</svg>
