<svg width="30" height="30" viewBox="0 0 30 30" fill="none" xmlns="http://www.w3.org/2000/svg">
<g clip-path="url(#clip0_31_23)">
<path d="M15.0072 0.227051C8.83873 0.227051 7.03469 0.233414 6.68402 0.262504C5.41815 0.367728 4.63045 0.56704 3.77229 0.9943C3.11095 1.3227 2.58937 1.70337 2.07461 2.23699C1.13714 3.21014 0.568977 4.40738 0.363301 5.83052C0.263304 6.52141 0.234214 6.66231 0.228305 10.1913C0.226032 11.3676 0.228305 12.9158 0.228305 14.9923C0.228305 21.1557 0.235123 22.958 0.264668 23.3079C0.366937 24.5397 0.560113 25.3147 0.969192 26.1624C1.75099 27.7851 3.24412 29.0032 5.00316 29.4578C5.61223 29.6146 6.28494 29.7009 7.14855 29.7418C7.51445 29.7577 11.2439 29.7691 14.9756 29.7691C18.7073 29.7691 22.439 29.7646 22.7958 29.7464C23.7958 29.6993 24.3764 29.6214 25.0185 29.4555C26.7889 28.9987 28.2547 27.7987 29.0524 26.1533C29.4536 25.3261 29.657 24.5215 29.749 23.3541C29.769 23.0995 29.7774 19.0413 29.7774 14.9884C29.7774 10.9349 29.7683 6.88412 29.7483 6.62958C29.6551 5.44326 29.4517 4.64555 29.0377 3.8024C28.6979 3.11219 28.3206 2.59675 27.7729 2.06972C26.7955 1.13611 25.6 0.56795 24.1755 0.362501C23.4853 0.262732 23.3478 0.233187 19.8161 0.227051H15.0072Z" fill="url(#paint0_radial_31_23)"/>
<path d="M15.0072 0.227051C8.83873 0.227051 7.03469 0.233414 6.68402 0.262504C5.41815 0.367728 4.63045 0.56704 3.77229 0.9943C3.11095 1.3227 2.58937 1.70337 2.07461 2.23699C1.13714 3.21014 0.568977 4.40738 0.363301 5.83052C0.263304 6.52141 0.234214 6.66231 0.228305 10.1913C0.226032 11.3676 0.228305 12.9158 0.228305 14.9923C0.228305 21.1557 0.235123 22.958 0.264668 23.3079C0.366937 24.5397 0.560113 25.3147 0.969192 26.1624C1.75099 27.7851 3.24412 29.0032 5.00316 29.4578C5.61223 29.6146 6.28494 29.7009 7.14855 29.7418C7.51445 29.7577 11.2439 29.7691 14.9756 29.7691C18.7073 29.7691 22.439 29.7646 22.7958 29.7464C23.7958 29.6993 24.3764 29.6214 25.0185 29.4555C26.7889 28.9987 28.2547 27.7987 29.0524 26.1533C29.4536 25.3261 29.657 24.5215 29.749 23.3541C29.769 23.0995 29.7774 19.0413 29.7774 14.9884C29.7774 10.9349 29.7683 6.88412 29.7483 6.62958C29.6551 5.44326 29.4517 4.64555 29.0377 3.8024C28.6979 3.11219 28.3206 2.59675 27.7729 2.06972C26.7955 1.13611 25.6 0.56795 24.1755 0.362501C23.4853 0.262732 23.3478 0.233187 19.8161 0.227051H15.0072Z" fill="url(#paint1_radial_31_23)"/>
<path d="M15.0005 4.09082C12.0379 4.09082 11.666 4.10377 10.5024 4.15673C9.34112 4.20991 8.54841 4.39377 7.8548 4.66353C7.13732 4.94216 6.5287 5.31487 5.92236 5.92145C5.31556 6.52779 4.94284 7.13641 4.6633 7.85366C4.39286 8.5475 4.20877 9.34043 4.1565 10.5013C4.10446 11.6649 4.09082 12.0369 4.09082 14.9996C4.09082 17.9622 4.104 18.3329 4.15673 19.4965C4.21014 20.6578 4.39399 21.4505 4.66353 22.1441C4.94239 22.8616 5.3151 23.4702 5.92167 24.0766C6.52779 24.6834 7.13641 25.057 7.85343 25.3356C8.5475 25.6054 9.34043 25.7893 10.5015 25.8424C11.6651 25.8954 12.0367 25.9083 14.9991 25.9083C17.962 25.9083 18.3327 25.8954 19.4963 25.8424C20.6576 25.7893 21.4512 25.6054 22.1453 25.3356C22.8625 25.057 23.4702 24.6834 24.0764 24.0766C24.6832 23.4702 25.0559 22.8616 25.3354 22.1444C25.6036 21.4505 25.7877 20.6576 25.8422 19.4967C25.8945 18.3331 25.9081 17.9622 25.9081 14.9996C25.9081 12.0369 25.8945 11.6651 25.8422 10.5015C25.7877 9.34021 25.6036 8.5475 25.3354 7.85389C25.0559 7.13641 24.6832 6.52779 24.0764 5.92145C23.4696 5.31465 22.8628 4.94193 22.1446 4.66353C21.4492 4.39377 20.656 4.20991 19.4947 4.15673C18.3311 4.10377 17.9606 4.09082 14.9971 4.09082H15.0005ZM14.0219 6.05667C14.3123 6.05622 14.6364 6.05667 15.0005 6.05667C17.9131 6.05667 18.2583 6.06712 19.4085 6.1194C20.4721 6.16803 21.0494 6.34575 21.4339 6.49507C21.943 6.69279 22.306 6.92914 22.6875 7.31095C23.0693 7.69276 23.3057 8.05638 23.5039 8.56546C23.6532 8.94954 23.8311 9.52679 23.8795 10.5904C23.9318 11.7404 23.9432 12.0858 23.9432 14.9971C23.9432 17.9084 23.9318 18.2538 23.8795 19.4038C23.8309 20.4674 23.6532 21.0446 23.5039 21.4287C23.3061 21.9378 23.0693 22.3003 22.6875 22.6818C22.3057 23.0637 21.9432 23.3 21.4339 23.4977C21.0499 23.6477 20.4721 23.825 19.4085 23.8736C18.2586 23.9259 17.9131 23.9373 15.0005 23.9373C12.0876 23.9373 11.7424 23.9259 10.5924 23.8736C9.52884 23.8245 8.95158 23.6468 8.56682 23.4975C8.05775 23.2998 7.69412 23.0634 7.31231 22.6816C6.93051 22.2998 6.69415 21.9371 6.49597 21.4278C6.34666 21.0437 6.16871 20.4665 6.1203 19.4029C6.06803 18.2529 6.05758 17.9074 6.05758 14.9944C6.05758 12.0813 6.06803 11.7376 6.1203 10.5877C6.16894 9.52407 6.34666 8.94681 6.49597 8.56228C6.6937 8.0532 6.93051 7.68957 7.31231 7.30777C7.69412 6.92596 8.05775 6.68961 8.56682 6.49143C8.95135 6.34143 9.52884 6.16417 10.5924 6.1153C11.5988 6.06985 11.9888 6.05622 14.0219 6.05394V6.05667ZM20.8235 7.86798C20.1008 7.86798 19.5144 8.45364 19.5144 9.17658C19.5144 9.89928 20.1008 10.4856 20.8235 10.4856C21.5462 10.4856 22.1325 9.89928 22.1325 9.17658C22.1325 8.45387 21.5462 7.86752 20.8235 7.86752V7.86798ZM15.0005 9.39748C11.9067 9.39748 9.39839 11.9058 9.39839 14.9996C9.39839 18.0934 11.9067 20.6005 15.0005 20.6005C18.0943 20.6005 20.6017 18.0934 20.6017 14.9996C20.6017 11.9058 18.094 9.39748 15.0003 9.39748H15.0005ZM15.0005 11.3633C17.0086 11.3633 18.6367 12.9912 18.6367 14.9996C18.6367 17.0077 17.0086 18.6358 15.0005 18.6358C12.9921 18.6358 11.3642 17.0077 11.3642 14.9996C11.3642 12.9912 12.9921 11.3633 15.0005 11.3633V11.3633Z" fill="white"/>
</g>
<defs>
<radialGradient id="paint0_radial_31_23" cx="0" cy="0" r="1" gradientUnits="userSpaceOnUse" gradientTransform="translate(8.07658 32.0445) rotate(-90) scale(29.2784 27.2386)">
<stop stop-color="#FFDD55"/>
<stop offset="0.1" stop-color="#FFDD55"/>
<stop offset="0.5" stop-color="#FF543E"/>
<stop offset="1" stop-color="#C837AB"/>
</radialGradient>
<radialGradient id="paint1_radial_31_23" cx="0" cy="0" r="1" gradientUnits="userSpaceOnUse" gradientTransform="translate(-4.72251 2.35521) rotate(78.6776) scale(13.0877 53.9616)">
<stop stop-color="#3771C8"/>
<stop offset="0.128" stop-color="#3771C8"/>
<stop offset="1" stop-color="#6600FF" stop-opacity="0"/>
</radialGradient>
<clipPath id="clip0_31_23">
<rect width="30" height="29.9991" fill="white"/>
</clipPath>
</defs>
</svg>
