<svg width="30" height="30" viewBox="0 0 30 30" fill="none" xmlns="http://www.w3.org/2000/svg">
<rect width="30" height="30" rx="10" fill="url(#paint0_linear_206_1247)"/>
<path d="M8.45241 10.9091H22.0252C22.2749 10.9091 22.4776 10.7054 22.4776 10.4545C22.4776 10.2036 22.2749 10 22.0252 10H8.45241C8.2027 10 8 10.2036 8 10.4545C8 10.7055 8.2027 10.9091 8.45241 10.9091Z" fill="white"/>
<path d="M22.0252 14.5455H8.45241C8.20267 14.5455 8 14.7491 8 15C8 15.2509 8.2027 15.4545 8.45241 15.4545H22.0252C22.2749 15.4545 22.4776 15.2509 22.4776 15C22.4776 14.7491 22.2749 14.5455 22.0252 14.5455Z" fill="white"/>
<path d="M22.0252 19.0909H8.45241C8.20267 19.0909 8 19.2946 8 19.5455C8 19.7964 8.2027 20 8.45241 20H22.0252C22.2749 20 22.4776 19.7963 22.4776 19.5455C22.4776 19.2945 22.2749 19.0909 22.0252 19.0909Z" fill="white"/>
<defs>
<linearGradient id="paint0_linear_206_1247" x1="30" y1="15.3" x2="5.5857e-08" y2="15.3" gradientUnits="userSpaceOnUse">
<stop stop-color="#9D50F1"/>
<stop offset="1" stop-color="#6573FC"/>
</linearGradient>
</defs>
</svg>
