<svg width="684" height="684" viewBox="0 0 684 684" fill="none" xmlns="http://www.w3.org/2000/svg">
	<g id="mp-roadmap-img">
		<g id="mp-roadmap-img-layer">
			<path id="Polygon 4" d="M351.847 88.9297C390.378 78.6054 431.49 89.6213 459.697 117.828L565.91 224.041C594.116 252.247 605.132 293.359 594.808 331.89L555.931 476.98C545.607 515.511 515.511 545.607 476.98 555.931L331.89 594.808C293.359 605.132 252.247 594.116 224.041 565.91L117.828 459.697C89.6213 431.49 78.6054 390.378 88.9297 351.847L127.806 206.758C138.131 168.227 168.227 138.131 206.758 127.806L351.847 88.9297Z" fill="url(#paint0_linear_165_268)"/>
		</g>
		<g id="mp-roadmap-img-dog">
			<g id="mp-roadmap-img-dog-inner">
				<path id="Vector" d="M459.902 431.368C459.902 496.686 406.952 549.638 341.632 549.638C276.313 549.638 223.363 496.686 223.363 431.368C223.363 366.048 276.313 313.097 341.632 313.097C406.952 313.097 459.902 366.048 459.902 431.368Z" fill="#FAC611"/>
				<g id="Group">
					<path id="Vector_2" fill-rule="evenodd" clip-rule="evenodd" d="M291.717 448.732C295.148 411.861 317.232 390.224 341.632 390.224C366.034 390.224 388.116 411.861 391.549 448.732C362.401 465.124 356.767 439.649 341.632 439.649C326.497 439.649 320.864 465.124 291.717 448.732V448.732ZM339.761 457.421H339.868V462.514L332.734 466.632L334.498 469.688L341.632 465.569L348.766 469.688L350.53 466.632L343.396 462.514V457.421H343.503C345.152 457.07 346.718 456.252 347.99 454.965L350.156 452.775C351.372 451.544 352.163 450.041 352.526 448.458C354.867 450.226 357.148 452.049 359.689 453.601C370.709 460.338 381.24 458.377 391.845 452.724V452.732C393.344 480.059 364.359 483.844 341.632 483.844C318.906 483.844 289.921 480.059 291.419 452.732V452.724C302.026 458.377 312.556 460.338 323.577 453.601C326.116 452.049 328.398 450.226 330.738 448.458C331.101 450.041 331.892 451.544 333.11 452.775L335.275 454.965C336.548 456.252 338.114 457.07 339.761 457.421ZM324.099 431.956C325.385 432.15 326.196 433.83 325.913 435.706C325.629 437.583 324.358 438.948 323.073 438.754C321.788 438.559 320.976 436.881 321.26 435.003C321.543 433.126 322.814 431.762 324.099 431.956ZM359.165 431.956C357.88 432.15 357.068 433.83 357.352 435.706C357.635 437.583 358.907 438.948 360.191 438.754C361.477 438.559 362.289 436.881 362.005 435.003C361.721 433.126 360.45 431.762 359.165 431.956ZM322.031 391.099C292.323 371.852 286.575 379.687 293.939 423.206C295.485 419.308 297.347 415.548 299.552 411.991C296.524 391.462 299.88 387.287 314.122 395.896C316.617 394.045 319.26 392.435 322.031 391.099ZM361.235 391.099C390.943 371.852 396.689 379.689 389.326 423.206C387.779 419.308 385.917 415.548 383.714 411.991C386.742 391.462 383.384 387.287 369.144 395.896C366.648 394.045 364.005 392.435 361.235 391.099V391.099ZM334.157 446.003C336.416 444.512 338.854 443.287 341.632 443.287C344.41 443.287 346.85 444.512 349.108 446.003C349.218 447.515 348.705 449.067 347.567 450.218L345.402 452.408C343.329 454.505 339.936 454.505 337.862 452.408L335.697 450.218C334.561 449.067 334.048 447.515 334.157 446.003V446.003ZM329.557 420.62C332.409 421.764 334.29 423.761 333.761 425.083C333.231 426.406 330.49 426.55 327.639 425.408C324.786 424.265 322.904 422.267 323.434 420.946C323.964 419.623 326.705 419.479 329.557 420.62V420.62ZM353.708 420.62C350.857 421.764 348.974 423.761 349.504 425.083C350.033 426.406 352.776 426.55 355.627 425.408C358.478 424.265 360.36 422.267 359.831 420.946C359.301 419.623 356.559 419.479 353.708 420.62ZM355.707 433.826C355.684 434.122 355.672 434.426 355.672 434.732C355.672 439.101 358.136 442.642 361.179 442.642C364.221 442.642 366.687 439.101 366.687 434.732C366.687 432.699 366.152 430.845 365.274 429.445C366.086 428.977 366.897 428.507 367.706 428.04C363.364 426.917 355.913 430.716 354.357 433.178C354.807 433.393 355.257 433.609 355.707 433.826V433.826ZM327.557 433.826C327.582 434.122 327.594 434.426 327.594 434.732C327.594 439.101 325.128 442.642 322.086 442.642C319.043 442.642 316.577 439.101 316.577 434.732C316.577 432.699 317.112 430.845 317.99 429.445C317.179 428.977 316.369 428.507 315.558 428.04C319.901 426.917 327.352 430.716 328.907 433.178C328.458 433.393 328.008 433.609 327.557 433.826V433.826Z" fill="#AD6F37"/>
					<path id="Vector_3" fill-rule="evenodd" clip-rule="evenodd" d="M291.717 446.427C295.148 409.556 317.232 387.919 341.632 387.919C366.034 387.919 388.116 409.556 391.549 446.427C362.401 462.819 356.767 437.344 341.632 437.344C326.497 437.344 320.864 462.819 291.717 446.427V446.427ZM339.761 455.116H339.868V460.208L332.734 464.327L334.498 467.382L341.632 463.264L348.766 467.382L350.53 464.327L343.396 460.208V455.116H343.503C345.152 454.765 346.718 453.947 347.99 452.66L350.156 450.47C351.372 449.238 352.163 447.736 352.526 446.153C354.867 447.921 357.148 449.743 359.689 451.296C370.709 458.033 381.24 456.072 391.845 450.418V450.427C393.344 477.754 364.359 481.539 341.632 481.539C318.906 481.539 289.921 477.754 291.419 450.427V450.418C302.026 456.072 312.556 458.033 323.577 451.296C326.116 449.743 328.398 447.921 330.738 446.153C331.101 447.736 331.892 449.238 333.11 450.47L335.275 452.66C336.548 453.947 338.114 454.765 339.761 455.116ZM324.099 429.65C325.385 429.845 326.196 431.524 325.913 433.401C325.629 435.278 324.358 436.643 323.073 436.448C321.788 436.254 320.976 434.576 321.26 432.698C321.543 430.821 322.814 429.457 324.099 429.65ZM359.165 429.65C357.88 429.845 357.068 431.524 357.352 433.401C357.635 435.278 358.907 436.643 360.191 436.448C361.477 436.254 362.289 434.576 362.005 432.698C361.721 430.821 360.45 429.457 359.165 429.65ZM322.031 388.794C292.323 369.547 286.575 377.382 293.939 420.901C295.485 417.003 297.347 413.243 299.552 409.685C296.524 389.157 299.88 384.982 314.122 393.591C316.617 391.74 319.26 390.13 322.031 388.794ZM361.235 388.794C390.943 369.547 396.689 377.384 389.326 420.901C387.779 417.003 385.917 413.243 383.714 409.685C386.742 389.157 383.384 384.982 369.144 393.591C366.648 391.74 364.005 390.13 361.235 388.794V388.794ZM334.157 443.698C336.416 442.206 338.854 440.982 341.632 440.982C344.41 440.982 346.85 442.206 349.108 443.698C349.218 445.21 348.705 446.762 347.567 447.912L345.402 450.103C343.329 452.2 339.936 452.2 337.862 450.103L335.697 447.912C334.561 446.762 334.048 445.21 334.157 443.698V443.698ZM329.557 418.315C332.409 419.458 334.29 421.456 333.761 422.778C333.231 424.101 330.49 424.245 327.639 423.103C324.786 421.96 322.904 419.962 323.434 418.64C323.964 417.318 326.705 417.173 329.557 418.315V418.315ZM353.708 418.315C350.857 419.458 348.974 421.456 349.504 422.778C350.033 424.101 352.776 424.245 355.627 423.103C358.478 421.96 360.36 419.962 359.831 418.64C359.301 417.318 356.559 417.173 353.708 418.315ZM355.707 431.52C355.684 431.817 355.672 432.119 355.672 432.427C355.672 436.795 358.136 440.337 361.179 440.337C364.221 440.337 366.687 436.795 366.687 432.427C366.687 430.393 366.152 428.54 365.274 427.138C366.086 426.671 366.897 426.202 367.706 425.734C363.364 424.612 355.913 428.411 354.357 430.873C354.807 431.088 355.257 431.304 355.707 431.52V431.52ZM327.557 431.52C327.582 431.817 327.594 432.119 327.594 432.427C327.594 436.795 325.128 440.337 322.086 440.337C319.043 440.337 316.577 436.795 316.577 432.427C316.577 430.393 317.112 428.54 317.99 427.138C317.179 426.671 316.369 426.202 315.558 425.734C319.901 424.612 327.352 428.411 328.907 430.873C328.458 431.088 328.008 431.304 327.557 431.52V431.52Z" fill="#FFE875"/>
				</g>
				<path id="Vector_4" d="M341.632 547.275C303.397 547.275 269.422 528.66 248.299 500.021C268.407 515.826 293.76 525.259 321.318 525.259C324.671 525.259 327.986 525.121 331.267 524.846C334.69 525.22 338.147 525.408 341.632 525.408C354.327 525.408 366.644 522.921 378.238 518.016C389.435 513.28 399.494 506.499 408.129 497.863C416.764 489.228 423.546 479.17 428.282 467.971C432.304 458.462 434.7 448.468 435.432 438.178C438.142 428.24 439.587 417.785 439.587 406.989C439.587 387.123 434.673 368.414 426.013 351.982C445.552 372.738 457.539 400.68 457.539 431.367C457.539 495.278 405.543 547.275 341.632 547.275V547.275ZM372.571 515.439L371.686 514.029C379.398 510.393 386.654 505.948 393.347 500.804L394.958 503.304C388.167 508.352 380.641 512.46 372.571 515.439V515.439ZM413.079 485.348L411.744 483.222C416.902 477.111 421.447 470.477 425.295 463.397C422.253 471.312 418.118 478.694 413.079 485.348Z" fill="#B39520"/>
				<path id="Vector_5" d="M358.081 519.433C362.75 517.908 367.291 516.101 371.686 514.03L372.57 515.44C367.909 517.16 363.068 518.503 358.081 519.433Z" fill="#CAB563"/>
				<path id="Vector_6" d="M394.958 503.304L393.347 500.804C400.09 495.617 406.261 489.717 411.744 483.222L413.079 485.347C407.921 492.156 401.816 498.208 394.958 503.304V503.304Z" fill="#CAB563"/>
				<path id="Vector_7" d="M341.632 341.787C292.238 341.787 252.051 381.973 252.051 431.368C252.051 480.762 292.238 520.946 341.632 520.946C391.026 520.946 431.213 480.762 431.213 431.368C431.213 381.973 391.026 341.787 341.632 341.787V341.787ZM341.632 525.409C328.939 525.409 316.622 522.921 305.027 518.016C293.829 513.28 283.772 506.5 275.137 497.863C266.5 489.228 259.72 479.171 254.984 467.972C250.079 456.377 247.593 444.061 247.593 431.368C247.593 418.673 250.079 406.357 254.984 394.763C259.72 383.564 266.5 373.506 275.137 364.87C283.772 356.236 293.829 349.456 305.027 344.718C316.622 339.815 328.939 337.326 341.632 337.326C354.327 337.326 366.644 339.815 378.238 344.718C389.435 349.456 399.494 356.236 408.129 364.87C416.764 373.506 423.546 383.564 428.282 394.763C433.185 406.357 435.672 418.673 435.672 431.368C435.672 444.061 433.185 456.377 428.282 467.972C423.546 479.171 416.764 489.228 408.129 497.863C399.494 506.5 389.435 513.28 378.238 518.016C366.644 522.921 354.327 525.409 341.632 525.409V525.409Z" fill="#0F156D"/>
				<path id="Vector_8" d="M240.026 487.099C230.914 470.553 225.727 451.554 225.727 431.368C225.727 393.497 243.977 359.815 272.15 338.651C271.969 339.213 271.796 339.787 271.63 340.37C270.755 343.448 270.179 346.521 269.904 349.574C245.203 371.249 229.607 403.057 229.607 438.504C229.607 455.826 233.333 472.276 240.026 487.099V487.099Z" fill="#FFF2B2"/>
				<path id="Vector_9" d="M341.632 315.459C277.721 315.459 225.727 367.455 225.727 431.368C225.727 495.279 277.721 547.275 341.632 547.275C405.543 547.275 457.539 495.279 457.539 431.368C457.539 367.455 405.543 315.459 341.632 315.459V315.459ZM341.632 552C325.349 552 309.55 548.811 294.676 542.52C280.31 536.443 267.409 527.745 256.331 516.669C245.255 505.591 236.557 492.689 230.48 478.324C224.189 463.449 221 447.653 221 431.368C221 415.083 224.189 399.285 230.48 384.41C236.557 370.045 245.255 357.145 256.331 346.065C267.409 334.987 280.31 326.291 294.676 320.214C309.55 313.924 325.349 310.734 341.632 310.734C357.917 310.734 373.716 313.924 388.59 320.214C402.955 326.291 415.855 334.987 426.933 346.065C438.01 357.145 446.708 370.045 452.784 384.41C459.076 399.285 462.266 415.083 462.266 431.368C462.266 447.653 459.076 463.449 452.784 478.324C446.708 492.689 438.01 505.591 426.933 516.669C415.855 527.745 402.955 536.443 388.59 542.52C373.716 548.811 357.917 552 341.632 552V552Z" fill="#0F156D"/>
				<path id="Vector_10" d="M395.856 374.089C395.856 374.089 406.959 401.164 385.637 406.74C364.315 412.315 353.728 381.235 357.489 367.725C361.25 354.207 359.163 344.589 359.163 344.589C359.163 344.589 352.165 349.171 341.632 349.186H341.578C340.116 349.186 338.724 349.1 337.403 348.944H337.394C337.106 348.913 336.816 348.873 336.534 348.834C328.841 347.763 323.993 344.589 323.993 344.589C323.993 344.589 322.532 351.297 324.244 361.391C324.58 363.378 325.041 365.496 325.659 367.725C329.428 381.235 318.834 412.315 297.511 406.74C291.523 405.177 288.09 401.916 286.26 398.03C282.608 390.321 285.245 380.157 286.604 375.997C287.003 374.792 287.291 374.089 287.291 374.089C262.585 344.362 287.291 315.745 287.291 315.745H395.856C395.856 315.745 420.563 344.362 395.856 374.089V374.089Z" fill="#F9A429"/>
				<path id="Vector_11" d="M325.659 367.725C329.427 381.235 318.834 412.315 297.511 406.74C279.631 402.064 284.556 382.252 286.604 375.997C293.899 380.61 307.542 383.698 324.244 361.391C324.58 363.378 325.041 365.496 325.659 367.725V367.725Z" fill="white"/>
				<path id="Vector_12" d="M357.497 367.725C353.728 381.235 364.323 412.315 385.644 406.74C403.526 402.064 398.6 382.252 396.552 375.997C389.257 380.61 375.614 383.698 358.912 361.391C358.576 363.378 358.115 365.496 357.497 367.725V367.725Z" fill="white"/>
				<path id="Vector_13" d="M364.151 367.695C362.987 366.447 361.807 365.081 360.609 363.584C362.884 352.247 361.267 344.515 361.186 344.151C361.18 344.119 361.171 344.088 361.163 344.057C361.102 343.813 359.553 337.483 362.493 332.01H372.096C369.096 334.593 366.192 338.956 367.059 345.942C367.916 352.838 365.386 360.076 364.151 367.695V367.695ZM319.005 367.694C317.77 360.076 315.24 352.838 316.097 345.942C316.964 338.956 314.058 334.593 311.06 332.01H320.656C323.611 337.535 322.005 343.998 321.986 344.069C321.976 344.106 321.968 344.141 321.961 344.178C321.831 344.79 320.308 352.448 322.544 363.589C321.348 365.083 320.168 366.448 319.005 367.694V367.694ZM341.577 347.118C336.127 347.118 331.655 345.802 328.755 344.632C328.709 344.604 328.684 344.589 328.684 344.589C328.684 344.589 328.683 344.593 328.682 344.603C327.696 344.204 326.898 343.823 326.308 343.519C326.669 341.17 327 336.585 325.213 332.01H357.938C356.154 336.585 356.483 341.17 356.844 343.519C354.516 344.717 348.938 347.118 341.577 347.118V347.118Z" fill="#AF733D"/>
				<path id="Vector_14" d="M302.496 405.331C301.05 405.331 299.563 405.132 298.037 404.734C297.443 404.577 296.87 404.403 296.322 404.211C294.071 402.733 292.464 400.881 291.35 398.819C293.316 399.448 295.85 400.011 298.636 400.011C303.923 400.011 310.109 397.981 314.978 390.524C320.188 382.548 320.182 374.948 319.005 367.693C320.168 366.448 321.347 365.083 322.544 363.588C322.846 365.091 323.215 366.656 323.666 368.275C325.943 376.456 322.472 391.718 314.419 399.9C310.859 403.513 306.864 405.331 302.496 405.331V405.331Z" fill="#B3B3D2"/>
				<path id="Vector_15" d="M380.656 405.331C376.287 405.331 372.291 403.513 368.732 399.9C360.678 391.718 357.208 376.456 359.485 368.276C359.937 366.655 360.307 365.087 360.609 363.583C361.807 365.08 362.987 366.446 364.15 367.694C362.973 374.948 362.966 382.548 368.177 390.524C373.047 397.982 379.231 400.011 384.519 400.011C389.055 400.011 392.93 398.52 394.751 397.68C392.888 401.217 389.732 403.527 385.113 404.734C383.588 405.132 382.102 405.331 380.656 405.331Z" fill="#B3B3D2"/>
				<path id="Vector_16" d="M290.681 378.035C289.896 377.74 289.153 377.407 288.452 377.051C288.874 375.714 289.201 374.904 289.213 374.871C289.503 374.162 289.379 373.351 288.889 372.762C279.141 361.033 276.144 348.155 279.982 334.48C280.223 333.621 280.484 332.785 280.76 331.977C281.049 331.999 281.337 332.01 281.63 332.01H283.255C279.667 343.036 278.949 358.408 291.984 374.089C291.984 374.089 291.694 374.792 291.295 375.997C291.107 376.57 290.896 377.255 290.681 378.035V378.035Z" fill="#FCD69E"/>
				<path id="Vector_17" d="M291.35 398.82C290.114 398.424 289.103 398.002 288.399 397.678C288.354 397.592 288.31 397.505 288.266 397.417C284.86 390.609 287.131 381.242 288.452 377.052C289.153 377.407 289.896 377.74 290.682 378.036C289.329 382.909 287.805 391.384 290.951 398.031C291.076 398.296 291.21 398.56 291.35 398.82Z" fill="white"/>
				<path id="Vector_18" d="M296.322 404.212C292.625 402.909 290.021 400.76 288.399 397.678C289.103 398.002 290.114 398.424 291.349 398.82C292.464 400.881 294.071 402.734 296.322 404.212V404.212Z" fill="#DDDDEB"/>
				<path id="Vector_19" d="M328.755 344.633C328.729 344.623 328.706 344.614 328.682 344.603C328.683 344.593 328.685 344.589 328.685 344.589C328.685 344.589 328.709 344.604 328.755 344.633V344.633Z" fill="#DBC0A8"/>
				<path id="Vector_20" d="M288.702 372.564L288.934 372.755C289.028 372.83 289.126 372.907 289.229 372.982C289.431 373.132 289.643 373.281 289.856 373.428C290.289 373.717 290.737 373.992 291.198 374.249C292.122 374.755 293.091 375.187 294.096 375.523C295.099 375.859 296.132 376.111 297.188 376.247C298.241 376.391 299.316 376.447 300.394 376.379C301.472 376.304 302.56 376.158 303.635 375.903C303.904 375.84 304.168 375.756 304.438 375.683L304.839 375.573C304.974 375.535 305.104 375.485 305.238 375.443C305.503 375.355 305.767 375.263 306.037 375.179C306.302 375.085 306.563 374.976 306.829 374.876C308.949 374.065 311.02 372.996 313.133 371.846C313.232 371.791 313.353 371.828 313.406 371.925C313.446 371.998 313.435 372.084 313.388 372.145C311.875 374.053 310.007 375.689 307.874 376.985C307.606 377.142 307.339 377.307 307.064 377.459C306.787 377.602 306.504 377.74 306.223 377.883C306.082 377.951 305.943 378.028 305.799 378.091L305.362 378.272C305.068 378.39 304.779 378.521 304.481 378.63L303.577 378.942L303.35 379.019L303.12 379.084L302.656 379.214L302.191 379.342C302.037 379.385 301.878 379.41 301.721 379.446C301.405 379.512 301.09 379.584 300.77 379.632C299.492 379.842 298.183 379.917 296.873 379.86C295.566 379.793 294.256 379.602 292.985 379.261C291.716 378.921 290.476 378.461 289.3 377.865C288.709 377.571 288.136 377.239 287.577 376.878C287.297 376.697 287.02 376.51 286.748 376.304C286.612 376.203 286.475 376.098 286.338 375.988C286.269 375.935 286.198 375.874 286.129 375.817L286.02 375.723L285.889 375.606C285.037 374.844 284.965 373.536 285.726 372.684C286.468 371.858 287.725 371.765 288.576 372.461L288.702 372.564V372.564Z" fill="#0F156D"/>
				<path id="Vector_21" d="M323.992 346.663C323.817 346.663 323.641 346.639 323.464 346.593C322.359 346.303 321.698 345.174 321.986 344.069C322.007 343.99 323.989 336.012 319.487 330.203C316.137 325.881 309.993 323.689 301.23 323.689C300.087 323.689 299.16 322.762 299.16 321.619C299.16 320.474 300.087 319.546 301.23 319.546C311.364 319.546 318.616 322.29 322.788 327.699C328.527 335.142 326.1 344.714 325.994 345.117C325.75 346.047 324.911 346.663 323.992 346.663V346.663Z" fill="#0F156D"/>
				<path id="Vector_22" d="M397.263 375.606L397.13 375.723L397.022 375.817C396.953 375.874 396.882 375.935 396.814 375.988C396.677 376.099 396.541 376.203 396.403 376.304C396.131 376.51 395.855 376.697 395.574 376.878C395.015 377.239 394.442 377.571 393.851 377.865C392.676 378.461 391.434 378.921 390.166 379.261C388.893 379.602 387.584 379.794 386.278 379.86C384.969 379.917 383.659 379.843 382.383 379.632C382.062 379.584 381.746 379.512 381.431 379.447C381.274 379.41 381.114 379.385 380.959 379.342L380.495 379.214L380.032 379.085L379.801 379.019L379.574 378.942L378.67 378.63C378.373 378.521 378.084 378.39 377.79 378.272L377.351 378.091C377.208 378.028 377.068 377.951 376.928 377.883C376.646 377.74 376.365 377.602 376.087 377.46C375.812 377.307 375.545 377.142 375.276 376.985C373.143 375.689 371.275 374.053 369.764 372.145C369.696 372.059 369.71 371.933 369.797 371.863C369.862 371.813 369.949 371.808 370.017 371.846C372.132 372.996 374.202 374.065 376.322 374.876C376.589 374.976 376.848 375.085 377.115 375.179C377.383 375.263 377.647 375.356 377.913 375.443C378.047 375.485 378.177 375.535 378.312 375.573L378.714 375.684C378.983 375.756 379.247 375.84 379.517 375.903C380.593 376.158 381.679 376.304 382.756 376.379C383.835 376.447 384.911 376.391 385.963 376.247C387.019 376.111 388.052 375.859 389.057 375.523C390.058 375.187 391.03 374.755 391.951 374.249C392.414 373.992 392.862 373.717 393.293 373.428C393.51 373.281 393.719 373.132 393.923 372.982C394.024 372.907 394.122 372.83 394.217 372.755L394.449 372.564L394.571 372.464C395.456 371.74 396.76 371.87 397.484 372.753C398.187 373.612 398.081 374.871 397.263 375.606V375.606Z" fill="#0F156D"/>
				<path id="Vector_23" d="M359.161 346.663C358.241 346.663 357.403 346.047 357.158 345.117C357.052 344.714 354.624 335.142 360.363 327.699C364.536 322.29 371.788 319.546 381.922 319.546C383.065 319.546 383.993 320.474 383.993 321.619C383.993 322.762 383.065 323.689 381.922 323.689C373.139 323.689 366.991 325.889 363.644 330.229C359.135 336.077 361.143 343.984 361.166 344.063C361.457 345.17 360.794 346.302 359.688 346.593C359.511 346.639 359.334 346.663 359.161 346.663V346.663Z" fill="#0F156D"/>
				<path id="Vector_24" d="M359.161 342.521C359.428 342.521 359.696 342.573 359.949 342.676C360.578 342.935 361.041 343.486 361.186 344.15C361.275 344.562 363.341 354.425 359.485 368.275C357.208 376.456 360.679 391.718 368.733 399.9C373.469 404.711 378.981 406.337 385.113 404.734C389.849 403.495 393.049 401.099 394.891 397.406C399.389 388.397 393.993 375.005 393.939 374.871C393.648 374.162 393.773 373.35 394.263 372.761C404.046 360.989 407.031 348.06 403.129 334.334C400.743 325.935 396.417 319.827 394.863 317.815H288.29C286.728 319.846 282.349 326.04 279.982 334.479C276.144 348.154 279.141 361.033 288.889 372.761C289.379 373.35 289.503 374.162 289.213 374.871C289.159 375.003 283.772 388.436 288.266 397.416C290.109 401.103 293.307 403.497 298.037 404.734C304.171 406.337 309.683 404.711 314.419 399.9C322.472 391.718 325.944 376.456 323.667 368.275C319.811 354.425 321.876 344.562 321.965 344.15C322.111 343.485 322.574 342.931 323.205 342.672C323.837 342.415 324.555 342.483 325.124 342.857C325.187 342.897 331.817 347.117 341.577 347.117C351.336 347.117 357.966 342.897 358.032 342.854C358.373 342.634 358.765 342.521 359.161 342.521V342.521ZM380.663 409.474C375.195 409.474 370.125 407.217 365.781 402.805C356.498 393.374 352.909 376.455 355.494 367.166C357.9 358.52 357.814 351.494 357.498 347.815C354.353 349.27 348.741 351.26 341.577 351.26C334.411 351.26 328.799 349.27 325.652 347.815C325.338 351.492 325.251 358.52 327.657 367.166C330.243 376.455 326.654 393.374 317.371 402.805C313.027 407.217 307.957 409.474 302.49 409.474C300.695 409.474 298.859 409.23 296.991 408.74C291.113 407.204 286.928 404.014 284.553 399.257C280.027 390.189 283.605 378.24 284.938 374.469C279.512 367.671 276.114 360.375 274.829 352.773C273.753 346.394 274.158 339.81 276.036 333.2C279.214 322.019 285.464 314.695 285.729 314.389C286.122 313.935 286.694 313.672 287.296 313.672H395.856C396.458 313.672 397.031 313.935 397.423 314.389C397.687 314.695 403.938 322.019 407.115 333.2C408.993 339.81 409.4 346.394 408.323 352.773C407.039 360.375 403.64 367.671 398.212 374.469C399.549 378.24 403.124 390.189 398.599 399.257C396.222 404.014 392.039 407.204 386.161 408.74C384.292 409.23 382.457 409.474 380.663 409.474V409.474Z" fill="#0F156D"/>
				<path id="Vector_25" d="M396.044 324.104H287.113C287.113 324.104 236.759 318.903 252.741 274.689C268.714 230.466 300.303 215.79 300.303 215.79L319.928 214.906L341.578 213.929L363.353 214.914L382.854 215.79C382.854 215.79 411.712 229.198 428.218 269.02C428.218 269.02 428.233 269.059 428.272 269.145C428.295 269.216 428.327 269.286 428.358 269.356C428.412 269.489 428.475 269.654 428.554 269.857C429.203 271.428 429.821 273.038 430.414 274.689C446.388 318.903 396.044 324.104 396.044 324.104V324.104Z" fill="#F9A429"/>
				<path id="Vector_26" d="M412.688 317.191C412.019 313.794 409.018 311.226 405.429 311.226H405.048C405.772 310.185 406.28 309.008 406.518 307.737L406.983 305.237C425.129 300.126 429.819 289.869 430.325 281.57C432.491 290.728 431.576 298.571 427.578 304.945C423.885 310.84 418.008 314.716 412.688 317.191V317.191Z" fill="#AF733D"/>
				<path id="Vector_27" d="M387.372 258.372C387.372 285.635 366.896 307.73 341.632 307.73C316.371 307.73 295.893 285.635 295.893 258.372C295.893 239.582 305.619 223.242 319.928 214.906L341.578 213.929L363.353 214.914C377.654 223.257 387.372 239.591 387.372 258.372Z" fill="white"/>
				<path id="Vector_28" d="M268.915 316.436C264.033 313.952 258.912 310.272 255.573 304.945C250.705 297.178 250.406 287.234 254.686 275.388C257.707 267.029 261.304 259.769 265.084 253.525L265.948 258.156C263.139 263.345 260.515 269.099 258.213 275.47C250.347 297.234 258.554 309.545 268.915 316.436V316.436ZM288.984 228.52H285.744C290.54 224.284 294.745 221.416 297.549 219.699C298.237 219.863 298.933 220.023 299.636 220.179C296.759 222.094 293.064 224.829 288.984 228.52Z" fill="#FCD69E"/>
				<path id="Vector_29" d="M377.616 294.051L377.78 293.866L377.93 293.704C378.028 293.596 378.128 293.489 378.227 293.391C378.422 293.185 378.62 292.985 378.819 292.789C379.216 292.396 379.62 292.017 380.033 291.649C380.856 290.912 381.693 290.192 382.568 289.527C382.998 289.184 383.446 288.865 383.884 288.533C384.331 288.216 384.776 287.891 385.23 287.586C385.692 287.285 386.143 286.976 386.612 286.687C387.078 286.401 387.538 286.1 388.016 285.828L388.727 285.413C388.965 285.277 389.202 285.135 389.445 285.009C389.93 284.754 390.41 284.486 390.9 284.241C391.394 284 391.883 283.751 392.378 283.516L393.882 282.842C394.894 282.417 395.911 282.004 396.948 281.644L397.724 281.367L398.506 281.116L399.293 280.871L399.686 280.749L400.084 280.641L401.672 280.211C402.205 280.085 402.742 279.97 403.276 279.851C403.808 279.721 404.35 279.634 404.89 279.536L405.699 279.392C405.832 279.37 405.967 279.342 406.103 279.323L406.51 279.269L408.138 279.06C408.682 279 409.228 278.965 409.772 278.916L410.589 278.849C410.862 278.837 411.134 278.831 411.408 278.822C411.954 278.805 412.499 278.789 413.044 278.782C413.59 278.797 414.133 278.809 414.678 278.833L415.493 278.867C415.764 278.887 416.035 278.916 416.307 278.941C416.848 278.993 417.387 279.048 417.927 279.108C418.464 279.18 418.999 279.278 419.534 279.366C420.604 279.527 421.656 279.802 422.701 280.062C423.225 280.183 423.738 280.365 424.248 280.532C424.761 280.698 425.27 280.875 425.775 281.062C425.943 281.124 426.027 281.309 425.966 281.478C425.918 281.606 425.797 281.686 425.668 281.689H425.649C424.576 281.704 423.528 281.637 422.478 281.637C422.072 281.64 421.669 281.636 421.267 281.631C420.626 281.624 419.99 281.617 419.35 281.644L417.8 281.673C417.283 281.704 416.767 281.729 416.256 281.753L415.487 281.786L414.718 281.851C414.207 281.896 413.696 281.933 413.185 281.971C412.678 282.034 412.169 282.091 411.662 282.145C411.409 282.174 411.155 282.198 410.902 282.229L410.145 282.344C409.641 282.423 409.137 282.487 408.634 282.575L407.137 282.869C406.636 282.955 406.144 283.09 405.648 283.203C405.154 283.32 404.658 283.427 404.17 283.574L402.705 283.985L401.255 284.452L400.895 284.568L400.535 284.7L399.822 284.96L399.106 285.215L398.4 285.501C397.456 285.867 396.532 286.288 395.607 286.703C393.767 287.552 391.985 288.522 390.244 289.562C389.806 289.815 389.384 290.097 388.952 290.362C388.522 290.632 388.107 290.923 387.684 291.201L386.436 292.068C386.029 292.37 385.611 292.657 385.215 292.97L384.612 293.431L384.02 293.902C383.82 294.056 383.626 294.218 383.431 294.377C383.238 294.538 383.042 294.696 382.854 294.862C382.47 295.188 382.093 295.519 381.725 295.851C381.541 296.017 381.358 296.185 381.181 296.353L380.92 296.604L380.687 296.831L380.606 296.91C379.788 297.709 378.479 297.694 377.678 296.875C376.916 296.092 376.901 294.854 377.616 294.051V294.051Z" fill="#0F156D"/>
				<path id="Vector_30" d="M302.577 296.831L302.345 296.604L302.083 296.353C301.906 296.185 301.725 296.017 301.542 295.851C301.172 295.519 300.795 295.188 300.412 294.862C300.224 294.696 300.027 294.538 299.834 294.377C299.639 294.218 299.446 294.056 299.246 293.902L298.652 293.431L298.051 292.97C297.654 292.657 297.236 292.37 296.83 292.068L295.582 291.201C295.158 290.923 294.744 290.632 294.314 290.362C293.882 290.097 293.459 289.815 293.022 289.562C291.282 288.522 289.499 287.552 287.659 286.703C286.733 286.288 285.809 285.867 284.865 285.501L284.16 285.215L283.444 284.96L282.729 284.7L282.372 284.568L282.01 284.452L280.56 283.985L279.094 283.574C278.607 283.427 278.112 283.32 277.618 283.203C277.121 283.09 276.628 282.955 276.129 282.869L274.631 282.575C274.128 282.487 273.623 282.423 273.12 282.344L272.363 282.229C272.111 282.198 271.856 282.174 271.602 282.145C271.096 282.091 270.589 282.034 270.08 281.971C269.571 281.933 269.059 281.896 268.547 281.851L267.78 281.786L267.011 281.753C266.498 281.729 265.983 281.704 265.465 281.673L263.915 281.644C263.276 281.617 262.639 281.624 261.998 281.631C261.597 281.636 261.193 281.64 260.788 281.637C259.738 281.637 258.69 281.704 257.617 281.689H257.598C257.42 281.686 257.279 281.538 257.279 281.36C257.283 281.222 257.37 281.107 257.49 281.062C257.996 280.875 258.503 280.698 259.016 280.532C259.528 280.365 260.041 280.183 260.565 280.062C261.609 279.802 262.662 279.527 263.731 279.366C264.266 279.278 264.8 279.18 265.338 279.108C265.878 279.048 266.417 278.993 266.959 278.941C267.231 278.916 267.502 278.887 267.771 278.867L268.588 278.833C269.132 278.809 269.677 278.797 270.222 278.782C270.767 278.789 271.313 278.805 271.858 278.822C272.132 278.831 272.404 278.837 272.678 278.849L273.494 278.916C274.039 278.965 274.583 279 275.127 279.06L276.756 279.269L277.162 279.323C277.298 279.342 277.433 279.37 277.567 279.392L278.376 279.536C278.915 279.634 279.458 279.721 279.99 279.851C280.525 279.97 281.061 280.085 281.594 280.211L283.183 280.641L283.58 280.749L283.972 280.871L284.757 281.116L285.543 281.367L286.317 281.644C287.354 282.004 288.372 282.417 289.384 282.842L290.887 283.516C291.382 283.751 291.872 284 292.365 284.241C292.856 284.486 293.335 284.754 293.821 285.009C294.065 285.135 294.302 285.277 294.538 285.413L295.25 285.828C295.726 286.1 296.186 286.401 296.655 286.687C297.121 286.976 297.573 287.285 298.033 287.586C298.491 287.891 298.934 288.216 299.382 288.533C299.82 288.865 300.267 289.184 300.697 289.527C301.572 290.192 302.407 290.912 303.233 291.649C303.644 292.017 304.049 292.396 304.446 292.789C304.645 292.985 304.842 293.185 305.039 293.391C305.137 293.489 305.238 293.596 305.335 293.704L305.484 293.866L305.649 294.051C306.41 294.903 306.338 296.212 305.484 296.973C304.671 297.702 303.436 297.665 302.665 296.915L302.577 296.831V296.831Z" fill="#0F156D"/>
				<path id="Vector_31" d="M287.228 322.035H395.924C396.702 321.944 402.093 321.244 408.402 318.956C414.542 316.73 422.847 312.492 427.578 304.946C432.446 297.179 432.744 287.234 428.464 275.389C420.383 253.023 408.181 238.525 399.367 230.302C390.951 222.448 383.935 218.659 382.323 217.84L341.576 216.005L300.828 217.84C299.221 218.657 292.203 222.447 283.783 230.302C274.969 238.525 262.77 253.023 254.686 275.389C250.406 287.234 250.705 297.179 255.573 304.946C260.302 312.492 268.612 316.73 274.747 318.956C281.057 321.244 286.445 321.942 287.228 322.035V322.035ZM396.041 326.179H287.11C287.038 326.179 286.969 326.173 286.896 326.168C286.647 326.141 280.693 325.504 273.443 322.89C263.72 319.384 256.331 313.945 252.073 307.163C246.485 298.259 246.053 287.094 250.791 273.981C254.494 263.73 259.343 254.2 265.202 245.658C269.897 238.813 275.245 232.582 281.102 227.138C291.119 217.826 299.093 214.066 299.428 213.912C299.674 213.798 299.938 213.731 300.209 213.719L341.482 211.861C341.545 211.86 341.608 211.86 341.667 211.861L382.943 213.719C383.213 213.731 383.478 213.798 383.722 213.912C384.057 214.066 392.03 217.826 402.05 227.138C407.906 232.582 413.254 238.813 417.948 245.658C423.808 254.2 428.656 263.73 432.362 273.981C437.099 287.094 436.666 298.259 431.077 307.163C426.821 313.945 419.43 319.384 409.709 322.89C402.459 325.504 396.505 326.141 396.255 326.168C396.184 326.173 396.112 326.179 396.041 326.179V326.179Z" fill="#0F156D"/>
				<path id="Vector_32" d="M410.755 318.622V320.821C410.755 325.855 406.669 329.939 401.638 329.939H281.629C278.698 329.939 276.099 328.559 274.429 326.409C273.225 324.866 272.51 322.925 272.51 320.821V318.622C272.51 315.683 274.895 313.3 277.84 313.3H405.426C408.37 313.3 410.755 315.683 410.755 318.622V318.622Z" fill="#C0C6D8"/>
				<path id="Vector_33" d="M398.114 327.869H317.223C326.654 324.542 334.681 320.089 341.106 315.747H389.465C389.544 315.747 389.625 315.745 389.702 315.744H395.968C396.994 315.744 397.99 315.615 398.935 315.37H403.184C402.178 320.763 400.27 324.828 398.114 327.869V327.869Z" fill="#878BB7"/>
				<path id="Vector_34" d="M277.837 315.369C276.041 315.369 274.582 316.828 274.582 318.624V320.817C274.582 324.705 277.744 327.868 281.63 327.868H401.635C405.522 327.868 408.683 324.705 408.683 320.817V318.624C408.683 316.828 407.224 315.369 405.429 315.369H277.837V315.369ZM401.635 332.009H281.63C275.459 332.009 270.439 326.988 270.439 320.817V318.624C270.439 314.544 273.757 311.226 277.837 311.226H405.429C409.509 311.226 412.827 314.544 412.827 318.624V320.817C412.827 326.988 407.807 332.009 401.635 332.009V332.009Z" fill="#0F156D"/>
				<path id="Vector_35" d="M395.968 315.744H287.295C282.069 315.744 277.61 312.358 276.748 307.737L264.068 239.686C262.981 233.842 268.008 228.521 274.618 228.521H408.648C415.258 228.521 420.285 233.842 419.196 239.686L406.518 307.737C405.656 312.358 401.195 315.744 395.968 315.744V315.744Z" fill="#1698F9"/>
				<path id="Vector_36" d="M341.106 315.746H287.298C287.219 315.746 287.14 315.745 287.061 315.743H294.67H341.108C341.107 315.745 341.106 315.745 341.106 315.746Z" fill="#878BB7"/>
				<path id="Vector_37" d="M389.465 315.746H341.106C341.106 315.745 341.107 315.745 341.108 315.743H389.702C389.625 315.745 389.544 315.746 389.465 315.746Z" fill="#5F62A0"/>
				<path id="Vector_38" d="M397.408 228.521H386.18C386.179 228.521 386.176 228.52 386.175 228.517H397.403C397.404 228.52 397.405 228.52 397.408 228.521V228.521Z" fill="#AF733D"/>
				<path id="Vector_39" d="M402.432 228.521H397.408C397.405 228.52 397.403 228.52 397.402 228.517H402.148C402.243 228.517 402.337 228.52 402.432 228.521Z" fill="#0B106C"/>
				<path id="Vector_40" d="M389.702 315.743H294.67C292.112 315.743 289.737 314.932 287.876 313.56H366.714C371.947 313.56 376.407 310.174 377.27 305.55L389.944 237.499C390.222 236.009 390.099 234.554 389.656 233.212H408.648C409.667 233.212 410.648 233.338 411.574 233.575C412.649 235.368 413.103 237.488 412.694 239.682L400.021 307.736C399.171 312.289 394.833 315.644 389.702 315.743V315.743Z" fill="#106BCE"/>
				<path id="Vector_41" d="M263.962 247.505L262.506 239.686C261.417 233.842 266.445 228.521 273.053 228.521H274.619C268.008 228.521 262.981 233.842 264.069 239.686L265.187 245.681C264.773 246.285 264.365 246.892 263.962 247.505V247.505ZM419.036 240.553L419.197 239.686C420.285 233.842 415.258 228.521 408.648 228.521C415.258 228.521 420.285 233.842 419.197 239.686L419.036 240.553Z" fill="#FFE8E1"/>
				<path id="Vector_42" d="M276.714 311.312C275.958 310.252 275.428 309.042 275.185 307.737L270.39 282.007C270.794 282.056 271.2 282.101 271.603 282.145C271.732 282.158 271.86 282.172 271.988 282.185L276.748 307.737C276.985 309.008 277.494 310.185 278.218 311.227H277.837C277.455 311.227 277.079 311.255 276.714 311.312V311.312ZM271.358 278.806C270.979 278.795 270.601 278.786 270.223 278.782C270.078 278.786 269.934 278.789 269.793 278.794L265.948 258.157C266.333 257.442 266.725 256.739 267.117 256.046L271.358 278.806V278.806Z" fill="#FCD69E"/>
				<path id="Vector_43" d="M265.948 258.157L265.083 253.526C265.482 252.867 265.882 252.218 266.287 251.584L267.117 256.046C266.725 256.739 266.333 257.443 265.948 258.157Z" fill="#FEEDD3"/>
				<path id="Vector_44" d="M271.988 282.186C271.86 282.172 271.732 282.159 271.603 282.145C271.2 282.102 270.794 282.057 270.39 282.008L269.792 278.794C269.934 278.789 270.078 278.786 270.223 278.782C270.601 278.786 270.979 278.796 271.358 278.807L271.988 282.186V282.186Z" fill="#9395BD"/>
				<path id="Vector_45" d="M265.083 253.526L263.962 247.505C264.365 246.892 264.773 246.285 265.187 245.681L266.286 251.584C265.882 252.218 265.482 252.867 265.083 253.526V253.526Z" fill="#9395BD"/>
				<path id="Vector_46" d="M287.061 315.744H285.732C284.707 315.744 283.712 315.615 282.768 315.37H284.329C285.201 315.597 286.118 315.726 287.061 315.744V315.744Z" fill="#E3E5ED"/>
				<path id="Vector_47" d="M284.329 315.369H282.768C280.255 314.718 278.105 313.266 276.714 311.312C277.079 311.255 277.454 311.226 277.837 311.226H278.218C279.558 313.153 281.633 314.607 284.067 315.298C284.154 315.322 284.241 315.346 284.329 315.369V315.369Z" fill="#9395BD"/>
				<path id="Vector_48" d="M284.067 315.299C281.633 314.607 279.559 313.154 278.218 311.227C277.494 310.186 276.985 309.008 276.748 307.737L271.988 282.186L271.357 278.806L267.117 256.046L266.287 251.583L265.187 245.681L264.068 239.686C262.981 233.842 268.008 228.521 274.618 228.521H386.18C387.82 229.732 389.045 231.365 389.656 233.212H274.598C273.305 233.215 272.184 234.093 271.764 235.315C271.295 236.68 271.16 238.165 271.443 239.686L284.122 307.737C284.561 310.096 285.939 312.132 287.877 313.561H280.506C281.551 314.33 282.758 314.924 284.067 315.299V315.299ZM419.036 240.553C418.139 237.23 415.296 234.521 411.574 233.576C409.825 230.662 406.433 228.615 402.432 228.521H408.648C415.258 228.521 420.285 233.842 419.196 239.686L419.036 240.553Z" fill="#96D1FC"/>
				<path id="Vector_49" d="M294.67 315.744H287.061C286.118 315.726 285.201 315.597 284.329 315.37H284.33C285.274 315.615 286.271 315.744 287.295 315.744H294.67V315.744Z" fill="#C9CBDF"/>
				<path id="Vector_50" d="M284.329 315.369H284.328C284.241 315.346 284.154 315.323 284.067 315.299C284.154 315.323 284.241 315.346 284.329 315.369Z" fill="#9193BD"/>
				<path id="Vector_51" d="M294.67 315.744H287.295C286.271 315.744 285.274 315.614 284.33 315.369C284.241 315.346 284.154 315.323 284.067 315.299C282.758 314.924 281.551 314.33 280.506 313.561H287.876C289.737 314.933 292.112 315.744 294.67 315.744V315.744ZM411.574 233.576C410.648 233.339 409.667 233.212 408.648 233.212H389.656C389.045 231.365 387.82 229.732 386.18 228.521H402.432C406.433 228.615 409.825 230.662 411.574 233.576Z" fill="#93BCE9"/>
				<path id="Vector_52" d="M274.618 230.592C271.822 230.592 269.277 231.728 267.63 233.709C266.279 235.336 265.736 237.325 266.104 239.306L278.784 307.357C279.466 311.017 283.045 313.673 287.296 313.673H395.969C400.221 313.673 403.8 311.017 404.482 307.357L417.16 239.306C417.529 237.325 416.988 235.336 415.636 233.709C413.99 231.728 411.443 230.592 408.648 230.592H274.618V230.592ZM395.969 317.815H287.296C281.052 317.815 275.758 313.736 274.712 308.117L262.032 240.064C261.434 236.85 262.29 233.653 264.444 231.062C266.879 228.131 270.587 226.451 274.618 226.451H408.648C412.679 226.451 416.386 228.131 418.821 231.062C420.975 233.653 421.831 236.85 421.232 240.064L408.554 308.117C407.507 313.736 402.215 317.815 395.969 317.815Z" fill="#0F156D"/>
				<path id="Vector_53" d="M431.793 191.645C419.47 209.691 393.455 224.234 341.632 224.234H341.574C290.42 224.229 264.427 210.037 251.929 192.29C247.21 185.604 244.418 178.408 242.911 171.281C237.753 146.833 247.782 123.131 247.782 123.131C240.765 75.3513 250.766 44.5914 256.829 31.246C259.283 25.8267 265.361 22.9919 271.055 24.689C292.655 31.0963 314.31 60.6627 314.31 60.6627C327.67 56.5989 341.632 56.863 341.632 56.863C341.632 56.863 355.595 56.5989 368.954 60.6627C368.954 60.6627 390.611 31.0963 412.209 24.689C417.905 22.9919 423.981 25.8267 426.436 31.246C432.499 44.5914 442.501 75.3513 435.483 123.131C435.483 123.131 451.972 162.094 431.793 191.645V191.645Z" fill="#F9A429"/>
				<path id="Vector_54" d="M436.092 181.583C434.931 185.146 433.482 188.498 431.793 191.644C419.47 209.691 393.455 224.234 341.632 224.234H341.574C290.42 224.228 264.427 210.036 251.929 192.29C250.01 188.946 248.4 185.383 247.172 181.583C247.172 181.583 241.177 161.381 252.009 148.735C262.847 136.088 277.848 141.473 284.651 151.284C291.462 161.095 307.16 159.258 315.634 152.534C324.106 145.809 330.822 142.203 341.632 142.203C352.443 142.203 359.158 145.809 367.632 152.534C376.106 159.258 391.802 161.095 398.613 151.284C405.418 141.473 420.417 136.088 431.255 148.735C442.087 161.381 436.092 181.583 436.092 181.583Z" fill="white"/>
				<path id="Vector_55" d="M354.912 153.832C354.672 150.523 350.877 148.86 347.407 148.029C343.617 147.119 339.648 147.119 335.859 148.029C332.387 148.86 328.595 150.523 328.354 153.832C328.039 158.129 334.599 161.114 338.614 162.531C340.571 163.222 342.694 163.222 344.652 162.531C348.666 161.114 355.227 158.129 354.912 153.832Z" fill="#03036B"/>
				<path id="Vector_56" d="M348.881 151.132C348.881 151.818 345.661 152.376 341.686 152.376C337.712 152.376 334.492 151.818 334.492 151.132C334.492 150.441 337.712 149.881 341.686 149.881C345.661 149.881 348.881 150.441 348.881 151.132Z" fill="white"/>
				<path id="Vector_57" d="M267.484 90.6877C272.962 85.9761 282.408 78.5317 294.046 72.1231C295.493 71.3256 296.12 69.5781 295.525 68.0389C292.783 60.9266 280.059 44.5191 273.132 42C262.841 38.2561 261.68 73.5983 262.016 88.257C262.081 91.0538 265.364 92.5127 267.484 90.6877V90.6877Z" fill="#FF5FAF"/>
				<path id="Vector_58" d="M415.782 90.6877C410.304 85.9761 400.856 78.5317 389.219 72.1231C387.772 71.3256 387.146 69.5781 387.74 68.0389C390.482 60.9266 403.204 44.5191 410.132 42C420.424 38.2561 421.586 73.5983 421.25 88.257C421.183 91.0538 417.902 92.5127 415.782 90.6877V90.6877Z" fill="#FF5FAF"/>
				<path id="Vector_59" d="M292.12 218.273C272.035 212.495 259.505 203.047 251.929 192.29C247.21 185.604 244.418 178.408 242.911 171.281C242.413 168.919 242.057 166.561 241.818 164.233C242.057 166.561 242.413 168.917 242.911 171.281C244.418 178.408 247.21 185.604 251.929 192.29C259.505 203.047 272.035 212.495 292.12 218.273Z" fill="#B38FA4"/>
				<path id="Vector_60" d="M431.827 191.597C431.83 191.59 431.833 191.586 431.838 191.58C431.833 191.586 431.83 191.59 431.827 191.597ZM431.86 191.548C431.864 191.541 431.867 191.535 431.872 191.529C431.867 191.534 431.864 191.542 431.86 191.548ZM431.893 191.497C431.897 191.493 431.902 191.485 431.905 191.48C431.901 191.485 431.897 191.492 431.893 191.497ZM431.927 191.448C431.932 191.441 431.935 191.437 431.939 191.429C431.935 191.435 431.929 191.443 431.927 191.448ZM431.97 191.383C431.974 191.379 431.976 191.376 431.978 191.373C431.976 191.376 431.974 191.379 431.97 191.383ZM432.003 191.335C432.008 191.327 432.011 191.323 432.017 191.315C432.011 191.323 432.008 191.33 432.003 191.335ZM432.037 191.285C432.041 191.279 432.046 191.271 432.051 191.265C432.046 191.271 432.041 191.279 432.037 191.285ZM432.068 191.24C432.072 191.232 432.079 191.222 432.083 191.214C432.079 191.222 432.072 191.232 432.068 191.24ZM432.101 191.191C432.108 191.177 432.116 191.165 432.125 191.152C432.117 191.165 432.108 191.179 432.101 191.191ZM432.146 191.123C432.153 191.113 432.157 191.105 432.164 191.097C432.157 191.105 432.153 191.113 432.146 191.123ZM432.177 191.075C432.184 191.066 432.188 191.058 432.195 191.049C432.188 191.058 432.184 191.066 432.177 191.075ZM432.208 191.028C432.215 191.018 432.221 191.009 432.227 191C432.221 191.01 432.215 191.015 432.208 191.028ZM432.241 190.977C432.248 190.969 432.252 190.96 432.257 190.954C432.252 190.961 432.248 190.968 432.241 190.977ZM432.274 190.927C432.287 190.911 432.296 190.894 432.309 190.877C432.296 190.894 432.287 190.911 432.274 190.927ZM432.319 190.862C432.325 190.851 432.332 190.84 432.339 190.829C432.332 190.84 432.325 190.851 432.319 190.862ZM432.349 190.814C432.355 190.803 432.364 190.795 432.369 190.783C432.362 190.795 432.355 190.803 432.349 190.814ZM432.38 190.768C432.387 190.757 432.395 190.746 432.4 190.735C432.395 190.746 432.387 190.757 432.38 190.768ZM432.408 190.724C432.432 190.687 432.457 190.649 432.481 190.613C432.457 190.651 432.432 190.686 432.408 190.724ZM432.49 190.599C432.497 190.587 432.502 190.579 432.512 190.566C432.504 190.577 432.497 190.588 432.49 190.599ZM432.52 190.551C432.527 190.54 432.534 190.53 432.542 190.519C432.534 190.53 432.527 190.54 432.52 190.551ZM432.55 190.506C432.585 190.452 432.617 190.402 432.653 190.347C432.618 190.4 432.584 190.453 432.55 190.506ZM432.659 190.338C432.666 190.327 432.675 190.312 432.681 190.301C432.675 190.312 432.666 190.327 432.659 190.338ZM432.689 190.291C432.696 190.279 432.702 190.267 432.711 190.256C432.702 190.267 432.696 190.279 432.689 190.291ZM432.719 190.244C432.753 190.189 432.787 190.134 432.824 190.079C432.788 190.134 432.753 190.189 432.719 190.244ZM432.825 190.076C432.834 190.063 432.841 190.048 432.851 190.034C432.841 190.048 432.834 190.063 432.825 190.076ZM432.851 190.034C436.528 184.215 438.848 178.072 440.207 171.962C438.848 178.072 436.528 184.213 432.851 190.034ZM440.209 171.957C440.212 171.942 440.215 171.93 440.218 171.915C440.215 171.93 440.212 171.942 440.209 171.957ZM440.22 171.912C440.233 171.855 440.245 171.798 440.257 171.739C440.245 171.798 440.233 171.855 440.22 171.912ZM440.26 171.726C440.262 171.716 440.265 171.704 440.267 171.694C440.265 171.705 440.262 171.715 440.26 171.726ZM440.272 171.674C440.272 171.664 440.276 171.653 440.277 171.644C440.276 171.653 440.272 171.664 440.272 171.674ZM440.282 171.622C440.284 171.615 440.287 171.603 440.288 171.596C440.287 171.606 440.284 171.614 440.282 171.622ZM440.295 171.566C440.298 171.55 440.301 171.538 440.305 171.523C440.301 171.538 440.298 171.55 440.295 171.566ZM440.309 171.498C440.311 171.489 440.314 171.481 440.314 171.471C440.314 171.481 440.311 171.489 440.309 171.498ZM440.32 171.445C440.322 171.437 440.322 171.432 440.326 171.422C440.324 171.43 440.321 171.438 440.32 171.445ZM440.332 171.389C440.333 171.384 440.335 171.378 440.335 171.372C440.335 171.378 440.333 171.384 440.332 171.389ZM440.344 171.332C440.347 171.327 440.347 171.324 440.347 171.321C440.347 171.324 440.347 171.327 440.344 171.332ZM440.37 171.217C440.37 171.21 440.371 171.207 440.373 171.2C440.371 171.206 440.37 171.211 440.37 171.217ZM440.381 171.163C440.381 171.158 440.382 171.154 440.384 171.148C440.382 171.154 440.381 171.158 440.381 171.163ZM440.392 171.106C440.393 171.104 440.393 171.098 440.394 171.097C440.393 171.101 440.393 171.102 440.392 171.106ZM440.416 170.989C440.416 170.988 440.416 170.985 440.416 170.982C440.416 170.985 440.416 170.988 440.416 170.989ZM440.427 170.935C440.427 170.932 440.427 170.932 440.43 170.928C440.427 170.929 440.427 170.933 440.427 170.935ZM440.438 170.88C440.438 170.878 440.441 170.875 440.441 170.874C440.441 170.875 440.438 170.878 440.438 170.88ZM241.818 164.231C241.816 164.208 241.814 164.186 241.81 164.161C241.814 164.186 241.816 164.208 241.818 164.231ZM241.81 164.16C241.809 164.138 241.806 164.116 241.805 164.095C241.806 164.116 241.809 164.138 241.81 164.16ZM241.803 164.088C241.801 164.066 241.799 164.046 241.797 164.027C241.799 164.046 241.801 164.066 241.803 164.088ZM241.797 164.016C241.795 163.997 241.791 163.976 241.79 163.957C241.791 163.976 241.795 163.998 241.797 164.016ZM241.788 163.945C241.787 163.925 241.786 163.906 241.784 163.886C241.786 163.906 241.787 163.925 241.788 163.945ZM241.783 163.874C241.782 163.855 241.779 163.839 241.778 163.821C241.779 163.839 241.782 163.855 241.783 163.874ZM241.775 163.801C241.774 163.786 241.771 163.768 241.771 163.75C241.771 163.768 241.774 163.783 241.775 163.801ZM241.768 163.729C241.767 163.714 241.765 163.699 241.764 163.685C241.765 163.699 241.767 163.715 241.768 163.729ZM241.763 163.656C241.76 163.643 241.759 163.631 241.757 163.617C241.759 163.631 241.76 163.643 241.763 163.656ZM241.754 163.584C241.754 163.572 241.753 163.561 241.752 163.549C241.753 163.56 241.754 163.572 241.754 163.584ZM241.748 163.512C241.746 163.503 241.746 163.49 241.745 163.48C241.746 163.493 241.746 163.5 241.748 163.512ZM241.742 163.443C241.739 163.433 241.739 163.422 241.738 163.413C241.739 163.422 241.739 163.432 241.742 163.443ZM241.735 163.369C241.734 163.361 241.734 163.353 241.733 163.346C241.734 163.353 241.734 163.361 241.735 163.369ZM241.73 163.299C241.727 163.292 241.727 163.285 241.727 163.277C241.727 163.285 241.727 163.292 241.73 163.299ZM241.723 163.226C241.722 163.221 241.722 163.216 241.722 163.21C241.722 163.216 241.722 163.221 241.723 163.226ZM241.716 163.156C241.715 163.152 241.715 163.147 241.715 163.142C241.715 163.147 241.715 163.152 241.716 163.156ZM241.711 163.082C241.711 163.079 241.711 163.079 241.71 163.077C241.71 163.078 241.711 163.081 241.711 163.082ZM241.704 163.013C241.704 163.011 241.704 163.01 241.704 163.007C241.704 163.01 241.704 163.011 241.704 163.013Z" fill="#B38FA4"/>
				<path id="Vector_61" d="M251.929 192.29C247.21 185.604 244.418 178.408 242.911 171.281C242.413 168.917 242.056 166.561 241.818 164.233C241.818 164.231 241.818 164.231 241.818 164.23C241.816 164.207 241.814 164.185 241.81 164.161V164.159C241.809 164.137 241.806 164.116 241.805 164.094C241.805 164.091 241.805 164.09 241.803 164.087C241.801 164.065 241.799 164.045 241.797 164.026C241.797 164.022 241.797 164.019 241.797 164.015C241.795 163.997 241.791 163.975 241.79 163.956C241.79 163.954 241.79 163.947 241.788 163.944C241.787 163.924 241.786 163.905 241.784 163.886C241.783 163.882 241.783 163.877 241.783 163.873C241.782 163.854 241.779 163.838 241.777 163.82C241.776 163.812 241.776 163.807 241.775 163.8C241.773 163.782 241.771 163.767 241.771 163.75C241.771 163.744 241.768 163.736 241.768 163.728C241.767 163.714 241.765 163.698 241.764 163.684C241.764 163.675 241.763 163.665 241.763 163.656C241.76 163.642 241.758 163.63 241.757 163.616C241.757 163.605 241.756 163.593 241.754 163.583C241.754 163.571 241.753 163.559 241.752 163.548C241.752 163.536 241.75 163.524 241.748 163.511C241.746 163.499 241.746 163.492 241.745 163.479C241.743 163.466 241.743 163.454 241.742 163.442C241.739 163.431 241.739 163.422 241.738 163.412C241.737 163.396 241.737 163.382 241.735 163.368C241.734 163.36 241.734 163.352 241.733 163.345C241.733 163.329 241.731 163.314 241.73 163.298C241.727 163.291 241.727 163.284 241.727 163.276C241.726 163.258 241.724 163.242 241.723 163.226C241.722 163.22 241.722 163.215 241.722 163.209C241.72 163.192 241.719 163.173 241.716 163.155C241.715 163.151 241.715 163.147 241.715 163.141C241.714 163.121 241.712 163.1 241.711 163.081C241.711 163.08 241.709 163.077 241.709 163.076C241.707 163.055 241.705 163.032 241.704 163.012C241.704 163.011 241.704 163.009 241.704 163.006C240.924 153.809 241.958 145.106 243.382 138.191C242.982 144.378 243.216 151.136 244.655 157.957C245.007 159.616 245.429 161.284 245.93 162.944C244.521 172.65 247.172 181.583 247.172 181.583C248.4 185.383 250.01 188.946 251.929 192.29V192.29ZM431.793 191.645C433.482 188.498 434.932 185.146 436.092 181.583C436.092 181.583 438.744 172.65 437.336 162.948C439.898 154.465 440.381 145.883 439.883 138.187C441.708 147.051 442.892 158.853 440.441 170.873C440.441 170.874 440.438 170.877 440.438 170.879C440.435 170.896 440.432 170.909 440.43 170.927C440.427 170.931 440.427 170.931 440.427 170.934C440.424 170.95 440.422 170.967 440.416 170.982C440.416 170.984 440.416 170.987 440.416 170.988C440.408 171.025 440.401 171.059 440.394 171.096C440.393 171.097 440.393 171.103 440.392 171.105C440.389 171.12 440.385 171.134 440.383 171.148C440.382 171.153 440.381 171.157 440.381 171.163C440.377 171.175 440.374 171.187 440.373 171.199C440.371 171.206 440.37 171.209 440.37 171.216C440.362 171.25 440.354 171.286 440.347 171.32C440.347 171.323 440.347 171.326 440.344 171.331C440.341 171.345 440.339 171.357 440.335 171.371C440.335 171.378 440.333 171.383 440.332 171.388C440.33 171.398 440.328 171.41 440.326 171.421C440.322 171.431 440.322 171.436 440.32 171.444C440.318 171.452 440.317 171.461 440.314 171.47C440.314 171.48 440.311 171.488 440.309 171.497C440.307 171.504 440.306 171.514 440.305 171.522C440.3 171.537 440.298 171.549 440.295 171.565C440.292 171.575 440.29 171.586 440.288 171.595C440.287 171.602 440.284 171.614 440.281 171.621C440.28 171.628 440.279 171.636 440.277 171.643C440.276 171.653 440.272 171.663 440.272 171.673C440.269 171.68 440.268 171.688 440.266 171.693C440.265 171.703 440.262 171.715 440.26 171.725C440.258 171.731 440.257 171.734 440.257 171.738C440.245 171.797 440.232 171.854 440.22 171.911L440.217 171.914C440.215 171.929 440.212 171.941 440.209 171.956C440.209 171.959 440.209 171.961 440.207 171.961C438.848 178.071 436.528 184.214 432.851 190.033C432.841 190.047 432.834 190.062 432.825 190.076C432.825 190.077 432.823 190.078 432.823 190.078C432.787 190.133 432.753 190.189 432.719 190.243C432.715 190.248 432.713 190.251 432.711 190.255C432.702 190.266 432.696 190.278 432.689 190.291C432.686 190.295 432.683 190.296 432.681 190.3C432.675 190.311 432.666 190.326 432.659 190.337C432.657 190.34 432.653 190.342 432.653 190.346C432.617 190.401 432.585 190.451 432.55 190.506C432.546 190.51 432.544 190.514 432.542 190.518C432.534 190.529 432.527 190.54 432.52 190.551C432.517 190.556 432.513 190.56 432.512 190.565C432.502 190.578 432.497 190.586 432.49 190.598C432.487 190.602 432.483 190.608 432.481 190.612C432.457 190.649 432.432 190.687 432.408 190.723C432.406 190.726 432.404 190.73 432.4 190.734C432.395 190.745 432.387 190.756 432.38 190.767C432.376 190.771 432.373 190.776 432.369 190.782C432.363 190.794 432.355 190.802 432.349 190.813C432.346 190.819 432.343 190.824 432.339 190.828C432.332 190.839 432.325 190.85 432.319 190.861C432.314 190.865 432.312 190.872 432.309 190.876C432.295 190.893 432.287 190.91 432.274 190.926C432.27 190.934 432.263 190.945 432.257 190.953C432.252 190.959 432.248 190.968 432.241 190.976C432.238 190.982 432.23 190.991 432.227 191C432.221 191.008 432.215 191.017 432.208 191.027C432.203 191.032 432.199 191.04 432.195 191.049C432.188 191.057 432.184 191.065 432.177 191.074C432.173 191.083 432.168 191.089 432.163 191.096C432.157 191.104 432.153 191.113 432.146 191.122C432.14 191.132 432.132 191.143 432.125 191.151C432.116 191.164 432.108 191.177 432.101 191.19C432.094 191.198 432.09 191.205 432.083 191.213C432.079 191.221 432.072 191.231 432.068 191.239C432.061 191.247 432.057 191.255 432.05 191.264C432.046 191.27 432.041 191.279 432.037 191.284C432.03 191.295 432.022 191.304 432.016 191.314C432.011 191.322 432.008 191.326 432.003 191.334C431.996 191.345 431.986 191.359 431.978 191.373C431.976 191.375 431.974 191.378 431.97 191.382C431.959 191.398 431.95 191.412 431.939 191.428C431.935 191.436 431.932 191.441 431.927 191.447C431.918 191.458 431.913 191.466 431.905 191.479C431.902 191.484 431.897 191.492 431.893 191.496C431.886 191.509 431.88 191.517 431.872 191.528C431.867 191.534 431.864 191.54 431.86 191.547C431.852 191.556 431.844 191.569 431.838 191.579C431.833 191.585 431.83 191.589 431.827 191.596C431.816 191.611 431.805 191.627 431.793 191.645V191.645Z" fill="#AF733D"/>
				<path id="Vector_62" d="M341.632 224.234H341.574C324.126 224.232 309.604 222.58 297.549 219.699C295.68 219.253 293.873 218.776 292.12 218.273C272.035 212.494 259.505 203.047 251.929 192.29C250.01 188.946 248.4 185.383 247.172 181.583C247.172 181.583 244.521 172.65 245.93 162.944C247.542 168.284 249.978 173.584 253.511 178.595C265.792 196.028 291.325 209.968 341.575 209.977H341.632C392.539 209.977 418.094 195.689 430.201 177.959C433.492 173.139 435.793 168.061 437.336 162.948C438.743 172.65 436.092 181.583 436.092 181.583C434.931 185.146 433.482 188.498 431.793 191.645C424.258 202.679 411.606 212.404 391.064 218.295C389.313 218.797 387.5 219.272 385.634 219.718C373.58 222.59 359.067 224.234 341.632 224.234V224.234Z" fill="#B3B3D2"/>
				<path id="Vector_63" d="M368.905 60.6449C368.869 60.6367 368.83 60.6245 368.794 60.6109C368.83 60.6245 368.869 60.6367 368.905 60.6449ZM368.674 60.5769C368.595 60.551 368.517 60.5292 368.44 60.5088C368.517 60.5292 368.595 60.551 368.674 60.5769ZM314.824 60.5088C314.838 60.5047 314.85 60.5006 314.862 60.4966C314.85 60.5006 314.838 60.5047 314.824 60.5088ZM368.422 60.5006C368.339 60.4789 368.255 60.453 368.173 60.4272C368.255 60.453 368.339 60.4789 368.422 60.5006ZM314.864 60.4966C314.876 60.4911 314.891 60.487 314.903 60.483C314.891 60.487 314.876 60.4911 314.864 60.4966ZM315.092 60.4272C315.102 60.4272 315.11 60.4231 315.12 60.419C315.11 60.4231 315.102 60.4272 315.092 60.4272ZM368.146 60.419C368.068 60.3972 367.991 60.3768 367.914 60.355C367.991 60.3768 368.068 60.3972 368.146 60.419ZM315.351 60.355C315.374 60.3469 315.399 60.3387 315.424 60.3332C315.399 60.3387 315.374 60.3469 315.351 60.355ZM367.913 60.355C367.765 60.3128 367.618 60.2706 367.469 60.2271C367.618 60.2706 367.765 60.3128 367.913 60.355ZM315.657 60.2652C315.698 60.257 315.739 60.2448 315.778 60.2312C315.739 60.2448 315.698 60.257 315.657 60.2652ZM367.459 60.223C367.441 60.2189 367.422 60.2148 367.404 60.2108C367.422 60.2148 367.441 60.2189 367.459 60.223ZM315.863 60.2108C315.869 60.2053 315.872 60.2053 315.879 60.2053C315.872 60.2053 315.869 60.2053 315.863 60.2108ZM367.38 60.2012C367.337 60.189 367.291 60.1808 367.249 60.1672C367.291 60.1808 367.337 60.189 367.38 60.2012ZM316.03 60.1631C316.044 60.159 316.055 60.155 316.067 60.1509C316.055 60.155 316.044 60.159 316.03 60.1631ZM367.195 60.1509C367.19 60.1509 367.185 60.1509 367.181 60.1468C367.185 60.1509 367.19 60.1509 367.195 60.1509ZM316.089 60.1468C316.104 60.1427 316.116 60.1373 316.131 60.1332C316.116 60.1373 316.104 60.1427 316.089 60.1468ZM367.112 60.1291C367.098 60.125 367.086 60.1209 367.072 60.1169C367.086 60.1209 367.098 60.125 367.112 60.1291ZM316.204 60.1169C316.222 60.1073 316.24 60.1033 316.259 60.0992C316.24 60.1033 316.222 60.1073 316.204 60.1169ZM367 60.0992C366.971 60.091 366.946 60.0815 366.917 60.0733C366.946 60.0815 366.971 60.091 367 60.0992ZM316.344 60.0774C316.361 60.0733 316.373 60.0692 316.389 60.0651C316.373 60.0692 316.361 60.0733 316.344 60.0774ZM366.887 60.0692C366.879 60.0651 366.875 60.0651 366.867 60.0611C366.875 60.0651 366.879 60.0651 366.887 60.0692ZM316.391 60.0651C316.512 60.0311 316.634 59.9971 316.757 59.9672C316.634 59.9971 316.512 60.0311 316.391 60.0651ZM366.702 60.0189H366.701H366.702ZM366.521 59.9672C366.507 59.9672 366.491 59.9631 366.477 59.959C366.491 59.9631 366.507 59.9672 366.521 59.9672ZM316.781 59.959C327.491 57.1187 338.008 56.8724 340.871 56.8588C338.008 56.8724 327.488 57.1187 316.781 59.959V59.959ZM341.632 56.8629C341.632 56.8629 341.817 56.8588 342.166 56.8588C341.817 56.8588 341.632 56.8629 341.632 56.8629ZM342.394 56.8588C342.311 56.8588 342.235 56.8588 342.166 56.8588C342.235 56.8588 342.311 56.8588 342.394 56.8588ZM412.209 24.6889C412.73 24.5351 413.256 24.4153 413.781 24.335C413.256 24.4153 412.73 24.5351 412.209 24.6889ZM271.055 24.6889C270.839 24.6249 270.621 24.565 270.402 24.5133C270.621 24.565 270.839 24.6249 271.055 24.6889ZM270.392 24.5133C270.388 24.5133 270.381 24.5092 270.377 24.5092C270.381 24.5092 270.388 24.5133 270.392 24.5133ZM270.358 24.5052C270.356 24.5052 270.353 24.5052 270.35 24.5052C270.353 24.5052 270.356 24.5052 270.358 24.5052ZM413.793 24.335C413.799 24.335 413.801 24.335 413.804 24.3296C413.801 24.335 413.799 24.335 413.793 24.335Z" fill="#FFEBE4"/>
				<path id="Vector_64" d="M324.622 71.3511C319.962 71.3511 316.369 69.9139 315.972 67.6589C315.54 67.7392 315.109 67.7786 314.678 67.7786C312.654 67.7786 310.702 66.8913 309.397 65.2718C302.59 56.7945 283.95 35.3896 265.353 29.8724C264.15 29.5145 262.933 29.3443 261.733 29.3443C260.256 29.3443 258.806 29.6043 257.439 30.0901C259.607 26.4197 263.55 24.1973 267.707 24.1973C268.584 24.1973 269.47 24.2993 270.35 24.5048C270.353 24.5048 270.356 24.5048 270.359 24.5048C270.365 24.5048 270.371 24.5089 270.378 24.5089C270.382 24.5089 270.389 24.513 270.393 24.513C270.398 24.513 270.399 24.513 270.402 24.513C270.621 24.5647 270.839 24.6246 271.055 24.6886C292.655 31.0959 314.31 60.6623 314.31 60.6623C314.482 60.6106 314.653 60.5589 314.825 60.5085C314.838 60.5044 314.85 60.5003 314.863 60.4962C314.864 60.4962 314.864 60.4962 314.864 60.4962C314.876 60.4908 314.891 60.4867 314.904 60.4826C314.966 60.4663 315.03 60.4486 315.093 60.4268C315.102 60.4268 315.11 60.4228 315.12 60.4187C315.197 60.3969 315.274 60.3765 315.351 60.3547C315.374 60.3465 315.399 60.3384 315.425 60.3329C315.501 60.3125 315.579 60.2867 315.657 60.2649C315.698 60.2567 315.739 60.2445 315.779 60.2309C315.807 60.2227 315.836 60.2186 315.863 60.2104C315.87 60.205 315.873 60.205 315.879 60.205C315.93 60.1887 315.98 60.1751 316.03 60.1628C316.044 60.1587 316.055 60.1547 316.067 60.1506C316.075 60.1506 316.081 60.1506 316.089 60.1465C316.104 60.1424 316.116 60.137 316.131 60.1329C316.156 60.1288 316.179 60.1206 316.205 60.1165C316.222 60.107 316.24 60.1029 316.259 60.0989C316.288 60.0907 316.315 60.0812 316.345 60.0771C316.361 60.073 316.373 60.0689 316.39 60.0648H316.391C316.512 60.0308 316.635 59.9968 316.757 59.9668C316.765 59.9628 316.772 59.9628 316.782 59.9587C327.488 57.1184 338.008 56.8721 340.872 56.8585C340.955 56.8585 341.031 56.8585 341.099 56.8585C341.447 56.8585 341.632 56.8625 341.632 56.8625C341.632 56.8625 341.817 56.8585 342.166 56.8585C342.235 56.8585 342.311 56.8585 342.394 56.8585C345.258 56.8721 355.773 57.1184 366.478 59.9587C366.491 59.9628 366.508 59.9668 366.521 59.9668C366.581 59.9832 366.641 60.0009 366.701 60.0186H366.702C366.758 60.0308 366.812 60.0485 366.867 60.0607C366.875 60.0648 366.879 60.0648 366.887 60.0689C366.897 60.0689 366.908 60.073 366.917 60.073C366.946 60.0812 366.972 60.0907 367 60.0989C367.023 60.1029 367.047 60.1125 367.072 60.1165C367.086 60.1206 367.098 60.1247 367.112 60.1288C367.135 60.1329 367.158 60.1424 367.181 60.1465C367.185 60.1506 367.191 60.1506 367.195 60.1506C367.213 60.1547 367.232 60.1628 367.249 60.1669C367.292 60.1805 367.338 60.1887 367.38 60.2009C367.39 60.205 367.395 60.205 367.404 60.2104C367.422 60.2145 367.441 60.2186 367.459 60.2227C367.463 60.2268 367.466 60.2268 367.47 60.2268C367.618 60.2703 367.765 60.3125 367.913 60.3547H367.915C367.991 60.3765 368.069 60.3969 368.146 60.4187C368.156 60.4228 368.164 60.4268 368.173 60.4268C368.255 60.4527 368.339 60.4786 368.422 60.5003C368.428 60.5044 368.433 60.5044 368.44 60.5085C368.518 60.5289 368.595 60.5507 368.674 60.5765C368.714 60.5888 368.753 60.6024 368.794 60.6106C368.831 60.6242 368.869 60.6364 368.906 60.6446C368.922 60.6528 368.94 60.6568 368.955 60.6623C368.955 60.6623 390.611 31.0959 412.209 24.6886C412.731 24.5348 413.256 24.415 413.781 24.3347C413.784 24.3347 413.791 24.3347 413.793 24.3347C413.799 24.3347 413.802 24.3347 413.804 24.3293C414.391 24.2449 414.976 24.1973 415.557 24.1973C419.715 24.1973 423.658 26.4197 425.827 30.0901C424.461 29.6043 423.008 29.3443 421.533 29.3443C420.331 29.3443 419.115 29.5145 417.913 29.8724C399.314 35.3896 380.676 56.7945 373.868 65.2718C372.561 66.8954 370.603 67.7909 368.574 67.7909C368.028 67.7909 367.475 67.7269 366.93 67.5949C355.582 64.8186 344.782 64.6403 342.209 64.6403C341.834 64.6403 341.632 64.6444 341.632 64.6444C341.632 64.6444 341.436 64.6444 341.07 64.6444C340.594 64.6444 339.829 64.6485 338.829 64.6743C338.793 67.4112 334.165 70.2297 328.124 71.0952C326.915 71.2694 325.738 71.3511 324.622 71.3511V71.3511Z" fill="#FDDBA9"/>
				<path id="Vector_65" d="M267.729 26.4065C264.003 26.4065 260.452 28.5948 258.836 32.1537C252.575 45.9441 243.098 76.0549 249.962 122.807C250.019 123.207 249.969 123.617 249.811 123.989C249.772 124.082 245.817 133.56 244.264 146.421C242.849 158.145 243.197 175.194 252.902 189.823C267.08 211.195 296.932 222.029 341.632 222.029C386.333 222.029 416.185 211.195 430.363 189.823C440.068 175.194 440.416 158.145 439.001 146.421C437.448 133.56 433.495 124.082 433.454 123.989C433.297 123.617 433.245 123.207 433.303 122.807C440.167 76.0549 430.69 45.9441 424.431 32.1537C422.425 27.7375 417.438 25.4347 412.835 26.7984C392.193 32.9254 370.944 61.6725 370.732 61.9624C370.18 62.7177 369.208 63.0416 368.312 62.768C355.464 58.8635 341.809 59.0636 341.673 59.0636C341.647 59.0636 341.619 59.0636 341.593 59.0636C341.457 59.0636 327.803 58.8635 314.954 62.768C314.057 63.0416 313.087 62.7177 312.533 61.9624C312.322 61.6725 291.053 32.9213 270.431 26.7984C269.538 26.5344 268.629 26.4065 267.729 26.4065V26.4065ZM341.632 226.439C316.925 226.439 296.323 223.108 280.401 216.541C266.627 210.86 256.133 202.681 249.211 192.233C244.58 185.244 241.523 177.2 240.121 168.32C239.008 161.262 238.935 153.673 239.904 145.751C241.338 134.012 244.597 125.174 245.513 122.854C242.495 101.944 242.398 82.126 245.223 63.9371C247.654 48.2754 251.785 37.0191 254.821 30.3341C257.733 23.9214 264.983 20.5816 271.686 22.574C281 25.3368 291.316 32.3851 302.349 43.5257C308.621 49.8582 313.257 55.6517 315.154 58.1163C327.973 54.5139 340.655 54.6378 341.632 54.6541C342.61 54.6378 355.294 54.5139 368.112 58.1163C370.008 55.6517 374.643 49.8582 380.917 43.5257C391.949 32.3851 402.266 25.3368 411.579 22.574C418.283 20.5816 425.533 23.9214 428.444 30.3341C431.482 37.0191 435.611 48.2754 438.043 63.9371C440.867 82.126 440.77 101.944 437.752 122.854C438.669 125.174 441.927 134.012 443.363 145.751C444.33 153.673 444.255 161.262 443.144 168.32C441.743 177.2 438.685 185.247 434.055 192.233C427.131 202.681 416.638 210.86 402.864 216.541C386.942 223.108 366.342 226.439 341.632 226.439V226.439Z" fill="#0F156D"/>
				<g id="Group_2">
					<g id="Group_3">
						<path id="Vector_66" d="M308.538 113.234C316.973 113.907 323.174 122.453 322.388 132.327C321.602 142.199 314.126 149.658 305.691 148.988C297.257 148.315 291.057 139.767 291.842 129.895C292.629 120.023 300.103 112.563 308.538 113.234Z" fill="#000072"/>
						<path id="Vector_67" d="M325.367 126.782C312.76 117.456 299.967 117.536 289.771 118.043C295.209 106.982 317.432 110.676 325.367 126.782Z" fill="#000072"/>
						<path id="Vector_68" d="M313.899 123.649C311.893 123.751 310.381 126.104 310.522 128.905C310.664 131.705 312.406 133.896 314.413 133.794C316.421 133.692 317.931 131.337 317.79 128.538C317.647 125.737 315.908 123.549 313.899 123.649Z" fill="white"/>
						<path id="Vector_69" d="M314.832 95.734C319.698 96.9902 323.111 100.062 322.458 102.597C321.805 105.131 317.33 106.17 312.464 104.916C307.599 103.661 304.185 100.588 304.84 98.0544C305.494 95.5163 309.967 94.4779 314.832 95.734V95.734Z" fill="white"/>
						<path id="Vector_70" d="M299.477 137.836C298.384 138.415 298.124 140.061 298.895 141.519C299.665 142.972 301.174 143.687 302.266 143.107C303.358 142.529 303.62 140.882 302.849 139.424C302.079 137.971 300.57 137.257 299.477 137.836Z" fill="#B199C5"/>
					</g>
					<g id="Group_4">
						<path id="Vector_71" d="M374.727 113.234C366.292 113.906 360.092 122.453 360.877 132.326C361.664 142.199 369.138 149.658 377.573 148.987C386.008 148.315 392.208 139.767 391.423 129.894C390.637 120.022 383.162 112.563 374.727 113.234Z" fill="#000072"/>
						<path id="Vector_72" d="M357.896 126.782C370.506 117.455 383.298 117.536 393.495 118.042C388.056 106.982 365.833 110.675 357.896 126.782Z" fill="#000072"/>
						<path id="Vector_73" d="M369.366 123.649C371.372 123.751 372.884 126.104 372.743 128.905C372.601 131.704 370.858 133.895 368.852 133.793C366.845 133.691 365.334 131.337 365.475 128.537C365.618 125.737 367.358 123.548 369.366 123.649Z" fill="white"/>
						<path id="Vector_74" d="M368.433 95.7335C363.568 96.9897 360.153 100.061 360.808 102.597C361.461 105.131 365.936 106.169 370.801 104.916C375.666 103.661 379.081 100.588 378.425 98.0539C377.772 95.5158 373.298 94.4774 368.433 95.7335V95.7335Z" fill="white"/>
						<path id="Vector_75" d="M383.789 137.836C384.88 138.414 385.141 140.061 384.371 141.518C383.601 142.972 382.092 143.686 381 143.107C379.907 142.528 379.646 140.882 380.416 139.424C381.187 137.971 382.696 137.256 383.789 137.836V137.836Z" fill="#B199C5"/>
					</g>
				</g>
				<g id="Group_5">
					<path id="Vector_76" d="M338.47 161.055C338.47 159.184 339.987 157.667 341.858 157.667C343.73 157.667 345.247 159.184 345.247 161.055V170.307C345.247 172.18 343.73 173.697 341.858 173.697C339.987 173.697 338.47 172.18 338.47 170.307V161.055Z" fill="#03036B"/>
					<path id="Vector_77" d="M331.315 180.158C329.693 181.08 327.63 180.511 326.708 178.887C325.787 177.265 326.357 175.202 327.979 174.281L340.19 167.368C341.813 166.447 343.875 167.016 344.797 168.639C345.718 170.262 345.149 172.325 343.527 173.246L331.315 180.158V180.158Z" fill="#03036B"/>
					<path id="Vector_78" d="M355.737 174.281C357.359 175.202 357.928 177.265 357.008 178.887C356.087 180.511 354.024 181.08 352.402 180.158L340.19 173.246C338.568 172.325 337.999 170.262 338.92 168.639C339.84 167.016 341.903 166.447 343.527 167.368L355.737 174.281V174.281Z" fill="#03036B"/>
				</g>
			</g>
		</g>
	</g>
	<defs>
		<linearGradient id="paint0_linear_165_268" x1="414.114" y1="72.2454" x2="269.623" y2="611.492" gradientUnits="userSpaceOnUse">
			<stop stop-color="#FBF46D"/>
			<stop offset="1" stop-color="#FF865E"/>
		</linearGradient>
	</defs>
</svg>
