<svg width="170" height="170" viewBox="0 0 170 170" fill="none" xmlns="http://www.w3.org/2000/svg">
<circle cx="85" cy="85" r="80" fill="url(#paint0_linear_304_2243)"/>
<circle cx="85" cy="85" r="82.5" stroke="#6573FC" stroke-opacity="0.2" stroke-width="5"/>
<path d="M52.239 106.613C63.5624 106.833 73.375 108.527 80.6164 111.51C80.74 111.561 80.8708 111.586 81.0004 111.586C81.1975 111.586 81.3934 111.528 81.5616 111.415C81.8414 111.228 82.0091 110.914 82.0091 110.577L82.0131 56.4473C82.0131 56.0342 81.7611 55.6628 81.3773 55.5102L52.6313 44.0715C52.3211 43.9479 51.9692 43.9862 51.6925 44.1739C51.4159 44.3618 51.2502 44.6743 51.2502 45.0086V105.605C51.2502 106.154 51.6898 106.602 52.239 106.613Z" fill="white"/>
<path d="M134.594 53.685C134.338 53.4949 134.008 53.4366 133.702 53.5276L123.536 56.5672C123.108 56.695 122.816 57.0877 122.816 57.5334V109.825C122.816 109.825 122.861 110.65 121.992 110.65C120.998 110.65 120.345 110.65 120.345 110.65C112.143 110.65 96.9012 111.501 86.9707 117.203L84.9998 118.332L83.029 117.203C73.0984 111.501 57.8569 110.65 49.6552 110.65C49.6552 110.65 47.9756 110.65 47.5519 110.65C47.1598 110.65 47.1838 110.179 47.1838 110.179V57.5334C47.1838 57.0877 46.8912 56.695 46.4642 56.5672L36.2974 53.5276C35.9919 53.4366 35.6615 53.4949 35.4061 53.685C35.1506 53.8752 35 54.1751 35 54.4936V117.759C35 118.044 35.1205 118.315 35.3312 118.507C35.5421 118.698 35.8237 118.791 36.107 118.763C39.1288 118.467 43.8529 118.114 49.1977 118.114C60.9367 118.114 70.3707 119.828 76.4841 123.073C77.3823 123.544 82.5896 126.35 85.0002 126.35C87.4108 126.35 92.6179 123.544 93.5159 123.073C99.6295 119.828 109.063 118.114 120.802 118.114C126.147 118.114 130.871 118.467 133.893 118.763C134.176 118.791 134.458 118.698 134.669 118.507C134.88 118.315 135 118.044 135 117.759V54.4936C135 54.1751 134.849 53.8752 134.594 53.685Z" fill="white"/>
<path d="M88.4378 111.415C88.6061 111.528 88.8021 111.586 88.9989 111.586C89.1287 111.586 89.2594 111.561 89.3832 111.51C96.6243 108.527 106.437 106.833 117.761 106.613C118.31 106.602 118.75 106.154 118.75 105.605V45.0086C118.75 44.6741 118.584 44.3616 118.307 44.1739C118.031 43.9864 117.679 43.9479 117.368 44.0715L88.6223 55.5102C88.2385 55.6628 87.9867 56.0342 87.9867 56.4473L87.9906 110.577C87.9902 110.914 88.1582 111.228 88.4378 111.415Z" fill="white"/>
<defs>
<linearGradient id="paint0_linear_304_2243" x1="85" y1="5" x2="85" y2="165" gradientUnits="userSpaceOnUse">
<stop stop-color="#9D50F1"/>
<stop offset="1" stop-color="#6573FC"/>
</linearGradient>
</defs>
</svg>
