<svg width="30" height="30" viewBox="0 0 30 30" fill="none" xmlns="http://www.w3.org/2000/svg">
<path d="M15.0001 29.7697C23.1572 29.7697 29.7699 23.157 29.7699 14.9998C29.7699 6.84266 23.1572 0.22998 15.0001 0.22998C6.84291 0.22998 0.230225 6.84266 0.230225 14.9998C0.230225 23.157 6.84291 29.7697 15.0001 29.7697Z" fill="#FF4500"/>
<path d="M24.8501 14.9999C24.8062 13.8104 23.8074 12.8816 22.6143 12.9219C22.0856 12.9403 21.5827 13.1569 21.201 13.5203C19.5195 12.3748 17.5443 11.7469 15.514 11.7029L16.472 7.0954L19.6331 7.76005C19.7211 8.5714 20.4481 9.15892 21.2594 9.07063C22.0708 8.98266 22.6583 8.25566 22.57 7.4443C22.4817 6.63294 21.755 6.04543 20.9437 6.13372C20.4773 6.18132 20.0588 6.45308 19.8277 6.85712L16.2078 6.13372C15.962 6.07858 15.7158 6.23285 15.6607 6.48262C15.6607 6.48623 15.6607 6.48623 15.6607 6.48984L14.5703 11.615C12.5144 11.6481 10.5135 12.2796 8.81009 13.4323C7.94359 12.6174 6.57788 12.6577 5.76291 13.5278C4.94794 14.3943 4.98831 15.7601 5.85842 16.575C6.02745 16.7329 6.22176 16.8688 6.43838 16.9643C6.42361 17.1809 6.42361 17.3975 6.43838 17.6142C6.43838 20.9219 10.2933 23.613 15.0476 23.613C19.8018 23.613 23.6567 20.9256 23.6567 17.6142C23.6715 17.3975 23.6715 17.1809 23.6567 16.9643C24.3985 16.5934 24.8649 15.8296 24.8501 14.9999ZM10.0803 16.4795C10.0803 15.6645 10.7449 14.9999 11.5599 14.9999C12.3749 14.9999 13.0395 15.6645 13.0395 16.4795C13.0395 17.2945 12.3749 17.9591 11.5599 17.9591C10.7413 17.9516 10.0803 17.2945 10.0803 16.4795ZM18.6603 20.5987V20.5399C17.6103 21.3293 16.3253 21.733 15.0108 21.6782C13.6963 21.7333 12.4116 21.3293 11.3613 20.5399C11.2218 20.3709 11.2474 20.1178 11.4165 19.9783C11.5632 19.8572 11.7726 19.8572 11.9232 19.9783C12.8117 20.6282 13.8949 20.9587 14.996 20.9072C16.0975 20.9659 17.1843 20.6502 18.0836 20.0079C18.2451 19.85 18.5093 19.8536 18.6675 20.0151C18.8254 20.1766 18.8217 20.4408 18.6603 20.5987ZM18.4584 18.0655C18.4328 18.0655 18.4108 18.0655 18.3849 18.0655L18.396 18.0103C17.5811 18.0103 16.9164 17.3457 16.9164 16.5307C16.9164 15.7157 17.5811 15.0511 18.396 15.0511C19.211 15.0511 19.8757 15.7157 19.8757 16.5307C19.9085 17.346 19.2734 18.0323 18.4584 18.0655Z" fill="white"/>
</svg>
