<svg width="1920" height="865" viewBox="0 0 1920 865" fill="none" xmlns="http://www.w3.org/2000/svg">
<mask id="mask0_165_1112" style="mask-type:alpha" maskUnits="userSpaceOnUse" x="0" y="0" width="1920" height="865">
<rect width="1920" height="865" fill="#C4C4C4"/>
</mask>
<g mask="url(#mask0_165_1112)">
<rect width="1920" height="865" fill="url(#paint0_linear_165_1112)"/>
<path opacity="0.05" d="M218.641 409.385C307.195 385.657 401.682 410.974 466.508 475.8L710.614 719.907C775.441 784.733 800.758 879.22 777.03 967.774L687.681 1301.23C663.953 1389.78 594.784 1458.95 506.23 1482.68L172.774 1572.03C84.2196 1595.76 -10.2668 1570.44 -75.0931 1505.61L-319.2 1261.51C-384.026 1196.68 -409.343 1102.2 -385.615 1013.64L-296.266 680.185C-272.538 591.631 -203.369 522.462 -114.815 498.734L218.641 409.385Z" fill="white"/>
<path opacity="0.05" d="M2018.44 -241.139C2068.21 -254.474 2121.31 -240.246 2157.74 -203.815L2294.92 -66.6314C2331.35 -30.2002 2345.58 22.8995 2332.25 72.6654L2282.03 260.062C2268.7 309.828 2229.83 348.699 2180.06 362.034L1992.67 412.247C1942.9 425.581 1889.8 411.353 1853.37 374.922L1716.19 237.739C1679.75 201.307 1665.53 148.208 1678.86 98.4418L1729.07 -88.9545C1742.41 -138.72 1781.28 -177.592 1831.05 -190.927L2018.44 -241.139Z" fill="white"/>
</g>
<defs>
<linearGradient id="paint0_linear_165_1112" x1="1920" y1="441.15" x2="3.57485e-06" y2="441.15" gradientUnits="userSpaceOnUse">
<stop stop-color="#9D50F1"/>
<stop offset="1" stop-color="#6573FC"/>
</linearGradient>
</defs>
</svg>
