<svg width="315" height="46" viewBox="0 0 315 46" fill="none" xmlns="http://www.w3.org/2000/svg">
<mask id="mask0_321_10" style="mask-type:alpha" maskUnits="userSpaceOnUse" x="0" y="0" width="315" height="46">
<path d="M0 0H315V46H0V0Z" fill="white"/>
</mask>
<g mask="url(#mask0_321_10)">
<g opacity="0.2">
<path d="M-28.5299 -26L-23.7003 -24.7059L-52.1704 81.5459L-57 80.2518L-28.5299 -26Z" fill="white"/>
<path d="M-13.5299 -26L-8.70028 -24.7059L-37.1704 81.5459L-42 80.2518L-13.5299 -26Z" fill="white"/>
<path d="M1.4701 -26L6.29972 -24.7059L-22.1704 81.5459L-27 80.2518L1.4701 -26Z" fill="white"/>
<path d="M16.4701 -26L21.2997 -24.7059L-7.17037 81.5459L-12 80.2518L16.4701 -26Z" fill="white"/>
<path d="M31.4701 -26L36.2997 -24.7059L7.82963 81.5459L3 80.2518L31.4701 -26Z" fill="white"/>
<path d="M46.4701 -26L51.2997 -24.7059L22.8296 81.5459L18 80.2518L46.4701 -26Z" fill="white"/>
<path d="M61.4701 -26L66.2997 -24.7059L37.8296 81.5459L33 80.2518L61.4701 -26Z" fill="white"/>
<path d="M76.4701 -26L81.2997 -24.7059L52.8296 81.5459L48 80.2518L76.4701 -26Z" fill="white"/>
<path d="M91.4701 -26L96.2997 -24.7059L67.8296 81.5459L63 80.2518L91.4701 -26Z" fill="white"/>
<path d="M106.47 -26L111.3 -24.7059L82.8296 81.5459L78 80.2518L106.47 -26Z" fill="white"/>
<path d="M121.47 -26L126.3 -24.7059L97.8296 81.5459L93 80.2518L121.47 -26Z" fill="white"/>
<path d="M136.47 -26L141.3 -24.7059L112.83 81.5459L108 80.2518L136.47 -26Z" fill="white"/>
<path d="M151.47 -26L156.3 -24.7059L127.83 81.5459L123 80.2518L151.47 -26Z" fill="white"/>
<path d="M166.47 -26L171.3 -24.7059L142.83 81.5459L138 80.2518L166.47 -26Z" fill="white"/>
<path d="M181.47 -26L186.3 -24.7059L157.83 81.5459L153 80.2518L181.47 -26Z" fill="white"/>
<path d="M196.47 -26L201.3 -24.7059L172.83 81.5459L168 80.2518L196.47 -26Z" fill="white"/>
<path d="M211.47 -26L216.3 -24.7059L187.83 81.5459L183 80.2518L211.47 -26Z" fill="white"/>
<path d="M226.47 -26L231.3 -24.7059L202.83 81.5459L198 80.2518L226.47 -26Z" fill="white"/>
<path d="M241.47 -26L246.3 -24.7059L217.83 81.5459L213 80.2518L241.47 -26Z" fill="white"/>
<path d="M256.47 -26L261.3 -24.7059L232.83 81.5459L228 80.2518L256.47 -26Z" fill="white"/>
<path d="M271.47 -26L276.3 -24.7059L247.83 81.5459L243 80.2518L271.47 -26Z" fill="white"/>
<path d="M286.47 -26L291.3 -24.7059L262.83 81.5459L258 80.2518L286.47 -26Z" fill="white"/>
<path d="M301.47 -26L306.3 -24.7059L277.83 81.5459L273 80.2518L301.47 -26Z" fill="white"/>
<path d="M316.47 -26L321.3 -24.7059L292.83 81.5459L288 80.2518L316.47 -26Z" fill="white"/>
<path d="M331.47 -26L336.3 -24.7059L307.83 81.5459L303 80.2518L331.47 -26Z" fill="white"/>
<path d="M346.47 -26L351.3 -24.7059L322.83 81.5459L318 80.2518L346.47 -26Z" fill="white"/>
<path d="M361.47 -26L366.3 -24.7059L337.83 81.5459L333 80.2518L361.47 -26Z" fill="white"/>
<path d="M376.47 -26L381.3 -24.7059L352.83 81.5459L348 80.2518L376.47 -26Z" fill="white"/>
<path d="M391.47 -26L396.3 -24.7059L367.83 81.5459L363 80.2518L391.47 -26Z" fill="white"/>
</g>
</g>
</svg>
