<svg width="81" height="100" viewBox="0 0 81 100" fill="none" xmlns="http://www.w3.org/2000/svg">
<path d="M19.8805 72.2888C18.8516 70.9013 16.9004 70.6159 15.5317 71.659C14.1629 72.7021 13.8814 74.6801 14.9104 76.0676L18.6089 81.0666C19.0748 81.6964 19.0069 82.5723 18.4633 83.1233L17.2207 84.3829C16.5703 85.0422 15.5122 84.993 14.9298 84.2747L6.21266 73.6665V59.063C6.21266 57.3212 4.82452 55.914 3.10633 55.914C1.38814 55.914 0 57.3212 0 59.063V80.5549C0 81.6275 0.35917 82.6707 1.01927 83.5071L11.1246 96.7231C11.6099 97.3627 11.94 98.0909 12.1341 98.8585C12.3088 99.5375 12.9204 100 13.6193 100H26.4038C27.2581 100 27.957 99.2915 27.957 98.4255V87.404C27.957 84.6781 27.0833 82.031 25.4719 79.8464L19.8805 72.2888Z" fill="url(#paint0_linear_170_1371)"/>
<path d="M60.7646 72.2888C61.7936 70.9013 63.7448 70.6159 65.1135 71.659C66.4822 72.7021 66.7637 74.6801 65.7348 76.0676L62.0363 81.0666C61.5703 81.6964 61.6383 82.5723 62.1819 83.1233L63.4244 84.3829C64.0748 85.0422 65.1329 84.993 65.7154 84.2747L74.4325 73.6665V59.063C74.4325 57.3212 75.8206 55.914 77.5388 55.914C79.257 55.914 80.6452 57.3212 80.6452 59.063V80.5549C80.6452 81.6275 80.286 82.6707 79.6259 83.5071L69.5206 96.7231C69.0352 97.3627 68.7052 98.0909 68.5111 98.8585C68.3363 99.5375 67.7248 100 67.0258 100H54.2413C53.3871 100 52.6882 99.2915 52.6882 98.4255V87.404C52.6882 84.6781 53.5618 82.031 55.1732 79.8464L60.7646 72.2888Z" fill="url(#paint1_linear_170_1371)"/>
<path d="M40.8602 0C21.9355 0 6.45161 15.4839 6.45161 34.4086C6.45161 53.3333 21.9355 68.8172 40.8602 68.8172C59.785 68.8172 75.2688 53.3333 75.2688 34.4086C75.2688 15.4839 59.785 0 40.8602 0ZM63.2258 22.7957C64.9462 22.7957 66.2366 24.086 67.957 24.086C66.6667 25.8065 61.0753 25.8065 59.3548 23.6559C60.6452 23.2258 61.5054 22.7957 63.2258 22.7957ZM10.7527 34.4086C10.7527 32.6882 10.7527 30.9677 11.1828 28.8172C11.6129 28.8172 12.043 29.2473 12.4731 29.2473C12.4731 29.2473 12.9032 29.6774 12.9032 30.1075C12.9032 31.3979 14.1935 32.2581 15.0538 32.2581C18.4946 32.6882 19.7849 35.6989 22.7957 36.5591C23.6559 36.9893 23.2258 37.8495 22.7957 38.7097C20.2151 42.1505 22.3656 44.7312 24.5161 46.8817C26.6667 48.6021 26.6667 50.3226 27.0968 52.9032C27.0968 55.914 27.5269 59.3548 28.8172 62.3656C18.0645 57.2043 10.7527 46.8817 10.7527 34.4086ZM40.8602 64.5161C37.8495 64.5161 34.4086 64.086 31.828 63.2258C31.3979 62.3656 31.3979 61.5054 31.828 60.6452C33.5484 57.2043 35.2688 54.1936 37.4194 51.1828C38.2796 50.3226 39.1398 49.4624 39.1398 48.172C39.1398 47.3118 39.5699 46.0215 40 45.1613C41.2903 43.0108 40.8602 41.7204 39.1398 41.2903C35.6989 40.4301 33.9785 37.4194 31.3979 36.129C28.8172 34.8387 26.2366 33.9785 24.086 35.2688C23.2258 35.6989 21.9355 36.129 21.9355 34.8387C21.9355 33.1183 19.7849 31.828 20.2151 30.1075C19.7849 30.1075 19.3548 30.1075 18.9247 30.5376C18.4946 30.9677 18.0645 31.3979 17.2043 30.9677C16.3441 30.1075 16.7742 29.2473 16.7742 28.3871C17.2043 27.5269 17.6344 27.0968 18.4946 26.6667C20.2151 26.2366 21.9355 26.2366 22.7957 28.3871C24.086 24.5161 26.6667 22.3656 29.2473 20.6452C29.2473 20.6452 32.6882 17.6344 33.1183 17.6344C33.5484 17.6344 33.9785 18.4946 34.8387 18.9247C35.6989 18.9247 36.129 18.9247 36.129 18.0645C36.5591 15.914 35.2688 13.3333 33.5484 12.9032C33.5484 12.4731 33.9785 12.4731 33.9785 12.4731C35.2688 12.043 36.9893 11.1828 36.5591 9.89247C36.5591 8.17204 34.8387 7.31183 33.1183 7.31183C32.2581 7.31183 31.3979 7.31183 30.5376 7.74194C28.8172 8.60215 26.6667 9.46237 24.086 9.46237C28.8172 6.02151 34.8387 4.30108 40.8602 4.30108C42.1505 4.30108 43.0108 4.30108 44.3011 4.30108C41.7204 4.73118 39.1398 5.5914 37.4194 6.45161C40 6.88172 40.4301 8.17204 39.5699 10.3226C39.1398 11.1828 39.5699 12.043 40.4301 12.4731C41.2903 12.9032 42.1505 12.9032 42.5806 12.043C43.4409 10.7527 45.1613 10.3226 46.4516 9.89247C48.172 9.46237 49.4624 8.60215 50.7527 6.88172C50.7527 6.45161 51.1828 6.45161 51.6129 6.02151C54.1936 6.88172 56.7742 8.60215 59.3548 10.3226C58.9247 10.3226 58.9247 10.7527 58.4946 10.7527C57.6344 11.6129 56.3441 12.043 57.6344 13.7634C58.0645 14.6237 57.6344 15.0538 57.2043 15.4839C56.3441 15.914 55.914 15.4839 55.4839 15.0538C55.0538 14.6237 55.0538 13.7634 53.7634 13.7634C53.3333 14.6237 52.043 15.0538 52.043 16.3441C54.1936 16.3441 53.7634 18.0645 54.1936 19.3548C51.6129 19.7849 50.7527 21.0753 52.043 23.2258C52.4731 24.086 51.6129 24.5161 51.1828 24.9462C49.4624 27.5269 47.7419 29.2473 47.7419 32.2581C47.7419 35.2688 49.8925 38.2796 53.3333 37.8495C57.2043 37.4194 57.2043 37.4194 58.4946 40.8602C58.4946 41.2903 58.9247 41.7204 58.9247 42.1505C59.3548 43.0108 59.785 43.871 59.3548 44.7312C58.0645 48.172 59.7849 50.7527 61.0753 53.3333C61.5054 54.1936 61.9355 54.6237 62.3656 55.0538C56.7742 61.0753 49.4624 64.5161 40.8602 64.5161Z" fill="url(#paint2_linear_170_1371)"/>
<defs>
<linearGradient id="paint0_linear_170_1371" x1="40.3226" y1="0" x2="40.3226" y2="100" gradientUnits="userSpaceOnUse">
<stop stop-color="#9D50F1"/>
<stop offset="1" stop-color="#6573FC"/>
</linearGradient>
<linearGradient id="paint1_linear_170_1371" x1="40.3226" y1="0" x2="40.3226" y2="100" gradientUnits="userSpaceOnUse">
<stop stop-color="#9D50F1"/>
<stop offset="1" stop-color="#6573FC"/>
</linearGradient>
<linearGradient id="paint2_linear_170_1371" x1="40.3226" y1="0" x2="40.3226" y2="100" gradientUnits="userSpaceOnUse">
<stop stop-color="#9D50F1"/>
<stop offset="1" stop-color="#6573FC"/>
</linearGradient>
</defs>
</svg>
