<svg width="100" height="99" viewBox="0 0 100 99" fill="none" xmlns="http://www.w3.org/2000/svg">
<path fill-rule="evenodd" clip-rule="evenodd" d="M51.5498 28.7673C63.2502 28.7673 72.7356 38.2526 72.7356 49.9531C72.7356 61.6537 63.2502 71.1389 51.5498 71.1389C39.8491 71.1389 30.3637 61.6537 30.3637 49.9531C30.3637 38.2526 39.8491 28.7673 51.5498 28.7673ZM13.9859 6.58822C14.88 4.02673 16.7272 2.07074 18.9911 0.978571C21.2537 -0.113097 23.9328 -0.342206 26.4923 0.549809L26.4973 0.551572C29.0581 1.44535 31.0143 3.29283 32.1065 5.55673C33.1979 7.81912 33.427 10.4977 32.5352 13.0569L32.5335 13.0627C32.0903 14.3321 31.4128 15.4527 30.5666 16.3933L39.9236 29.6661C38.6524 30.3959 37.4573 31.2429 36.3508 32.1906L26.9895 18.9123C24.8457 19.7932 22.3829 19.9231 20.0223 19.0991C17.4613 18.2051 15.5051 16.3576 14.4129 14.0937C13.3205 11.8298 13.0919 9.14896 13.9859 6.58822ZM66.0645 31.6263L74.5196 22.7915C73.2437 20.858 72.6427 18.4682 72.9962 15.995L72.9969 15.9885C73.3824 13.3036 74.82 11.0289 76.8319 9.52208C78.8425 8.0165 81.4271 7.27731 84.1095 7.6605L84.1165 7.66151C86.8011 8.04697 89.0756 9.48431 90.5824 11.4962C92.0893 13.5083 92.8285 16.0952 92.4433 18.7799L92.443 18.7814C92.0576 21.4657 90.6202 23.7399 88.6083 25.2465C86.5962 26.7534 84.009 27.4928 81.3244 27.1073L81.3194 27.1066C79.9898 26.915 78.7609 26.4653 77.676 25.8158L69.2227 34.6486C68.2667 33.5458 67.2088 32.534 66.0645 31.6263ZM74.3477 55.1491L81.7635 57.5892C82.9596 55.6048 84.8587 54.0327 87.244 53.2872L87.2548 53.2837C89.8405 52.4791 92.508 52.7963 94.7316 53.9607C96.9585 55.1272 98.7407 57.1431 99.5502 59.7317L99.5535 59.7428C100.358 62.3282 100.041 64.9957 98.8764 67.2193C97.7103 69.4462 95.6944 71.2285 93.1059 72.0377L93.1052 72.0379C90.5167 72.8471 87.8447 72.5304 85.6178 71.3642C83.3909 70.198 81.6089 68.1821 80.7995 65.5934L80.7992 65.5924C80.3987 64.3104 80.2743 63.008 80.3924 61.7494L72.9786 59.3098C73.5589 57.9825 74.0204 56.5914 74.3477 55.1491ZM63.8665 69.8256L68.7136 79.5792C70.9674 79.0343 73.4219 79.2806 75.6297 80.4546C78.0245 81.728 79.6766 83.8519 80.4115 86.2563C81.1464 88.6602 80.9644 91.3448 79.6907 93.7396C78.4175 96.1344 76.2936 97.7863 73.8894 98.5212C71.4856 99.2561 68.8012 99.0741 66.4069 97.8009L66.4061 97.8006C64.0113 96.5272 62.3595 94.4033 61.6245 91.9991C60.8896 89.5953 61.0717 86.9109 62.3449 84.5163C62.9765 83.3287 63.8172 82.3237 64.7973 81.5228L59.9528 71.7743C61.3244 71.2454 62.6339 70.5915 63.8665 69.8256ZM35.772 67.2037L29.6041 72.7958C30.7411 74.8149 31.1724 77.2422 30.6449 79.6849L30.6434 79.6929C30.0686 82.3438 28.4739 84.5113 26.3601 85.8719C24.2465 87.2324 21.6138 87.7868 18.9629 87.2123L18.9619 87.212C16.3113 86.6377 14.1445 85.0428 12.7837 82.9292C11.4232 80.8156 10.869 78.1828 11.4433 75.5325L11.4436 75.5315C12.0181 72.8806 13.6128 70.7136 15.7264 69.3531C17.84 67.9925 20.4727 67.4381 23.1234 68.0124C24.4396 68.2977 25.6365 68.8347 26.6746 69.5613L32.8396 63.9718C33.7153 65.1385 34.6977 66.2206 35.772 67.2037ZM28.4158 46.5708L18.6139 44.1853C17.5792 46.2606 15.8092 47.9797 13.4882 48.9125C10.9713 49.9239 8.28262 49.8194 5.97063 48.8329C3.65864 47.8465 1.72255 45.9779 0.711191 43.461C-0.300414 40.944 -0.19593 38.2554 0.790498 35.9434C1.77668 33.6319 3.6448 31.6963 6.16072 30.6847L6.16273 30.6837C8.67941 29.6724 11.368 29.7768 13.68 30.7633C15.992 31.75 17.9281 33.6186 18.9395 36.1353C19.4412 37.3838 19.6683 38.6748 19.6492 39.941L29.4453 42.3252C28.9752 43.6878 28.6278 45.1073 28.4158 46.5708ZM49.5314 65.4945V61.8783C46.9784 61.7635 44.5035 61.0777 43.0544 60.2406L44.1986 55.783C45.7994 56.6582 48.0452 57.4575 50.5231 57.4575C52.6938 57.4575 54.18 56.6204 54.18 55.0972C54.18 53.649 52.9609 52.7341 50.1411 51.7812C46.0655 50.4105 43.2837 48.5059 43.2837 44.8117C43.2837 41.4587 45.6468 38.8312 49.7227 38.0311V34.4119H53.4544V37.7647C56.0071 37.8795 57.7226 38.4097 58.9785 39.0208L57.874 43.3258C56.8842 42.9071 55.1319 42.0289 52.3869 42.0289C49.912 42.0289 49.1117 43.0954 49.1117 44.1629C49.1117 45.419 50.4453 46.2193 53.6838 47.4384C58.2151 49.0391 60.045 51.1323 60.045 54.5629C60.045 57.953 57.6438 60.8476 53.2641 61.6102V65.4945H49.5314Z" fill="url(#paint0_linear_170_1388)"/>
<defs>
<linearGradient id="paint0_linear_170_1388" x1="50" y1="0" x2="50" y2="98.9523" gradientUnits="userSpaceOnUse">
<stop stop-color="#9D50F1"/>
<stop offset="1" stop-color="#6573FC"/>
</linearGradient>
</defs>
</svg>
