<svg width="305" height="50" viewBox="0 0 305 50" fill="none" xmlns="http://www.w3.org/2000/svg">
<path d="M61.332 24.076C61.332 20.308 62.604 17.164 65.148 14.644C67.716 12.1 70.944 10.828 74.832 10.828C78.84 10.828 82.14 11.968 84.732 14.248L81.708 18.964C80.964 18.292 80.004 17.728 78.828 17.272C77.652 16.816 76.524 16.588 75.444 16.588C72.9 16.588 70.992 17.284 69.72 18.676C68.472 20.044 67.848 21.772 67.848 23.86C67.848 26.236 68.556 28.132 69.972 29.548C71.412 30.964 73.164 31.672 75.228 31.672C77.1 31.672 78.84 31.048 80.448 29.8V27.82H76.812V22.456H86.028V37H80.772V36.28L80.808 35.2H80.736C79.968 35.872 78.96 36.412 77.712 36.82C76.488 37.228 75.24 37.432 73.968 37.432C70.512 37.432 67.536 36.22 65.04 33.796C62.568 31.372 61.332 28.132 61.332 24.076ZM90.6517 37V18.46H96.6277V21.592L96.5557 22.744H96.6277C97.0357 21.448 97.7797 20.356 98.8597 19.468C99.9637 18.58 101.188 18.136 102.532 18.136C102.724 18.136 102.964 18.16 103.252 18.208V24.328C103.036 24.256 102.616 24.22 101.992 24.22C100.312 24.22 99.0397 24.712 98.1758 25.696C97.3117 26.68 96.8797 28.048 96.8797 29.8V37H90.6517ZM106.52 30.484V18.46H112.748V29.332C112.748 30.964 113.408 31.78 114.728 31.78C116 31.78 116.972 31.3 117.644 30.34C118.316 29.356 118.652 28.132 118.652 26.668V18.46H124.88V37H118.904V35.38L118.976 34.228H118.904C118.4 35.212 117.62 35.992 116.564 36.568C115.508 37.144 114.356 37.432 113.108 37.432C111.092 37.432 109.484 36.892 108.284 35.812C107.108 34.708 106.52 32.932 106.52 30.484ZM129.779 37V18.46H135.755V20.08L135.683 21.232H135.755C137.171 19.096 139.007 18.028 141.263 18.028C143.759 18.028 145.487 19.072 146.447 21.16H146.519C147.047 20.296 147.839 19.564 148.895 18.964C149.975 18.34 151.163 18.028 152.459 18.028C154.283 18.028 155.735 18.58 156.815 19.684C157.919 20.788 158.471 22.552 158.471 24.976V37H152.243V26.02C152.243 24.46 151.763 23.68 150.803 23.68C149.555 23.68 148.643 24.208 148.067 25.264C147.515 26.296 147.239 27.592 147.239 29.152V37H141.011V26.02C141.011 24.46 140.531 23.68 139.571 23.68C138.275 23.68 137.351 24.208 136.799 25.264C136.271 26.32 136.007 27.616 136.007 29.152V37H129.779ZM163.23 44.2V18.46H168.846V19.396L168.774 20.584H168.846C170.118 18.88 171.99 18.028 174.462 18.028C176.982 18.028 178.998 18.928 180.51 20.728C182.046 22.504 182.814 24.844 182.814 27.748C182.814 30.652 181.998 32.992 180.366 34.768C178.734 36.544 176.67 37.432 174.174 37.432C172.398 37.432 170.826 36.844 169.458 35.668H169.386C169.434 36.1 169.458 36.628 169.458 37.252V44.2H163.23ZM169.278 27.856C169.278 29.056 169.59 30.1 170.214 30.988C170.862 31.852 171.762 32.284 172.914 32.284C173.946 32.284 174.81 31.888 175.506 31.096C176.202 30.304 176.55 29.224 176.55 27.856C176.55 26.488 176.214 25.384 175.542 24.544C174.87 23.704 173.994 23.284 172.914 23.284C171.882 23.284 171.018 23.668 170.322 24.436C169.626 25.204 169.278 26.344 169.278 27.856ZM186.454 38.692C187.126 39.148 187.762 39.376 188.362 39.376C189.85 39.376 190.846 38.752 191.35 37.504L191.71 36.64L183.826 18.46H190.882L193.618 26.992L194.302 29.872H194.374C194.614 28.696 194.818 27.772 194.986 27.1L197.326 18.46H204.13L196.534 38.98C195.814 40.9 194.746 42.304 193.33 43.192C191.938 44.104 190.426 44.56 188.794 44.56C188.074 44.56 187.354 44.452 186.634 44.236C185.914 44.02 185.374 43.804 185.014 43.588L184.474 43.264L186.454 38.692ZM206.022 33.76L209.334 28.972C210.15 29.692 211.122 30.316 212.25 30.844C213.378 31.372 214.47 31.636 215.526 31.636C216.366 31.636 217.014 31.468 217.47 31.132C217.95 30.796 218.19 30.364 218.19 29.836C218.19 29.284 217.902 28.78 217.326 28.324C216.774 27.844 216.078 27.448 215.238 27.136C214.398 26.824 213.486 26.428 212.502 25.948C211.518 25.444 210.606 24.916 209.766 24.364C208.926 23.812 208.218 23.056 207.642 22.096C207.09 21.112 206.814 19.984 206.814 18.712C206.814 16.36 207.678 14.464 209.406 13.024C211.158 11.56 213.402 10.828 216.138 10.828C219.33 10.828 222.018 11.8 224.202 13.744L221.538 18.892C220.794 18.244 219.906 17.704 218.874 17.272C217.842 16.84 216.834 16.624 215.85 16.624C214.938 16.624 214.254 16.792 213.798 17.128C213.342 17.464 213.114 17.908 213.114 18.46C213.114 19.012 213.39 19.516 213.942 19.972C214.518 20.428 215.226 20.812 216.066 21.124C216.906 21.412 217.818 21.796 218.802 22.276C219.786 22.732 220.698 23.236 221.538 23.788C222.378 24.316 223.074 25.072 223.626 26.056C224.202 27.016 224.49 28.132 224.49 29.404C224.49 31.684 223.674 33.592 222.042 35.128C220.434 36.664 218.202 37.432 215.346 37.432C213.618 37.432 211.926 37.12 210.27 36.496C208.638 35.872 207.222 34.96 206.022 33.76ZM228.425 37V11.26H234.653V19.396L234.581 20.98H234.653C235.181 20.068 235.949 19.348 236.957 18.82C237.965 18.292 239.081 18.028 240.305 18.028C244.745 18.028 246.965 20.344 246.965 24.976V37H240.737V26.128C240.737 24.496 240.053 23.68 238.685 23.68C237.389 23.68 236.393 24.136 235.697 25.048C235.001 25.96 234.653 27.16 234.653 28.648V37H228.425ZM251.752 16.12V11.26H257.836V16.12H251.752ZM251.68 37V18.46H257.908V37H251.68ZM262.806 37V11.26H269.034V18.424L268.962 20.008H269.034C269.562 19.408 270.282 18.928 271.194 18.568C272.13 18.208 273.078 18.028 274.038 18.028C276.558 18.028 278.574 18.928 280.086 20.728C281.622 22.504 282.39 24.844 282.39 27.748C282.39 30.652 281.574 32.992 279.942 34.768C278.31 36.544 276.246 37.432 273.75 37.432C271.518 37.432 269.79 36.7 268.566 35.236H268.494C268.518 35.548 268.53 35.896 268.53 36.28V37H262.806ZM268.854 27.856C268.854 29.056 269.166 30.1 269.79 30.988C270.438 31.852 271.338 32.284 272.49 32.284C273.522 32.284 274.386 31.888 275.082 31.096C275.778 30.304 276.126 29.224 276.126 27.856C276.126 26.488 275.79 25.384 275.118 24.544C274.446 23.704 273.57 23.284 272.49 23.284C271.458 23.284 270.594 23.668 269.898 24.436C269.202 25.204 268.854 26.344 268.854 27.856ZM285.012 31.78C285.012 30.604 285.336 29.584 285.984 28.72C286.632 27.856 287.484 27.196 288.54 26.74C289.62 26.284 290.736 25.96 291.888 25.768C293.04 25.552 294.24 25.444 295.488 25.444H296.028V25.12C296.028 23.752 295.152 23.068 293.4 23.068C291.768 23.068 290.064 23.656 288.288 24.832L286.128 20.44C286.968 19.792 288.12 19.228 289.584 18.748C291.072 18.268 292.536 18.028 293.976 18.028C296.544 18.028 298.56 18.7 300.024 20.044C301.512 21.388 302.256 23.236 302.256 25.588V37H296.568V35.884L296.64 34.732H296.568C295.968 35.572 295.164 36.232 294.156 36.712C293.172 37.192 292.14 37.432 291.06 37.432C289.284 37.432 287.832 36.892 286.704 35.812C285.576 34.732 285.012 33.388 285.012 31.78ZM291.168 31.204C291.168 31.66 291.324 32.044 291.636 32.356C291.948 32.644 292.38 32.788 292.932 32.788C293.796 32.788 294.54 32.44 295.164 31.744C295.788 31.048 296.1 30.304 296.1 29.512V29.008H295.524C294.372 29.008 293.352 29.188 292.464 29.548C291.6 29.884 291.168 30.436 291.168 31.204Z" fill="url(#paint0_linear_165_1314)"/>
<path d="M47.0963 41.4901C44.0821 45.9039 37.7197 49.4607 25.0454 49.4607H25.0307C12.5201 49.459 6.16306 45.9886 3.10622 41.6481C1.95228 40.0125 1.26931 38.253 0.900999 36.5097C-0.360601 30.5307 2.09227 24.734 2.09227 24.734C0.376027 13.0479 2.8219 5.52533 4.30482 2.26117C4.90512 0.935907 6.39138 0.242609 7.78431 0.657588C13.0667 2.22484 18.3631 9.4558 18.3631 9.4558C21.6306 8.46185 25.0454 8.52651 25.0454 8.52651C25.0454 8.52651 28.4602 8.46185 31.7274 9.4558C31.7274 9.4558 37.0241 2.22484 42.3062 0.657588C43.6991 0.242609 45.1854 0.935907 45.786 2.26117C47.2686 5.52533 49.7148 13.0479 47.9986 24.734C47.9986 24.734 52.0313 34.2628 47.0963 41.4901Z" fill="#F9A429"/>
<path d="M48.1474 39.0296C47.8635 39.9009 47.5091 40.7208 47.0962 41.4901C44.082 45.9039 37.7197 49.4607 25.0453 49.4607H25.0306C12.52 49.459 6.16296 45.9886 3.10612 41.6481C2.63681 40.8305 2.24317 39.9589 1.94318 39.0296C1.94318 39.0296 0.476592 34.0888 3.12612 30.9957C5.77665 27.9028 9.44512 29.2201 11.109 31.6193C12.7753 34.0188 16.6141 33.5695 18.6866 31.925C20.7589 30.2804 22.4014 29.3984 25.0453 29.3984C27.6892 29.3984 29.3318 30.2804 31.404 31.925C33.4762 33.5695 37.3153 34.0188 38.9813 31.6193C40.6452 29.2201 44.3136 27.9028 46.9645 30.9957C49.6137 34.0888 48.1474 39.0296 48.1474 39.0296Z" fill="white"/>
<path d="M28.2933 32.2419C28.2343 31.433 27.3063 31.026 26.4574 30.8227C25.5307 30.6007 24.5601 30.6007 23.6335 30.8227C22.7842 31.026 21.8566 31.433 21.7976 32.2419C21.7206 33.2932 23.3252 34.0232 24.3068 34.3695C24.7858 34.5388 25.3051 34.5388 25.7837 34.3695C26.7657 34.0232 28.3699 33.2932 28.2933 32.2419Z" fill="#03036B"/>
<path d="M26.8181 31.582C26.8181 31.75 26.0308 31.8863 25.0585 31.8863C24.0865 31.8863 23.2986 31.75 23.2986 31.582C23.2986 31.413 24.0865 31.2764 25.0585 31.2764C26.0308 31.2764 26.8181 31.413 26.8181 31.582Z" fill="white"/>
<path d="M6.91076 16.7991C8.25035 15.6468 10.5609 13.8259 13.4071 12.2587C13.7607 12.0637 13.9141 11.6364 13.7687 11.2597C13.0981 9.52048 9.9866 5.50769 8.29202 4.89139C5.77515 3.97577 5.49116 12.6197 5.57349 16.2048C5.58949 16.8888 6.39212 17.2454 6.91076 16.7991Z" fill="#FF5FAF"/>
<path d="M43.1796 16.7991C41.84 15.6468 39.5295 13.8259 36.6836 12.2587C36.3296 12.0637 36.1763 11.6364 36.3216 11.2597C36.9923 9.52048 40.1038 5.50769 41.7983 4.89139C44.3152 3.97577 44.5995 12.6197 44.5172 16.2048C44.5012 16.8888 43.6982 17.2454 43.1796 16.7991Z" fill="#FF5FAF"/>
<path d="M12.9361 48.0028C8.02374 46.5895 4.95923 44.279 3.10633 41.6481C1.95239 40.0125 1.26942 38.253 0.901108 36.5097C0.779115 35.9321 0.691786 35.3558 0.633789 34.7861C0.691786 35.3558 0.779115 35.9317 0.901108 36.5097C1.26942 38.253 1.95239 40.0125 3.10633 41.6481C4.95923 44.279 8.02374 46.5895 12.9361 48.0028Z" fill="#B38FA4"/>
<path d="M47.1043 41.4781C47.105 41.4768 47.1056 41.4754 47.107 41.4744C47.1056 41.4754 47.105 41.4768 47.1043 41.4781ZM47.1123 41.4664C47.1133 41.4644 47.1143 41.4634 47.1153 41.4614C47.1143 41.4628 47.1133 41.4648 47.1123 41.4664ZM47.1203 41.4541C47.1216 41.4531 47.1226 41.4511 47.1233 41.4494C47.1223 41.4511 47.1216 41.4524 47.1203 41.4541ZM47.1286 41.4418C47.13 41.4404 47.1306 41.4391 47.1316 41.4374C47.1306 41.4388 47.1296 41.4408 47.1286 41.4418ZM47.1393 41.4258C47.1403 41.4251 47.1406 41.4244 47.1413 41.4234C47.1406 41.4244 47.1403 41.4251 47.1393 41.4258ZM47.1473 41.4144C47.1486 41.4124 47.1493 41.4114 47.1506 41.4094C47.1493 41.4114 47.1486 41.4128 47.1473 41.4144ZM47.1556 41.4021C47.1566 41.4004 47.158 41.3988 47.159 41.3971C47.158 41.3988 47.1566 41.4004 47.1556 41.4021ZM47.1633 41.3911C47.1643 41.3891 47.166 41.3868 47.167 41.3848C47.166 41.3868 47.1643 41.3891 47.1633 41.3911ZM47.1713 41.3791C47.173 41.3758 47.175 41.3728 47.1773 41.3694C47.1753 41.3728 47.173 41.3761 47.1713 41.3791ZM47.1823 41.3624C47.1836 41.3601 47.185 41.3581 47.1866 41.3561C47.185 41.3581 47.1836 41.3601 47.1823 41.3624ZM47.1899 41.3508C47.1913 41.3484 47.1926 41.3464 47.194 41.3444C47.1926 41.3464 47.1913 41.3484 47.1899 41.3508ZM47.1976 41.3391C47.199 41.3368 47.2006 41.3344 47.202 41.3324C47.2006 41.3348 47.199 41.3364 47.1976 41.3391ZM47.2056 41.3268C47.2073 41.3248 47.2083 41.3224 47.2093 41.3211C47.2083 41.3228 47.2073 41.3244 47.2056 41.3268ZM47.2136 41.3144C47.2166 41.3104 47.219 41.3064 47.222 41.3021C47.219 41.3064 47.2166 41.3104 47.2136 41.3144ZM47.2243 41.2984C47.2263 41.2958 47.228 41.2931 47.2296 41.2904C47.228 41.2931 47.2263 41.2958 47.2243 41.2984ZM47.232 41.2871C47.2336 41.2841 47.2353 41.2821 47.2369 41.2794C47.235 41.2821 47.2336 41.2841 47.232 41.2871ZM47.2396 41.2754C47.2413 41.2728 47.243 41.2701 47.2446 41.2674C47.243 41.2701 47.2413 41.2728 47.2396 41.2754ZM47.2466 41.2648C47.2523 41.2561 47.2583 41.2464 47.2643 41.2374C47.2583 41.2468 47.2523 41.2554 47.2466 41.2648ZM47.2663 41.2341C47.2683 41.2311 47.2693 41.2291 47.2719 41.2261C47.2699 41.2288 47.2679 41.2314 47.2663 41.2341ZM47.2736 41.2228C47.2756 41.2201 47.2769 41.2174 47.2789 41.2148C47.2769 41.2174 47.2756 41.2201 47.2736 41.2228ZM47.2809 41.2118C47.2899 41.1981 47.2973 41.1861 47.3063 41.1728C47.2976 41.1858 47.2893 41.1984 47.2809 41.2118ZM47.3076 41.1704C47.3093 41.1678 47.3116 41.1641 47.3129 41.1614C47.3116 41.1641 47.3093 41.1678 47.3076 41.1704ZM47.3149 41.1591C47.3166 41.1561 47.3186 41.1531 47.3203 41.1504C47.3186 41.1531 47.3166 41.1561 47.3149 41.1591ZM47.3223 41.1474C47.3306 41.1341 47.3389 41.1204 47.3479 41.1071C47.3393 41.1204 47.3306 41.1341 47.3223 41.1474ZM47.3483 41.1064C47.3506 41.1031 47.3523 41.0994 47.3546 41.0961C47.3523 41.0994 47.3506 41.1031 47.3483 41.1064ZM47.3546 41.0961C48.2539 39.6728 48.8215 38.1706 49.1538 36.6763C48.8215 38.1706 48.2539 39.6728 47.3546 41.0961ZM49.1542 36.675C49.1549 36.671 49.1559 36.668 49.1565 36.6647C49.1559 36.668 49.1549 36.671 49.1542 36.675ZM49.1568 36.664C49.1598 36.6497 49.1628 36.636 49.1659 36.6217C49.1628 36.636 49.1598 36.65 49.1568 36.664ZM49.1668 36.6183C49.1672 36.616 49.1679 36.613 49.1685 36.6107C49.1679 36.6133 49.1672 36.6157 49.1668 36.6183ZM49.1695 36.606C49.1698 36.6033 49.1705 36.6007 49.1708 36.5987C49.1705 36.6007 49.1698 36.6033 49.1695 36.606ZM49.1722 36.593C49.1725 36.5913 49.1732 36.5887 49.1735 36.5867C49.1732 36.589 49.1725 36.591 49.1722 36.593ZM49.1752 36.5793C49.1758 36.5757 49.1765 36.5727 49.1775 36.5687C49.1765 36.5727 49.1758 36.5757 49.1752 36.5793ZM49.1789 36.5627C49.1795 36.5603 49.1799 36.5583 49.1802 36.556C49.1799 36.5583 49.1795 36.5603 49.1789 36.5627ZM49.1812 36.55C49.1822 36.5477 49.1822 36.5467 49.1828 36.5443C49.1825 36.546 49.1818 36.548 49.1812 36.55ZM49.1845 36.536C49.1848 36.5347 49.1852 36.5337 49.1852 36.532C49.1852 36.5337 49.1848 36.5347 49.1845 36.536ZM49.1875 36.522C49.1879 36.521 49.1878 36.5203 49.1878 36.5193C49.1878 36.5203 49.1879 36.521 49.1875 36.522ZM49.1935 36.4937C49.1935 36.4923 49.1938 36.4913 49.1942 36.49C49.1938 36.491 49.1935 36.4927 49.1935 36.4937ZM49.1962 36.4807C49.1962 36.4797 49.1965 36.4783 49.1972 36.4773C49.1965 36.4783 49.1962 36.4797 49.1962 36.4807ZM49.1988 36.467C49.1992 36.4663 49.1992 36.465 49.1998 36.4647C49.1992 36.4653 49.1992 36.4657 49.1988 36.467ZM49.2052 36.4383C49.2052 36.438 49.2052 36.437 49.2052 36.4367C49.2052 36.437 49.2052 36.438 49.2052 36.4383ZM49.2075 36.4247C49.2075 36.4244 49.2075 36.4244 49.2082 36.4234C49.2075 36.4237 49.2075 36.4247 49.2075 36.4247ZM49.2105 36.4114C49.2105 36.411 49.2108 36.4104 49.2108 36.41C49.2108 36.4104 49.2105 36.411 49.2105 36.4114ZM0.633711 34.7854C0.632711 34.7798 0.632378 34.7741 0.631712 34.7684C0.632378 34.7741 0.632711 34.7798 0.633711 34.7854ZM0.631712 34.7681C0.631378 34.7628 0.630712 34.7574 0.630045 34.7521C0.630712 34.7574 0.631378 34.7628 0.631712 34.7681ZM0.629712 34.7504C0.629378 34.7451 0.629045 34.7401 0.628378 34.7354C0.629045 34.7401 0.629378 34.7451 0.629712 34.7504ZM0.628378 34.7328C0.627712 34.7281 0.627045 34.7234 0.626712 34.7184C0.627045 34.7234 0.627712 34.7284 0.628378 34.7328ZM0.626378 34.7154C0.626045 34.7104 0.625712 34.7058 0.625379 34.7011C0.625712 34.7058 0.626045 34.7104 0.626378 34.7154ZM0.624712 34.6981C0.624712 34.6934 0.624045 34.6894 0.623712 34.6851C0.624045 34.6894 0.624712 34.6934 0.624712 34.6981ZM0.623045 34.6801C0.622712 34.6764 0.622045 34.6721 0.621712 34.6681C0.622045 34.6721 0.622712 34.6761 0.623045 34.6801ZM0.621379 34.6628C0.621045 34.6588 0.620712 34.6554 0.620379 34.6518C0.620712 34.6554 0.621045 34.6591 0.621379 34.6628ZM0.619712 34.6451C0.619379 34.6414 0.619046 34.6384 0.618712 34.6351C0.619046 34.6384 0.619379 34.6414 0.619712 34.6451ZM0.618046 34.6274C0.618046 34.6244 0.617712 34.6218 0.617379 34.6184C0.617712 34.6214 0.618046 34.6244 0.618046 34.6274ZM0.616379 34.6098C0.616046 34.6071 0.616046 34.6044 0.615712 34.6018C0.616046 34.6048 0.616046 34.6068 0.616379 34.6098ZM0.615046 34.5924C0.614379 34.5901 0.614379 34.5878 0.614046 34.5854C0.614379 34.5878 0.614379 34.5898 0.615046 34.5924ZM0.613379 34.5748C0.613046 34.5728 0.613046 34.5708 0.612713 34.5688C0.613046 34.5708 0.613046 34.5728 0.613379 34.5748ZM0.611713 34.5574C0.611379 34.5554 0.611379 34.5541 0.611379 34.5521C0.611379 34.5541 0.611379 34.5554 0.611713 34.5574ZM0.610379 34.5398C0.610046 34.5381 0.610046 34.5371 0.610046 34.5358C0.610046 34.5371 0.610046 34.5381 0.610379 34.5398ZM0.608713 34.5221C0.608379 34.5214 0.608379 34.5205 0.608379 34.5191C0.608379 34.5205 0.608379 34.5214 0.608713 34.5221ZM0.607379 34.5044C0.607379 34.5038 0.607379 34.5038 0.607046 34.5031C0.607046 34.5035 0.607379 34.5041 0.607379 34.5044ZM0.605713 34.4875C0.605713 34.4871 0.605713 34.4868 0.605713 34.4865C0.605713 34.4868 0.605713 34.4871 0.605713 34.4875Z" fill="#B38FA4"/>
<path d="M3.10626 41.6481C1.95232 40.0125 1.26936 38.2529 0.901042 36.5097C0.779049 35.9317 0.69172 35.3557 0.633723 34.7861C0.633723 34.7857 0.633723 34.7857 0.633723 34.7854C0.632723 34.7797 0.63239 34.7741 0.631723 34.7684V34.7681C0.63139 34.7627 0.630723 34.7574 0.630056 34.7521C0.630056 34.7514 0.630056 34.7507 0.629723 34.7504C0.62939 34.7451 0.629056 34.7401 0.62839 34.7354C0.62839 34.7344 0.62839 34.7337 0.62839 34.7327C0.627723 34.7284 0.627057 34.7234 0.626723 34.7184C0.626723 34.7178 0.626723 34.7161 0.62639 34.7154C0.626057 34.7104 0.625723 34.7057 0.62539 34.7011C0.624723 34.7001 0.624723 34.6994 0.624723 34.6981C0.624723 34.6934 0.624057 34.6894 0.623723 34.6851C0.62339 34.6831 0.62339 34.6817 0.623057 34.6801C0.622723 34.6761 0.622057 34.6721 0.621723 34.6681C0.621723 34.6664 0.62139 34.6644 0.62139 34.6628C0.621057 34.6591 0.620724 34.6554 0.62039 34.6518C0.62039 34.6498 0.619724 34.6471 0.619724 34.6451C0.61939 34.6414 0.619057 34.6384 0.618724 34.6351C0.618724 34.6328 0.61839 34.6298 0.618057 34.6274C0.618057 34.6244 0.617724 34.6214 0.61739 34.6184C0.61739 34.6154 0.616724 34.6124 0.61639 34.6098C0.616057 34.6068 0.616057 34.6048 0.615724 34.6018C0.61539 34.5988 0.61539 34.5958 0.615057 34.5924C0.614391 34.5898 0.614391 34.5878 0.614057 34.5854C0.613724 34.5814 0.613724 34.5781 0.613391 34.5748C0.613057 34.5728 0.613057 34.5708 0.612724 34.5688C0.612724 34.5651 0.612391 34.5614 0.611724 34.5574C0.611391 34.5554 0.611391 34.5541 0.611391 34.5521C0.611057 34.5478 0.610724 34.5434 0.610391 34.5398C0.610057 34.5381 0.610057 34.5371 0.610057 34.5358C0.609391 34.5314 0.609391 34.5268 0.608724 34.5221C0.608391 34.5214 0.608391 34.5204 0.608391 34.5191C0.608058 34.5141 0.607724 34.5091 0.607391 34.5044C0.607391 34.5041 0.607058 34.5034 0.607058 34.5031C0.606391 34.4981 0.606058 34.4924 0.605724 34.4874C0.605724 34.4871 0.605724 34.4868 0.605724 34.4864C0.415068 32.2369 0.668054 30.1083 1.01604 28.4171C0.918041 29.93 0.975705 31.5829 1.32735 33.2515C1.41335 33.6571 1.51668 34.0648 1.639 34.4711C1.29469 36.8446 1.94332 39.0295 1.94332 39.0295C2.24331 39.9588 2.63695 40.8304 3.10626 41.6481ZM47.0963 41.4901C47.5093 40.7208 47.8636 39.9008 48.1476 39.0295C48.1476 39.0295 48.7959 36.845 48.4516 34.4718C49.0782 32.3972 49.1962 30.2983 49.0745 28.4161C49.5208 30.584 49.8105 33.4705 49.2109 36.41C49.2109 36.4103 49.2105 36.411 49.2105 36.4113C49.2095 36.4157 49.2089 36.419 49.2082 36.4233C49.2075 36.4243 49.2075 36.4243 49.2075 36.4247C49.2069 36.429 49.2062 36.433 49.2052 36.4367C49.2052 36.437 49.2052 36.438 49.2052 36.4383C49.2032 36.447 49.2012 36.4557 49.1999 36.4647C49.1992 36.465 49.1992 36.4663 49.1989 36.467C49.1982 36.4703 49.1972 36.474 49.1972 36.4773C49.1965 36.4783 49.1962 36.4797 49.1962 36.4807C49.1955 36.4837 49.1945 36.4867 49.1942 36.49C49.1939 36.4913 49.1935 36.4923 49.1935 36.4937C49.1919 36.5023 49.1899 36.511 49.1879 36.5193C49.1879 36.5203 49.1879 36.521 49.1875 36.522C49.1869 36.5253 49.1859 36.5283 49.1852 36.532C49.1852 36.5337 49.1849 36.5347 49.1845 36.536C49.1839 36.5387 49.1832 36.5417 49.1829 36.5443C49.1822 36.5467 49.1822 36.5477 49.1812 36.55C49.1809 36.552 49.1805 36.5537 49.1802 36.556C49.1799 36.5583 49.1795 36.5603 49.1789 36.5627C49.1782 36.5643 49.1779 36.5667 49.1775 36.5687C49.1765 36.5727 49.1759 36.5757 49.1752 36.5793C49.1749 36.5817 49.1742 36.5843 49.1735 36.5867C49.1732 36.5887 49.1725 36.5913 49.1722 36.593C49.1719 36.5947 49.1715 36.5967 49.1709 36.5987C49.1705 36.6007 49.1699 36.6033 49.1695 36.606C49.1692 36.6073 49.1685 36.6093 49.1685 36.6106C49.1679 36.613 49.1672 36.616 49.1669 36.6183C49.1665 36.62 49.1659 36.6207 49.1659 36.6217C49.1629 36.636 49.1599 36.6496 49.1569 36.664L49.1565 36.6646C49.1559 36.668 49.1549 36.671 49.1542 36.675C49.1542 36.6753 49.1542 36.6763 49.1539 36.6763C48.8215 38.1706 48.2539 39.6728 47.3546 41.0961C47.3523 41.0994 47.3506 41.1031 47.3483 41.1064C47.3483 41.1067 47.348 41.1071 47.348 41.1071C47.339 41.1204 47.3306 41.1341 47.3223 41.1474C47.3216 41.1484 47.3213 41.1491 47.3203 41.1504C47.3186 41.1531 47.3166 41.1561 47.315 41.1591C47.3143 41.1601 47.314 41.1604 47.313 41.1614C47.3116 41.1641 47.3093 41.1677 47.3076 41.1704C47.3073 41.1711 47.3066 41.1717 47.3063 41.1727C47.2973 41.1861 47.29 41.1981 47.281 41.2117C47.28 41.2127 47.28 41.2134 47.279 41.2147C47.277 41.2174 47.2756 41.2201 47.2736 41.2227C47.273 41.2237 47.2723 41.2251 47.272 41.2261C47.2693 41.2291 47.2683 41.2311 47.2663 41.2341C47.2656 41.2354 47.265 41.2364 47.2643 41.2374C47.2583 41.2464 47.2523 41.2561 47.2466 41.2647C47.2456 41.2657 47.2453 41.2667 47.2446 41.2674C47.243 41.2701 47.2413 41.2727 47.2396 41.2754C47.2386 41.2764 47.2376 41.2777 47.237 41.2794C47.2353 41.2821 47.2336 41.2841 47.232 41.2871C47.2313 41.2881 47.2306 41.2897 47.2296 41.2904C47.228 41.2931 47.2263 41.2957 47.2243 41.2984C47.2236 41.2994 47.2226 41.3011 47.222 41.3021C47.219 41.3064 47.2166 41.3104 47.2136 41.3144C47.2123 41.3164 47.211 41.3191 47.2093 41.3211C47.2083 41.3224 47.2073 41.3247 47.2056 41.3267C47.205 41.3284 47.203 41.3304 47.202 41.3324C47.2006 41.3344 47.199 41.3367 47.1976 41.3391C47.1963 41.3407 47.1953 41.3424 47.194 41.3444C47.1926 41.3464 47.1913 41.3484 47.19 41.3507C47.1886 41.3527 47.1876 41.3544 47.1866 41.3561C47.185 41.3581 47.1836 41.3601 47.1823 41.3624C47.1806 41.3647 47.179 41.3674 47.1773 41.3694C47.175 41.3727 47.173 41.3757 47.1713 41.3791C47.1696 41.3811 47.1686 41.3827 47.167 41.3847C47.166 41.3867 47.1643 41.3891 47.1633 41.3911C47.1616 41.3931 47.1606 41.3947 47.159 41.3971C47.158 41.3987 47.1566 41.4004 47.1556 41.4021C47.154 41.4047 47.152 41.4071 47.1506 41.4094C47.1493 41.4114 47.1486 41.4124 47.1473 41.4144C47.1456 41.4171 47.1433 41.4204 47.1413 41.4234C47.1406 41.4244 47.1403 41.4251 47.1393 41.4257C47.137 41.4301 47.1343 41.4334 47.1316 41.4374C47.1306 41.4391 47.13 41.4404 47.1286 41.4417C47.1266 41.4444 47.1253 41.4467 47.1233 41.4494C47.1226 41.4511 47.1216 41.4531 47.1203 41.4541C47.1186 41.4567 47.1173 41.4591 47.1153 41.4614C47.1143 41.4634 47.1133 41.4644 47.1123 41.4664C47.1103 41.4687 47.1086 41.4717 47.107 41.4744C47.1056 41.4754 47.105 41.4767 47.1043 41.4781C47.1016 41.4821 47.099 41.4857 47.0963 41.4901Z" fill="#AF733D"/>
<path d="M25.0453 49.4607H25.0306C20.7638 49.4604 17.2117 49.056 14.2635 48.3517C13.8065 48.2424 13.3646 48.1261 12.9359 48.0028C8.02351 46.5895 4.959 44.279 3.1061 41.6481C2.63679 40.8305 2.24314 39.9588 1.94316 39.0296C1.94316 39.0296 1.29452 36.8447 1.63884 34.4711C2.03349 35.7771 2.62912 37.0733 3.49341 38.2986C6.49692 42.5624 12.7413 45.9715 25.031 45.9735H25.0453C37.4953 45.9735 43.7453 42.4794 46.7062 38.1433C47.5115 36.964 48.0741 35.7224 48.4514 34.4718C48.7957 36.845 48.1474 39.0296 48.1474 39.0296C47.8634 39.9008 47.5091 40.7208 47.0961 41.4901C45.2529 44.189 42.1587 46.5675 37.135 48.0081C36.7063 48.1308 36.2634 48.2471 35.8067 48.3561C32.8585 49.0584 29.3091 49.4607 25.0453 49.4607Z" fill="#B3B3D2"/>
<path d="M31.7156 9.45142C31.7063 9.44942 31.6973 9.44642 31.688 9.44309C31.6973 9.44642 31.7063 9.44942 31.7156 9.45142ZM31.659 9.43476C31.6393 9.42842 31.6207 9.42342 31.6017 9.41809C31.6207 9.42342 31.6393 9.42842 31.659 9.43476ZM18.4887 9.41809C18.492 9.41709 18.495 9.41609 18.498 9.41509C18.495 9.41609 18.492 9.41709 18.4887 9.41809ZM31.5973 9.41609C31.577 9.41076 31.5563 9.40442 31.5363 9.39843C31.5563 9.40442 31.577 9.41076 31.5973 9.41609ZM18.4983 9.41509C18.5017 9.41409 18.505 9.41276 18.508 9.41176C18.505 9.41276 18.5017 9.41409 18.4983 9.41509ZM18.5543 9.39843C18.5567 9.39843 18.5587 9.39709 18.561 9.39609C18.5587 9.39709 18.5567 9.39843 18.5543 9.39843ZM31.5297 9.39609C31.5107 9.39109 31.492 9.38576 31.473 9.38043C31.492 9.38576 31.5107 9.39109 31.5297 9.39609ZM18.6173 9.38043C18.623 9.37843 18.6293 9.37643 18.6353 9.37543C18.6293 9.37643 18.623 9.37843 18.6173 9.38043ZM31.4727 9.38043C31.4363 9.37009 31.4003 9.35976 31.364 9.34943C31.4003 9.35976 31.4363 9.37009 31.4727 9.38043ZM18.6923 9.35876C18.7023 9.35643 18.7123 9.35343 18.7223 9.35043C18.7123 9.35343 18.7023 9.35643 18.6923 9.35876ZM31.3617 9.34809C31.3573 9.34709 31.3527 9.34609 31.3483 9.34509C31.3527 9.34609 31.3573 9.34709 31.3617 9.34809ZM18.743 9.34509C18.7443 9.34409 18.745 9.3441 18.7467 9.3441C18.745 9.3441 18.7443 9.34409 18.743 9.34509ZM31.3423 9.34309C31.332 9.33976 31.3207 9.33776 31.3103 9.33476C31.3207 9.33776 31.332 9.33976 31.3423 9.34309ZM18.7837 9.33376C18.7867 9.33243 18.7897 9.33143 18.7927 9.33043C18.7897 9.33143 18.7867 9.33243 18.7837 9.33376ZM31.297 9.33043C31.296 9.33043 31.2947 9.33043 31.2937 9.32943C31.2947 9.33043 31.296 9.33043 31.297 9.33043ZM18.798 9.32943C18.8013 9.32843 18.8047 9.32743 18.8083 9.32643C18.8047 9.32743 18.8013 9.32843 18.798 9.32943ZM31.2767 9.3251C31.2733 9.3241 31.2703 9.3231 31.267 9.3221C31.2703 9.3231 31.2733 9.3241 31.2767 9.3251ZM18.8263 9.3221C18.8303 9.3201 18.835 9.3191 18.8397 9.3181C18.835 9.3191 18.8303 9.3201 18.8263 9.3221ZM31.2493 9.3181C31.2423 9.3161 31.236 9.31376 31.229 9.31176C31.236 9.31376 31.2423 9.3161 31.2493 9.3181ZM18.8607 9.31276C18.8647 9.31176 18.8677 9.31076 18.8713 9.30976C18.8677 9.31076 18.8647 9.31176 18.8607 9.31276ZM31.2217 9.31076C31.22 9.30976 31.2187 9.30976 31.2167 9.30876C31.2187 9.30976 31.22 9.30976 31.2217 9.31076ZM18.8717 9.30976C18.9016 9.30143 18.9313 9.29276 18.9613 9.28576C18.9313 9.29276 18.9016 9.30143 18.8717 9.30976ZM31.1767 9.2981H31.1763H31.1767ZM31.1323 9.28576C31.1287 9.28576 31.125 9.28477 31.1217 9.28376C31.125 9.28477 31.1287 9.28576 31.1323 9.28576ZM18.9673 9.28376C21.5865 8.58913 24.1587 8.52847 24.859 8.52547C24.1587 8.52847 21.5858 8.58913 18.9673 9.28376ZM25.0453 8.52647C25.0453 8.52647 25.0903 8.52547 25.1757 8.52547C25.0903 8.52547 25.0453 8.52647 25.0453 8.52647ZM25.2313 8.52547C25.2113 8.52547 25.1923 8.52547 25.1757 8.52547C25.1923 8.52547 25.2113 8.52547 25.2313 8.52547ZM42.3061 0.657547C42.4338 0.619883 42.5621 0.590884 42.6907 0.570885C42.5621 0.590884 42.4338 0.619883 42.3061 0.657547ZM7.78423 0.657547C7.7309 0.641882 7.6779 0.627216 7.62424 0.61455C7.6779 0.627216 7.7309 0.641882 7.78423 0.657547ZM7.62191 0.61455C7.62091 0.61455 7.61924 0.61355 7.61824 0.61355C7.61924 0.61355 7.62091 0.61455 7.62191 0.61455ZM7.61357 0.61255C7.61291 0.61255 7.61257 0.61255 7.61157 0.61255C7.61257 0.61255 7.61291 0.61255 7.61357 0.61255ZM42.6937 0.570885C42.6951 0.570885 42.6957 0.570885 42.6964 0.569885C42.6957 0.570885 42.6951 0.570885 42.6937 0.570885Z" fill="#FFEBE4"/>
<path d="M20.885 12.07C19.7454 12.07 18.8664 11.7187 18.7694 11.167C18.6638 11.1867 18.5585 11.196 18.4531 11.196C17.9578 11.196 17.4805 10.9791 17.1615 10.5831C15.4963 8.50985 10.9379 3.27512 6.38942 1.92553C6.09544 1.83786 5.79779 1.7962 5.50414 1.7962C5.14315 1.7962 4.78817 1.85986 4.45386 1.97886C4.9845 1.0809 5.94845 0.537598 6.96539 0.537598C7.17972 0.537598 7.3967 0.562596 7.61169 0.612594C7.61269 0.612594 7.61303 0.612594 7.61369 0.612594C7.61536 0.612594 7.61669 0.613594 7.61836 0.613594C7.61936 0.613594 7.62103 0.614594 7.62203 0.614594C7.62336 0.614594 7.62369 0.614594 7.62436 0.614594C7.67802 0.62726 7.73102 0.641926 7.78435 0.657591C13.0667 2.22484 18.3631 9.4558 18.3631 9.4558C18.4048 9.44313 18.4471 9.4308 18.4888 9.41813C18.4921 9.41714 18.4951 9.41613 18.4981 9.41513C18.4985 9.41513 18.4985 9.41513 18.4985 9.41513C18.5018 9.41413 18.5051 9.4128 18.5081 9.4118C18.5235 9.4078 18.5391 9.40347 18.5545 9.39847C18.5568 9.39847 18.5588 9.39714 18.5611 9.39614C18.5801 9.39114 18.5988 9.3858 18.6175 9.38047C18.6231 9.37847 18.6295 9.37647 18.6355 9.37547C18.6545 9.37014 18.6735 9.3638 18.6924 9.3588C18.7024 9.35647 18.7124 9.35347 18.7224 9.35047C18.7291 9.34814 18.7361 9.34714 18.7431 9.34514C18.7444 9.34414 18.7451 9.34414 18.7468 9.34414C18.7591 9.33981 18.7718 9.33681 18.7838 9.33381C18.7868 9.33247 18.7898 9.33147 18.7928 9.33047C18.7948 9.33047 18.7961 9.33047 18.7981 9.32947C18.8014 9.32847 18.8048 9.32747 18.8084 9.32647C18.8144 9.32514 18.8201 9.32314 18.8264 9.32214C18.8304 9.32014 18.8351 9.31914 18.8398 9.31814C18.8468 9.31614 18.8534 9.31381 18.8608 9.31281C18.8648 9.31181 18.8678 9.31081 18.8714 9.30981H18.8718C18.9018 9.30147 18.9314 9.29281 18.9614 9.28581C18.9638 9.28481 18.9651 9.28481 18.9674 9.28381C21.586 8.58918 24.1588 8.52851 24.8591 8.52551C24.8795 8.52551 24.8981 8.52551 24.9148 8.52551C24.9998 8.52551 25.0455 8.52651 25.0455 8.52651C25.0455 8.52651 25.0904 8.52551 25.1758 8.52551C25.1924 8.52551 25.2114 8.52551 25.2314 8.52551C25.9317 8.52851 28.5036 8.58918 31.1218 9.28381C31.1251 9.28481 31.1288 9.28581 31.1325 9.28581C31.1468 9.28981 31.1615 9.29414 31.1765 9.29814H31.1768C31.1901 9.30147 31.2035 9.30547 31.2168 9.30881C31.2188 9.30981 31.2201 9.30981 31.2218 9.31081C31.2241 9.31081 31.2268 9.31181 31.2291 9.31181C31.2361 9.31381 31.2425 9.31614 31.2495 9.31814C31.2551 9.31914 31.2608 9.32114 31.2671 9.32214C31.2705 9.32314 31.2735 9.32414 31.2768 9.32514C31.2825 9.32647 31.2881 9.32847 31.2938 9.32947C31.2948 9.33047 31.2961 9.33047 31.2971 9.33047C31.3015 9.33147 31.3061 9.33381 31.3105 9.33481C31.3208 9.33781 31.3321 9.33981 31.3425 9.34314C31.3445 9.34414 31.3461 9.34414 31.3485 9.34514C31.3528 9.34614 31.3575 9.34714 31.3618 9.34814C31.3628 9.34947 31.3635 9.34947 31.3641 9.34947C31.4005 9.3598 31.4365 9.37014 31.4728 9.38047H31.4731C31.4921 9.3858 31.5108 9.39114 31.5298 9.39614C31.5321 9.39714 31.5341 9.39847 31.5364 9.39847C31.5564 9.40447 31.5771 9.4108 31.5974 9.41613C31.5988 9.41714 31.6001 9.41714 31.6018 9.41813C31.6208 9.42347 31.6394 9.42847 31.6591 9.4348C31.6688 9.43813 31.6781 9.44113 31.6881 9.44313C31.6974 9.44647 31.7064 9.44947 31.7158 9.45147C31.7194 9.45347 31.7238 9.45447 31.7274 9.4558C31.7274 9.4558 37.0242 2.22484 42.3062 0.657591C42.4339 0.619927 42.5622 0.590928 42.6909 0.570929C42.6915 0.570929 42.6932 0.570929 42.6939 0.570929C42.6952 0.570929 42.6959 0.570929 42.6965 0.569929C42.8399 0.54893 42.9832 0.537598 43.1252 0.537598C44.1421 0.537598 45.1064 1.0809 45.6367 1.97886C45.3024 1.85986 44.9477 1.7962 44.5868 1.7962C44.2928 1.7962 43.9955 1.83786 43.7011 1.92553C39.1527 3.27512 34.5943 8.50985 32.929 10.5831C32.6094 10.9804 32.1307 11.1994 31.6341 11.1994C31.5008 11.1994 31.3658 11.1837 31.2321 11.1514C28.4569 10.4724 25.8157 10.4287 25.1864 10.4287C25.0944 10.4287 25.0455 10.4297 25.0455 10.4297C25.0455 10.4297 24.9975 10.4297 24.9078 10.4297C24.7915 10.4297 24.6045 10.4307 24.3595 10.4371C24.3512 11.1064 23.2189 11.7957 21.7413 12.0073C21.446 12.05 21.158 12.07 20.885 12.07Z" fill="#FDDBA9"/>
<path d="M6.97062 1.07788C6.05934 1.07788 5.19072 1.61285 4.7954 2.48348C3.26448 5.85597 0.946272 13.2203 2.62518 24.6547C2.63952 24.7526 2.62685 24.8526 2.58819 24.9433C2.57852 24.9663 1.61157 27.2845 1.23159 30.4297C0.885608 33.2972 0.970937 37.4667 3.34448 41.0445C6.81197 46.2715 14.1129 48.9214 25.0453 48.9214C35.9774 48.9214 43.2784 46.2715 46.7462 41.0445C49.1198 37.4667 49.2051 33.2972 48.8588 30.4297C48.4791 27.2845 47.5118 24.9663 47.5019 24.9433C47.4639 24.8526 47.4512 24.7526 47.4652 24.6547C49.1441 13.2203 46.8262 5.85597 45.2953 2.48348C44.8043 1.4032 43.5851 0.839895 42.4594 1.17388C37.4107 2.67213 32.214 9.70277 32.1623 9.77376C32.027 9.95842 31.7893 10.0374 31.57 9.97075C28.4278 9.01547 25.0883 9.06447 25.0553 9.06447C25.0487 9.06447 25.042 9.06447 25.0354 9.06447C25.002 9.06447 21.6629 9.01547 18.5204 9.97075C18.301 10.0374 18.0637 9.95842 17.9284 9.77376C17.8767 9.70277 12.675 2.67113 7.63126 1.17388C7.41294 1.10921 7.19061 1.07788 6.97062 1.07788ZM25.0453 50C19.0023 50 13.9636 49.1854 10.0698 47.5791C6.70097 46.1895 4.13444 44.1893 2.44153 41.6341C1.30892 39.9252 0.561292 37.9573 0.218643 35.7854C-0.0536762 34.0595 -0.0716753 32.2033 0.164979 30.266C0.516294 27.3948 1.31325 25.2333 1.53724 24.666C0.798946 19.5523 0.775281 14.7052 1.46624 10.2564C2.06088 6.42627 3.07083 3.67341 3.81379 2.03817C4.52575 0.469914 6.29866 -0.34671 7.93824 0.140265C10.2161 0.815897 12.7393 2.53981 15.4375 5.26466C16.9718 6.81325 18.1054 8.23051 18.5694 8.83315C21.7042 7.95186 24.8064 7.98219 25.0453 7.98652C25.2843 7.98219 28.3862 7.95186 31.5213 8.83315C31.9853 8.23051 33.1189 6.81325 34.6532 5.26466C37.3514 2.53981 39.8742 0.815897 42.1521 0.140265C43.7917 -0.34671 45.5646 0.469914 46.2769 2.03817C47.0195 3.67341 48.0298 6.42627 48.6245 10.2564C49.3151 14.7052 49.2914 19.5523 48.5531 24.666C48.7775 25.2333 49.5744 27.3948 49.9254 30.266C50.162 32.2033 50.1437 34.0595 49.8721 35.7854C49.5294 37.9573 48.7814 39.9255 47.6492 41.6341C45.9556 44.1893 43.3894 46.1895 40.0209 47.5791C36.1268 49.1854 31.0884 50 25.0453 50Z" fill="#0F156D"/>
<path d="M16.9515 22.3134C19.0144 22.4778 20.5309 24.5683 20.3386 26.9829C20.1463 29.3974 18.3181 31.2216 16.2552 31.0573C14.1923 30.893 12.6757 28.8024 12.868 26.3879C13.0603 23.9734 14.8886 22.1491 16.9515 22.3134Z" fill="#000072"/>
<path d="M21.0675 25.6269C17.9837 23.346 14.8549 23.3654 12.3613 23.489C13.6913 20.7842 19.1263 21.6875 21.0675 25.6269Z" fill="#000072"/>
<path d="M18.2623 24.8606C17.7716 24.8856 17.4017 25.4609 17.4363 26.1458C17.4713 26.8308 17.8973 27.3665 18.3879 27.3415C18.8793 27.3168 19.2486 26.7408 19.2139 26.0559C19.1792 25.3709 18.7536 24.8356 18.2623 24.8606Z" fill="white"/>
<path d="M18.4906 18.0334C19.6806 18.3404 20.5155 19.0917 20.3555 19.7116C20.1959 20.3316 19.1012 20.5856 17.9116 20.2789C16.7217 19.9723 15.8867 19.2207 16.0467 18.6007C16.2067 17.9797 17.3007 17.7261 18.4906 18.0334Z" fill="white"/>
<path d="M14.7351 28.33C14.4681 28.4714 14.4041 28.8743 14.5928 29.2307C14.7811 29.5863 15.1501 29.761 15.4174 29.6193C15.6844 29.4776 15.7484 29.075 15.5597 28.7187C15.3714 28.363 15.0024 28.1884 14.7351 28.33Z" fill="#B199C5"/>
<path d="M33.1392 22.3134C31.0763 22.4778 29.5597 24.5683 29.752 26.9829C29.9444 29.3974 31.7723 31.2216 33.8355 31.0573C35.8984 30.893 37.415 28.8024 37.2227 26.3879C37.0303 23.9734 35.2021 22.1491 33.1392 22.3134Z" fill="#000072"/>
<path d="M29.0232 25.6269C32.107 23.346 35.2359 23.3654 37.7294 23.489C36.3995 20.7842 30.9641 21.6875 29.0232 25.6269Z" fill="#000072"/>
<path d="M31.8281 24.8606C32.3188 24.8856 32.6884 25.4609 32.6538 26.1458C32.6191 26.8308 32.1931 27.3665 31.7025 27.3415C31.2112 27.3168 30.8419 26.7408 30.8765 26.0559C30.9112 25.3709 31.3368 24.8356 31.8281 24.8606Z" fill="white"/>
<path d="M31.5999 18.0334C30.4099 18.3404 29.575 19.0917 29.735 19.7116C29.8946 20.3316 30.9892 20.5856 32.1788 20.2789C33.3688 19.9723 34.2037 19.2207 34.0437 18.6007C33.8838 17.9797 32.7898 17.7261 31.5999 18.0334Z" fill="white"/>
<path d="M35.3555 28.33C35.6225 28.4714 35.6865 28.8743 35.4978 29.2307C35.3095 29.5863 34.9405 29.761 34.6732 29.6193C34.4059 29.4776 34.3422 29.075 34.5308 28.7187C34.7192 28.363 35.0882 28.1884 35.3555 28.33Z" fill="#B199C5"/>
<path d="M24.2715 34.0088C24.2715 33.5511 24.6428 33.1798 25.1004 33.1798C25.5584 33.1798 25.9294 33.5511 25.9294 34.0088V36.2716C25.9294 36.7293 25.5584 37.1006 25.1004 37.1006C24.6428 37.1006 24.2715 36.7293 24.2715 36.2716V34.0088Z" fill="#03036B"/>
<path d="M22.5218 38.6809C22.1251 38.9062 21.6205 38.7672 21.3952 38.3702C21.1698 37.9732 21.3092 37.4689 21.7062 37.2436L24.6923 35.553C25.0893 35.3277 25.5939 35.4667 25.8189 35.8637C26.0443 36.2607 25.9053 36.765 25.5083 36.9903L22.5218 38.6809Z" fill="#03036B"/>
<path d="M28.4946 37.2436C28.8913 37.4689 29.0306 37.9732 28.8053 38.3702C28.58 38.7672 28.0756 38.9062 27.6787 38.6809L24.6922 36.9903C24.2955 36.765 24.1562 36.2607 24.3815 35.8637C24.6068 35.4667 25.1111 35.3277 25.5081 35.553L28.4946 37.2436Z" fill="#03036B"/>
<defs>
<linearGradient id="paint0_linear_165_1314" x1="305" y1="37.5" x2="60.0006" y2="31.226" gradientUnits="userSpaceOnUse">
<stop stop-color="#9D50F1"/>
<stop offset="1" stop-color="#6573FC"/>
</linearGradient>
</defs>
</svg>
