<svg width="106" height="81" viewBox="0 0 106 81" fill="none" xmlns="http://www.w3.org/2000/svg">
<path d="M88.8965 7.64634C82.1695 4.56315 75.0221 2.32084 67.5104 1.00348C67.3702 1.00348 67.2301 1.00348 67.174 1.17165C66.2491 2.82536 65.212 4.95556 64.5113 6.63729C56.3829 5.43205 48.3947 5.43205 40.4905 6.63729C39.7617 4.8995 38.7247 2.79733 37.6876 1.17165C37.6035 1.05954 37.4914 0.97545 37.3513 1.00348C30.9046 2.29281 22.6641 4.64724 16.0493 7.64634C15.9932 7.64634 15.9372 7.70239 15.9091 7.75845C2.17495 28.2196 -1.46881 47.8398 0.493216 67.4601C0.493216 67.5442 0.549274 67.6563 0.633361 67.7404C9.60262 74.3552 18.2916 78.3914 26.8684 80.998C27.0086 80.998 27.1487 80.998 27.2328 80.8859C29.2509 78.1391 31.0447 75.2241 32.6144 72.1409C32.6985 71.9727 32.6144 71.7485 32.4182 71.6924C29.6153 70.5713 26.8124 69.282 24.2057 67.7684C24.0095 67.6563 23.9815 67.348 24.2057 67.2078C24.7663 66.7874 25.3268 66.3669 25.8314 65.9465C25.9155 65.8624 26.0556 65.8624 26.1677 65.8904C43.3775 73.7385 62.0447 73.7385 78.8621 65.8904C78.9742 65.8344 79.1144 65.8624 79.1984 65.9185C79.731 66.3669 80.2635 66.7874 80.8241 67.2078C81.0203 67.348 80.9923 67.6563 80.8241 67.7684C78.2174 69.31 75.4986 70.5713 72.6116 71.6924C72.4154 71.7765 72.3314 71.9727 72.4435 72.1689C74.0131 75.2521 75.835 78.1391 77.769 80.8579C77.8531 80.97 77.9932 81.0261 78.1334 80.97C86.7102 78.3073 95.4272 74.2991 104.424 67.7123C104.509 67.6563 104.565 67.5722 104.565 67.432C106.751 44.7566 100.893 25.1084 89.0366 7.73042C89.0366 7.67436 88.9525 7.6183 88.8965 7.6183V7.64634ZM35.0809 55.5758C29.7554 55.5758 25.5511 50.8109 25.5511 44.9248C25.5511 39.0387 29.7554 34.2738 35.0809 34.2738C40.4064 34.2738 44.6108 39.0387 44.6108 44.9248C44.6108 50.8109 40.4064 55.5758 35.0809 55.5758ZM70.1171 55.5758C64.7916 55.5758 60.5872 50.8109 60.5872 44.9248C60.5872 39.0387 64.7916 34.2738 70.1171 34.2738C75.4426 34.2738 79.6469 39.0387 79.6469 44.9248C79.6469 50.8109 75.4426 55.5758 70.1171 55.5758Z" fill="#5865F2"/>
</svg>
