<svg width="282" height="196" viewBox="0 0 282 196" fill="none" xmlns="http://www.w3.org/2000/svg">
<path d="M135.21 139.288L128.08 142.772C124.855 144.35 121.024 144.028 118.107 141.935C109.42 135.703 102.603 127.213 98.3956 117.385C96.9818 114.085 97.4966 110.275 99.7318 107.466L104.675 101.259L135.21 139.288Z" fill="#1389EA"/>
<path d="M131.833 139.11L127.359 141.298C125.385 142.262 123.147 142.374 121.134 141.675C119.597 140.524 118.122 139.303 116.713 138.016C118.446 138.164 120.217 137.851 121.837 137.06L126.136 134.959C127.961 136.431 129.862 137.817 131.833 139.11Z" fill="#0D60C6"/>
<path d="M116.714 138.015C116.311 137.98 115.911 137.92 115.514 137.836C113.523 136.153 111.651 134.34 109.916 132.408C110.325 132.359 110.754 132.303 111.2 132.239C112.902 134.285 114.743 136.214 116.714 138.015ZM106.646 128.424C103.956 124.826 101.69 120.906 99.9058 116.738C98.7282 113.988 99.1538 110.828 101.017 108.488L104.118 104.593C104.357 105.221 104.604 105.846 104.86 106.468L103.716 107.906C101.479 110.714 100.966 114.524 102.379 117.825C103.731 120.983 105.353 124.005 107.22 126.856C107.009 127.405 106.819 127.929 106.646 128.424Z" fill="#65B2F1"/>
<path d="M121.135 141.675C120.407 141.422 119.709 141.063 119.064 140.6C117.842 139.724 116.658 138.802 115.514 137.837C115.911 137.921 116.311 137.981 116.714 138.016C118.123 139.303 119.598 140.525 121.135 141.675Z" fill="#6197DA"/>
<path d="M77.6761 98.4961C82.1878 97.9359 103.364 95.1322 110.285 104.454L120.166 85.6074C119.768 85.1994 119.327 84.7925 118.849 84.3978L118.849 84.3953C111.977 78.7289 96.8023 75.1123 77.6978 97.2448C77.5554 97.4085 77.4128 97.5757 77.2693 97.7431C76.9991 98.0599 77.2612 98.5473 77.6761 98.4961Z" fill="#F91228"/>
<path d="M103.78 98.1093C98.9315 96.3645 91.735 95.4497 81.0576 96.4682C81.2679 96.2657 81.4766 96.0686 81.6863 95.8723C86.759 94.6161 94.1455 94.0254 99.4822 94.8258C101.534 95.1332 103.289 94.9989 104.971 94.43C104.457 95.8797 104.069 97.1146 103.78 98.1093Z" fill="#DC132C"/>
<path d="M109.259 84.3794C103.461 83.9044 96.2264 85.3393 88.5119 90.4466C86.2705 91.9302 83.9867 93.7249 81.6865 95.8719C81.4386 95.9339 81.1945 95.9969 80.9568 96.0622C84.4689 92.2785 87.9959 89.2161 91.4828 86.9079C96.3993 83.6528 101.237 81.8989 105.837 81.7448C107.512 81.6883 109.035 81.8428 110.405 82.1314C110.001 82.8985 109.62 83.6483 109.259 84.3794Z" fill="#FB717E"/>
<path d="M81.058 96.4674C80.8855 96.4839 80.7106 96.5016 80.5366 96.5192C80.6765 96.3656 80.8183 96.2125 80.957 96.0618C81.1946 95.9965 81.4388 95.9335 81.6866 95.8715C81.4769 96.0679 81.2682 96.2649 81.058 96.4674Z" fill="#EA7180"/>
<path d="M111.192 105.824C110.469 106.302 109.49 106.138 108.968 105.433C106.634 102.291 99.5206 97.4212 78.0934 100.1L77.8792 100.126C77.0129 100.235 76.1855 99.8074 75.7713 99.0383C75.3552 98.2687 75.4523 97.3422 76.0192 96.6775C86.0276 84.9165 96.0227 78.789 105.727 78.463C114.268 78.1749 119.493 82.5616 121.342 84.4613C121.975 85.111 121.961 86.1504 121.311 86.7835C120.663 87.4179 119.622 87.4025 118.989 86.7527C117.444 85.1658 113.068 81.5028 105.838 81.7448C97.8435 82.0139 89.1388 87.1085 80.5369 96.5196C100.369 94.5299 108.383 99.1379 111.604 103.475C112.145 104.203 111.993 105.232 111.265 105.773C111.241 105.791 111.217 105.807 111.192 105.824Z" fill="#000072"/>
<path d="M154.524 128.401C159.341 135.74 161.864 153.125 133.715 168.043C133.345 168.239 132.925 167.877 133.066 167.483C134.588 163.199 141.573 142.723 133.968 133.951L154.524 128.401Z" fill="#D25658"/>
<path d="M133.716 168.045C133.346 168.237 132.927 167.876 133.066 167.482C133.845 165.288 136.059 158.845 137.009 151.903C137.909 145.342 137.679 138.335 134.047 134.047C134.021 134.015 133.993 133.984 133.967 133.953L134.092 133.918L154.523 128.401C155.875 130.46 157.046 133.313 157.408 136.68C158.342 145.306 153.965 157.311 133.716 168.045Z" fill="#F91228"/>
<path d="M147.273 146.649C144.833 148.264 142.009 149.789 138.752 151.185C139.173 147.646 139.244 144.056 138.677 140.798C142.175 140.536 148.122 139.78 155.839 137.628C155.865 138.023 155.88 138.429 155.881 138.846C153.777 141.558 150.964 144.206 147.273 146.649Z" fill="#C8142F"/>
<path d="M141.357 165.433C139.249 166.828 136.959 168.183 134.483 169.494C133.713 169.903 132.787 169.798 132.125 169.227C131.464 168.655 131.225 167.754 131.518 166.932C133.487 161.392 139.395 142.717 132.728 135.026C132.133 134.34 132.208 133.304 132.892 132.71C133.576 132.113 134.615 132.189 135.21 132.875C141.987 140.693 138.382 156.38 135.593 165.128C146.486 158.836 153.266 151.464 155.262 143.686C157.175 136.236 154.13 130.793 153.152 129.302C152.655 128.546 152.863 127.53 153.618 127.032L153.623 127.027C154.382 126.53 155.399 126.741 155.897 127.499C157.391 129.775 160.63 135.988 158.444 144.502C156.465 152.21 150.728 159.23 141.357 165.433Z" fill="#000072"/>
<path d="M254.623 12.1331C254.623 12.1331 261.287 57.9212 213.084 102.406C172.021 140.295 135.211 139.285 135.211 139.285C123.549 132.311 114.228 122.128 108.285 110.055C106.888 107.218 105.685 104.282 104.672 101.258C104.672 101.258 106.403 92.2988 113.799 79.3631C116.707 74.271 120.493 68.5653 125.397 62.5462C133.06 53.1407 143.463 42.9701 157.511 33.1939C158.303 32.6442 159.095 32.1008 159.89 31.5753C163.253 29.3147 166.579 27.2645 169.852 25.4095C217.815 -1.81128 254.623 12.1331 254.623 12.1331Z" fill="white"/>
<path d="M190.954 117.851C161.711 137.206 138.081 138.496 133.819 138.565C130.002 136.111 126.455 133.308 123.205 130.177C124.017 129.756 124.813 129.294 125.579 128.786C126.147 128.41 126.699 128.01 127.23 127.583C129.993 125.367 131.996 122.597 133.439 119.857C141.212 124.693 150.766 126.244 159.869 123.945C169.27 121.572 181.828 116.702 195.586 107.595C203.533 102.333 211.882 95.6574 220.253 87.2344C226.492 80.9559 229.297 67.7495 225.803 57.4798C220.207 41.0347 208.472 29.1497 204.425 23.214C218.407 36.335 229.951 51.5948 238.844 68.722C232.637 79.1441 224.045 90.1719 212.179 101.123C204.915 107.828 197.782 113.33 190.954 117.851ZM112.732 117.371C109.77 112.716 107.379 107.731 105.591 102.474C105.935 101.004 107.327 95.6913 110.969 88.1004C113.677 96.1681 117.786 103.619 123.044 110.143C121.274 110.776 119.494 111.617 117.808 112.733C117.27 113.089 116.744 113.471 116.229 113.885C116.067 114.017 115.906 114.15 115.747 114.285C114.649 115.221 113.646 116.265 112.732 117.371Z" fill="#B2B2D4"/>
<path d="M240.126 69.148C229.412 47.8447 214.312 29.0383 195.821 13.972C221.089 5.96293 240.769 8.65527 249.579 10.7033C252.688 11.4256 254.899 14.1673 254.932 17.3597C255.031 26.3953 253.411 46.1985 240.126 69.148Z" fill="#F91228"/>
<path d="M254.083 14.1108C253.99 13.942 253.891 13.777 253.785 13.6177C253.891 13.777 253.99 13.942 254.083 14.1108Z" fill="white"/>
<path d="M254.935 18.2661C254.371 17.1005 253.486 16.1109 252.379 15.4194C252.375 15.0002 252.368 14.604 252.355 14.2325L252.36 14.2037C252.309 14.5678 252.253 14.9363 252.197 15.3102C251.61 14.9681 250.965 14.7093 250.277 14.5477C242.113 12.65 224.603 10.2035 201.968 16.2316C200.59 15.3025 199.173 14.358 197.715 13.3904C197.713 13.3917 197.71 13.3932 197.707 13.3937C197.706 13.393 197.706 13.393 197.706 13.3913C222.067 6.09627 240.989 8.70651 249.579 10.7037C251.351 11.1164 252.834 12.1842 253.786 13.618C253.892 13.7774 253.991 13.9424 254.083 14.1111C254.615 15.0818 254.921 16.19 254.932 17.3601C254.936 17.6501 254.938 17.9519 254.935 18.2661Z" fill="#FB6573"/>
<path d="M239.313 64.0334C229.549 45.9148 216.785 29.9358 201.276 16.4175C201.507 16.3552 201.735 16.2935 201.967 16.231C214.156 24.4581 223.336 31.5038 231.778 41.8071C234.554 45.197 239.215 45.5811 242.457 43.4357C243.744 42.5843 244.805 41.3355 245.438 39.7178C248.967 30.7062 251.125 22.2348 252.196 15.3096C252.258 15.3442 252.318 15.3812 252.379 15.4187C252.463 24.0658 250.973 42.4622 239.313 64.0334Z" fill="#AE0D3E"/>
<path d="M252.379 15.4185C252.318 15.381 252.258 15.344 252.196 15.3093C252.253 14.9354 252.308 14.567 252.359 14.2029L252.355 14.2316C252.367 14.6031 252.374 14.9993 252.379 15.4185ZM201.967 16.2308C201.735 16.2932 201.507 16.355 201.276 16.4173C200.1 15.3963 198.913 14.3862 197.706 13.3928C197.709 13.3923 197.712 13.3909 197.714 13.3895C199.172 14.3571 200.589 15.3016 201.967 16.2308Z" fill="#AF4773"/>
<path d="M199.221 14.656C216.134 28.9431 229.899 46.0848 240.191 65.6823C251.776 44.4737 253.39 26.4217 253.29 17.3496C253.263 14.9318 251.599 12.8602 249.245 12.3116C240.409 10.2526 222.432 7.92833 199.221 14.656ZM241.033 70.5178C240.755 70.7015 240.422 70.8004 240.077 70.7904C239.475 70.7726 238.928 70.4265 238.658 69.8864C227.979 48.6493 213.216 30.2655 194.785 15.244C194.318 14.8629 194.095 14.2572 194.209 13.6639C194.323 13.0706 194.754 12.5885 195.327 12.4056C220.69 4.36547 240.462 6.89144 249.99 9.11381C253.822 10.007 256.531 13.3782 256.575 17.3125C256.682 27.0969 254.875 46.9456 241.547 69.9713C241.416 70.1956 241.24 70.3804 241.033 70.5178Z" fill="#000072"/>
<path d="M135.666 137.646C137.599 137.624 146.143 137.297 158.425 133.435C171.304 129.384 191.049 120.502 211.966 101.2C222.719 91.2764 231.563 80.4794 238.26 69.0976C227.744 48.457 213.358 30.5367 195.473 15.8081C182.911 19.8884 170.461 26.1906 158.448 34.5445C116.23 63.9106 107.318 97.1414 106.376 101.166C108.952 108.737 112.797 115.738 117.81 121.98C122.82 128.221 128.826 133.49 135.666 137.646ZM193.167 120.17C179.902 128.95 168.022 133.875 159.238 136.622C144.806 141.136 135.55 140.939 135.162 140.93C134.88 140.922 134.606 140.842 134.363 140.696C127.029 136.304 120.599 130.7 115.248 124.037C109.898 117.373 105.815 109.882 103.114 101.777C103.026 101.509 103.007 101.223 103.061 100.947C103.134 100.567 104.943 91.4869 112.469 78.3722C119.374 66.3401 132.631 48.5029 156.573 31.8485C169.125 23.1209 182.162 16.5762 195.327 12.4054C195.855 12.237 196.43 12.348 196.861 12.6975C215.646 28.0093 230.693 46.7444 241.581 68.3898C241.839 68.8824 241.836 69.4812 241.55 69.9748C234.635 81.9257 225.43 93.2435 214.194 103.612C206.981 110.268 199.894 115.717 193.167 120.17Z" fill="#000072"/>
<path d="M136.118 140.656C136.06 140.695 135.996 140.73 135.932 140.762L128.802 144.248C125.027 146.093 120.563 145.718 117.15 143.269C108.218 136.862 101.211 128.135 96.8856 118.031C95.2326 114.17 95.8315 109.729 98.4468 106.443L103.391 100.234C103.954 99.5235 104.988 99.4076 105.698 99.972C106.408 100.537 106.525 101.571 105.96 102.28L101.017 108.488C99.1539 110.828 98.7283 113.988 99.9059 116.738C103.995 126.292 110.62 134.543 119.064 140.6C121.494 142.342 124.672 142.609 127.359 141.297L134.489 137.812C135.304 137.414 136.287 137.751 136.686 138.567C137.052 139.316 136.796 140.207 136.118 140.656Z" fill="#000072"/>
<path d="M28.8164 193.441C43.089 181.981 56.2722 179.538 68.1145 177.985C79.4185 176.5 89.4999 175.827 98.1412 168.889C115.832 154.684 104.307 132.827 104.307 132.827C104.307 132.827 85.4571 116.852 67.7652 131.057C50.0732 145.263 56.7145 171.04 28.8164 193.441Z" fill="#FF061E"/>
<path d="M28.8164 193.441C43.089 181.981 56.2722 179.538 68.1145 177.985C79.4185 176.5 89.4999 175.827 98.1412 168.889C115.832 154.684 104.307 132.827 104.307 132.827C104.307 132.827 85.4571 116.852 67.7652 131.057C50.0732 145.263 56.7145 171.04 28.8164 193.441Z" fill="#FF061E"/>
<path d="M44.6571 182.022C43.4229 182.537 42.178 183.102 40.9227 183.719C48.4727 174.302 51.8854 164.745 55.0003 156.022C58.3878 146.536 61.3127 138.344 68.7932 132.338C69.4915 131.778 70.1977 131.261 70.9154 130.787C75.0094 128.076 79.4238 126.746 84.117 126.804C80.6461 127.245 77.0213 128.467 73.4093 130.858C72.6637 131.351 71.9178 131.895 71.1765 132.491C56.8004 144.033 58.4875 163.217 44.6571 182.022Z" fill="#FF6A78"/>
<path d="M56.8161 170.801C65.0936 164.155 73.2571 163.361 80.6373 163.088C87.7387 162.823 94.1142 163.04 99.1652 158.984C109.465 150.715 100.766 135.513 100.766 135.513C100.766 135.513 87.8033 123.734 77.502 132.004C67.2035 140.275 73.0578 157.759 56.8161 170.801Z" fill="#FFD400"/>
<path d="M40.9229 183.72C51.7503 178.383 61.8172 177.117 71.0083 175.96C81.0007 174.701 89.6299 173.618 97.1125 167.608C103.966 162.106 107.034 154.765 106.233 145.788C105.703 139.843 103.57 135.074 102.996 133.88C101.957 133.064 97.7602 129.951 92.0698 128.148C83.4776 125.426 75.651 126.837 68.7934 132.338C61.3129 138.345 58.388 146.536 55.0004 156.022C51.8855 164.745 48.4728 174.302 40.9229 183.72ZM96.7441 171.941C89.115 176.992 80.4947 178.076 71.4188 179.219C59.0411 180.777 45.0132 182.544 29.8445 194.721C29.1358 195.291 28.104 195.177 27.5352 194.469C27.5034 194.429 27.4729 194.388 27.446 194.347C26.9826 193.646 27.1207 192.696 27.7885 192.16C42.9568 179.981 47.7114 166.665 51.9069 154.918C55.314 145.377 58.5321 136.365 66.7381 129.777C74.4166 123.605 83.5627 121.973 93.1728 125.052C100.326 127.343 105.167 131.404 105.369 131.575C105.529 131.711 105.663 131.876 105.761 132.062C105.884 132.297 108.802 137.901 109.495 145.38C110.424 155.429 106.854 164 99.1694 170.17C98.3733 170.809 97.5644 171.399 96.7441 171.941Z" fill="#000072"/>
<path d="M127.694 125.903C119.172 132.742 105.365 132.734 105.365 132.734C105.365 132.734 105.377 132.682 105.402 132.59C105.749 131.122 108.858 118.836 116.857 112.408C124.534 106.24 135.162 106.84 137.073 107.006C137.268 107.024 137.373 107.037 137.373 107.037C137.373 107.037 136.162 119.111 127.694 125.903Z" fill="#F91228"/>
<path d="M105.598 131.812C105.598 131.811 105.598 131.811 105.598 131.811C105.734 131.303 105.932 130.604 106.198 129.767C105.932 130.604 105.735 131.303 105.598 131.812Z" fill="#6666AA"/>
<path d="M105.388 132.641C105.392 132.626 105.396 132.609 105.401 132.591C105.436 132.44 105.501 132.175 105.598 131.812C105.598 131.812 105.598 131.812 105.598 131.813C105.502 132.174 105.437 132.44 105.402 132.591C105.397 132.609 105.392 132.626 105.388 132.641Z" fill="#6666AA"/>
<path d="M137.371 107.038C137.36 107.036 137.257 107.023 137.072 107.007C135.684 106.887 129.69 106.536 123.57 108.722C123.57 108.722 123.57 108.722 123.57 108.721C129.689 106.536 135.683 106.886 137.073 107.007C137.269 107.023 137.371 107.037 137.371 107.037C137.371 107.037 137.371 107.037 137.371 107.038Z" fill="white"/>
<path d="M123.571 108.722C121.827 109.345 120.071 110.175 118.41 111.274C117.882 111.624 117.363 112.003 116.857 112.409C116.696 112.538 116.537 112.669 116.382 112.802C116.538 112.668 116.697 112.537 116.856 112.408C117.363 112.001 117.883 111.623 118.412 111.273C120.073 110.174 121.827 109.345 123.571 108.721C123.571 108.722 123.571 108.722 123.571 108.722Z" fill="#D1D1E5"/>
<path d="M105.388 132.64C105.392 132.625 105.397 132.608 105.402 132.59C105.437 132.439 105.502 132.173 105.598 131.812C105.735 131.303 105.932 130.604 106.198 129.767C107.549 125.518 110.666 117.678 116.382 112.802C116.537 112.669 116.696 112.538 116.857 112.408C117.363 112.002 117.882 111.624 118.41 111.274C120.071 110.174 121.827 109.345 123.571 108.722C129.69 106.536 135.685 106.886 137.073 107.006C137.258 107.022 137.361 107.035 137.371 107.037C137.361 107.035 137.258 107.022 137.073 107.006L135.237 108.489C130.908 108.905 125.306 110.123 120.405 113.367C119.791 113.773 119.188 114.211 118.599 114.683C113.221 119.006 109.747 125.614 107.695 130.737L105.402 132.59C105.397 132.608 105.392 132.625 105.388 132.64Z" fill="#FB717E"/>
<path d="M126.068 127.088C125.312 127.588 124.529 128.043 123.728 128.459C122.675 129.005 121.592 129.481 120.504 129.897C114.413 132.221 108.158 132.641 106.083 132.717C105.62 132.735 105.365 132.734 105.365 132.734C105.365 132.734 105.373 132.7 105.388 132.641C105.373 132.699 105.367 132.735 105.367 132.735C105.367 132.735 105.954 132.734 106.957 132.674C107.179 132.06 107.424 131.411 107.695 130.737L135.236 108.49C135.917 108.424 136.567 108.379 137.177 108.348C137.32 107.537 137.369 107.057 137.371 107.037C137.373 107.037 137.373 107.037 137.373 107.037C137.373 107.037 136.162 119.112 127.694 125.903C127.171 126.323 126.627 126.718 126.068 127.088Z" fill="#C8142F"/>
<path d="M106.957 132.674C105.954 132.734 105.367 132.735 105.367 132.735C105.367 132.735 105.373 132.699 105.388 132.641C105.392 132.625 105.397 132.608 105.401 132.59L107.695 130.737C107.424 131.411 107.179 132.06 106.957 132.674ZM137.177 108.348C136.567 108.378 135.917 108.424 135.236 108.489L137.073 107.006C137.257 107.022 137.36 107.036 137.371 107.037C137.369 107.057 137.32 107.537 137.177 108.348Z" fill="#CA5B70"/>
<path d="M105.365 132.734L105.37 132.73L105.365 132.734ZM107.543 130.986C111.648 130.675 120.654 129.447 126.667 124.624C132.661 119.813 134.791 111.995 135.462 108.569C131.973 108.486 123.88 108.879 117.886 113.689C111.877 118.516 108.734 127.046 107.543 130.986ZM126.968 128.464C118.131 134.313 105.914 134.377 105.364 134.377C104.866 134.376 104.397 134.15 104.084 133.762C103.773 133.374 103.654 132.867 103.762 132.38C103.888 131.807 106.963 118.251 115.829 111.128C124.724 103.98 137.045 105.344 137.565 105.405C138.453 105.512 139.095 106.309 139.005 107.2C138.954 107.722 137.624 120.042 128.723 127.185C128.157 127.639 127.57 128.066 126.968 128.464Z" fill="#000072"/>
<path d="M188.937 91.0366C180.229 98.0299 167.501 96.6376 160.508 87.9287C153.516 79.2215 154.907 66.492 163.616 59.4995C172.325 52.5079 185.052 53.8995 192.044 62.6076C199.038 71.3163 197.646 84.0451 188.937 91.0366Z" fill="#F91228"/>
<path d="M186.507 90.7785C182.899 93.1669 178.612 94.2145 174.258 93.7374C174.013 93.7107 173.769 93.6792 173.527 93.6432C174.86 92.6285 175.929 91.4439 176.716 90.1259C179.855 89.7946 182.947 88.7278 185.72 86.8917C186.238 86.5488 186.744 86.1802 187.236 85.7836C191.526 82.3396 194.038 77.5013 194.648 72.4412C194.889 74.0252 194.924 75.6519 194.746 77.288C194.207 82.2212 191.779 86.6492 187.909 89.7563C187.454 90.1205 186.987 90.461 186.507 90.7785Z" fill="#AE0D3E"/>
<path d="M166.032 59.7677C165.558 60.0815 165.096 60.4183 164.645 60.7803C156.656 67.1947 155.375 78.9124 161.788 86.9003C164.896 90.7708 169.324 93.1985 174.258 93.7377C179.191 94.2773 184.037 92.8633 187.909 89.7566C191.779 86.6495 194.207 82.2215 194.746 77.2883C195.286 72.354 193.871 67.5057 190.765 63.6358C184.713 56.1 173.94 54.5327 166.032 59.7677ZM188.314 93.5233C184.069 96.3336 179.024 97.5645 173.901 97.0038C168.095 96.3686 162.885 93.5112 159.228 88.958C151.68 79.557 153.187 65.7673 162.588 58.2187C171.984 50.6718 185.777 52.179 193.325 61.5799C196.982 66.1333 198.646 71.8399 198.012 77.6444C197.377 83.4498 194.519 88.6608 189.966 92.3173C189.43 92.7474 188.879 93.1489 188.314 93.5233Z" fill="#000072"/>
<path d="M184.369 84.9614C178.828 89.41 170.73 88.5245 166.282 82.9851C161.834 77.4438 162.719 69.3471 168.259 64.8987C173.8 60.4502 181.897 61.3358 186.345 66.8753C190.793 72.4155 189.909 80.5131 184.369 84.9614Z" fill="#2D95EA"/>
<path d="M182.496 84.2973C181.18 85.168 179.715 85.7444 178.181 85.9998C178.286 85.2797 178.326 84.5388 178.296 83.7784C178.294 83.7359 178.292 83.6943 178.29 83.651C179.413 83.3 180.5 82.7872 181.52 82.1113C181.851 81.8925 182.172 81.6587 182.487 81.407C185.36 79.1015 186.98 75.8147 187.256 72.412C187.533 73.6215 187.608 74.881 187.47 76.1496C187.144 79.1295 185.677 81.8041 183.34 83.6813C183.066 83.9008 182.785 84.1053 182.496 84.2973Z" fill="#6CB5F0"/>
<path d="M185.453 68.4167C181.249 65.7132 175.72 65.6499 171.408 68.5051C171.078 68.7229 170.757 68.9575 170.443 69.2091C170.184 69.4172 169.935 69.6331 169.697 69.8548C168.826 69.2539 167.986 68.7467 167.234 68.3306C167.807 67.5433 168.492 66.8173 169.287 66.1789C169.563 65.9581 169.845 65.7517 170.135 65.5596C172.315 64.1173 174.904 63.4859 177.533 63.7737C180.513 64.0984 183.188 65.5665 185.064 67.9041C185.199 68.071 185.329 68.2425 185.453 68.4167Z" fill="#306AB0"/>
<path d="M170.136 65.5601C169.846 65.7522 169.563 65.9585 169.288 66.1794C164.462 70.0543 163.689 77.1319 167.562 81.9559C169.439 84.2934 172.115 85.7613 175.094 86.086C178.074 86.4115 181.003 85.556 183.34 83.6816C185.677 81.8044 187.144 79.1299 187.47 76.15C187.795 73.1694 186.941 70.2411 185.064 67.9045C183.188 65.5669 180.513 64.0989 177.533 63.7742C174.904 63.4864 172.315 64.1177 170.136 65.5601ZM184.313 87.034C178.138 91.1213 169.727 89.8986 165.002 84.0134C159.993 77.7759 160.994 68.6268 167.231 63.6187C170.252 61.1903 174.038 60.0878 177.89 60.5091C181.742 60.9296 185.2 62.8255 187.626 65.8476C190.051 68.8688 191.156 72.6553 190.735 76.5061C190.314 80.3588 188.418 83.8166 185.396 86.2425C185.044 86.5255 184.682 86.7896 184.313 87.034Z" fill="#000072"/>
<path d="M93.2641 168.585C83.2885 175.187 71.5237 174.697 58.28 177.091C68.1466 173.239 75.7157 169.356 81.4681 165.548C82.7913 164.673 84.0192 163.801 85.1547 162.935C89.9608 162.736 94.3332 162.258 98.0572 159.793C98.4335 159.544 98.8026 159.275 99.1649 158.984C109.465 150.715 100.766 135.513 100.766 135.513C100.766 135.513 98.3422 133.312 94.761 131.48C93.8637 130.093 92.9464 128.982 92.2291 128.199C97.8387 130.008 101.967 133.071 102.995 133.88C103.076 134.046 103.186 134.281 103.318 134.578C105.724 141.443 108.783 156.293 95.5864 166.888C94.8228 167.501 94.0493 168.064 93.2641 168.585Z" fill="#B20437"/>
<path d="M98.0571 159.793C94.3331 162.258 89.9607 162.736 85.1546 162.935C102.457 149.744 98.8206 137.765 94.7609 131.481C98.3421 133.312 100.766 135.513 100.766 135.513C100.766 135.513 109.465 150.715 99.1648 158.984C98.8025 159.275 98.4334 159.544 98.0571 159.793Z" fill="#B29422"/>
<path d="M103.318 134.578C103.186 134.281 103.076 134.046 102.996 133.88C101.967 133.071 97.8389 130.008 92.2293 128.198C91.4328 127.328 90.8833 126.859 90.8833 126.859L91.3822 126.232C95.8976 127.477 99.5995 129.562 101.867 131.055C102.106 131.539 102.689 132.787 103.318 134.578Z" fill="#000072"/>
</svg>
