<svg width="464" height="465" viewBox="0 0 464 465" fill="none" xmlns="http://www.w3.org/2000/svg">
	<g id="mp-number-img-character">
		<g id="mp-number-img-layer">
			<path id="Polygon 1" d="M238.742 60.5899C264.887 53.5844 292.783 61.0591 311.922 80.1984L383.992 152.268C403.131 171.407 410.606 199.303 403.601 225.448L377.221 323.897C370.216 350.042 349.794 370.463 323.65 377.469L225.201 403.848C199.056 410.853 171.16 403.379 152.021 384.239L79.9509 312.17C60.8117 293.031 53.3369 265.134 60.3424 238.99L86.7217 140.541C93.7272 114.396 114.149 93.9747 140.293 86.9692L238.742 60.5899Z" fill="url(#paint0_linear_165_861)"/>
		</g>
		<g id="mp-number-img-dog">
			<g id="mp-number-img-dog-inner">
				<path id="Vector" d="M355.231 338.668C336.092 337.012 316.953 336.157 297.813 335.583C278.673 335.014 259.534 334.719 240.394 334.749C221.254 334.752 202.114 335.092 182.975 335.7C163.834 336.313 144.695 337.212 125.555 338.915C125.393 338.93 125.269 339.146 125.278 339.399C125.287 339.635 125.408 339.818 125.555 339.832C144.695 341.533 163.834 342.434 182.975 343.046C202.114 343.655 221.254 343.996 240.394 343.998C259.534 344.028 278.673 343.732 297.813 343.163C316.953 342.589 336.092 341.735 355.231 340.08C355.482 340.058 355.673 339.724 355.66 339.334C355.647 338.972 355.46 338.688 355.231 338.668Z" fill="#000072"/>
				<path id="Vector_2" d="M124.579 256.369C126.401 276.928 147.079 287.226 147.656 287.506L147.666 287.512C158.527 286.512 165.312 281.092 169.499 274.061H169.505C169.522 274.025 169.544 273.997 169.562 273.963C170.87 271.764 171.921 269.405 172.761 266.971C172.972 266.377 173.167 265.772 173.349 265.166C177.753 250.6 175.252 234.337 175.252 234.337C169.893 229.02 164.433 225.929 159.165 224.592C139.71 219.628 122.985 238.456 124.579 256.369Z" fill="#FA9B27"/>
				<path id="Vector_3" d="M124.579 256.369C126.401 276.928 147.079 287.226 147.656 287.506C146.964 286.786 110.612 248.697 159.165 224.592C139.71 219.628 122.985 238.456 124.579 256.369Z" fill="white"/>
				<path id="Vector_4" d="M147.649 254.17C150.135 272.501 169.059 274.025 169.499 274.061H169.505C171.162 271.289 172.413 268.268 173.349 265.166C157.692 262.886 147.649 254.17 147.649 254.17Z" fill="white"/>
				<path id="Vector_5" d="M144.292 283.136C144.114 283.014 143.932 282.889 143.747 282.759C140.494 278.344 136.152 271.239 134.559 263.076C137.977 270.186 143.45 275.374 147.801 278.661C146.508 280.02 145.323 281.509 144.292 283.136Z" fill="#AF6C3E"/>
				<path id="Vector_6" d="M143.747 282.759C137.647 278.484 127.767 269.583 126.58 256.194C125.77 247.07 130.007 237.665 137.099 231.754C133.011 237.577 130.806 244.759 131.432 251.799C131.804 255.983 132.955 259.742 134.559 263.076C136.152 271.239 140.494 278.344 143.747 282.759Z" fill="#B2B2D4"/>
				<path id="Vector_7" d="M159.199 270.554C154.082 267.778 148.875 262.854 147.649 254.17C147.649 254.17 153.775 265.08 169.147 266.758C166.088 267.642 162.633 268.867 159.199 270.554Z" fill="#B2B2D4"/>
				<path id="Vector_8" d="M152.903 225.782C148.768 225.782 145.33 226.902 142.905 228.042C132.434 232.953 125.568 244.794 126.58 256.193C128.153 273.931 144.982 283.792 148.065 285.455C155.543 284.638 161.492 281.459 165.755 275.999C176.213 262.61 173.876 239.449 173.354 235.29C165.766 227.958 158.66 225.782 152.903 225.782ZM147.669 289.524C147.366 289.524 147.067 289.455 146.794 289.323C145.883 288.883 124.504 278.282 122.577 256.548C121.422 243.527 129.253 230.008 141.198 224.403C152.806 218.955 165.735 222.057 176.669 232.911C176.975 233.214 177.174 233.607 177.24 234.032C177.417 235.185 181.441 262.445 168.922 278.474C163.841 284.981 156.751 288.695 147.853 289.516C147.792 289.522 147.73 289.524 147.669 289.524Z" fill="#000072"/>
				<path id="Vector_9" d="M170.105 275.195C169.641 275.243 169.312 275.256 168.929 275.269C168.557 275.283 168.189 275.273 167.823 275.263C167.09 275.247 166.364 275.179 165.64 275.083C164.192 274.903 162.764 274.563 161.362 274.118C158.57 273.202 155.914 271.715 153.69 269.728C151.474 267.734 149.713 265.242 148.679 262.536C148.427 261.856 148.187 261.179 148.021 260.48C147.939 260.132 147.832 259.792 147.775 259.441L147.605 258.39C147.475 257.698 147.472 256.983 147.417 256.29C147.404 255.589 147.436 254.887 147.487 254.195L147.816 254.141C148.135 254.763 148.396 255.386 148.682 255.994L149.123 256.892C149.269 257.19 149.397 257.49 149.562 257.776C149.875 258.353 150.166 258.929 150.507 259.475C150.811 260.036 151.171 260.56 151.509 261.087C152.91 263.163 154.524 264.99 156.436 266.436C158.343 267.883 160.502 268.978 162.811 269.739C163.959 270.138 165.15 270.423 166.352 270.675C166.954 270.797 167.561 270.894 168.167 270.983C168.47 271.029 168.774 271.058 169.072 271.096L169.909 271.181L170.105 275.195Z" fill="#000072"/>
				<path id="Vector_10" d="M117.461 311.389C120.46 321.42 128.8 337.757 151.283 337.711H332.359C350.6 337.745 359.533 327 363.858 317.593C364.864 315.4 365.618 313.281 366.183 311.389C367.81 305.968 367.907 300.165 366.149 294.784C359.769 275.311 338.849 286.313 338.849 286.313C337.547 283.742 335.846 281.497 333.881 279.544C322.924 268.605 304.039 266.634 304.039 266.634C303.503 223.649 287.439 212.556 287.439 212.556L241.822 214.459H241.793L196.204 212.556C196.204 212.556 180.141 223.649 179.604 266.634C179.604 266.634 153.363 269.371 144.794 286.313C144.794 286.313 123.876 275.311 117.495 294.784C115.736 300.165 115.833 305.968 117.461 311.389Z" fill="#FA9B27"/>
				<path id="Vector_11" d="M326.845 333.358C327.466 335.906 329.736 337.711 332.359 337.711C354.845 337.757 363.184 321.42 366.183 311.389C367.81 305.968 367.907 300.165 366.149 294.784C360.591 277.827 344.012 283.979 339.821 285.852C339.168 286.142 338.581 286.545 338.081 287.053C334.56 290.62 320.406 306.952 326.845 333.358Z" fill="white"/>
				<path id="Vector_12" d="M156.796 333.358C156.177 335.906 153.906 337.711 151.283 337.711C128.8 337.757 120.46 321.42 117.461 311.389C115.833 305.968 115.736 300.165 117.495 294.784C123.051 277.827 139.631 283.979 143.823 285.852C144.474 286.142 145.061 286.545 145.561 287.053C149.083 290.62 163.237 306.952 156.796 333.358Z" fill="white"/>
				<path id="Vector_13" d="M196.206 212.557L241.821 214.373L287.438 212.557C287.438 212.557 329.015 321.735 241.821 321.735C154.628 321.735 196.206 212.557 196.206 212.557Z" fill="white"/>
				<path id="Vector_14" d="M340.774 310.721C339.622 314.501 341.299 318.361 344.521 319.341C347.741 320.322 351.284 318.052 352.435 314.27C353.587 310.489 351.908 306.628 348.688 305.648C345.468 304.668 341.922 306.939 340.774 310.721Z" fill="#FF699F"/>
				<path id="Vector_15" d="M353.652 304.027C353.056 305.984 353.926 307.982 355.593 308.49C357.26 308.997 359.095 307.822 359.688 305.864C360.287 303.907 359.418 301.909 357.751 301.401C356.08 300.894 354.248 302.069 353.652 304.027Z" fill="#FF699F"/>
				<path id="Vector_16" d="M338.342 300.066C337.746 302.024 338.615 304.022 340.283 304.529C341.95 305.036 343.785 303.861 344.378 301.904C344.977 299.946 344.108 297.948 342.441 297.44C340.774 296.933 338.938 298.109 338.342 300.066Z" fill="#FF699F"/>
				<path id="Vector_17" d="M347.306 298.086C346.713 300.045 347.579 302.042 349.247 302.55C350.914 303.058 352.749 301.881 353.345 299.923C353.941 297.966 353.072 295.968 351.404 295.461C349.737 294.953 347.906 296.128 347.306 298.086Z" fill="#FF699F"/>
				<path id="Vector_18" d="M142.871 310.721C144.022 314.501 142.343 318.361 139.123 319.341C135.903 320.322 132.358 318.052 131.208 314.27C130.057 310.489 131.734 306.628 134.956 305.648C138.176 304.668 141.719 306.939 142.871 310.721Z" fill="#FF699F"/>
				<path id="Vector_19" d="M129.991 304.027C130.588 305.984 129.719 307.982 128.052 308.49C126.384 308.997 124.549 307.822 123.953 305.864C123.358 303.907 124.227 301.909 125.894 301.401C127.561 300.894 129.395 302.069 129.991 304.027Z" fill="#FF699F"/>
				<path id="Vector_20" d="M145.301 300.066C145.897 302.024 145.028 304.022 143.362 304.529C141.693 305.036 139.858 303.861 139.263 301.904C138.667 299.946 139.536 297.948 141.204 297.44C142.871 296.933 144.705 298.109 145.301 300.066Z" fill="#FF699F"/>
				<path id="Vector_21" d="M136.336 298.086C136.931 300.045 136.063 302.042 134.395 302.55C132.728 303.058 130.894 301.881 130.298 299.923C129.703 297.966 130.571 295.968 132.239 295.461C133.906 294.953 135.74 296.128 136.336 298.086Z" fill="#FF699F"/>
				<path id="Vector_22" d="M328.034 335.699H264.286C268.735 333.703 272.904 331.189 276.713 328.233C313.853 325.971 325.032 320.527 325.191 320.45C325.225 324.435 325.718 328.742 326.845 333.358C327.063 334.242 327.475 335.038 328.034 335.699ZM214.571 335.699H155.607C156.167 335.038 156.581 334.242 156.796 333.358C157.923 328.742 158.419 324.435 158.453 320.45C158.604 320.523 168.729 325.454 201.696 327.881C205.624 330.988 209.948 333.626 214.571 335.699Z" fill="#AF6C3E"/>
				<path id="Vector_23" d="M332.452 335.699C332.422 335.699 332.39 335.699 332.359 335.699H328.034C327.475 335.039 327.063 334.243 326.845 333.358C325.718 328.742 325.225 324.436 325.191 320.45V320.449C333.332 323.94 339.994 325.183 345.35 325.183C351.88 325.183 356.469 323.336 359.446 321.464C354.724 328.814 346.539 335.699 332.452 335.699Z" fill="#B2B2D4"/>
				<path id="Vector_24" d="M155.607 335.699H151.279C151.248 335.699 151.218 335.699 151.187 335.699C137.104 335.699 128.92 328.813 124.199 321.464C127.175 323.336 131.765 325.183 138.294 325.183C143.649 325.185 150.31 323.941 158.451 320.449C158.451 320.449 158.453 320.45 158.453 320.45C158.419 324.436 157.923 328.742 156.796 333.358C156.581 334.243 156.167 335.039 155.607 335.699Z" fill="#B2B2D4"/>
				<path id="Vector_25" d="M326.482 308.698C326.482 308.698 322.719 293.173 332.555 281.061C334.337 282.853 335.88 284.895 337.054 287.218C337.103 287.316 337.162 287.41 337.225 287.497C334.396 289.859 328.662 296.054 326.482 308.698Z" fill="#C87530"/>
				<path id="Vector_26" d="M157.161 308.698C154.982 296.053 149.246 289.859 146.417 287.497C146.481 287.409 146.539 287.316 146.588 287.218C147.763 284.897 149.308 282.856 151.089 281.063C160.926 293.174 157.161 308.698 157.161 308.698Z" fill="#C87530"/>
				<path id="Vector_27" d="M339.749 288.108L339.528 288.244C339.438 288.298 339.336 288.373 339.24 288.437C339.047 288.561 338.852 288.719 338.653 288.86C338.451 288.996 338.265 289.169 338.069 289.323C337.874 289.476 337.678 289.638 337.492 289.813L336.927 290.322L336.383 290.868C336.004 291.216 335.679 291.622 335.325 292.002C333.955 293.566 332.767 295.326 331.708 297.184C330.649 299.046 329.798 301.046 329.018 303.094C328.615 304.114 328.277 305.165 327.839 306.202C327.463 307.256 327.088 308.32 326.588 309.385L326.581 309.392C326.556 309.444 326.497 309.466 326.444 309.443C326.41 309.426 326.389 309.393 326.383 309.359C326.256 308.205 326.224 307.044 326.24 305.881C326.29 305.307 326.33 304.728 326.404 304.153C326.476 303.579 326.51 302.993 326.65 302.429C326.901 301.296 327.134 300.151 327.516 299.041C327.696 298.483 327.854 297.916 328.056 297.363C328.267 296.813 328.494 296.269 328.715 295.72C329.655 293.548 330.826 291.443 332.319 289.528C333.07 288.577 333.872 287.652 334.791 286.822C335.014 286.608 335.241 286.399 335.489 286.205C335.735 286.009 335.961 285.803 336.225 285.618C336.482 285.429 336.731 285.238 337.013 285.065C337.156 284.976 337.284 284.889 337.436 284.8C337.6 284.707 337.709 284.636 337.948 284.516C338.936 284.014 340.14 284.408 340.643 285.395C341.118 286.33 340.789 287.462 339.914 288.005L339.749 288.108Z" fill="#000072"/>
				<path id="Vector_28" d="M145.697 284.517C145.933 284.636 146.043 284.707 146.207 284.8C146.361 284.889 146.487 284.976 146.629 285.065C146.914 285.238 147.159 285.429 147.417 285.618C147.68 285.803 147.909 286.009 148.155 286.205C148.401 286.399 148.631 286.608 148.852 286.822C149.773 287.652 150.573 288.577 151.326 289.528C152.817 291.443 153.988 293.548 154.928 295.72C155.149 296.269 155.378 296.813 155.588 297.363C155.789 297.916 155.947 298.483 156.128 299.041C156.508 300.151 156.741 301.296 156.994 302.429C157.135 302.993 157.166 303.579 157.241 304.153C157.314 304.728 157.355 305.307 157.402 305.882C157.42 307.044 157.39 308.205 157.259 309.359C157.252 309.416 157.201 309.458 157.143 309.451C157.105 309.447 157.076 309.424 157.06 309.392L157.058 309.385C156.555 308.32 156.178 307.256 155.805 306.202C155.368 305.165 155.029 304.114 154.623 303.094C153.844 301.046 152.996 299.046 151.934 297.185C150.877 295.326 149.688 293.566 148.318 292.002C147.966 291.622 147.64 291.216 147.26 290.868L146.717 290.322L146.151 289.813C145.964 289.638 145.771 289.476 145.575 289.323C145.379 289.169 145.19 288.996 144.991 288.86C144.793 288.72 144.595 288.561 144.402 288.437C144.307 288.373 144.205 288.298 144.116 288.245L143.894 288.108L143.735 288.009C142.794 287.428 142.501 286.192 143.082 285.25C143.633 284.358 144.777 284.053 145.697 284.517Z" fill="#000072"/>
				<path id="Vector_29" d="M151.279 335.699H332.359C332.39 335.699 332.422 335.699 332.452 335.699C353.646 335.699 361.477 320.114 364.262 310.813C365.83 305.574 365.82 300.246 364.237 295.408C362.703 290.726 360.132 287.627 356.599 286.193C349.225 283.205 339.876 288.04 339.783 288.09C339.308 288.341 338.75 288.391 338.237 288.226C337.725 288.062 337.3 287.699 337.054 287.218C329.075 271.438 304.083 268.657 303.831 268.631C302.817 268.525 302.043 267.677 302.03 266.658C301.571 229.678 289.342 216.887 286.759 214.597L241.905 216.467C241.849 216.468 241.793 216.468 241.738 216.467L196.882 214.597C194.322 216.865 182.073 229.646 181.612 266.658C181.6 267.677 180.826 268.525 179.812 268.631C179.562 268.657 154.554 271.469 146.588 287.218C146.346 287.699 145.92 288.062 145.407 288.226C144.894 288.39 144.337 288.341 143.86 288.09C143.769 288.041 134.371 283.211 127.032 286.199C123.503 287.635 120.939 290.734 119.408 295.409L117.498 294.783L119.408 295.409C117.824 300.246 117.815 305.573 119.384 310.813C122.167 320.113 129.999 335.698 151.187 335.699C151.219 335.699 151.248 335.699 151.279 335.699ZM332.459 339.719C332.425 339.719 332.39 339.719 332.356 339.719H151.283C151.249 339.719 151.214 339.719 151.18 339.719C127.392 339.719 118.637 322.338 115.534 311.965C113.729 305.936 113.748 299.778 115.588 294.158C117.507 288.3 120.853 284.367 125.537 282.468C132.526 279.637 140.454 282.247 143.94 283.708C152.285 269.797 171.627 265.797 177.625 264.872C178.569 222.772 194.382 211.374 195.064 210.904C195.423 210.655 195.855 210.532 196.289 210.55L241.822 212.448L287.354 210.55C287.788 210.532 288.22 210.655 288.579 210.904C289.261 211.374 305.074 222.772 306.018 264.872C312.017 265.797 331.36 269.797 339.706 283.708C343.189 282.247 351.116 279.634 358.108 282.468C362.79 284.367 366.137 288.3 368.056 294.158C369.897 299.779 369.913 305.937 368.108 311.965C365.007 322.337 356.248 339.718 332.459 339.719Z" fill="#000072"/>
				<path id="Vector_30" d="M324.622 133.852C324.622 133.852 338.473 99.954 327.54 67.3404C325.463 61.1431 319.421 57.1131 312.915 57.7562C304.249 58.6099 291.199 62.0998 276.969 73.6248C276.969 73.6248 312.567 86.1156 324.622 133.852Z" fill="#FA9B27"/>
				<path id="Vector_31" d="M324.88 126.779C324.181 124.362 323.349 121.822 322.362 119.198C325.972 106.543 329.043 88.0282 324.312 69.3273C323.232 65.0586 320.282 61.6338 316.473 59.9014C320.657 60.6869 324.203 63.6988 325.634 67.9767C333.452 91.297 328.193 115.598 324.88 126.779Z" fill="#FDD7A9"/>
				<path id="Vector_32" d="M280.886 73.1218C284.493 74.8451 290.713 78.3101 297.597 84.324C306.472 92.0735 318.019 105.601 324.79 127.08C328.096 116.041 333.523 91.5084 325.634 67.9768C323.827 62.587 318.674 59.2091 313.113 59.7554C305.417 60.5129 293.772 63.4846 280.886 73.1218ZM324.622 135.862C324.576 135.862 324.529 135.859 324.479 135.856C323.616 135.796 322.887 135.185 322.673 134.344C316.598 110.281 304.327 95.5756 295.102 87.4784C285.089 78.6888 276.389 75.5497 276.303 75.5186C275.617 75.2763 275.115 74.6838 274.992 73.9664C274.868 73.2491 275.14 72.5196 275.706 72.0628C290.412 60.15 303.951 56.6199 312.718 55.7564C320.161 55.0208 327.041 59.5227 329.447 66.701C340.491 99.6434 327.059 133.2 326.482 134.612C326.172 135.371 325.432 135.862 324.622 135.862Z" fill="#000072"/>
				<path id="Vector_33" d="M317.612 121.732C317.612 121.732 327.237 98.1777 319.639 75.5156C318.196 71.2091 313.998 68.4116 309.477 68.8555C303.457 69.4486 294.389 71.8735 284.501 79.8842C284.501 79.8842 309.236 88.5623 317.612 121.732Z" fill="#FF699F"/>
				<path id="Vector_34" d="M319.118 111.561C318.624 110.522 318.102 109.479 317.553 108.432C318.282 100.693 317.977 91.5705 314.964 82.5849C313.622 78.5798 309.896 75.8791 305.746 75.8791C305.434 75.8791 305.12 75.8974 304.804 75.9254C301.39 76.264 296.999 77.189 292.034 79.3842C291.264 78.8624 290.475 78.3472 289.672 77.8472C297.644 72.5098 304.763 70.7621 309.619 70.2841C309.893 70.2561 310.167 70.2439 310.437 70.2439C313.963 70.2439 317.119 72.5098 318.279 75.9723C322.694 89.1366 321.105 102.757 319.118 111.561Z" fill="#B24991"/>
				<path id="Vector_35" d="M287.307 79.5176C293.453 82.4302 309.981 92.3031 317.73 116.886C320.03 109.158 323.728 92.2197 318.279 75.9723C317.03 72.2431 313.466 69.9023 309.618 70.2841C304.288 70.809 296.23 72.8642 287.307 79.5176ZM317.612 123.167C317.579 123.167 317.545 123.165 317.511 123.163C316.892 123.118 316.372 122.684 316.221 122.083C308.147 90.1115 284.264 81.3219 284.024 81.2379C283.535 81.0637 283.176 80.6387 283.088 80.1259C283.001 79.6138 283.194 79.0956 283.598 78.7661C293.824 70.4826 303.24 68.0297 309.337 67.4275C314.524 66.9184 319.322 70.0539 321.002 75.0595C328.68 97.9633 319.341 121.292 318.94 122.274C318.72 122.817 318.192 123.167 317.612 123.167Z" fill="#000072"/>
				<path id="Vector_36" d="M163.922 119.31C163.922 119.31 156.381 83.4765 172.99 53.3535C176.146 47.6312 182.815 44.7533 189.099 46.551C197.47 48.9478 209.683 54.7225 221.611 68.6138C221.611 68.6138 184.351 74.5127 163.922 119.31Z" fill="#FA9B27"/>
				<path id="Vector_37" d="M164.937 112.306C163.686 100.715 162.872 75.8634 174.751 54.3255C176.931 50.3697 180.959 48.0411 185.218 48.0222C181.159 49.044 177.641 51.8817 175.81 55.8905C167.796 73.4386 167.495 92.204 168.774 105.302C167.335 107.704 166.06 110.057 164.937 112.306Z" fill="#FDE1BE"/>
				<path id="Vector_38" d="M185.272 48.0221C180.993 48.0221 176.94 50.3543 174.751 54.3253C162.766 76.0587 163.701 101.165 164.972 112.618C175.489 92.7038 189.277 81.4705 199.399 75.4376C207.252 70.756 213.991 68.4645 217.85 67.4183C206.903 55.623 195.982 50.6119 188.546 48.4818C187.458 48.1712 186.357 48.0221 185.272 48.0221ZM163.923 121.32C163.849 121.32 163.774 121.315 163.701 121.307C162.838 121.212 162.134 120.573 161.955 119.724C161.642 118.23 154.453 82.8089 171.231 52.3846C174.886 45.7561 182.462 42.561 189.652 44.6192C198.122 47.0441 210.807 52.9466 223.136 67.3063C223.61 67.8592 223.749 68.6259 223.497 69.3091C223.246 69.9924 222.645 70.4856 221.925 70.6007C221.838 70.6129 212.716 72.1407 201.287 78.9902C190.758 85.302 176.047 97.5632 165.75 120.144C165.421 120.865 164.703 121.32 163.923 121.32Z" fill="#000072"/>
				<path id="Vector_39" d="M172.994 108.645C172.994 108.645 167.754 83.746 179.295 62.817C181.488 58.8394 186.121 56.8402 190.487 58.0879C196.305 59.7522 204.79 63.767 213.078 73.4194C213.078 73.4194 187.188 77.5152 172.994 108.645Z" fill="#FF699F"/>
				<path id="Vector_40" d="M173.339 98.3702C172.967 89.3504 173.846 75.671 180.552 63.5096C182.067 60.7614 184.869 59.1501 187.829 59.1501C188.58 59.1501 189.341 59.2524 190.093 59.4698C194.783 60.8114 201.472 63.8074 208.358 70.4888C207.478 70.8365 206.609 71.2 205.757 71.5758C201.269 68.5237 197.114 66.8284 193.818 65.8845C192.944 65.633 192.059 65.5149 191.185 65.5149C187.694 65.5149 184.379 67.4306 182.625 70.61C178.049 78.9094 176.111 87.8262 175.439 95.5727C174.714 96.5013 174.011 97.4391 173.339 98.3702Z" fill="#B24991"/>
				<path id="Vector_41" d="M187.829 59.1501C184.869 59.1501 182.067 60.7614 180.552 63.5095C172.277 78.5147 172.873 95.843 173.747 103.857C185.785 81.0637 203.816 74.3202 210.384 72.5567C202.801 64.4096 195.242 60.9416 190.093 59.4698C189.341 59.2524 188.58 59.1501 187.829 59.1501ZM172.995 110.08C172.942 110.08 172.889 110.077 172.836 110.071C172.221 110.003 171.718 109.547 171.59 108.94C171.371 107.903 166.373 83.2742 178.038 62.1211C180.588 57.5016 185.87 55.2723 190.882 56.71C196.773 58.3956 205.596 62.4999 214.167 72.4855C214.507 72.8795 214.606 73.4263 214.426 73.9135C214.246 74.4012 213.817 74.755 213.303 74.8354C213.054 74.8762 187.981 79.2381 174.299 109.24C174.065 109.755 173.552 110.08 172.995 110.08Z" fill="#000072"/>
				<path id="Vector_42" d="M235.253 226.251C297.384 231.874 341.559 202.334 328.425 153.403C328.09 152.158 327.718 150.904 327.314 149.633C326.867 148.255 326.591 146.832 326.457 145.389C325.358 133.209 316.541 73.2677 249.645 67.216C182.748 61.1618 163.315 118.546 160.046 130.331C159.655 131.725 159.128 133.077 158.443 134.352C133.04 181.741 171.539 220.486 235.253 226.251Z" fill="#FA9B27"/>
				<path id="Vector_43" d="M156.67 137.861C156.67 137.861 166.412 137.883 172.86 152.665C177.927 164.266 196.125 165.981 206.548 160.082C216.967 154.19 229.448 151.573 241.881 152.698C254.314 153.824 266.177 158.643 275.368 166.31C284.565 173.984 302.774 175.564 309.841 165.061C318.838 151.677 328.425 153.403 328.425 153.403C341.559 202.334 297.383 231.875 235.253 226.252C173.122 220.63 134.967 183.639 156.67 137.861Z" fill="white"/>
				<path id="Vector_44" d="M263.824 224.252C256.351 220.974 248.097 219.153 239.428 219.153C232.793 219.153 226.402 220.22 220.418 222.19C203.392 219.009 188.635 213.211 177.272 205.372C171.692 198.985 165.258 189.11 159.273 173.932C170.388 195.592 198.867 210.751 236.348 214.143C241.252 214.587 246.05 214.804 250.703 214.804C293.495 214.804 324.781 196.403 328.577 166.004C329.503 178.599 326.178 189.91 318.689 199.27C307.591 213.142 287.989 221.863 263.824 224.252ZM155.153 162.353C154.471 160.226 153.793 158.024 153.123 155.746C153.294 154.614 153.506 153.475 153.755 152.334C153.895 152.26 154.041 152.181 154.192 152.092C154.13 155.614 154.458 159.037 155.153 162.353Z" fill="#B2B2D4"/>
				<path id="Vector_45" d="M257.058 155.996C252.202 154.289 247.091 153.169 241.881 152.698C239.994 152.526 238.106 152.442 236.224 152.442C232.927 152.442 229.652 152.702 226.433 153.212C229.425 151.387 234.099 150.995 237.554 150.995C240.141 150.995 242.043 151.215 242.043 151.215C242.043 151.215 252.49 151.903 257.058 155.996Z" fill="#AF6C3E"/>
				<path id="Vector_46" d="M326.274 153.376C326.231 153.161 326.19 152.945 326.153 152.728C326.215 152.942 326.274 153.156 326.336 153.372C326.314 153.373 326.296 153.375 326.274 153.376Z" fill="#FDD7A9"/>
				<path id="Vector_47" d="M327.034 156.105C326.954 155.855 326.876 155.604 326.796 155.351C326.588 154.702 326.414 154.044 326.274 153.376C326.296 153.375 326.314 153.373 326.336 153.372C326.588 154.288 326.821 155.199 327.034 156.105Z" fill="white"/>
				<path id="Vector_48" d="M158.868 138.024C158.863 138.004 158.858 137.982 158.852 137.962C158.91 137.842 158.968 137.724 159.028 137.603C158.977 137.744 158.923 137.886 158.868 138.024ZM322.073 131.812C316.85 114.607 304.886 91.4744 277.563 79.816C277.56 79.8282 277.561 79.8404 277.559 79.8501C277.235 81.0516 275.357 81.6849 272.726 81.6849C270.956 81.6849 268.846 81.3993 266.638 80.8031C261.15 79.3222 257.139 76.4936 257.679 74.4877C257.718 74.3452 257.787 74.2119 257.869 74.0815C255.069 73.5968 252.16 73.2089 249.127 72.9325C245.795 72.631 242.573 72.4885 239.473 72.4885C197.845 72.4885 176.754 98.4261 166.824 117.695C175.379 98.755 195.9 68.7812 240.062 68.7812C243.083 68.7812 246.217 68.9237 249.464 69.216C300.215 73.8081 316.732 110.272 322.073 131.812Z" fill="#FDD7A9"/>
				<path id="Vector_49" d="M240.062 68.7812C182.275 68.7812 164.969 120.102 161.979 130.871C161.545 132.433 160.952 133.924 160.213 135.302C150.806 152.849 150.047 169.941 158.015 184.73C169.548 206.134 198.49 220.909 235.434 224.252C272.377 227.594 303.5 218.255 318.689 199.27C329.183 186.151 331.505 169.201 325.398 150.249C324.92 148.763 324.603 147.19 324.457 145.574C323.399 133.86 314.799 75.1277 249.464 69.216C246.217 68.9237 243.083 68.7812 240.062 68.7812ZM249.877 228.935C245.059 228.935 240.117 228.71 235.071 228.254C196.781 224.789 166.652 209.231 154.477 186.636C145.838 170.603 146.598 152.196 156.672 133.402C157.27 132.286 157.753 131.074 158.107 129.796C161.402 117.924 181.315 59.0106 249.826 65.214C318.338 71.4143 327.348 132.94 328.46 145.212C328.577 146.533 328.836 147.813 329.224 149.017C335.762 169.313 333.204 187.559 321.828 201.781C307.907 219.181 281.623 228.935 249.877 228.935Z" fill="#000072"/>
				<path id="Vector_50" d="M297.331 280.682C297.331 312.996 271.136 339.19 238.824 339.19C206.511 339.19 180.315 312.996 180.315 280.682C180.315 248.37 206.511 222.175 238.824 222.175C271.136 222.175 297.331 248.37 297.331 280.682Z" fill="#F9C710"/>
				<path id="Vector_51" d="M237.265 320.927C216.38 320.927 199.468 304 199.468 283.129C199.468 278.1 200.451 273.295 202.238 268.902C201.176 272.442 200.605 276.193 200.605 280.078C200.605 301.519 217.987 318.901 239.429 318.901C247.929 318.901 255.792 316.168 262.186 311.534C255.54 317.381 246.819 320.927 237.265 320.927Z" fill="#FDEEB7"/>
				<path id="Vector_52" d="M195.801 241.097C186.548 251.446 180.92 265.104 180.92 280.078C180.92 312.392 207.115 338.586 239.428 338.586C255.114 338.586 269.357 332.413 279.862 322.364C280.592 321.55 281.3 320.716 281.984 319.86C272.701 326.058 261.537 329.673 249.539 329.673C217.225 329.673 191.03 303.479 191.03 271.165C191.03 257.339 195.824 244.639 203.85 234.626C200.977 236.545 198.285 238.714 195.801 241.097Z" fill="#F89F1D"/>
				<path id="Vector_53" d="M284.616 313.273C288.252 306.447 290.574 298.817 291.246 290.718C291.883 290.762 292.529 290.785 293.183 290.785C293.619 290.785 294.057 290.775 294.499 290.755C292.893 299.056 289.453 306.706 284.616 313.273ZM281.662 253.406C271.175 237.672 253.268 227.304 232.94 227.304C225.567 227.304 218.512 228.667 212.014 231.155C220.125 226.592 229.478 223.988 239.428 223.988C258.953 223.988 276.179 234.016 286.228 249.191C284.725 250.424 283.161 251.834 281.662 253.406Z" fill="#FDEEB7"/>
				<path id="Vector_54" d="M239.428 223.988C208.499 223.988 183.338 249.151 183.338 280.079C183.338 311.007 208.499 336.168 239.428 336.168C270.356 336.168 295.518 311.007 295.518 280.079C295.518 249.151 270.356 223.988 239.428 223.988ZM239.428 341.003C205.833 341.003 178.502 313.672 178.502 280.079C178.502 246.484 205.833 219.153 239.428 219.153C273.022 219.153 300.353 246.484 300.353 280.079C300.353 313.672 273.022 341.003 239.428 341.003Z" fill="#000072"/>
				<path id="Vector_55" d="M278.251 280.078C278.251 301.519 260.868 318.901 239.428 318.901C217.987 318.901 200.605 301.519 200.605 280.078C200.605 258.637 217.987 241.255 239.428 241.255C260.868 241.255 278.251 258.637 278.251 280.078Z" fill="#F89F1D"/>
				<path id="Vector_56" d="M268.114 306.233C272.604 299.902 275.239 292.168 275.239 283.825C275.239 282.58 275.181 281.351 275.066 280.137C275.822 281.899 276.802 283.433 277.968 284.746C276.981 292.976 273.418 300.415 268.114 306.233ZM273.236 271.483C268.081 256.095 253.549 245.009 236.424 245.009C225.074 245.009 214.877 249.87 207.778 257.616C214.797 247.711 226.359 241.261 239.43 241.261C255.089 241.261 268.58 250.531 274.717 263.882C273.799 266.256 273.249 268.799 273.236 271.483Z" fill="#AD6F37"/>
				<path id="Vector_57" d="M116.215 157.154C116.348 159.264 116.565 161.455 116.855 163.718C121.229 198.093 142.68 248.477 178.521 266.776C178.521 266.776 179.603 231.617 191.378 217.691C191.655 217.361 191.945 217.039 192.236 216.734C192.236 216.734 190.322 216.24 187.221 214.248L187.207 214.235C179.979 209.578 166.304 196.746 155.34 162.932C155.102 162.2 154.865 161.455 154.628 160.703C153.849 158.216 153.077 155.636 152.312 152.946C152.312 152.946 161.831 150.247 158.896 138.136C158.44 136.269 157.576 134.487 156.376 132.858H156.368C149.793 123.927 133.281 119.658 121.156 131.79C119.916 133.03 118.906 134.726 118.122 136.823C116.275 141.724 115.655 148.783 116.215 157.154Z" fill="#FA9B27"/>
				<path id="Vector_58" d="M178.521 266.776C177.493 266.252 176.477 265.7 175.472 265.124C174.263 264.43 173.066 263.696 171.892 262.931C159.45 254.821 148.959 242.828 140.547 229.299C139.841 228.164 139.147 227.017 138.471 225.861C126.564 205.528 119.218 182.288 116.855 163.718C117.053 163.807 117.249 163.896 117.444 163.982C124.71 200.489 140.433 222.255 153.112 234.451C155.86 237.094 159.297 238.338 162.696 238.338C167.979 238.338 173.171 235.333 175.548 229.906C180.1 219.507 187.207 214.235 187.207 214.235L187.221 214.248C187.392 214.379 189.075 215.745 191.378 217.691C179.603 231.617 178.521 266.776 178.521 266.776ZM116.855 163.718C116.657 162.176 116.493 160.667 116.367 159.195C116.495 160.667 116.658 162.176 116.855 163.718Z" fill="#AF6C3E"/>
				<path id="Vector_59" d="M116.855 163.718C138.275 173.414 149.805 168.071 155.34 162.932C154.318 159.772 153.308 156.449 152.312 152.946C152.312 152.946 161.831 150.247 158.895 138.136C155.953 126.025 135.49 117.45 121.156 131.79C119.916 133.03 118.906 134.725 118.122 136.823C115.813 142.958 115.417 152.484 116.855 163.718Z" fill="white"/>
				<path id="Vector_60" d="M158.355 136.421C157.869 135.176 157.199 133.98 156.373 132.858H156.375C157.203 133.981 157.87 135.176 158.355 136.421Z" fill="#AF6C3E"/>
				<path id="Vector_61" d="M147.607 161.024C125.712 161.022 121.132 150.601 120.278 144.81C120.077 143.445 121.157 142.33 122.41 142.33C122.684 142.33 122.966 142.383 123.246 142.499C126.832 143.992 133.316 146.093 141.41 146.093C142.306 146.093 143.225 146.067 144.159 146.012C158.071 145.189 156.368 132.858 156.368 132.858H156.373C157.199 133.98 157.869 135.176 158.355 136.421C158.573 136.982 158.754 137.555 158.896 138.136C159.288 139.756 159.458 141.208 159.458 142.507C159.455 150.921 152.312 152.946 152.312 152.946C153.077 155.636 153.849 158.216 154.628 160.703C152.108 160.921 149.773 161.024 147.607 161.024Z" fill="#B2B2D4"/>
				<path id="Vector_62" d="M152.97 154.847C152.212 155.107 151.579 155.293 150.881 155.47C150.198 155.641 149.514 155.795 148.824 155.923C147.447 156.18 146.056 156.362 144.654 156.451C143.252 156.547 141.841 156.56 140.43 156.463C139.02 156.376 137.609 156.188 136.219 155.884C133.442 155.283 130.726 154.202 128.367 152.589C125.982 151.027 124.064 148.746 123.127 146.115C123.093 146.019 123.144 145.913 123.239 145.879C123.3 145.857 123.364 145.87 123.411 145.905L123.416 145.909C125.617 147.568 127.584 149.082 129.791 150.236C130.882 150.82 132.028 151.296 133.216 151.641C134.403 151.984 135.603 152.281 136.838 152.43C138.07 152.587 139.314 152.669 140.563 152.682C141.814 152.688 143.069 152.611 144.32 152.488C145.57 152.351 146.819 152.17 148.056 151.924C148.672 151.796 149.29 151.673 149.899 151.52C150.492 151.372 151.145 151.211 151.649 151.05L151.708 151.032C152.766 150.697 153.894 151.282 154.23 152.339C154.56 153.381 153.995 154.492 152.97 154.847Z" fill="#000072"/>
				<path id="Vector_63" d="M150.327 152.628L150.505 151.192L150.673 149.696C150.776 148.695 150.85 147.691 150.892 146.684C150.915 145.681 150.902 144.681 150.848 143.669C150.78 142.66 150.644 141.66 150.441 140.587L150.437 140.566C150.4 140.368 150.53 140.176 150.729 140.14C150.846 140.117 150.962 140.156 151.044 140.23C151.898 141.022 152.535 142.031 153.038 143.086C153.515 144.149 153.842 145.268 154.073 146.396C154.303 147.523 154.425 148.663 154.472 149.802C154.496 150.372 154.496 150.941 154.467 151.513C154.442 152.095 154.399 152.629 154.293 153.269C154.114 154.364 153.081 155.106 151.987 154.927C150.919 154.752 150.185 153.765 150.318 152.699L150.327 152.628Z" fill="#000072"/>
				<path id="Vector_64" d="M137.375 153.254L137.554 151.819L137.721 150.323C137.825 149.321 137.9 148.318 137.941 147.311C137.964 146.308 137.951 145.308 137.897 144.295C137.828 143.286 137.692 142.287 137.49 141.213L137.486 141.192C137.45 140.994 137.579 140.803 137.777 140.766C137.895 140.744 138.011 140.782 138.091 140.858C138.946 141.649 139.583 142.659 140.086 143.714C140.564 144.777 140.89 145.895 141.122 147.022C141.352 148.149 141.474 149.289 141.522 150.429C141.544 151 141.544 151.569 141.516 152.14C141.491 152.722 141.447 153.256 141.343 153.895C141.163 154.991 140.13 155.733 139.035 155.553C137.968 155.379 137.234 154.391 137.366 153.326L137.375 153.254Z" fill="#000072"/>
				<path id="Vector_65" d="M138.433 126.302C132.669 126.302 127.101 128.684 122.577 133.208C118.012 137.773 116.784 150.784 119.372 167.165C124.772 201.351 144.912 245.391 176.634 263.472C177.089 254.733 179.217 230.853 189.014 217.537C182.154 214.01 163.724 200.503 150.377 153.497C150.074 152.43 150.694 151.318 151.762 151.016C152.53 150.785 159.328 148.442 156.941 138.61C155.685 133.435 150.714 128.926 144.276 127.118C142.328 126.571 140.369 126.302 138.433 126.302ZM178.521 268.784C178.208 268.784 177.895 268.711 177.608 268.564C143.016 250.906 121.114 203.948 115.402 167.791C112.533 149.63 114.112 135.989 119.735 130.366C126.836 123.265 136.176 120.67 145.361 123.249C153.176 125.442 159.253 131.099 160.846 137.661C163.338 147.923 157.795 152.42 154.724 154.07C170.433 207.953 192.557 214.738 192.781 214.801C193.447 214.988 193.971 215.504 194.165 216.167C194.361 216.831 194.201 217.55 193.741 218.067C181.191 232.235 180.535 266.461 180.53 266.805C180.519 267.498 180.152 268.138 179.557 268.496C179.239 268.687 178.881 268.784 178.521 268.784Z" fill="#000072"/>
				<path id="Vector_66" d="M275.033 280.058C282.961 298.777 315.984 291.865 329.317 268.085C331.412 264.343 333.024 260.179 333.971 255.638C338.147 235.634 326.398 215.664 317.297 204.999L317.291 204.988C317.291 204.988 305.758 216.469 288.884 222.313C288.884 222.313 294.495 229.196 294.866 243.334C294.866 243.334 291.666 244.991 287.73 248.001C279.814 254.062 268.898 265.583 275.033 280.058Z" fill="#FA9B27"/>
				<path id="Vector_67" d="M311.191 285.855C296.842 293.63 280.334 292.573 275.033 280.058C268.555 264.767 281.099 252.77 289.039 247.031C299.727 250.994 318.326 261.578 311.191 285.855Z" fill="white"/>
				<path id="Vector_68" d="M296.866 290.56C296.871 290.56 296.876 290.559 296.879 290.559C296.876 290.559 296.869 290.56 296.866 290.56Z" fill="#AF6C3E"/>
				<path id="Vector_69" d="M296.889 290.558C301.575 289.996 306.5 288.398 311.191 285.855C318.135 282.093 324.573 276.265 328.988 268.662C328.345 269.768 327.659 270.836 326.935 271.867C326.147 272.993 325.309 274.074 324.433 275.106C316.882 284.015 306.401 289.42 296.889 290.558ZM311.313 285.433C312.095 282.677 312.542 280.1 312.706 277.691C317.7 275.654 322.151 273.006 325.187 271.006C321.571 277.002 316.687 281.861 311.313 285.433ZM328.988 268.661C328.997 268.644 329.006 268.629 329.016 268.612C329.006 268.628 328.997 268.645 328.988 268.661ZM329.019 268.608C329.028 268.59 329.037 268.574 329.047 268.558C329.037 268.574 329.028 268.59 329.019 268.608ZM329.047 268.558C329.065 268.524 329.087 268.489 329.106 268.456C329.087 268.49 329.069 268.524 329.047 268.558ZM329.112 268.447C329.118 268.433 329.128 268.419 329.134 268.406C329.128 268.419 329.118 268.435 329.112 268.447ZM329.14 268.394C329.15 268.381 329.155 268.368 329.165 268.355C329.155 268.367 329.146 268.382 329.14 268.394ZM329.168 268.346C329.177 268.329 329.187 268.313 329.199 268.295C329.187 268.313 329.177 268.329 329.168 268.346ZM329.199 268.295C329.205 268.279 329.215 268.262 329.224 268.246C329.215 268.262 329.205 268.279 329.199 268.295ZM329.233 268.234C329.239 268.221 329.245 268.211 329.252 268.2C329.245 268.211 329.239 268.223 329.233 268.234ZM329.261 268.182C329.267 268.17 329.274 268.16 329.28 268.148C329.274 268.159 329.267 268.172 329.261 268.182ZM329.289 268.134C329.298 268.118 329.308 268.1 329.317 268.084C329.308 268.1 329.298 268.118 329.289 268.134Z" fill="#AF6C3E"/>
				<path id="Vector_70" d="M275.033 280.058C273.78 277.104 273.238 274.273 273.236 271.585C273.228 261.108 281.429 252.824 287.73 248.001C287.728 248.004 287.726 248.006 287.724 248.009C279.807 254.069 268.902 265.588 275.033 280.058Z" fill="#AF6C3E"/>
				<path id="Vector_71" d="M293.186 290.783C285.083 290.782 278.135 287.382 275.033 280.058C268.902 265.588 279.807 254.069 287.724 248.009C282.156 253.87 275.436 264.451 285.354 275.134C289.185 279.259 293.956 280.79 298.934 280.788C303.547 280.787 308.334 279.474 312.706 277.691C312.542 280.1 312.095 282.677 311.313 285.433C310.276 286.122 309.221 286.763 308.153 287.355C309.173 286.898 310.188 286.399 311.191 285.854C311.191 285.855 311.191 285.855 311.191 285.855C306.5 288.398 301.575 289.996 296.889 290.558C296.885 290.558 296.882 290.558 296.879 290.559C296.876 290.559 296.871 290.56 296.867 290.56C295.619 290.708 294.391 290.783 293.186 290.783Z" fill="#B2B2D4"/>
				<path id="Vector_72" d="M294.865 243.334C294.562 231.779 290.759 225.071 289.381 223.005C289.072 222.543 288.884 222.313 288.884 222.313C300.85 218.17 310.127 211.192 314.514 207.482C315.036 208.111 315.565 208.768 316.098 209.454C314.302 212.62 310.004 217.364 299.878 223.34C298.529 224.136 297.979 225.825 298.624 227.253C299.204 228.534 299.875 230.269 300.396 232.329C300.771 233.816 302.088 234.854 303.603 234.854C303.671 234.854 303.741 234.852 303.811 234.847C304.455 234.808 305.186 234.779 305.988 234.779C308.816 234.779 312.499 235.125 316.129 236.468C316.769 236.705 316.587 237.656 315.912 237.656C315.908 237.656 315.902 237.656 315.897 237.656C315.645 237.65 315.379 237.647 315.103 237.647C310.35 237.647 302.249 238.49 294.865 243.334Z" fill="#AF6C3E"/>
				<path id="Vector_73" d="M328.987 268.662V268.661V268.662ZM329.015 268.612C329.015 268.611 329.018 268.609 329.018 268.608C329.018 268.609 329.015 268.611 329.015 268.612ZM329.105 268.456C329.108 268.453 329.108 268.45 329.112 268.447C329.108 268.45 329.108 268.453 329.105 268.456ZM329.133 268.406C329.137 268.401 329.136 268.399 329.14 268.394C329.136 268.398 329.137 268.402 329.133 268.406ZM329.165 268.355C329.165 268.351 329.168 268.349 329.168 268.346C329.168 268.348 329.165 268.351 329.165 268.355ZM329.199 268.295V268.295V268.295ZM329.224 268.246C329.227 268.242 329.23 268.239 329.233 268.234C329.23 268.237 329.227 268.243 329.224 268.246ZM329.252 268.2C329.255 268.193 329.258 268.187 329.261 268.182C329.258 268.187 329.255 268.194 329.252 268.2ZM329.28 268.148C329.283 268.143 329.286 268.139 329.289 268.134C329.286 268.138 329.283 268.143 329.28 268.148Z" fill="#D9E8FF"/>
				<path id="Vector_74" d="M325.187 271.006C325.426 270.608 325.66 270.206 325.889 269.799C327.985 266.057 329.597 261.893 330.543 257.351C334.384 238.95 324.75 220.579 316.098 209.454C317.666 206.691 317.327 205.13 317.297 204.999C325.101 214.144 334.849 230.129 334.84 247.112C334.837 249.934 334.567 252.787 333.971 255.638C333.024 260.179 331.412 264.343 329.317 268.085L329.311 268.079C329.311 268.079 327.758 269.31 325.187 271.006Z" fill="#FDE1BE"/>
				<path id="Vector_75" d="M311.191 285.855C311.232 285.715 311.273 285.573 311.313 285.433C316.686 281.861 321.57 277.002 325.187 271.005C327.758 269.31 329.311 268.079 329.311 268.079L329.317 268.084C329.308 268.1 329.298 268.118 329.289 268.134C329.286 268.139 329.283 268.143 329.28 268.148C329.273 268.16 329.267 268.17 329.261 268.182C329.258 268.187 329.255 268.193 329.252 268.199C329.245 268.211 329.239 268.221 329.233 268.234C329.23 268.238 329.227 268.241 329.223 268.246C329.214 268.262 329.205 268.279 329.199 268.294V268.295C329.186 268.313 329.177 268.329 329.167 268.346C329.167 268.349 329.164 268.351 329.164 268.355C329.155 268.368 329.149 268.381 329.139 268.394C329.136 268.399 329.136 268.401 329.133 268.406C329.127 268.419 329.118 268.433 329.111 268.447C329.108 268.45 329.108 268.453 329.105 268.456C329.086 268.489 329.065 268.523 329.046 268.557C329.037 268.574 329.027 268.59 329.018 268.607C329.018 268.609 329.015 268.611 329.015 268.612C329.006 268.629 328.997 268.644 328.987 268.661V268.662C324.572 276.265 318.135 282.093 311.191 285.853V285.855Z" fill="#E7D3C5"/>
				<path id="Vector_76" d="M308.153 287.354C309.221 286.763 310.276 286.121 311.313 285.433C311.273 285.573 311.232 285.715 311.191 285.855C310.188 286.398 309.173 286.898 308.153 287.354Z" fill="#E8E8F2"/>
				<path id="Vector_77" d="M314.514 207.482C316.31 205.962 317.291 204.988 317.291 204.988C317.291 204.988 316.315 205.96 314.514 207.482H314.514Z" fill="#B2B2D4"/>
				<path id="Vector_78" d="M316.098 209.454C315.565 208.768 315.036 208.111 314.514 207.482C316.315 205.96 317.291 204.988 317.291 204.988L317.297 204.999C317.327 205.13 317.666 206.691 316.098 209.454Z" fill="#E7D3C5"/>
				<path id="Vector_79" d="M294.07 241.49C294.909 241.207 295.767 240.93 296.628 240.673C297.49 240.415 298.355 240.164 299.226 239.923C300.093 239.675 300.969 239.443 301.845 239.208C302.728 238.987 303.625 238.8 304.602 238.756C304.676 238.752 304.739 238.809 304.744 238.884C304.745 238.92 304.732 238.954 304.71 238.979C304.078 239.726 303.356 240.311 302.613 240.852C301.863 241.375 301.11 241.894 300.344 242.388C299.581 242.887 298.809 243.371 298.03 243.837C297.25 244.308 296.465 244.752 295.658 245.181C294.674 245.703 293.453 245.329 292.931 244.345C292.41 243.361 292.783 242.142 293.767 241.619C293.863 241.569 293.971 241.522 294.07 241.49Z" fill="#000072"/>
				<path id="Vector_80" d="M272.857 267.582C273.847 267.3 274.921 267.027 275.961 266.755L279.116 265.945C280.177 265.688 281.215 265.376 282.284 265.122C283.356 264.868 284.428 264.614 285.589 264.467L285.601 264.466C285.871 264.432 286.117 264.622 286.152 264.892C286.169 265.041 286.119 265.186 286.022 265.289C285.208 266.159 284.278 266.872 283.307 267.491C282.333 268.11 281.311 268.629 280.281 269.128C279.247 269.613 278.197 270.064 277.128 270.462C276.048 270.855 274.99 271.21 273.828 271.482C272.747 271.735 271.666 271.063 271.414 269.983C271.167 268.937 271.79 267.889 272.811 267.594L272.857 267.582Z" fill="#000072"/>
				<path id="Vector_81" d="M279.026 284.378C279.971 284.129 280.972 283.882 281.953 283.647L284.917 282.935L287.88 282.196C288.874 281.958 289.876 281.743 290.964 281.635H290.972C291.183 281.613 291.371 281.768 291.391 281.978C291.402 282.088 291.365 282.194 291.296 282.272C290.55 283.105 289.675 283.747 288.773 284.315C287.862 284.866 286.925 285.358 285.981 285.833C285.033 286.302 284.073 286.74 283.1 287.145C282.124 287.553 281.157 287.922 280.121 288.245C279.06 288.574 277.934 287.984 277.604 286.923C277.274 285.863 277.866 284.737 278.925 284.407C278.951 284.399 278.977 284.391 279.003 284.384L279.026 284.378Z" fill="#000072"/>
				<path id="Vector_82" d="M291.94 223.332C293.758 226.547 296.609 233.155 296.872 243.283C296.892 244.052 296.471 244.764 295.789 245.119C295.517 245.261 268.542 259.584 276.885 279.272C279.788 286.124 286.748 289.537 295.984 288.634C310.358 287.229 327.867 275.041 332.005 255.225C336.3 234.655 323.089 215.359 317.101 207.909C313.543 211.08 304.373 218.525 291.94 223.332ZM293.199 292.791C283.771 292.791 276.412 288.458 273.184 280.84C269.096 271.191 271.468 261.284 280.045 252.193C284.937 247.005 290.471 243.529 292.809 242.179C292.199 229.809 287.374 223.636 287.324 223.573C286.916 223.064 286.779 222.383 286.96 221.757C287.141 221.13 287.614 220.627 288.229 220.412C304.478 214.784 315.763 203.678 315.876 203.565C316.273 203.172 316.818 202.96 317.374 202.982C317.934 203.005 318.459 203.26 318.822 203.686C324.11 209.879 340.969 231.962 335.939 256.048C333.834 266.123 328.497 275.057 320.502 281.882C313.448 287.905 304.654 291.824 296.376 292.634C295.294 292.739 294.234 292.791 293.199 292.791Z" fill="#000072"/>
				<path id="Vector_83" d="M268.298 213.646C268.298 203.628 260.311 203.838 260.311 203.838C268.64 203.838 268.298 194.591 268.298 194.591C268.298 194.591 267.772 203.838 276.283 203.838C276.283 203.838 268.298 203.628 268.298 213.646Z" fill="#FFCA22"/>
				<path id="Vector_84" d="M176.709 234.1C176.709 227.642 171.561 227.777 171.561 227.777C176.929 227.777 176.709 221.816 176.709 221.816C176.709 221.816 176.37 227.777 181.857 227.777C181.857 227.777 176.709 227.642 176.709 234.1Z" fill="#FFCA22"/>
				<path id="Vector_85" d="M208.77 211.568C208.77 206.788 204.96 206.888 204.96 206.888C208.934 206.888 208.77 202.476 208.77 202.476C208.77 202.476 208.519 206.888 212.581 206.888C212.581 206.888 208.77 206.788 208.77 211.568Z" fill="#FFCA22"/>
				<path id="Vector_86" d="M299.157 232.639C299.157 226.181 294.009 226.316 294.009 226.316C299.377 226.316 299.157 220.354 299.157 220.354C299.157 220.354 298.818 226.316 304.306 226.316C304.306 226.316 299.157 226.181 299.157 232.639Z" fill="#FFCA22"/>
				<path id="Vector_87" d="M214.391 180.256C214.145 180.003 213.911 179.733 213.687 179.441C213.954 179.73 214.231 180.004 214.514 180.263C214.473 180.261 214.432 180.259 214.391 180.256Z" fill="#CCCEDF"/>
				<path id="Vector_88" d="M210.934 171.673C210.934 171.673 210.934 171.673 210.933 171.675L210.934 171.673Z" fill="#00085F"/>
				<path id="Vector_89" d="M240.304 170.436C230.805 169.578 222.352 160.791 224.952 154.584C227.552 148.378 242.147 150.059 242.147 150.059C242.147 150.059 256.809 151.025 258.251 157.597C259.694 164.171 249.802 171.296 240.304 170.436Z" fill="#000072"/>
				<path id="Vector_90" d="M233.646 153.802C233.555 154.814 237.093 155.962 241.55 156.366C246.005 156.77 249.692 156.275 249.785 155.262C249.875 154.25 246.337 153.101 241.881 152.698C237.424 152.294 233.738 152.789 233.646 153.802Z" fill="white"/>
				<g id="Group">
					<path id="Vector_91" d="M215.311 118.955C222.735 119.936 227.822 127.775 226.674 136.464C225.527 145.153 218.577 151.402 211.153 150.421C203.73 149.44 198.642 141.601 199.79 132.912C200.938 124.223 207.887 117.974 215.311 118.955Z" fill="#000072"/>
					<path id="Vector_92" d="M229.563 131.701C218.848 122.879 207.538 122.363 198.504 122.342C203.818 112.816 223.288 117.101 229.563 131.701Z" fill="#000072"/>
					<path id="Vector_93" d="M219.571 128.406C217.793 128.404 216.348 130.413 216.345 132.895C216.342 135.376 217.781 137.392 219.559 137.394C221.338 137.397 222.781 135.385 222.785 132.904C222.788 130.422 221.35 128.408 219.571 128.406Z" fill="white"/>
				</g>
				<g id="Group_2">
					<path id="Vector_94" d="M275.538 124.548C268.061 124.139 261.611 130.901 261.131 139.653C260.652 148.404 266.324 155.831 273.801 156.241C281.278 156.65 287.728 149.888 288.208 141.136C288.688 132.385 283.015 124.958 275.538 124.548Z" fill="#000072"/>
					<path id="Vector_95" d="M259.174 134.438C271.336 127.751 282.546 129.336 291.428 130.986C287.969 120.643 268.042 121.25 259.174 134.438Z" fill="#000072"/>
					<path id="Vector_96" d="M269.178 132.642C270.955 132.717 272.31 134.788 272.205 137.268C272.1 139.747 270.574 141.697 268.797 141.622C267.02 141.546 265.666 139.474 265.771 136.995C265.877 134.516 267.401 132.566 269.178 132.642Z" fill="white"/>
				</g>
				<path id="Vector_97" d="M270.856 108.712C266.434 109.938 263.367 112.8 264.006 115.103C264.645 117.407 268.748 118.28 273.169 117.056C277.59 115.83 280.656 112.968 280.016 110.665C279.378 108.358 275.277 107.485 270.856 108.712Z" fill="white"/>
				<path id="Vector_98" d="M226.061 104.757C230.259 106.609 232.881 109.882 231.917 112.07C230.953 114.257 226.767 114.53 222.569 112.681C218.371 110.831 215.749 107.556 216.715 105.369C217.679 103.178 221.863 102.906 226.061 104.757Z" fill="white"/>
				<g id="Group_3">
					<path id="Vector_99" d="M236.758 169.256C236.982 167.558 238.54 166.362 240.238 166.587C241.937 166.811 243.132 168.369 242.908 170.067L241.8 178.462C241.576 180.16 240.017 181.355 238.319 181.131C236.621 180.907 235.426 179.348 235.65 177.65L236.758 169.256Z" fill="#03036B"/>
					<path id="Vector_100" d="M227.98 185.732C226.398 186.373 224.594 185.61 223.953 184.028C223.311 182.445 224.074 180.641 225.657 180L237.563 175.19C239.146 174.549 240.95 175.312 241.591 176.894C242.232 178.477 241.469 180.281 239.886 180.922L227.98 185.732Z" fill="#03036B"/>
					<path id="Vector_101" d="M250.841 183.323C252.203 184.353 252.473 186.293 251.442 187.655C250.413 189.017 248.473 189.286 247.11 188.256L236.86 180.522C235.498 179.493 235.229 177.552 236.258 176.19C237.288 174.829 239.228 174.559 240.59 175.589L250.841 183.323Z" fill="#03036B"/>
				</g>
				<g id="Group_4">
					<path id="Vector_102" fill-rule="evenodd" clip-rule="evenodd" d="M216.439 288.075C218.02 271.095 228.19 261.13 239.428 261.13C250.665 261.13 260.835 271.095 262.416 288.075C248.993 295.625 246.398 283.892 239.428 283.892C232.457 283.892 229.863 295.625 216.439 288.075ZM238.566 292.077H238.616V294.422L235.33 296.319L236.142 297.726L239.428 295.829L242.713 297.726L243.525 296.319L240.24 294.422V292.077H240.29C241.048 291.916 241.77 291.539 242.356 290.946L243.353 289.937C243.913 289.37 244.278 288.678 244.445 287.949C245.523 288.763 246.574 289.602 247.744 290.317C252.819 293.42 257.668 292.517 262.553 289.913L262.553 289.917C263.243 302.503 249.894 304.245 239.428 304.245C228.961 304.245 215.612 302.503 216.302 289.917V289.913C221.187 292.517 226.036 293.42 231.112 290.317C232.282 289.602 233.333 288.763 234.41 287.949C234.578 288.678 234.942 289.37 235.503 289.937L236.5 290.946C237.086 291.539 237.807 291.916 238.566 292.077ZM231.353 280.349C231.945 280.439 232.319 281.212 232.188 282.076C232.058 282.94 231.473 283.569 230.88 283.48C230.289 283.39 229.915 282.617 230.045 281.752C230.176 280.888 230.761 280.26 231.353 280.349ZM247.502 280.349C246.911 280.439 246.536 281.212 246.667 282.076C246.798 282.94 247.383 283.569 247.975 283.48C248.567 283.39 248.941 282.617 248.81 281.752C248.68 280.888 248.094 280.26 247.502 280.349ZM230.4 261.533C216.718 252.669 214.072 256.277 217.463 276.319C218.176 274.525 219.033 272.793 220.048 271.155C218.654 261.7 220.199 259.778 226.758 263.742C227.907 262.89 229.124 262.148 230.4 261.533ZM248.456 261.533C262.137 252.669 264.784 256.277 261.393 276.319C260.68 274.525 259.823 272.793 258.808 271.155C260.202 261.7 258.657 259.777 252.098 263.742C250.948 262.89 249.731 262.148 248.456 261.533ZM235.985 286.818C237.025 286.131 238.148 285.567 239.428 285.567C240.707 285.567 241.831 286.131 242.87 286.818C242.921 287.515 242.685 288.23 242.161 288.76L241.164 289.768C240.209 290.734 238.647 290.734 237.692 289.768L236.694 288.76C236.171 288.23 235.934 287.515 235.985 286.818ZM233.866 275.129C235.18 275.655 236.046 276.575 235.803 277.184C235.559 277.793 234.296 277.859 232.983 277.334C231.67 276.807 230.803 275.887 231.047 275.278C231.291 274.67 232.553 274.603 233.866 275.129ZM244.989 275.129C243.676 275.655 242.809 276.575 243.053 277.184C243.297 277.793 244.559 277.859 245.872 277.334C247.186 276.807 248.052 275.887 247.809 275.278C247.565 274.67 246.302 274.603 244.989 275.129ZM245.91 281.21C245.899 281.347 245.893 281.486 245.893 281.627C245.893 283.639 247.029 285.27 248.429 285.27C249.831 285.27 250.966 283.639 250.966 281.627C250.966 280.692 250.72 279.838 250.316 279.192C250.69 278.977 251.062 278.761 251.436 278.546C249.436 278.029 246.005 279.777 245.288 280.911C245.495 281.011 245.702 281.11 245.91 281.21ZM232.946 281.21C232.957 281.347 232.963 281.486 232.963 281.627C232.963 283.639 231.827 285.27 230.426 285.27C229.025 285.27 227.889 283.639 227.889 281.627C227.889 280.692 228.135 279.838 228.539 279.192C228.166 278.977 227.793 278.761 227.419 278.546C229.42 278.029 232.851 279.777 233.568 280.911C233.36 281.011 233.153 281.11 232.946 281.21Z" fill="#AD6F37"/>
					<path id="Vector_103" fill-rule="evenodd" clip-rule="evenodd" d="M216.439 287.014C218.02 270.033 228.19 260.068 239.428 260.068C250.665 260.068 260.835 270.033 262.416 287.014C248.993 294.563 246.398 282.83 239.428 282.83C232.457 282.83 229.863 294.563 216.439 287.014ZM238.566 291.015H238.616V293.36L235.33 295.257L236.142 296.664L239.428 294.767L242.713 296.664L243.525 295.257L240.24 293.36V291.015H240.29C241.048 290.854 241.77 290.477 242.356 289.884L243.353 288.875C243.913 288.308 244.278 287.617 244.445 286.887C245.523 287.701 246.574 288.54 247.744 289.256C252.819 292.358 257.668 291.455 262.553 288.851L262.553 288.855C263.243 301.441 249.894 303.184 239.428 303.184C228.961 303.184 215.612 301.441 216.302 288.855V288.851C221.187 291.455 226.036 292.358 231.112 289.256C232.282 288.54 233.333 287.701 234.41 286.887C234.578 287.617 234.942 288.308 235.503 288.875L236.5 289.884C237.086 290.477 237.807 290.854 238.566 291.015ZM231.353 279.287C231.945 279.377 232.319 280.15 232.188 281.015C232.058 281.879 231.473 282.507 230.88 282.418C230.289 282.328 229.915 281.555 230.045 280.691C230.176 279.826 230.761 279.198 231.353 279.287ZM247.502 279.287C246.911 279.377 246.536 280.15 246.667 281.015C246.798 281.879 247.383 282.507 247.975 282.418C248.567 282.328 248.941 281.555 248.81 280.691C248.68 279.826 248.094 279.198 247.502 279.287ZM230.4 260.471C216.718 251.607 214.072 255.216 217.463 275.257C218.176 273.463 219.033 271.731 220.048 270.093C218.654 260.638 220.199 258.716 226.758 262.68C227.907 261.828 229.124 261.087 230.4 260.471ZM248.456 260.471C262.137 251.607 264.784 255.216 261.393 275.258C260.68 273.463 259.823 271.731 258.808 270.093C260.202 260.638 258.657 258.715 252.098 262.68C250.948 261.828 249.731 261.087 248.456 260.471ZM235.985 285.756C237.025 285.07 238.148 284.506 239.428 284.506C240.707 284.506 241.831 285.07 242.87 285.756C242.921 286.453 242.685 287.168 242.161 287.698L241.164 288.706C240.209 289.672 238.647 289.672 237.692 288.706L236.694 287.698C236.171 287.168 235.934 286.453 235.985 285.756ZM233.866 274.067C235.18 274.594 236.046 275.514 235.803 276.123C235.559 276.731 234.296 276.798 232.983 276.272C231.67 275.746 230.803 274.825 231.047 274.217C231.291 273.608 232.553 273.541 233.866 274.067ZM244.989 274.067C243.676 274.594 242.809 275.514 243.053 276.123C243.297 276.731 244.559 276.798 245.872 276.272C247.186 275.746 248.052 274.825 247.809 274.217C247.565 273.608 246.302 273.541 244.989 274.067ZM245.91 280.148C245.899 280.285 245.893 280.424 245.893 280.565C245.893 282.577 247.029 284.208 248.429 284.208C249.831 284.208 250.966 282.577 250.966 280.565C250.966 279.63 250.72 278.776 250.316 278.13C250.69 277.915 251.062 277.699 251.436 277.484C249.436 276.967 246.005 278.716 245.288 279.85C245.495 279.949 245.702 280.049 245.91 280.148ZM232.946 280.148C232.957 280.285 232.963 280.424 232.963 280.565C232.963 282.577 231.827 284.208 230.426 284.208C229.025 284.208 227.889 282.577 227.889 280.565C227.889 279.63 228.135 278.776 228.539 278.13C228.166 277.915 227.793 277.699 227.419 277.484C229.42 276.967 232.851 278.716 233.568 279.85C233.36 279.949 233.153 280.049 232.946 280.148Z" fill="#FFE875"/>
				</g>
			</g>
		</g>
	</g>
	<defs>
		<linearGradient id="paint0_linear_165_861" x1="280.993" y1="49.2689" x2="182.95" y2="415.169" gradientUnits="userSpaceOnUse">
			<stop stop-color="#FBF46D"/>
			<stop offset="1" stop-color="#FF865E"/>
		</linearGradient>
	</defs>
</svg>
