<svg width="299" height="248" viewBox="0 0 299 248" fill="none" xmlns="http://www.w3.org/2000/svg">
<g id="rocket">
<g id="rocket-inner">
<path id="Vector" d="M120.86 154.178L113.048 152.784C109.513 152.153 106.61 149.633 105.49 146.222C102.155 136.064 101.662 125.187 104.066 114.77C104.873 111.272 107.537 108.5 110.999 107.551L118.653 105.458L120.86 154.178Z" fill="#1389EA"/>
<path id="Vector_2" d="M118.239 152.041L113.335 151.167C111.173 150.781 109.3 149.55 108.088 147.798C107.526 145.962 107.056 144.106 106.678 142.235C107.989 143.378 109.604 144.17 111.378 144.487L116.089 145.328C116.694 147.594 117.41 149.834 118.239 152.041Z" fill="#0D60C6"/>
<path id="Vector_3" d="M106.679 142.235C106.374 141.969 106.087 141.685 105.817 141.383C105.202 138.849 104.762 136.28 104.5 133.697C104.859 133.898 105.239 134.107 105.637 134.319C105.803 136.974 106.151 139.618 106.679 142.235ZM104.212 128.55C104.164 124.058 104.648 119.557 105.667 115.139C106.34 112.224 108.548 109.924 111.434 109.134L116.235 107.82C116.058 108.469 115.888 109.119 115.728 109.772L113.956 110.257C110.493 111.205 107.83 113.977 107.022 117.476C106.25 120.824 105.776 124.221 105.6 127.624C105.107 127.942 104.643 128.254 104.212 128.55Z" fill="#65B2F1"/>
<path id="Vector_4" d="M108.088 147.798C107.65 147.165 107.298 146.463 107.051 145.709C106.581 144.281 106.169 142.837 105.816 141.383C106.086 141.685 106.374 141.97 106.679 142.236C107.056 144.106 107.526 145.963 108.088 147.798V147.798Z" fill="#6197DA"/>
<path id="Vector_5" d="M98.4876 87.2933C102.46 89.5037 121.21 99.7376 121.296 111.347L140.395 101.965C140.315 101.401 140.199 100.812 140.046 100.211L140.047 100.209C137.844 91.5786 127.728 79.7036 99.2435 86.2959C99.032 86.344 98.8181 86.3949 98.6035 86.4453C98.1984 86.5416 98.1224 87.0898 98.4876 87.2933V87.2933Z" fill="#F91228"/>
<path id="Vector_6" d="M119.789 102.386C116.905 98.1165 111.635 93.131 102.414 87.6518C102.703 87.6123 102.988 87.5765 103.273 87.5417C108.11 89.5213 114.421 93.4037 118.257 97.1994C119.732 98.6582 121.228 99.5856 122.922 100.119C121.652 100.986 120.609 101.754 119.789 102.386V102.386Z" fill="#DC132C"/>
<path id="Vector_7" d="M132.315 94.536C127.915 90.7306 121.228 87.6195 111.986 87.1897C109.301 87.0646 106.398 87.1656 103.274 87.5414C103.037 87.4451 102.803 87.3519 102.572 87.2643C107.641 86.2825 112.295 85.8918 116.472 86.0863C122.362 86.36 127.303 87.7991 131.108 90.3898C132.493 91.3328 133.631 92.356 134.567 93.3975C133.788 93.7785 133.038 94.1587 132.315 94.536Z" fill="#FB717E"/>
<path id="Vector_8" d="M102.415 87.6514C102.266 87.5629 102.114 87.474 101.963 87.3855C102.167 87.3441 102.372 87.3042 102.573 87.2643C102.803 87.3519 103.037 87.4451 103.274 87.5413C102.989 87.5761 102.704 87.612 102.415 87.6514Z" fill="#EA7180"/>
<path id="Vector_9" d="M121.22 112.989C120.354 112.948 119.661 112.238 119.655 111.36C119.625 107.447 116.757 99.3173 97.8783 88.834L97.6895 88.7293C96.9262 88.3054 96.5105 87.4721 96.63 86.6067C96.7483 85.7399 97.3735 85.0493 98.2234 84.8472C113.244 81.2593 124.929 82.2115 132.956 87.6755C140.02 92.4834 141.649 99.1081 142.021 101.733C142.149 102.631 141.524 103.462 140.625 103.589C139.728 103.719 138.897 103.092 138.77 102.195C138.458 100.001 137.088 94.4621 131.108 90.3902C124.496 85.8895 114.462 84.865 101.964 87.386C119.148 97.4841 122.898 105.934 122.939 111.336C122.946 112.243 122.216 112.984 121.309 112.991C121.279 112.991 121.249 112.99 121.22 112.989V112.989Z" fill="#000072"/>
<path id="Vector_10" d="M142.877 156.788C142.434 165.555 134.211 181.079 102.682 176.51C102.269 176.449 102.143 175.909 102.489 175.674C106.246 173.114 123.969 160.707 123.007 149.137L142.877 156.788V156.788Z" fill="#D25658"/>
<path id="Vector_11" d="M102.683 176.512C102.27 176.449 102.145 175.91 102.49 175.674C104.414 174.362 110.003 170.467 114.867 165.424C119.466 160.659 123.415 154.866 123.014 149.261C123.012 149.22 123.008 149.178 123.005 149.138L123.126 149.183L142.876 156.788C142.752 159.248 142.014 162.242 140.319 165.173C135.982 172.688 125.364 179.796 102.683 176.512V176.512Z" fill="#F91228"/>
<path id="Vector_12" d="M126.254 167.24C123.331 167.103 120.151 166.668 116.698 165.873C119.126 163.264 121.302 160.408 122.768 157.443C125.746 159.296 130.993 162.195 138.493 165.012C138.281 165.347 138.053 165.683 137.807 166.021C134.509 166.968 130.675 167.445 126.254 167.24Z" fill="#C8142F"/>
<path id="Vector_13" d="M110.392 178.913C107.867 178.795 105.219 178.537 102.447 178.134C101.584 178.01 100.898 177.379 100.7 176.527C100.504 175.675 100.843 174.807 101.565 174.316C106.423 171.006 122.214 159.416 121.371 149.273C121.296 148.368 121.968 147.576 122.871 147.5C123.775 147.422 124.569 148.097 124.644 149.001C125.502 159.312 113.333 169.849 105.918 175.265C118.426 176.614 128.25 174.663 134.451 169.563C140.392 164.678 141.146 158.486 141.237 156.706C141.283 155.802 142.05 155.105 142.953 155.148L142.96 155.147C143.866 155.194 144.563 155.965 144.517 156.87C144.38 159.589 143.328 166.516 136.539 172.1C130.392 177.154 121.618 179.435 110.392 178.913Z" fill="#000072"/>
<path id="Vector_14" d="M292.302 122.002C292.302 122.002 270.66 162.899 205.493 170.362C149.983 176.716 120.863 154.176 120.863 154.176C115.564 141.664 114.049 127.943 116.375 114.689C116.923 111.574 117.684 108.493 118.651 105.455C118.651 105.455 125.336 99.244 138.94 93.1656C144.293 90.7711 150.717 88.3994 158.228 86.4345C169.965 83.3641 184.366 81.2929 201.476 81.6913C202.44 81.7154 203.4 81.7443 204.352 81.789C208.401 81.9488 212.296 82.2567 216.033 82.6906C270.817 89.022 292.302 122.002 292.302 122.002V122.002Z" fill="white"/>
<path id="Vector_15" d="M178.512 169.771C143.482 168.138 123.645 155.233 120.163 152.774C118.53 148.54 117.321 144.184 116.545 139.739C117.449 139.878 118.364 139.974 119.282 140.017C119.962 140.048 120.645 140.051 121.325 140.02C124.864 139.862 128.115 138.807 130.897 137.448C134.318 145.938 141.116 152.829 149.821 156.345C158.811 159.978 171.823 163.457 188.304 164.225C197.825 164.667 208.505 164.206 220.233 162.346C228.975 160.959 239.034 151.954 242.274 141.601C247.462 125.023 245.003 108.503 245.238 101.322C248.782 120.166 249.096 139.298 246.167 158.373C235.006 163.124 221.561 166.955 205.519 168.793C195.698 169.918 186.692 170.151 178.512 169.771V169.771ZM115.648 123.22C116.004 117.714 117.016 112.279 118.675 106.979C119.82 105.995 124.079 102.528 131.499 98.5495C128.924 106.661 127.844 115.101 128.239 123.47C126.436 122.937 124.502 122.565 122.483 122.471C121.839 122.441 121.188 122.439 120.528 122.469C120.32 122.48 120.112 122.492 119.903 122.508C118.465 122.615 117.039 122.866 115.648 123.22V123.22Z" fill="#B2B2D4"/>
<path id="Vector_16" d="M246.95 159.474C250.874 135.953 249.783 111.859 243.747 88.784C268.872 97.2303 283.17 111.018 289.074 117.871C291.158 120.289 291.324 123.807 289.467 126.404C284.214 133.756 271.219 148.787 246.95 159.474V159.474Z" fill="#F91228"/>
<path id="Vector_17" d="M290.699 123.28C290.724 123.089 290.741 122.897 290.75 122.706C290.741 122.897 290.724 123.089 290.699 123.28Z" fill="white"/>
<path id="Vector_18" d="M288.934 127.137C289.167 125.863 289.036 124.542 288.551 123.331C288.795 122.99 289.023 122.666 289.232 122.359L289.253 122.338C288.997 122.602 288.735 122.867 288.468 123.135C288.196 122.512 287.828 121.923 287.369 121.386C281.898 115.036 269.207 102.728 247.375 94.2353C246.812 92.6721 246.225 91.0732 245.619 89.432C245.617 89.4316 245.613 89.4309 245.611 89.4298C245.61 89.4287 245.61 89.4287 245.611 89.4271C269.583 97.9151 283.317 111.189 289.074 117.871C290.261 119.251 290.827 120.987 290.75 122.707C290.741 122.898 290.724 123.089 290.699 123.28C290.556 124.378 290.148 125.453 289.467 126.404C289.299 126.641 289.123 126.886 288.934 127.137V127.137Z" fill="#FB6573"/>
<path id="Vector_19" d="M249.313 154.865C252.123 134.476 251.25 114.044 246.707 93.9774C246.931 94.0635 247.151 94.1481 247.375 94.2346C252.36 108.07 255.613 119.175 256.347 132.475C256.588 136.85 260.124 139.911 264.007 140.092C265.548 140.164 267.142 139.783 268.608 138.85C276.775 133.658 283.516 128.093 288.468 123.134C288.498 123.199 288.524 123.264 288.551 123.33C283.516 130.36 271.457 144.332 249.313 154.865Z" fill="#AE0D3E"/>
<path id="Vector_20" d="M288.551 123.33C288.524 123.263 288.498 123.199 288.468 123.134C288.735 122.866 288.997 122.601 289.253 122.337L289.232 122.358C289.023 122.665 288.795 122.989 288.551 123.33ZM247.376 94.2343C247.151 94.1478 246.931 94.0632 246.708 93.9771C246.361 92.459 245.998 90.9427 245.611 89.4288C245.613 89.4299 245.617 89.4306 245.619 89.431C246.225 91.0722 246.812 92.6711 247.376 94.2343Z" fill="#AF4773"/>
<path id="Vector_21" d="M246.088 91.3421C251.31 112.857 252.306 134.819 249.049 156.714C270.917 146.43 282.874 132.809 288.148 125.427C289.552 123.459 289.432 120.805 287.855 118.972C281.937 112.095 268.796 99.6094 246.088 91.3421V91.3421ZM246.874 161.114C246.542 161.099 246.214 160.982 245.942 160.771C245.466 160.401 245.229 159.799 245.33 159.203C249.242 135.756 248.174 112.203 242.16 89.199C242.008 88.6159 242.186 87.9954 242.628 87.5835C243.07 87.1717 243.702 87.0367 244.272 87.2272C269.493 95.7054 283.964 109.413 290.344 116.83C292.91 119.813 293.107 124.133 290.821 127.335C285.133 135.297 271.961 150.254 247.612 160.977C247.374 161.081 247.123 161.126 246.874 161.114V161.114Z" fill="#000072"/>
<path id="Vector_22" d="M122.197 153.122C123.77 154.245 130.861 159.023 143.055 163.154C155.843 167.485 177.024 171.967 205.302 168.729C219.839 167.064 233.35 163.567 245.474 158.331C249.166 135.463 248.128 112.506 242.382 90.0606C229.833 85.9407 216.064 83.6812 201.435 83.3353C150.022 82.1261 123.216 103.693 120.08 106.387C117.692 114.019 116.665 121.939 117.027 129.937C117.389 137.932 119.128 145.73 122.197 153.122ZM178.93 172.949C163.039 172.209 150.543 169.173 141.83 166.207C127.516 161.334 120.159 155.712 119.852 155.475C119.629 155.303 119.455 155.076 119.345 154.815C116.016 146.942 114.133 138.622 113.745 130.086C113.36 121.549 114.484 113.092 117.087 104.955C117.174 104.686 117.327 104.445 117.533 104.253C117.817 103.99 124.636 97.7269 138.451 91.5811C151.127 85.943 172.356 79.3672 201.513 80.0523C216.796 80.4142 231.183 82.825 244.272 87.2273C244.798 87.4032 245.197 87.8324 245.339 88.3685C251.467 111.816 252.557 135.82 248.573 159.72C248.49 160.27 248.135 160.752 247.612 160.982C234.977 166.548 220.866 170.252 205.677 171.992C195.925 173.108 186.989 173.324 178.93 172.949V172.949Z" fill="#000072"/>
<path id="Vector_23" d="M120.785 155.818C120.716 155.815 120.643 155.806 120.572 155.794L112.76 154.4C108.623 153.662 105.241 150.725 103.931 146.733C100.501 136.29 99.9953 125.11 102.466 114.4C103.411 110.307 106.515 107.076 110.566 105.967L118.221 103.872C119.095 103.631 119.998 104.147 120.238 105.022C120.478 105.897 119.962 106.801 119.088 107.04L111.434 109.134C108.548 109.924 106.34 112.224 105.667 115.139C103.33 125.265 103.809 135.835 107.051 145.709C107.985 148.549 110.392 150.64 113.336 151.167L121.149 152.561C122.042 152.72 122.637 153.573 122.477 154.467C122.33 155.288 121.598 155.856 120.785 155.818V155.818Z" fill="#000072"/>
<path id="Vector_24" d="M3.01095 135.105C21.2964 134.277 33.3803 140.085 43.8573 145.82C53.859 151.292 62.3948 156.699 73.4654 156.198C96.1302 155.171 99.7252 130.725 99.7252 130.725C99.7252 130.725 93.9362 106.703 71.2702 107.73C48.6043 108.757 38.7526 133.486 3.01095 135.105V135.105Z" fill="#FF061E"/>
<path id="Vector_25" d="M3.01095 135.105C21.2964 134.277 33.3803 140.085 43.8573 145.82C53.859 151.292 62.3948 156.699 73.4654 156.198C96.1302 155.171 99.7252 130.725 99.7252 130.725C99.7252 130.725 93.9362 106.703 71.2702 107.73C48.6043 108.757 38.7526 133.486 3.01095 135.105V135.105Z" fill="#FF061E"/>
<path id="Vector_26" d="M22.5379 135.236C21.2376 134.923 19.8992 134.644 18.5214 134.402C30.1743 131.255 38.5694 125.554 46.2321 120.35C54.565 114.692 61.7607 109.805 71.3442 109.371C72.2383 109.331 73.1135 109.331 73.9729 109.371C78.8776 109.599 83.2261 111.131 86.9809 113.947C83.9186 112.255 80.2711 111.102 75.9442 110.9C75.051 110.859 74.1281 110.857 73.1779 110.901C54.7604 111.735 44.8007 128.217 22.5379 135.236V135.236Z" fill="#FF6A78"/>
<path id="Vector_27" d="M38.976 133.352C49.5802 132.873 56.6392 137.049 62.7584 141.184C68.6476 145.161 73.6664 149.099 80.1376 148.806C93.3326 148.209 95.2818 130.803 95.2818 130.803C95.2818 130.803 91.7686 113.644 78.5717 114.241C65.3768 114.84 59.7842 132.41 38.976 133.352V133.352Z" fill="#FFD400"/>
<path id="Vector_28" d="M18.5212 134.402C30.4116 136.484 39.2857 141.403 47.3884 145.893C56.1977 150.774 63.8035 154.992 73.3904 154.557C82.1699 154.16 88.9798 150.044 93.6312 142.324C96.7111 137.213 97.8044 132.104 98.0449 130.801C97.6879 129.529 96.1375 124.539 92.6076 119.726C87.2776 112.457 80.1267 108.977 71.344 109.371C61.7606 109.805 54.5649 114.692 46.232 120.35C38.5693 125.554 30.1741 131.255 18.5212 134.402V134.402ZM70.5359 157.838C61.3965 157.412 53.7974 153.2 45.7963 148.766C34.8844 142.72 22.5169 135.868 3.0851 136.745C2.17677 136.787 1.41112 136.086 1.36978 135.179C1.3674 135.128 1.3673 135.077 1.36993 135.028C1.40923 134.189 2.08133 133.503 2.93672 133.465C22.3696 132.584 34.0664 124.641 44.3864 117.633C52.7672 111.942 60.6839 106.566 71.1968 106.09C81.0377 105.64 89.3846 109.72 95.3252 117.877C99.7476 123.948 101.26 130.083 101.322 130.341C101.371 130.545 101.381 130.757 101.35 130.965C101.311 131.228 100.359 137.473 96.5046 143.92C91.3243 152.581 83.3843 157.393 73.5391 157.839C72.5191 157.885 71.5183 157.884 70.5359 157.838Z" fill="#000072"/>
<path id="Vector_29" d="M122.692 138.937C111.775 139.429 100.635 131.274 100.635 131.274C100.635 131.274 100.674 131.239 100.749 131.179C101.895 130.199 111.656 122.116 121.907 121.648C131.745 121.199 139.97 127.955 141.415 129.217C141.563 129.347 141.639 129.419 141.639 129.419C141.639 129.419 133.536 138.452 122.692 138.937V138.937Z" fill="#F91228"/>
<path id="Vector_30" d="M101.367 130.667C101.367 130.666 101.367 130.666 101.367 130.666C101.777 130.336 102.349 129.889 103.058 129.37C102.349 129.889 101.777 130.337 101.367 130.667V130.667Z" fill="#6666AA"/>
<path id="Vector_31" d="M100.708 131.213C100.72 131.203 100.733 131.192 100.748 131.18C100.865 131.079 101.074 130.903 101.367 130.667C101.367 130.667 101.367 130.667 101.366 130.668C101.076 130.903 100.866 131.079 100.748 131.18C100.734 131.192 100.72 131.203 100.708 131.213V131.213Z" fill="#6666AA"/>
<path id="Vector_32" d="M141.637 129.418C141.629 129.411 141.554 129.339 141.415 129.217C140.365 128.301 135.732 124.481 129.502 122.634C129.502 122.634 129.502 122.634 129.502 122.633C135.732 124.479 140.364 128.3 141.415 129.218C141.563 129.346 141.638 129.418 141.638 129.418C141.638 129.418 141.638 129.418 141.637 129.418Z" fill="white"/>
<path id="Vector_33" d="M129.502 122.634C127.726 122.108 125.82 121.742 123.83 121.649C123.197 121.62 122.555 121.619 121.907 121.648C121.7 121.658 121.495 121.67 121.291 121.685C121.496 121.67 121.701 121.657 121.906 121.647C122.556 121.618 123.198 121.62 123.832 121.649C125.822 121.742 127.727 122.107 129.503 122.634C129.502 122.634 129.502 122.634 129.502 122.634V122.634Z" fill="#D1D1E5"/>
<path id="Vector_34" d="M100.708 131.212C100.721 131.202 100.734 131.192 100.749 131.179C100.866 131.079 101.076 130.902 101.366 130.667C101.777 130.337 102.348 129.889 103.058 129.371C106.656 126.738 113.8 122.248 121.291 121.685C121.495 121.669 121.701 121.657 121.907 121.648C122.555 121.618 123.197 121.619 123.83 121.648C125.82 121.741 127.727 122.108 129.503 122.634C135.733 124.481 140.365 128.301 141.415 129.217C141.555 129.339 141.63 129.411 141.638 129.418C141.63 129.411 141.555 129.339 141.415 129.217L139.058 129.331C135.317 127.112 130.076 124.789 124.205 124.515C123.47 124.481 122.725 124.479 121.971 124.513C115.078 124.828 108.374 128.112 103.694 131.037L100.749 131.179C100.734 131.192 100.721 131.202 100.708 131.212V131.212Z" fill="#FB717E"/>
<path id="Vector_35" d="M120.679 138.935C119.774 138.892 118.874 138.797 117.981 138.661C116.809 138.48 115.654 138.225 114.53 137.918C108.241 136.2 102.943 132.847 101.223 131.684C100.84 131.425 100.634 131.274 100.634 131.274C100.634 131.274 100.66 131.252 100.708 131.212C100.661 131.251 100.635 131.276 100.635 131.276C100.635 131.276 101.109 131.622 101.955 132.165C102.496 131.801 103.077 131.422 103.694 131.037L139.057 129.331C139.645 129.68 140.197 130.027 140.707 130.362C141.301 129.792 141.625 129.433 141.637 129.418C141.639 129.419 141.639 129.419 141.639 129.419C141.639 129.419 133.535 138.452 122.691 138.937C122.022 138.968 121.349 138.965 120.679 138.935V138.935Z" fill="#C8142F"/>
<path id="Vector_36" d="M101.955 132.165C101.11 131.622 100.636 131.276 100.636 131.276C100.636 131.276 100.662 131.251 100.708 131.212C100.72 131.202 100.734 131.191 100.748 131.179L103.694 131.037C103.077 131.421 102.497 131.801 101.955 132.165ZM140.708 130.362C140.197 130.026 139.645 129.679 139.057 129.331L141.415 129.217C141.555 129.339 141.63 129.411 141.638 129.418C141.625 129.433 141.302 129.791 140.708 130.362V130.362Z" fill="#CA5B70"/>
<path id="Vector_37" d="M100.634 131.274L100.64 131.274L100.634 131.274ZM103.424 131.149C106.922 133.32 114.916 137.644 122.617 137.299C130.295 136.953 136.628 131.898 139.192 129.528C136.425 127.402 129.66 122.943 121.982 123.289C114.283 123.639 106.711 128.671 103.424 131.149V131.149ZM120.594 140.576C110.008 140.083 100.108 132.925 99.6638 132.6C99.2621 132.306 99.0171 131.846 98.9934 131.349C98.9716 130.852 99.1748 130.372 99.5487 130.043C99.9892 129.654 110.471 120.526 121.833 120.008C133.232 119.486 142.373 127.859 142.757 128.215C143.412 128.826 143.459 129.848 142.86 130.515C142.511 130.905 134.167 140.067 122.765 140.58C122.041 140.613 121.315 140.61 120.594 140.576V140.576Z" fill="#000072"/>
<path id="Vector_38" d="M192.709 146.934C181.551 147.44 172.098 138.804 171.593 127.647C171.087 116.491 179.723 107.036 190.88 106.531C202.037 106.026 211.49 114.661 211.995 125.817C212.501 136.975 203.865 146.429 192.709 146.934V146.934Z" fill="#F91228"/>
<path id="Vector_39" d="M190.899 145.292C186.577 145.09 182.498 143.406 179.265 140.451C179.083 140.285 178.905 140.116 178.73 139.944C180.405 139.911 181.967 139.586 183.38 138.986C186.11 140.571 189.236 141.535 192.558 141.69C193.178 141.718 193.804 141.719 194.436 141.689C199.931 141.441 204.815 139.018 208.293 135.293C207.553 136.714 206.622 138.048 205.512 139.263C202.166 142.928 197.592 145.069 192.634 145.294C192.052 145.32 191.474 145.318 190.899 145.292V145.292Z" fill="#AE0D3E"/>
<path id="Vector_40" d="M192.672 108.173C192.104 108.147 191.532 108.146 190.954 108.172C180.72 108.635 172.77 117.339 173.233 127.572C173.458 132.531 175.6 137.104 179.265 140.451C182.928 143.798 187.675 145.516 192.635 145.294C197.592 145.069 202.166 142.928 205.512 139.263C208.86 135.598 210.579 130.849 210.355 125.892C209.918 116.237 202.145 108.614 192.672 108.173ZM190.738 148.573C185.653 148.337 180.854 146.353 177.049 142.877C172.737 138.938 170.217 133.556 169.952 127.722C169.407 115.678 178.762 105.436 190.806 104.89C202.845 104.343 213.09 113.7 213.636 125.744C213.901 131.577 211.876 137.167 207.939 141.478C204 145.79 198.618 148.31 192.784 148.575C192.098 148.606 191.416 148.605 190.738 148.573Z" fill="#000072"/>
<path id="Vector_41" d="M192.607 139.334C185.508 139.655 179.493 134.161 179.172 127.064C178.851 119.966 184.344 113.952 191.442 113.63C198.54 113.309 204.553 118.802 204.875 125.899C205.197 132.997 199.704 139.012 192.607 139.334Z" fill="#2D95EA"/>
<path id="Vector_42" d="M191.486 137.692C189.91 137.618 188.387 137.219 186.998 136.52C187.508 136.001 187.977 135.426 188.402 134.794C188.425 134.759 188.448 134.724 188.472 134.688C189.586 135.068 190.766 135.295 191.989 135.351C192.385 135.37 192.782 135.371 193.185 135.353C196.865 135.188 200.113 133.491 202.343 130.906C201.853 132.046 201.17 133.107 200.31 134.05C198.288 136.263 195.526 137.557 192.531 137.693C192.181 137.708 191.833 137.707 191.486 137.692V137.692Z" fill="#6CB5F0"/>
<path id="Vector_43" d="M203.246 126.617C201.447 121.953 197.021 118.64 191.855 118.399C191.46 118.381 191.063 118.38 190.661 118.398C190.329 118.414 190 118.441 189.677 118.479C189.329 117.48 188.95 116.575 188.589 115.796C189.516 115.498 190.497 115.316 191.516 115.27C191.869 115.255 192.219 115.255 192.566 115.271C195.177 115.392 197.639 116.411 199.592 118.195C201.806 120.215 203.099 122.979 203.234 125.974C203.244 126.188 203.248 126.403 203.246 126.617V126.617Z" fill="#306AB0"/>
<path id="Vector_44" d="M192.566 115.271C192.219 115.255 191.869 115.255 191.516 115.27C185.334 115.551 180.532 120.808 180.812 126.988C180.948 129.983 182.242 132.747 184.455 134.767C186.669 136.789 189.538 137.827 192.531 137.693C195.526 137.557 198.288 136.263 200.31 134.05C202.332 131.836 203.37 128.968 203.234 125.974C203.099 122.979 201.806 120.215 199.592 118.195C197.639 116.411 195.177 115.392 192.566 115.271V115.271ZM191.338 140.973C183.941 140.629 177.872 134.678 177.531 127.138C177.169 119.146 183.376 112.351 191.367 111.989C195.239 111.812 198.946 113.156 201.807 115.77C204.668 118.382 206.341 121.954 206.516 125.825C206.691 129.695 205.348 133.404 202.736 136.264C200.122 139.126 196.551 140.799 192.679 140.973C192.228 140.994 191.78 140.994 191.338 140.973V140.973Z" fill="#000072"/>
<path id="Vector_45" d="M69.7078 153.074C57.7581 152.517 48.5496 145.178 36.4453 139.295C46.6841 142.008 55.086 143.34 61.9769 143.661C63.5619 143.735 65.0677 143.756 66.4955 143.727C70.493 146.402 74.3046 148.597 78.7657 148.805C79.2165 148.826 79.6732 148.827 80.1375 148.806C93.3325 148.209 95.2817 130.803 95.2817 130.803C95.2817 130.803 94.6238 127.596 92.8138 124.004C92.9082 122.354 92.8234 120.916 92.7066 119.86C96.1671 124.632 97.6919 129.54 98.0449 130.801C98.0122 130.982 97.9623 131.237 97.8931 131.554C95.7844 138.516 89.4898 152.309 72.5836 153.075C71.6058 153.119 70.6487 153.117 69.7078 153.074V153.074Z" fill="#B20437"/>
<path id="Vector_46" d="M78.7653 148.805C74.3043 148.598 70.4926 146.403 66.4952 143.727C88.2478 143.289 92.3819 131.473 92.8134 124.004C94.6234 127.596 95.2813 130.803 95.2813 130.803C95.2813 130.803 93.3321 148.209 80.1372 148.806C79.6728 148.827 79.2162 148.826 78.7653 148.805Z" fill="#B29422"/>
<path id="Vector_47" d="M97.8933 131.554C97.9625 131.237 98.0124 130.982 98.0451 130.801C97.6921 129.54 96.1673 124.632 92.7068 119.86C92.5777 118.687 92.4107 117.984 92.4107 117.984L93.1833 117.773C96.0941 121.442 97.8519 125.31 98.8013 127.853C98.7081 128.386 98.4424 129.737 97.8933 131.554V131.554Z" fill="#000072"/>
</g>
</g>
</svg>
