<svg width="30" height="25" viewBox="0 0 30 25" fill="none" xmlns="http://www.w3.org/2000/svg">
<path d="M29.3202 2.83465C28.8489 3.04365 28.3644 3.22008 27.8693 3.36334C28.4554 2.70041 28.9023 1.92041 29.1751 1.06687C29.2363 0.875566 29.1729 0.666152 29.0156 0.540996C28.8586 0.415781 28.6404 0.400781 28.4674 0.503262C27.416 1.12687 26.2816 1.57506 25.0921 1.83709C23.894 0.666328 22.2666 0 20.5843 0C17.0332 0 14.1441 2.88902 14.1441 6.44004C14.1441 6.71971 14.1618 6.99785 14.1968 7.27213C9.79022 6.88523 5.69346 4.71932 2.88026 1.26844C2.78 1.14545 2.62555 1.07912 2.46741 1.09184C2.3092 1.1042 2.167 1.19344 2.08708 1.33061C1.51649 2.30965 1.21485 3.42943 1.21485 4.56879C1.21485 6.12058 1.76885 7.59287 2.74754 8.74336C2.44995 8.64029 2.1612 8.5115 1.88557 8.35851C1.73762 8.27613 1.55704 8.27742 1.41002 8.36168C1.26295 8.44599 1.17073 8.60098 1.1668 8.77043C1.1661 8.79896 1.1661 8.8275 1.1661 8.85644C1.1661 11.1727 2.41274 13.2581 4.31874 14.3947C4.15497 14.3784 3.99137 14.3546 3.82877 14.3236C3.66114 14.2915 3.48881 14.3503 3.37579 14.4782C3.26258 14.6059 3.22508 14.784 3.27729 14.9466C3.98276 17.1492 5.79911 18.7692 7.99491 19.2632C6.1737 20.4039 4.09104 21.0013 1.90473 21.0013C1.44852 21.0013 0.989732 20.9746 0.540728 20.9214C0.317662 20.8949 0.104381 21.0266 0.0283846 21.2388C-0.0476114 21.451 0.032955 21.6876 0.222681 21.8092C3.03137 23.6101 6.27899 24.562 9.61432 24.562C16.1711 24.562 20.2729 21.47 22.5592 18.8762C25.4102 15.6419 27.0453 11.3609 27.0453 7.13103C27.0453 6.95431 27.0426 6.7759 27.0371 6.59801C28.1619 5.75056 29.1303 4.72494 29.9183 3.54615C30.038 3.36715 30.0251 3.13049 29.8864 2.96572C29.7481 2.80066 29.5172 2.74734 29.3202 2.83465Z" fill="#73A1FB"/>
</svg>
