<svg width="30" height="30" viewBox="0 0 30 30" fill="none" xmlns="http://www.w3.org/2000/svg">
<path d="M15.0001 0C6.72923 0 9.67991e-05 6.72913 9.67991e-05 15C9.67991e-05 17.5826 0.667271 20.1222 1.93249 22.363L0.0242272 29.1717C-0.0383815 29.3954 0.0222708 29.6354 0.18401 29.8017C0.308575 29.9302 0.47814 30 0.652271 30C0.704445 30 0.757271 29.9935 0.808792 29.9811L7.91488 28.2209C10.0847 29.3857 12.5284 30 15.0001 30C23.271 30 30.0001 23.2709 30.0001 15C30.0001 6.72913 23.271 0 15.0001 0ZM22.5457 20.293C22.2249 21.1813 20.6857 21.992 19.9462 22.1009C19.2823 22.198 18.4423 22.2398 17.5201 21.9502C16.9612 21.7741 16.2438 21.5407 15.3249 21.1487C11.4621 19.5013 8.93945 15.6607 8.7464 15.407C8.55401 15.1533 7.17401 13.3454 7.17401 11.4743C7.17401 9.60326 8.16858 8.68304 8.52205 8.30217C8.87553 7.9213 9.29227 7.82609 9.54923 7.82609C9.80618 7.82609 10.0625 7.82935 10.2875 7.83978C10.5242 7.85152 10.8418 7.75044 11.1542 8.49261C11.4751 9.25435 12.2453 11.1254 12.3405 11.3165C12.4371 11.507 12.501 11.7293 12.3731 11.983C12.2453 12.2367 12.1814 12.3952 11.9884 12.6176C11.7953 12.84 11.584 13.1133 11.4105 13.2841C11.2175 13.4739 11.0173 13.6793 11.2416 14.0602C11.466 14.4411 12.2388 15.6861 13.384 16.6943C14.8547 17.9896 16.0958 18.3913 16.4805 18.5817C16.8653 18.7722 17.0903 18.7402 17.3147 18.4865C17.539 18.2322 18.2773 17.3759 18.5336 16.9957C18.7899 16.6154 19.0468 16.678 19.4003 16.8052C19.7538 16.9317 21.6471 17.8513 22.0318 18.0417C22.4166 18.2322 22.6736 18.3274 22.7701 18.4859C22.8666 18.6437 22.8666 19.4054 22.5457 20.293Z" fill="#25D366"/>
</svg>
