<svg width="16" height="30" viewBox="0 0 16 30" fill="none" xmlns="http://www.w3.org/2000/svg">
<path d="M0.483925 15.978H3.77238V29.5161C3.77238 29.7834 3.98895 30 4.25625 30H9.83197C10.0993 30 10.3158 29.7834 10.3158 29.5161V16.0418H14.0962C14.3421 16.0418 14.5489 15.8573 14.577 15.6132L15.1511 10.6291C15.1669 10.492 15.1235 10.3547 15.0317 10.2518C14.9399 10.1488 14.8085 10.0899 14.6705 10.0899H10.3161V6.96562C10.3161 6.02385 10.8231 5.54625 11.8235 5.54625C11.966 5.54625 14.6705 5.54625 14.6705 5.54625C14.9378 5.54625 15.1544 5.32957 15.1544 5.06238V0.487441C15.1544 0.220137 14.9378 0.00357422 14.6705 0.00357422H10.7468C10.7191 0.00222656 10.6577 0 10.5671 0C9.88629 0 7.51986 0.133652 5.65055 1.85332C3.57937 3.75902 3.8673 6.04072 3.93609 6.43635V10.0898H0.483867C0.216563 10.0898 0 10.3063 0 10.5737V15.4941C5.85938e-05 15.7613 0.216621 15.978 0.483925 15.978Z" fill="#1877F2"/>
</svg>
