<svg width="342" height="399" viewBox="0 0 342 399" fill="none" xmlns="http://www.w3.org/2000/svg">
	<g id="mp-join-dog">
		<g id="mp-join-dog-inner">
			<g id="Group">
				<g id="Group_2">
					<g id="Group_3">
						<path id="Vector" d="M216.88 299.527C200.203 335.008 183.441 348.566 174.207 353.647C170.329 355.781 165.479 354.832 162.637 351.437L156.203 343.742C156.196 343.735 156.193 343.733 156.193 343.733L206.548 229.448C217.616 232.86 226.294 238.127 231.37 241.707C234.426 243.862 235.771 247.726 234.719 251.315C229.032 270.736 222.962 286.588 216.88 299.527Z" fill="white"/>
					</g>
					<g id="Group_4">
						<path id="Vector_2" d="M166.36 354.391C164.878 353.823 163.522 352.882 162.446 351.596L156.048 343.944L155.859 343.872L155.965 343.632L206.409 229.144L206.622 229.209C217.575 232.586 226.203 237.758 231.513 241.503C234.657 243.719 236.041 247.691 234.958 251.385C229.666 269.456 223.66 285.689 217.105 299.632C200.173 335.658 183.036 349.074 174.327 353.864C171.824 355.242 168.906 355.368 166.36 354.391ZM156.484 343.689L162.828 351.277C165.6 354.588 170.335 355.493 174.087 353.428C182.742 348.666 199.782 335.318 216.654 299.421C223.198 285.5 229.195 269.291 234.479 251.245C235.502 247.755 234.195 244.004 231.227 241.91C225.979 238.21 217.476 233.107 206.686 229.751L156.484 343.689Z" fill="#390075"/>
					</g>
				</g>
				<g id="Group_5">
					<path id="Vector_3" d="M165.822 355.786C164.108 355.129 162.542 354.041 161.298 352.555L154.854 344.85C154.428 344.34 154.328 343.634 154.596 343.028L204.952 228.743C205.308 227.933 206.216 227.518 207.062 227.779C218.204 231.217 226.978 236.475 232.375 240.281C236.041 242.865 237.656 247.496 236.394 251.805C215.238 324.011 188.879 347.562 175.049 355.174C172.149 356.77 168.769 356.917 165.822 355.786ZM158.225 343.443L163.974 350.317C166.287 353.084 170.238 353.841 173.367 352.118C179.511 348.736 189.08 341.484 199.774 326.136C212.607 307.718 223.801 282.379 233.047 250.824C233.889 247.948 232.812 244.856 230.365 243.131C225.415 239.641 217.515 234.883 207.511 231.584L158.225 343.443Z" fill="#390075"/>
				</g>
				<g id="Group_6">
					<path id="Vector_4" d="M216.879 299.527C213.334 300.275 210.407 300.749 208.45 301.027C206.76 301.267 205.292 302.304 204.487 303.81C196.111 319.468 180.763 343.521 172.195 345.727C163.377 347.993 156.509 343.923 156.203 343.742C156.196 343.735 156.192 343.733 156.192 343.733L206.548 229.448C217.616 232.86 226.293 238.127 231.37 241.707C234.426 243.862 235.771 247.726 234.719 251.315C229.032 270.736 222.962 286.588 216.879 299.527Z" fill="#390075"/>
				</g>
			</g>
			<g id="Group_7">
				<g id="Group_8">
					<g id="Group_9">
						<path id="Vector_5" d="M105.034 233.985L102.761 235.963C96.4953 241.413 87.0389 241.135 81.191 235.237C60.5085 214.38 59.057 187.969 65.4342 175.12C67.0429 171.868 69.1509 169.484 71.5795 168.279C85.1415 161.538 93.2811 175.925 94.6773 187.775C95.4806 194.578 100.881 203.56 106.115 210.878C106.55 211.488 106.982 212.088 107.413 212.67C112.298 219.3 111.246 228.579 105.034 233.985Z" fill="white"/>
					</g>
					<g id="Group_10">
						<path id="Vector_6" d="M86.5776 239.043C84.5388 238.261 82.6366 237.05 81.0138 235.413C69.132 223.431 64.6161 210.751 62.9206 202.224C60.9114 192.121 61.7674 181.947 65.2111 175.009C66.8612 171.672 69.0253 169.268 71.4686 168.056C75.9719 165.818 80.1658 165.717 83.9325 167.756C90.7413 171.441 94.1095 180.828 94.9244 187.747C95.5776 193.277 99.517 201.226 106.318 210.733C106.751 211.342 107.183 211.941 107.613 212.522C112.535 219.201 111.473 228.711 105.197 234.173L102.925 236.151C98.2993 240.174 91.964 241.109 86.5776 239.043ZM82.2807 167.542C79.0359 166.297 75.4812 166.618 71.6904 168.502C69.3452 169.665 67.2592 171.991 65.6578 175.231C62.261 182.073 61.4206 192.128 63.4091 202.127C65.0918 210.587 69.5732 223.168 81.3679 235.062C87.094 240.836 96.4187 241.149 102.598 235.775L104.87 233.797C110.952 228.504 111.981 219.289 107.213 212.818C106.781 212.235 106.347 211.633 105.913 211.022C98.9653 201.311 95.1016 193.499 94.4297 187.805C93.5653 180.468 89.9107 171.558 83.6952 168.194C83.2305 167.943 82.7588 167.725 82.2807 167.542Z" fill="#390075"/>
					</g>
				</g>
				<g id="Group_11">
					<path id="Vector_7" d="M105.034 233.985L102.761 235.962C96.4951 241.412 87.0387 241.134 81.1907 235.237C60.5083 214.38 59.0568 187.968 65.434 175.12C61.1465 192.022 68.8014 205.27 76.1818 213.542C80.7331 218.644 88.4496 219.601 93.9765 215.577C98.8868 212.002 104.008 211.102 106.115 210.877C106.549 211.487 106.982 212.088 107.413 212.669C112.298 219.299 111.246 228.578 105.034 233.985Z" fill="#390075" fill-opacity="0.301961"/>
				</g>
				<g id="Group_12">
					<path id="Vector_8" d="M86.0375 240.436C83.8078 239.581 81.727 238.256 79.9516 236.466C62.4354 218.799 58.6546 197.654 60.9574 183.758C62.3516 175.344 65.94 169.132 70.8025 166.715C75.696 164.283 80.4799 164.188 84.6416 166.439C91.955 170.397 95.552 180.297 96.4109 187.573C97.075 193.203 101.364 201.524 108.815 211.635C114.196 218.938 113.037 229.334 106.175 235.303L103.905 237.277C98.8501 241.674 91.9256 242.694 86.0375 240.436ZM81.766 168.946C78.912 167.852 75.753 168.15 72.355 169.839C68.5637 171.723 65.5896 177.14 64.3984 184.328C62.2371 197.374 65.8379 217.277 82.4287 234.01C87.602 239.224 96.0291 239.504 101.616 234.645L103.886 232.67C109.386 227.886 110.318 219.555 106.007 213.704C98.0863 202.955 93.6922 194.301 92.9464 187.982C92.1256 181.026 88.7264 172.616 82.9816 169.507C82.5827 169.291 82.1773 169.104 81.766 168.946Z" fill="#390075"/>
				</g>
				<g id="Group_13">
					<path id="Vector_9" d="M64.4136 209.364L64.7812 206.397C84.886 208.887 95.0195 194.536 95.4413 193.923L97.9078 195.613C97.4472 196.287 86.3724 212.084 64.4136 209.364Z" fill="#390075"/>
				</g>
			</g>
			<g id="Group_14">
				<g id="Group_15">
					<g id="Group_16">
						<path id="Vector_10" d="M266.405 271.055C243.437 296.778 196.18 296.314 196.18 296.314C170.327 354.615 132.812 348.753 132.812 348.753C129.209 352.293 125.714 354.273 122.388 355.111C119.75 355.777 117.215 355.72 114.818 355.148C101.645 352.003 92.569 333.32 92.569 333.32C80.0258 326.159 65.4156 312.126 65.4156 312.126C27.7159 311.86 14.88 276.304 21.7735 261.43C23.0627 258.64 25.0468 256.58 27.6946 255.614C44.5062 249.475 44.6129 270.532 44.6129 270.532C52.3857 236.466 81.6984 245.65 90.7203 227.741C95.6466 217.972 101.235 213.621 105.294 211.683C108.673 210.075 110.997 210.134 110.997 210.134C169.499 211.695 211.621 251.079 211.621 251.079C214.001 251.456 216.77 251.416 219.732 251.075C230.809 249.812 244.608 244.433 251.078 241.705C255.243 239.945 260.049 240.234 263.838 242.697C265.397 243.711 266.629 244.971 267.596 246.375C271.225 251.64 270.335 258.708 269.808 263.373C269.484 266.221 268.314 268.915 266.405 271.055Z" fill="white"/>
					</g>
					<g id="Group_17">
						<path id="Vector_11" d="M112.471 354.678C100.961 350.264 92.972 334.682 92.3793 333.498C80.4174 326.649 66.443 313.448 65.3147 312.374C42.5776 312.177 31.1175 299.428 26.3071 291.838C19.879 281.695 17.9214 269.148 21.547 261.324C22.905 258.386 25.0016 256.33 27.6089 255.38C32.1841 253.709 35.9711 253.88 38.8611 255.893C43.3647 259.026 44.4884 265.694 44.7689 268.837C49.7074 249.786 61.7918 244.913 72.4885 240.598C79.8951 237.61 86.8908 234.788 90.4975 227.628C95.5255 217.658 101.261 213.332 105.187 211.458C108.581 209.843 110.906 209.882 111.004 209.884C141.274 210.692 167.064 221.799 183.369 230.974C200.368 240.54 210.872 250.052 211.735 250.844C213.951 251.186 216.632 251.181 219.703 250.826C230.552 249.589 243.956 244.437 250.981 241.475C255.321 239.641 260.178 240.02 263.974 242.488C265.474 243.464 266.762 244.724 267.801 246.233C271.408 251.467 270.614 258.472 270.089 263.108L270.056 263.4C269.72 266.352 268.522 269.056 266.591 271.22L266.59 271.22C254.681 284.558 236.166 290.738 222.731 293.573C209.116 296.447 197.826 296.561 196.342 296.563C182.968 326.643 166.431 339.301 154.906 344.622C143.154 350.048 134.065 349.16 132.899 349.016C129.504 352.329 125.988 354.46 122.449 355.352C119.92 355.991 117.333 356.004 114.76 355.39C113.984 355.205 113.219 354.964 112.471 354.678ZM65.5164 311.878L65.588 311.946C65.734 312.087 80.3203 326.039 92.6924 333.103L92.7592 333.141L92.7931 333.211C92.8835 333.396 101.97 351.821 114.876 354.905C117.37 355.5 119.877 355.487 122.327 354.868C125.81 353.991 129.279 351.874 132.637 348.575L132.727 348.487L132.851 348.506C132.943 348.521 142.326 349.891 154.73 344.154C166.187 338.855 182.639 326.236 195.953 296.212L196.019 296.062L196.183 296.064C196.655 296.068 243.59 296.231 266.219 270.888C268.081 268.802 269.237 266.193 269.561 263.344L269.594 263.052C270.111 258.49 270.892 251.595 267.391 246.516C266.389 245.06 265.148 243.846 263.702 242.906C260.045 240.527 255.362 240.165 251.175 241.934C244.125 244.906 230.67 250.077 219.76 251.322C216.61 251.685 213.858 251.686 211.582 251.324L211.507 251.312L211.451 251.26C211.346 251.162 200.729 241.313 183.112 231.401C166.859 222.257 141.154 211.187 110.99 210.382C110.968 210.382 108.678 210.348 105.401 211.908C101.546 213.748 95.9071 218.009 90.9428 227.853C87.2514 235.18 80.171 238.037 72.6749 241.06C61.7911 245.451 49.4559 250.427 44.8559 270.587L44.3756 272.692L44.3639 270.533C44.3631 270.43 44.2427 260.243 38.5755 256.301C35.8238 254.387 32.1927 254.236 27.7798 255.848C25.2996 256.752 23.3009 258.718 21.9995 261.534C18.441 269.212 20.3857 281.564 26.7281 291.572C31.4905 299.087 42.8504 311.717 65.4169 311.877L65.5164 311.878Z" fill="#390075"/>
					</g>
				</g>
				<g id="Group_18">
					<path id="Vector_12" d="M267.226 271.369C244.257 297.092 196.18 296.313 196.18 296.313C170.327 354.614 132.812 348.752 132.812 348.752C129.209 352.292 125.714 354.272 122.388 355.11C119.784 355.127 117.259 355.141 114.818 355.148C101.645 352.002 92.569 333.319 92.569 333.319C83.7336 311.897 93.8692 302.845 93.8692 302.845C86.7179 339.893 123.408 345.928 127.272 345.059C129.555 344.544 130.75 341.279 131.346 338.698C131.665 337.316 133.281 336.674 134.458 337.465C141.637 342.29 148.789 340.839 154.898 337.185C165.279 330.975 170.716 319.065 169.285 307.053C168.399 299.606 168.761 292.243 169.623 285.776C171.224 273.777 164.087 262.332 152.675 258.297C150.199 257.422 148.63 256.809 148.63 256.809C103.686 238.201 105.066 212.565 105.066 212.565L105.294 211.682C108.673 210.074 110.997 210.133 110.997 210.133C169.499 211.695 211.621 251.078 211.621 251.078C214.001 251.456 216.77 251.415 219.732 251.074C219.427 251.451 219.108 251.841 218.778 252.236C211.71 260.726 207.143 268.217 204.227 274.025C201.304 279.849 205.891 286.608 212.382 286.035C270.503 280.906 267.596 246.374 267.596 246.374C271.225 251.64 271.156 259.023 270.629 263.687C270.305 266.536 269.135 269.229 267.226 271.369Z" fill="#390075" fill-opacity="0.301961"/>
				</g>
				<g id="Group_19">
					<g id="Group_20">
						<path id="Vector_13" d="M128.622 329.014C128.622 329.014 136.746 319.268 123.319 299.11L120.149 303.544C120.149 303.544 129.972 312.969 128.622 329.014Z" fill="#000072" fill-opacity="0.301961"/>
					</g>
					<g id="Group_21">
						<path id="Vector_14" d="M128.307 329.78L128.373 328.993C129.698 313.248 120.074 303.815 119.976 303.722L119.82 303.573L123.326 298.671L123.526 298.972C136.902 319.051 128.895 329.074 128.813 329.173L128.307 329.78ZM120.473 303.517C121.691 304.784 129.758 313.754 128.938 328.069C130.443 325.404 134.119 315.956 123.311 299.549L120.473 303.517Z" fill="#390075" fill-opacity="0.301961"/>
					</g>
				</g>
				<g id="Group_22">
					<path id="Vector_15" d="M159.18 307.594C159.18 307.594 155.447 290.493 138.083 290.154C138.083 290.154 126.873 291.348 120.147 303.542C120.147 303.542 104.91 287.961 92.215 304.904C92.215 304.904 84.3413 316.443 92.569 333.319C80.0257 326.158 65.4155 312.125 65.4155 312.125C27.7158 311.86 14.88 276.303 21.7734 261.429C22.7007 271.089 26.5196 286.803 41.0051 295.021C43.899 296.663 47.4569 294.384 47.2241 291.065C47.2241 291.065 47.872 272.515 55.7712 259.754C55.7712 259.754 47.846 277.399 65.6489 295.626C72.362 302.499 83.1515 303.086 90.6903 297.131C97.0867 292.078 106.862 288.61 119.784 296.19C119.784 296.19 131.494 282.208 142.892 285.284C157.147 289.137 161.053 298.501 159.18 307.594Z" fill="#390075" fill-opacity="0.301961"/>
				</g>
				<g id="Group_23">
					<path id="Vector_16" d="M111.895 356.059C100.505 351.691 92.7302 337.461 91.2464 334.57C79.9363 327.992 67.3921 316.39 64.7102 313.86C51.979 313.624 40.8134 309.358 32.3864 301.5C25.3435 294.934 20.3879 285.88 18.79 276.661C16.844 265.434 20.1049 256.53 27.0975 253.975C32.1562 252.128 36.4017 252.361 39.7154 254.665C42.5598 256.644 44.1864 259.833 45.1165 262.835C50.9761 247.662 62.0304 243.204 71.9311 239.21C79.3783 236.206 85.8093 233.612 89.1628 226.957C98.5752 208.279 110.539 208.378 111.044 208.391C111.044 208.391 111.044 208.391 111.044 208.392C141.621 209.206 167.65 220.414 184.102 229.671C200.188 238.723 210.271 247.504 212.402 249.428C223.351 250.854 242.561 243.405 250.401 240.096C255.201 238.07 260.579 238.496 264.79 241.234C268.494 243.644 270.921 247.474 272.004 252.616C273.951 261.866 270.535 271.516 263.09 277.801C240.553 296.825 204.362 298.015 197.309 298.061C183.816 327.925 167.177 340.603 155.533 345.979C144.677 350.992 136.141 350.803 133.433 350.575C127.712 355.951 121.7 358.138 115.554 357.076C114.297 356.859 113.077 356.512 111.895 356.059ZM66.0404 310.496C66.2558 310.579 66.4548 310.704 66.624 310.866C66.7688 311.005 81.2294 324.835 93.435 331.805C93.7402 331.978 93.9856 332.241 94.1388 332.557C94.2308 332.745 103.474 351.448 116.154 353.64C121.345 354.535 126.538 352.471 131.591 347.508C131.984 347.122 132.537 346.944 133.082 347.029C133.168 347.042 142.269 348.33 154.302 342.705C165.466 337.485 181.518 325.077 194.585 295.607C194.869 294.968 195.508 294.559 196.208 294.57C196.616 294.577 237.326 294.985 260.841 275.136C267.303 269.68 270.272 261.326 268.59 253.334C267.706 249.132 265.787 246.045 262.887 244.158C259.649 242.049 255.489 241.734 251.757 243.31C243.519 246.788 223.089 254.675 211.346 252.799C211.004 252.745 210.684 252.589 210.43 252.352C210.326 252.254 199.784 242.485 182.301 232.66C166.214 223.619 140.779 212.676 110.962 211.879C110.483 211.875 100.589 212.033 92.2783 228.527C88.3328 236.356 80.9999 239.313 73.2361 242.445C62.177 246.906 50.741 251.519 46.315 270.919C46.1177 271.783 45.3042 272.362 44.4235 272.265C43.5429 272.168 42.8752 271.426 42.8704 270.54C42.8697 270.447 42.7421 261.011 37.7167 257.524C35.3903 255.909 32.2195 255.818 28.2939 257.252C23.0472 259.169 20.6089 266.729 22.2269 276.065C25.1655 293.016 39.6626 310.201 65.4282 310.381C65.6395 310.382 65.8468 310.422 66.0404 310.496ZM110.952 211.878C110.951 211.878 110.951 211.878 110.951 211.878L110.952 211.878Z" fill="#390075"/>
				</g>
				<g id="Group_24">
					<path id="Vector_17" d="M64.6139 313.078C63.9215 312.504 63.2872 311.918 62.6444 311.319C62.0004 310.727 61.3782 310.113 60.7648 309.489C59.5406 308.241 58.3543 306.954 57.2305 305.61C56.6689 304.937 56.1183 304.256 55.59 303.555C55.3274 303.203 55.0561 302.86 54.8017 302.502L54.0575 301.415C53.109 299.936 52.2583 298.37 51.7354 296.685C52.8702 298.033 53.9951 299.311 55.1425 300.576C56.2847 301.843 57.4666 303.073 58.6827 304.27C59.8953 305.47 61.1493 306.63 62.4081 307.781C63.6668 308.926 64.95 310.077 66.2176 311.171L64.6139 313.078Z" fill="#390075"/>
				</g>
				<g id="Group_25">
					<path id="Vector_18" d="M46.0881 270.782C46.0451 271.014 45.9951 271.378 45.9479 271.69C45.9066 272.016 45.8574 272.348 45.8246 272.683C45.7506 273.353 45.6858 274.035 45.6472 274.725C45.6051 275.416 45.5884 276.114 45.5751 276.825C45.5384 277.54 45.5081 278.265 45.3653 279.051C44.8472 278.452 44.4661 277.785 44.1739 277.088C43.8809 276.391 43.6863 275.663 43.4966 274.928C43.321 274.189 43.1953 273.436 43.1238 272.671C43.0885 272.288 43.0677 271.902 43.0668 271.513C43.0663 271.109 43.0762 270.757 43.1409 270.279L46.0881 270.782Z" fill="#390075"/>
				</g>
				<g id="Group_26">
					<path id="Vector_19" d="M91.4669 333.847C91.0152 332.93 90.6449 332.071 90.29 331.166C89.9312 330.271 89.6142 329.363 89.3262 328.444C88.7492 326.607 88.2706 324.733 87.9458 322.819C87.3156 319.002 87.1516 315.014 87.9827 311.101C88.6832 307.154 90.7638 303.322 93.7732 300.548C95.2817 299.157 97.0192 298.024 98.8799 297.177C100.749 296.346 102.74 295.797 104.774 295.566C106.809 295.348 108.881 295.465 110.884 295.91C112.882 296.374 114.803 297.173 116.536 298.261C118.278 299.332 119.794 300.776 121.058 302.274C122.314 303.793 123.411 305.368 124.425 307.013C125.426 308.662 126.291 310.391 127.052 312.162C127.789 313.945 128.378 315.79 128.81 317.667C129.616 321.428 129.682 325.391 128.622 329.013C128.829 325.254 128.223 321.593 127.03 318.164C125.841 314.733 124.124 311.507 122.075 308.525C121.064 307.03 119.955 305.578 118.771 304.265C117.585 302.949 116.345 301.803 114.875 300.944C113.425 300.076 111.837 299.454 110.188 299.105C108.533 298.777 106.829 298.716 105.148 298.895C103.469 299.099 101.822 299.565 100.28 300.26C98.7414 300.966 97.3317 301.928 96.0789 303.054C94.8254 304.183 93.7842 305.534 92.9601 307.005C92.1409 308.492 91.5472 310.062 91.2058 311.789L91.0545 312.425C91.0048 312.637 90.9863 312.856 90.9503 313.072L90.757 314.374C90.7063 314.81 90.6902 315.252 90.6543 315.692C90.62 316.132 90.5856 316.572 90.5975 317.017L90.5914 318.349L90.6565 319.686L90.6918 320.355L90.7632 321.023C90.8145 321.468 90.848 321.916 90.9139 322.361C91.1636 324.141 91.5271 325.915 91.9856 327.668C92.2163 328.543 92.4752 329.413 92.7546 330.275C93.0277 331.13 93.348 332.009 93.6734 332.791L91.4669 333.847Z" fill="#390075"/>
				</g>
				<g id="Group_27">
					<path id="Vector_20" d="M119.066 302.925C119.682 301.888 120.31 300.978 120.994 300.054C121.673 299.14 122.391 298.255 123.146 297.4C124.665 295.699 126.326 294.102 128.203 292.742C129.136 292.057 130.12 291.428 131.162 290.89C131.673 290.605 132.218 290.377 132.753 290.132C133.307 289.926 133.85 289.692 134.425 289.534C136.688 288.811 139.149 288.629 141.52 288.966C142.687 289.172 143.884 289.453 144.947 289.88L146.569 290.488C147.109 290.693 147.616 290.984 148.144 291.223C149.212 291.684 150.18 292.347 151.176 292.955C152.104 293.667 153.046 294.367 153.847 295.226C155.486 296.894 156.815 298.857 157.741 300.966C158.643 303.079 159.24 305.336 159.181 307.596C158.4 305.497 157.384 303.577 156.187 301.815C154.999 300.051 153.602 298.478 152.052 297.101C151.304 296.379 150.449 295.789 149.64 295.141C148.753 294.599 147.927 293.958 146.973 293.516C146.506 293.282 146.056 293.01 145.568 292.815L144.1 292.236C143.855 292.145 143.61 292.03 143.366 291.957L142.632 291.749C142.39 291.671 142.143 291.617 141.893 291.575L141.149 291.429C139.151 291.152 137.103 291.293 135.158 291.916C134.667 292.047 134.195 292.255 133.714 292.431C133.247 292.647 132.772 292.843 132.319 293.097C131.399 293.571 130.517 294.133 129.672 294.754C127.972 295.985 126.43 297.463 125.011 299.052C124.305 299.851 123.632 300.682 122.995 301.539C122.364 302.387 121.741 303.299 121.23 304.161L119.066 302.925Z" fill="#390075"/>
				</g>
				<g id="Group_28">
					<path id="Vector_21" d="M143.146 347.654C146.285 333.869 143.989 321.51 136.323 310.918C130.575 302.977 123.79 299.057 123.722 299.018L124.952 296.852C125.246 297.018 132.21 301.026 138.278 309.37C143.886 317.081 149.704 330.078 145.575 348.207L143.146 347.654Z" fill="#390075"/>
				</g>
				<g id="Group_29">
					<path id="Vector_22" d="M131.626 348.455C131.888 347.845 132.133 347.155 132.347 346.485C132.565 345.808 132.762 345.121 132.937 344.427C133.272 343.037 133.529 341.616 133.607 340.163C133.742 340.876 133.862 341.601 133.94 342.333C134.017 343.064 134.073 343.803 134.095 344.543C134.125 345.284 134.134 346.029 134.118 346.775C134.098 347.529 134.071 348.256 133.999 349.05L131.626 348.455Z" fill="#390075"/>
				</g>
				<g id="Group_30">
					<path id="Vector_23" d="M61.5839 310.304C48.149 289.513 49.9613 272.181 53.8476 261.304C58.0592 249.514 65.3675 242.747 65.6768 242.464L67.357 244.304L66.5169 243.384L67.3582 244.303C67.2863 244.369 60.1436 251.005 56.1569 262.246C50.8287 277.27 53.3585 292.984 63.6767 308.952L61.5839 310.304Z" fill="#390075"/>
				</g>
				<g id="Group_31">
					<path id="Vector_24" d="M247.14 286.266C231.853 269.469 234.068 248.144 234.169 247.245L237.141 247.58C237.118 247.787 235 268.484 249.352 284.254L247.14 286.266Z" fill="#390075"/>
				</g>
				<g id="Group_32">
					<path id="Vector_25" d="M196.057 297.531C195.652 297.502 195.252 297.421 194.854 297.327C194.456 297.229 194.059 297.118 193.664 296.98C193.269 296.853 192.877 296.697 192.487 296.515C192.099 296.324 191.711 296.119 191.332 295.827C191.762 295.615 192.182 295.493 192.601 295.382C193.019 295.281 193.435 295.207 193.847 295.16C194.261 295.104 194.672 295.073 195.082 295.057C195.491 295.045 195.899 295.045 196.302 295.097L196.057 297.531Z" fill="#390075"/>
				</g>
			</g>
			<g id="Group_33">
				<g id="Group_34">
					<g id="Group_35">
						<path id="Vector_26" d="M143.373 278.27L120.99 295.491C119.043 296.99 116.323 296.962 114.41 295.415C106.415 288.964 85.3928 272.235 71.0609 262.928C68.588 261.326 67.8731 258.015 69.5002 255.561C71.1453 253.073 73.8109 249.819 78.0574 246.247C81.9842 242.937 87.2679 239.356 94.3405 235.857C95.7061 235.182 97.2937 235.133 98.6998 235.713C105.589 238.548 126.92 248.521 143.064 269.142C143.507 269.705 143.942 270.275 144.375 270.852C146.123 273.187 145.682 276.495 143.373 278.27Z" fill="white"/>
					</g>
					<g id="Group_36">
						<path id="Vector_27" d="M115.766 296.482C115.231 296.277 114.72 295.986 114.253 295.608C105.975 288.929 85.1822 272.395 70.925 263.137C69.6629 262.319 68.7989 261.059 68.4935 259.589C68.191 258.135 68.4745 256.655 69.2921 255.423C71.3959 252.24 74.2911 249.088 77.8968 246.056C82.3591 242.294 87.8543 238.787 94.2293 235.633C95.6563 234.929 97.3238 234.886 98.7945 235.482C105.104 238.078 126.959 248.166 143.26 268.988C143.703 269.552 144.14 270.123 144.574 270.702C146.397 273.137 145.926 276.621 143.525 278.467L121.141 295.688C119.569 296.898 117.534 297.16 115.766 296.482ZM98.4854 235.896C97.1734 235.393 95.7103 235.458 94.4506 236.08C88.1112 239.216 82.6498 242.7 78.2177 246.437C74.6485 249.439 71.7853 252.555 69.7074 255.698C68.964 256.82 68.7061 258.165 68.9809 259.488C69.2599 260.826 70.0464 261.974 71.1958 262.719C85.4731 271.989 106.282 288.536 114.566 295.22C116.394 296.701 118.972 296.729 120.837 295.293L143.22 278.073C145.407 276.391 145.835 273.219 144.175 271.001C143.744 270.425 143.309 269.857 142.867 269.296C126.641 248.57 104.886 238.527 98.6043 235.943C98.5648 235.927 98.5253 235.911 98.4854 235.896Z" fill="#390075"/>
					</g>
				</g>
				<g id="Group_37">
					<path id="Vector_28" d="M143.373 278.27L120.989 295.491C119.043 296.99 116.322 296.962 114.41 295.414C106.414 288.964 85.3924 272.235 71.0605 262.928C68.5876 261.326 67.8727 258.015 69.4997 255.561C71.1449 253.072 73.8105 249.819 78.057 246.247C77.078 248.871 75.7283 254.812 80.7666 259.992C87.2423 266.637 120.836 294.829 143.064 269.142C143.506 269.705 143.942 270.274 144.374 270.852C146.122 273.187 145.682 276.494 143.373 278.27Z" fill="#390075" fill-opacity="0.301961"/>
				</g>
				<g id="Group_38">
					<path id="Vector_29" d="M115.319 297.646C114.665 297.395 114.041 297.04 113.472 296.58C105.205 289.91 84.4441 273.401 70.2443 264.184C68.7019 263.182 67.6466 261.641 67.273 259.843C66.9021 258.061 67.2504 256.246 68.2527 254.733C71.6864 249.548 78.8848 241.833 93.678 234.518C95.4228 233.655 97.4688 233.569 99.2695 234.33L99.2698 234.33C105.932 237.07 128.959 247.736 145.571 269.956C147.798 272.934 147.219 277.196 144.282 279.456L121.902 296.676C119.977 298.157 117.485 298.477 115.319 297.646ZM98.0483 237.062C97.0557 236.681 95.951 236.729 95.0029 237.198C80.8071 244.218 73.9761 251.506 70.7454 256.384C70.1873 257.227 69.9934 258.24 70.2003 259.234C70.4104 260.245 71.0042 261.112 71.8724 261.676C86.1887 270.969 107.046 287.554 115.349 294.254C116.728 295.365 118.673 295.388 120.079 294.307L142.459 277.087C144.107 275.818 144.429 273.422 143.176 271.746C127.023 250.139 104.615 239.762 98.1328 237.095L98.1332 237.095C98.1052 237.084 98.0766 237.072 98.0483 237.062Z" fill="#390075"/>
				</g>
				<g id="Group_39">
					<path id="Vector_30" d="M81.0302 269.751L78.9745 268.343C83.1549 262.239 90.4349 256.901 93.6832 254.693L89.4649 251.991C89.112 251.765 88.8962 251.377 88.8909 250.958C88.886 250.539 89.0914 250.145 89.4387 249.91L106.232 238.543L107.628 240.607L92.4015 250.914L96.6445 253.631C97.0047 253.862 97.221 254.261 97.2183 254.689C97.2154 255.116 96.9935 255.513 96.6301 255.738C96.5258 255.804 86.1117 262.331 81.0302 269.751Z" fill="#390075"/>
				</g>
				<g id="Group_40">
					<path id="Vector_31" d="M126.6 273.847C124.646 278.943 118.93 281.49 113.834 279.535C108.737 277.581 106.19 271.865 108.145 266.769C110.099 261.672 115.815 259.125 120.911 261.08C126.008 263.034 128.555 268.75 126.6 273.847Z" fill="#33AEF0" fill-opacity="0.6"/>
				</g>
				<g id="Group_41">
					<path id="Vector_32" d="M108.47 270.096C110.424 265 116.14 262.453 121.237 264.407C124.107 265.508 126.169 267.803 127.073 270.509C126.968 266.635 124.577 263.02 120.733 261.546C115.636 259.591 109.921 262.138 107.966 267.234C107.113 269.459 107.118 271.802 107.819 273.899C107.784 272.637 107.99 271.348 108.47 270.096Z" fill="white" fill-opacity="0.6"/>
				</g>
				<g id="Group_42">
					<path id="Vector_33" d="M125.627 264.876C125.711 266.244 125.513 267.651 124.99 269.015C123.036 274.111 117.32 276.658 112.224 274.703C110.216 273.933 108.605 272.578 107.508 270.907C107.738 274.654 110.101 278.104 113.834 279.535C118.93 281.49 124.646 278.943 126.6 273.847C127.784 270.759 127.314 267.445 125.627 264.876Z" fill="#390075" fill-opacity="0.301961"/>
				</g>
				<g id="Group_43">
					<path id="Vector_34" d="M113.388 280.699C107.658 278.501 104.784 272.052 106.981 266.323C109.179 260.593 115.628 257.719 121.358 259.917C127.087 262.114 129.96 268.563 127.763 274.293C125.566 280.022 119.117 282.896 113.388 280.699ZM120.465 262.243C116.019 260.538 111.014 262.768 109.308 267.215C107.603 271.661 109.833 276.667 114.28 278.372C118.726 280.077 123.732 277.847 125.437 273.401C127.142 268.954 124.912 263.949 120.465 262.243Z" fill="#390075"/>
				</g>
			</g>
			<g id="Group_44">
				<g id="Group_45">
					<path id="Vector_35" d="M218.778 252.236C208.591 259.086 184.108 280.519 183.37 328.607C183.359 329.293 182.996 329.799 182.504 330.068C181.75 330.483 180.698 330.34 180.182 329.42C174.866 319.954 166.572 296.466 185.24 260.047C185.717 259.114 186.21 258.173 186.726 257.223C186.726 257.223 198.285 250.647 209.698 250.322C213.36 250.218 216.059 250.109 218.035 250.012C219.267 249.949 219.801 251.549 218.778 252.236Z" fill="white"/>
				</g>
				<g id="Group_46">
					<path id="Vector_36" d="M218.778 252.236C208.591 259.086 184.108 280.519 183.37 328.607C183.359 329.293 182.996 329.799 182.504 330.067C180.025 323.055 176.511 304.658 189.74 272.2C191.616 267.598 189.658 262.322 185.24 260.047C185.717 259.114 186.21 258.173 186.726 257.223C186.726 257.223 198.285 250.647 209.698 250.322C213.36 250.217 216.059 250.109 218.035 250.012C219.267 249.949 219.801 251.548 218.778 252.236Z" fill="#390075" fill-opacity="0.301961"/>
				</g>
				<g id="Group_47">
					<path id="Vector_37" d="M180.473 331.497C179.791 331.236 179.204 330.738 178.821 330.053C175.929 324.868 172.431 316.113 172.194 303.853C171.909 289.168 176.356 273.24 185.411 256.511C185.544 256.265 185.743 256.061 185.986 255.923C186.471 255.647 198.003 249.16 209.655 248.826C212.902 248.733 215.696 248.629 217.96 248.516C219.192 248.455 220.283 249.2 220.672 250.372C221.061 251.541 220.635 252.789 219.613 253.477C209.419 260.332 185.626 281.367 184.866 328.525C184.843 330.006 183.86 331.244 182.422 331.606C181.75 331.775 181.075 331.728 180.473 331.497ZM181.432 328.597C181.465 328.654 181.518 328.75 181.692 328.707C181.874 328.661 181.876 328.536 181.877 328.477C182.64 281.107 206.157 259.204 217.136 251.549C215.041 251.645 212.559 251.734 209.741 251.816C199.952 252.096 189.86 257.235 187.831 258.322C167.644 295.897 176.621 319.972 181.432 328.597Z" fill="#390075"/>
				</g>
			</g>
			<g id="Group_48">
				<g id="Group_49">
					<g id="Group_50">
						<path id="Vector_38" d="M213.994 239.106C213.994 239.106 213.17 249.171 210.651 253.056C208.132 256.942 183.839 265.021 150.421 252.205C117.003 239.39 104.343 217.138 105.067 212.565C105.792 207.991 111.911 199.956 111.911 199.956C111.911 199.956 123.523 226.672 155.67 239C187.816 251.329 213.994 239.106 213.994 239.106Z" fill="white"/>
					</g>
					<g id="Group_51">
						<path id="Vector_39" d="M150.332 252.439C132.217 245.492 120.989 236.111 114.76 229.465C107.312 221.52 104.465 214.777 104.822 212.526C105.548 207.943 111.462 200.137 111.713 199.806L111.97 199.468L112.14 199.858C112.255 200.124 124.086 226.622 155.759 238.768C187.431 250.914 213.627 239.002 213.889 238.88L214.277 238.699L214.242 239.126C214.208 239.54 213.385 249.299 210.861 253.192C209.621 255.104 202.995 258.215 192.145 259.143C183.069 259.919 168.447 259.386 150.332 252.439ZM111.861 200.441C110.711 202.001 105.938 208.667 105.314 212.604C104.639 216.865 117.058 239.144 150.511 251.973C183.964 264.803 208.096 256.541 210.443 252.922C212.61 249.578 213.518 241.438 213.707 239.503C210.306 240.944 185.339 250.646 155.581 239.234C125.803 227.814 113.453 203.774 111.861 200.441Z" fill="#390075"/>
					</g>
				</g>
				<g id="Group_52">
					<g id="Group_53">
						<path id="Vector_40" d="M213.994 239.106C213.994 239.106 209.489 241.207 201.927 242.788C201.092 245.314 200.012 247.923 198.766 249.414C195.797 252.968 170.708 258.063 139.077 241.315C121.946 232.245 111.194 221.161 105.137 212.197C105.111 212.321 105.086 212.445 105.067 212.565C104.343 217.138 117.003 239.39 150.421 252.205C183.839 265.021 208.132 256.942 210.651 253.056C213.17 249.171 213.994 239.106 213.994 239.106Z" fill="#000072" fill-opacity="0.301961"/>
					</g>
					<g id="Group_54">
						<path id="Vector_41" d="M150.332 252.439C132.217 245.492 120.989 236.111 114.76 229.465C107.312 221.52 104.465 214.777 104.822 212.526C104.841 212.402 104.867 212.275 104.894 212.146L105.014 211.571L105.344 212.058C110.679 219.954 120.883 231.401 139.194 241.096C170.86 257.859 195.81 252.566 198.576 249.255C199.621 248.004 200.669 245.802 201.691 242.711L201.736 242.575L201.876 242.546C209.324 240.988 213.844 238.901 213.889 238.88L214.277 238.699L214.242 239.127C214.209 239.541 213.385 249.3 210.861 253.192C209.621 255.105 202.995 258.215 192.145 259.143C183.069 259.919 168.447 259.387 150.332 252.439ZM105.29 212.863C105.113 217.699 117.686 239.385 150.511 251.974C183.964 264.803 208.096 256.541 210.443 252.922C212.61 249.579 213.518 241.442 213.707 239.504C212.458 240.038 208.295 241.7 202.119 243.004C201.092 246.083 200.028 248.293 198.958 249.575C197.497 251.324 190.544 253.614 179.661 253.227C170.558 252.905 156.107 250.616 138.961 241.536C120.961 232.006 110.75 220.782 105.29 212.863Z" fill="#390075" fill-opacity="0.301961"/>
					</g>
				</g>
				<g id="Group_55">
					<path id="Vector_42" d="M149.983 253.348C131.696 246.335 120.348 236.852 114.049 230.131C106.747 222.341 103.396 215.301 103.859 212.373C104.624 207.551 110.681 199.554 110.938 199.216C111.201 198.871 111.627 198.691 112.058 198.743C112.488 198.794 112.859 199.071 113.032 199.469C113.147 199.731 124.849 225.871 156.108 237.859C187.36 249.844 213.219 238.118 213.477 237.997C213.872 237.814 214.334 237.853 214.693 238.102C215.05 238.351 215.248 238.772 215.213 239.206C215.178 239.629 214.335 249.626 211.678 253.722C210.066 256.21 202.867 259.203 192.228 260.113C183.05 260.898 168.271 260.362 149.983 253.348ZM111.715 202.308C109.724 205.152 106.727 209.911 106.276 212.756C106.016 214.398 108.552 220.69 115.834 228.458C121.958 234.992 133.006 244.217 150.859 251.064C168.714 257.911 183.097 258.439 192.019 257.676C202.628 256.768 208.721 253.786 209.625 252.391C211.192 249.976 212.144 244.447 212.566 241.001C205.841 243.517 182.503 250.602 155.232 240.143C127.922 229.67 115.082 208.664 111.715 202.308Z" fill="#390075"/>
				</g>
			</g>
			<g id="Group_56">
				<path id="Vector_43" d="M217.696 239.111C217.696 239.111 215.167 226.619 167.269 208.25C119.371 189.881 109.137 197.478 109.137 197.478L109.131 197.481C118.68 215.832 134.693 230.908 155.501 238.936C176.341 246.88 198.328 246.377 217.698 239.117L217.696 239.111Z" fill="#390075"/>
			</g>
			<g id="Group_57">
				<path id="Vector_44" d="M155.413 240.552C107.27 222.089 83.1234 167.901 101.587 119.757C120.05 71.614 174.238 47.4676 222.381 65.9306C270.524 84.3938 294.671 138.582 276.207 186.725C257.744 234.869 203.556 259.015 155.413 240.552ZM220.863 69.889C174.902 52.2631 123.171 75.3148 105.545 121.275C87.9189 167.236 110.971 218.968 156.931 236.593C202.892 254.22 254.623 231.168 272.249 185.207C289.875 139.246 266.823 87.5151 220.863 69.889Z" fill="#390075"/>
			</g>
			<g id="Group_58">
				<g id="Group_59">
					<path id="Vector_45" d="M153.286 276.129C153.75 276.317 154.203 276.542 154.681 276.685C155.371 276.891 155.93 277.251 156.375 277.819C157.025 278.647 157.847 279.235 158.895 279.446C160.616 279.794 161.982 278.699 161.998 276.941C162.002 276.5 161.92 276.047 161.804 275.619C161.574 274.772 161.46 273.922 161.497 273.043C161.546 271.871 161.077 270.937 160.093 270.302C159.1 269.662 158.041 269.617 157 270.172C156.266 270.564 155.515 270.799 154.681 270.822C153.968 270.842 153.303 271.068 152.721 271.497C151.705 272.247 151.41 273.467 151.967 274.601C152.25 275.177 152.701 275.672 153.309 276.072C153.301 276.091 153.293 276.11 153.286 276.129Z" fill="#E61F36"/>
				</g>
				<g id="Group_60">
					<path id="Vector_46" d="M163.524 266.265C163.13 266.814 162.794 267.393 162.718 268.073C162.678 268.429 162.674 268.808 162.75 269.155C163.005 270.312 164.099 270.88 165.261 270.457C166.305 270.076 167.021 269.347 167.314 268.259C167.579 267.27 167.518 266.284 167.149 265.329C167.055 265.085 166.915 264.848 166.753 264.643C166.423 264.226 165.979 264.134 165.491 264.348C164.99 264.568 164.614 264.946 164.262 265.348C164.003 265.642 163.769 265.959 163.524 266.265Z" fill="#E61F36"/>
				</g>
				<g id="Group_61">
					<path id="Vector_47" d="M162.593 265.656C162.872 265.053 163.172 264.459 163.419 263.843C163.526 263.578 163.557 263.27 163.56 262.98C163.566 262.519 163.317 262.204 162.883 262.044C162.357 261.851 161.822 261.892 161.288 262.002C160.357 262.196 159.496 262.554 158.853 263.277C158.187 264.026 157.89 264.922 158.06 265.925C158.273 267.183 159.417 267.801 160.653 267.349C161.271 267.124 161.761 266.726 162.155 266.208C162.295 266.024 162.413 265.824 162.542 265.631C162.559 265.64 162.577 265.648 162.593 265.656Z" fill="#E61F36"/>
				</g>
				<g id="Group_62">
					<path id="Vector_48" d="M153.18 265.067C152.501 266.09 152.374 267.12 152.883 268.183C153.443 269.354 154.759 269.559 155.684 268.642C156.05 268.278 156.31 267.846 156.437 267.35C156.653 266.508 156.732 265.651 156.581 264.79C156.539 264.552 156.46 264.312 156.349 264.099C156.123 263.666 155.739 263.495 155.259 263.583C154.581 263.708 154.062 264.106 153.594 264.583C153.433 264.748 153.293 264.933 153.18 265.067Z" fill="#E61F36"/>
				</g>
				<g id="Group_63">
					<path id="Vector_49" d="M163.617 273.268C163.505 273.582 163.354 273.888 163.288 274.212C163.096 275.156 163.681 275.98 164.632 276.148C165.794 276.355 167.014 275.776 167.653 274.719C167.995 274.153 168.23 273.55 168.277 272.887C168.292 272.687 168.281 272.48 168.248 272.281C168.159 271.738 167.814 271.431 167.265 271.393C167.112 271.384 166.954 271.385 166.805 271.416C165.736 271.645 164.786 272.115 163.991 272.875C163.866 272.995 163.766 273.143 163.655 273.278C163.642 273.274 163.629 273.271 163.617 273.268Z" fill="#E61F36"/>
				</g>
			</g>
			<path id="Vector_50" d="M228.151 227.338C216.791 236.517 197.343 240.819 164.176 230.847L164.139 230.835C131.401 220.988 117.497 206.904 112.912 193.141C111.179 187.954 110.776 182.812 111.184 177.961C112.587 161.322 123.567 148.082 123.567 148.082C128.269 116.152 140.589 98.391 147.037 91.0163C149.651 88.0203 154.086 87.375 157.404 89.5568C169.994 97.8143 178.165 120.903 178.165 120.903C187.497 120.873 196.382 123.729 196.382 123.729C196.382 123.729 205.369 126.247 213.137 131.418C213.137 131.418 232.686 116.663 247.742 116.718C251.714 116.727 255.057 119.711 255.586 123.652C256.898 133.36 257.38 154.971 243.695 184.2C243.695 184.2 246.751 212.309 228.151 227.338Z" fill="#F9A429"/>
			<path id="Vector_51" d="M232.838 221.726C231.409 223.783 229.837 225.649 228.151 227.338C216.791 236.517 197.343 240.819 164.176 230.847L164.139 230.835C131.401 220.988 117.497 206.904 112.912 193.141C112.328 190.632 111.983 188.042 111.929 185.374C111.929 185.374 111.979 171.291 121.345 165.282C130.715 159.274 139.279 165.606 141.745 173.195C144.217 180.785 154.617 182.629 161.334 179.956C168.05 177.283 173.042 176.267 179.961 178.347C186.88 180.427 190.484 184.028 194.612 189.961C198.742 195.895 208.434 200.092 214.682 195.124C220.924 190.154 231.56 189.593 236.063 199.773C240.562 209.951 232.838 221.726 232.838 221.726Z" fill="white"/>
			<path id="Vector_52" d="M186.222 188.344C186.705 186.18 184.597 184.386 182.535 183.186C180.285 181.875 177.745 181.112 175.146 180.964C172.763 180.828 170.015 181.162 169.224 183.234C168.197 185.924 171.821 189.096 174.117 190.775C175.237 191.594 176.596 192.003 177.982 191.937C180.824 191.803 185.596 191.155 186.222 188.344Z" fill="#03036B"/>
			<path id="Vector_53" d="M182.881 185.455C182.749 185.895 180.582 185.633 178.037 184.868C175.494 184.103 173.54 183.126 173.672 182.687C173.805 182.244 175.974 182.507 178.517 183.271C181.062 184.036 183.014 185.013 182.881 185.455Z" fill="white"/>
			<path id="Vector_54" d="M142.419 131.109C146.831 129.148 154.309 126.201 162.991 124.339C164.069 124.107 164.807 123.109 164.723 122.009C164.336 116.93 159.35 103.981 155.402 101.036C149.536 96.6591 141.992 119.055 139.386 128.502C138.89 130.304 140.71 131.869 142.419 131.109Z" fill="#FF5FAF"/>
			<path id="Vector_55" d="M237.329 159.645C234.729 155.575 230.116 148.993 223.901 142.652C223.129 141.863 223.064 140.624 223.74 139.754C226.864 135.73 238.163 127.677 243.082 127.397C250.389 126.982 244.332 149.825 241.296 159.141C240.716 160.919 238.335 161.221 237.329 159.645Z" fill="#FF5FAF"/>
			<path id="Vector_56" d="M133.635 217.504C121.893 209.942 115.691 201.484 112.912 193.142C111.179 187.954 110.776 182.812 111.184 177.961C111.32 176.352 111.545 174.776 111.841 173.24C111.545 174.776 111.32 176.352 111.184 177.961C110.776 182.812 111.179 187.954 112.912 193.142C115.691 201.484 121.893 209.942 133.635 217.504Z" fill="#B38FA4"/>
			<path id="Vector_57" d="M228.181 227.313C228.184 227.31 228.187 227.307 228.191 227.306C228.187 227.307 228.184 227.31 228.181 227.313ZM228.211 227.288C228.216 227.284 228.219 227.282 228.223 227.278C228.219 227.281 228.216 227.285 228.211 227.288ZM228.242 227.263C228.246 227.261 228.251 227.257 228.254 227.253C228.249 227.256 228.246 227.26 228.242 227.263ZM228.274 227.237C228.278 227.234 228.281 227.232 228.285 227.228C228.281 227.231 228.276 227.235 228.274 227.237ZM228.314 227.204C228.317 227.202 228.318 227.201 228.321 227.199C228.318 227.201 228.317 227.202 228.314 227.204ZM228.344 227.18C228.349 227.176 228.352 227.174 228.356 227.17C228.352 227.174 228.348 227.177 228.344 227.18ZM228.375 227.154C228.38 227.151 228.384 227.147 228.388 227.144C228.384 227.147 228.38 227.151 228.375 227.154ZM228.404 227.131C228.408 227.127 228.414 227.122 228.419 227.118C228.414 227.122 228.408 227.127 228.404 227.131ZM228.434 227.106C228.442 227.099 228.449 227.093 228.458 227.087C228.45 227.093 228.441 227.1 228.434 227.106ZM228.476 227.071C228.482 227.067 228.487 227.062 228.492 227.059C228.487 227.062 228.482 227.067 228.476 227.071ZM228.505 227.047C228.511 227.043 228.516 227.037 228.522 227.034C228.516 227.037 228.511 227.043 228.505 227.047ZM228.535 227.022C228.541 227.017 228.546 227.013 228.552 227.009C228.546 227.014 228.541 227.017 228.535 227.022ZM228.565 226.997C228.571 226.992 228.576 226.988 228.58 226.985C228.575 226.989 228.571 226.992 228.565 226.997ZM228.596 226.971C228.607 226.962 228.616 226.954 228.628 226.946C228.616 226.954 228.607 226.962 228.596 226.971ZM228.637 226.937C228.644 226.932 228.65 226.926 228.657 226.92C228.65 226.926 228.644 226.932 228.637 226.937ZM228.666 226.913C228.672 226.907 228.679 226.903 228.685 226.897C228.678 226.902 228.672 226.907 228.666 226.913ZM228.695 226.889C228.701 226.884 228.708 226.878 228.714 226.872C228.708 226.878 228.701 226.884 228.695 226.889ZM228.721 226.867C228.743 226.848 228.767 226.828 228.788 226.809C228.766 226.829 228.744 226.847 228.721 226.867ZM228.797 226.802C228.804 226.796 228.809 226.791 228.818 226.785C228.811 226.791 228.803 226.797 228.797 226.802ZM228.825 226.778C228.832 226.772 228.839 226.767 228.846 226.761C228.839 226.767 228.832 226.772 228.825 226.778ZM228.853 226.755C228.887 226.726 228.916 226.7 228.95 226.673C228.918 226.7 228.885 226.727 228.853 226.755ZM228.956 226.668C228.962 226.662 228.971 226.655 228.977 226.649C228.971 226.655 228.962 226.662 228.956 226.668ZM228.984 226.643C228.99 226.637 228.997 226.631 229.004 226.625C228.997 226.631 228.99 226.637 228.984 226.643ZM229.012 226.619C229.044 226.59 229.077 226.562 229.11 226.534C229.078 226.563 229.044 226.59 229.012 226.619ZM229.112 226.532C229.121 226.525 229.128 226.518 229.137 226.51C229.128 226.518 229.121 226.525 229.112 226.532ZM229.137 226.51C232.61 223.494 235.277 220.008 237.322 216.36C235.277 220.008 232.61 223.493 229.137 226.51ZM237.324 216.357C237.329 216.348 237.334 216.34 237.338 216.332C237.334 216.34 237.329 216.348 237.324 216.357ZM237.34 216.33C237.359 216.296 237.378 216.262 237.397 216.227C237.378 216.262 237.359 216.296 237.34 216.33ZM237.402 216.219C237.405 216.213 237.409 216.206 237.412 216.2C237.409 216.206 237.405 216.212 237.402 216.219ZM237.419 216.188C237.421 216.182 237.426 216.176 237.428 216.17C237.426 216.176 237.421 216.182 237.419 216.188ZM237.436 216.157C237.438 216.152 237.442 216.146 237.445 216.141C237.442 216.147 237.438 216.151 237.436 216.157ZM237.455 216.123C237.46 216.114 237.464 216.106 237.469 216.097C237.464 216.106 237.46 216.114 237.455 216.123ZM237.477 216.082C237.481 216.077 237.483 216.071 237.486 216.066C237.483 216.071 237.481 216.077 237.477 216.082ZM237.494 216.051C237.498 216.046 237.499 216.043 237.502 216.037C237.5 216.042 237.496 216.046 237.494 216.051ZM237.513 216.017C237.515 216.014 237.517 216.011 237.518 216.007C237.517 216.011 237.515 216.014 237.513 216.017ZM237.532 215.983C237.534 215.98 237.534 215.978 237.535 215.976C237.534 215.978 237.534 215.98 237.532 215.983ZM237.57 215.913C237.571 215.91 237.572 215.908 237.575 215.904C237.573 215.907 237.571 215.911 237.57 215.913ZM237.587 215.882C237.588 215.879 237.59 215.876 237.592 215.873C237.59 215.876 237.588 215.879 237.587 215.882ZM237.605 215.848C237.607 215.846 237.608 215.843 237.609 215.843C237.607 215.844 237.607 215.845 237.605 215.848ZM237.644 215.778C237.644 215.776 237.645 215.775 237.645 215.773C237.645 215.775 237.644 215.776 237.644 215.778ZM237.661 215.744C237.662 215.743 237.662 215.743 237.663 215.741C237.662 215.741 237.661 215.744 237.661 215.744ZM237.679 215.712C237.679 215.71 237.681 215.709 237.681 215.708C237.681 215.709 237.679 215.71 237.679 215.712ZM111.842 173.238C111.844 173.222 111.847 173.208 111.85 173.192C111.847 173.208 111.844 173.222 111.842 173.238ZM111.85 173.191C111.853 173.177 111.855 173.162 111.859 173.148C111.855 173.162 111.853 173.177 111.85 173.191ZM111.859 173.144C111.862 173.129 111.865 173.116 111.867 173.103C111.865 173.116 111.862 173.129 111.859 173.144ZM111.869 173.096C111.871 173.083 111.873 173.07 111.876 173.057C111.873 173.07 111.871 173.084 111.869 173.096ZM111.877 173.049C111.88 173.035 111.883 173.023 111.886 173.011C111.883 173.023 111.88 173.035 111.877 173.049ZM111.887 173.003C111.89 172.99 111.892 172.979 111.894 172.968C111.892 172.979 111.89 172.99 111.887 173.003ZM111.896 172.954C111.898 172.944 111.9 172.932 111.903 172.921C111.9 172.932 111.899 172.943 111.896 172.954ZM111.906 172.907C111.908 172.896 111.91 172.887 111.911 172.878C111.91 172.887 111.908 172.897 111.906 172.907ZM111.916 172.86C111.918 172.85 111.919 172.842 111.921 172.833C111.919 172.842 111.918 172.85 111.916 172.86ZM111.925 172.812C111.927 172.804 111.928 172.797 111.93 172.789C111.929 172.796 111.927 172.804 111.925 172.812ZM111.934 172.765C111.936 172.758 111.938 172.751 111.939 172.743C111.937 172.751 111.936 172.757 111.934 172.765ZM111.944 172.718C111.945 172.712 111.947 172.705 111.948 172.699C111.947 172.705 111.945 172.711 111.944 172.718ZM111.954 172.67C111.954 172.665 111.956 172.66 111.957 172.655C111.956 172.66 111.954 172.665 111.954 172.67ZM111.964 172.624C111.964 172.619 111.966 172.615 111.967 172.61C111.966 172.615 111.964 172.619 111.964 172.624ZM111.973 172.577C111.974 172.572 111.974 172.57 111.976 172.565C111.974 172.57 111.974 172.572 111.973 172.577ZM111.983 172.53C111.983 172.527 111.984 172.524 111.985 172.521C111.984 172.524 111.983 172.527 111.983 172.53ZM111.993 172.482C111.994 172.48 111.994 172.48 111.994 172.478C111.993 172.479 111.993 172.481 111.993 172.482ZM112.002 172.436C112.003 172.435 112.003 172.434 112.004 172.433C112.003 172.434 112.003 172.435 112.002 172.436Z" fill="#B38FA4"/>
			<path id="Vector_58" d="M112.912 193.142C111.179 187.954 110.776 182.812 111.184 177.961C111.32 176.352 111.545 174.776 111.841 173.24C111.841 173.239 111.841 173.239 111.841 173.238C111.844 173.222 111.847 173.208 111.849 173.192L111.85 173.191C111.853 173.177 111.855 173.162 111.858 173.148C111.859 173.146 111.859 173.145 111.859 173.144C111.862 173.129 111.865 173.116 111.867 173.103C111.867 173.101 111.868 173.098 111.868 173.096C111.871 173.084 111.873 173.071 111.876 173.057C111.877 173.056 111.878 173.052 111.877 173.049C111.88 173.036 111.883 173.023 111.886 173.011C111.885 173.008 111.886 173.006 111.887 173.003C111.89 172.991 111.892 172.979 111.894 172.968C111.894 172.963 111.896 172.959 111.896 172.954C111.898 172.943 111.9 172.932 111.903 172.921C111.904 172.917 111.904 172.912 111.906 172.907C111.907 172.897 111.909 172.887 111.911 172.878C111.913 172.872 111.914 172.866 111.916 172.86C111.917 172.85 111.919 172.842 111.921 172.833C111.922 172.827 111.924 172.819 111.925 172.812C111.927 172.804 111.928 172.796 111.93 172.789C111.932 172.781 111.933 172.772 111.934 172.765C111.936 172.757 111.937 172.752 111.939 172.743C111.94 172.735 111.943 172.727 111.944 172.719C111.945 172.711 111.947 172.705 111.947 172.699C111.95 172.689 111.953 172.68 111.954 172.67C111.954 172.665 111.956 172.66 111.956 172.655C111.96 172.645 111.962 172.635 111.964 172.624C111.964 172.619 111.965 172.615 111.967 172.61C111.969 172.599 111.972 172.588 111.973 172.577C111.974 172.572 111.974 172.57 111.976 172.566C111.978 172.554 111.981 172.542 111.983 172.53C111.983 172.527 111.984 172.524 111.984 172.521C111.988 172.508 111.99 172.495 111.993 172.483C111.993 172.481 111.993 172.479 111.993 172.478C111.996 172.465 111.999 172.45 112.002 172.437C112.003 172.435 112.003 172.434 112.004 172.433C113.274 166.397 115.611 161.026 117.852 156.874C116.406 160.756 115.255 165.127 114.863 169.77C114.77 170.899 114.719 172.047 114.72 173.206C111.951 179.146 111.929 185.374 111.929 185.374C111.983 188.042 112.327 190.633 112.912 193.142ZM228.15 227.338C229.837 225.65 231.408 223.783 232.838 221.726C232.838 221.726 236.253 216.519 237.219 210.039C240.491 205.103 242.451 199.703 243.614 194.682C243.076 200.706 241.563 208.488 237.681 215.708C237.681 215.709 237.679 215.711 237.678 215.712C237.673 215.722 237.669 215.731 237.663 215.741C237.662 215.743 237.662 215.743 237.661 215.745C237.656 215.755 237.651 215.764 237.645 215.774C237.644 215.775 237.644 215.776 237.644 215.778C237.632 215.799 237.62 215.82 237.609 215.843C237.608 215.843 237.607 215.846 237.605 215.848C237.6 215.856 237.595 215.865 237.592 215.874C237.59 215.876 237.588 215.879 237.587 215.882C237.583 215.889 237.578 215.896 237.575 215.904C237.572 215.908 237.571 215.91 237.57 215.914C237.558 215.934 237.546 215.956 237.535 215.976C237.534 215.978 237.534 215.98 237.532 215.983C237.527 215.992 237.523 215.999 237.518 216.007C237.516 216.011 237.514 216.014 237.513 216.018C237.509 216.024 237.505 216.031 237.502 216.037C237.498 216.043 237.498 216.046 237.494 216.051C237.491 216.056 237.489 216.06 237.486 216.067C237.483 216.072 237.481 216.077 237.477 216.082C237.474 216.087 237.471 216.093 237.469 216.097C237.464 216.107 237.46 216.114 237.455 216.124C237.452 216.129 237.447 216.135 237.445 216.142C237.442 216.146 237.438 216.152 237.436 216.157C237.434 216.161 237.431 216.165 237.428 216.17C237.426 216.176 237.421 216.182 237.419 216.188C237.416 216.192 237.414 216.196 237.412 216.2C237.409 216.206 237.405 216.213 237.402 216.219C237.399 216.223 237.398 216.224 237.397 216.227C237.378 216.262 237.359 216.296 237.34 216.33L237.338 216.332C237.334 216.34 237.329 216.348 237.324 216.357C237.324 216.358 237.323 216.36 237.322 216.36C235.277 220.008 232.609 223.494 229.137 226.511C229.128 226.518 229.121 226.525 229.112 226.532C229.111 226.534 229.11 226.534 229.11 226.534C229.077 226.563 229.044 226.591 229.012 226.619C229.009 226.622 229.007 226.623 229.004 226.626C228.997 226.631 228.99 226.637 228.984 226.644C228.981 226.646 228.98 226.646 228.977 226.649C228.97 226.655 228.961 226.662 228.956 226.668C228.954 226.67 228.951 226.671 228.95 226.673C228.916 226.7 228.887 226.726 228.853 226.755C228.85 226.757 228.849 226.759 228.845 226.761C228.839 226.767 228.832 226.772 228.825 226.778C228.823 226.781 228.82 226.783 228.818 226.785C228.809 226.792 228.804 226.796 228.797 226.802C228.795 226.805 228.792 226.807 228.788 226.809C228.766 226.828 228.743 226.848 228.721 226.867C228.718 226.868 228.717 226.871 228.714 226.872C228.708 226.878 228.701 226.884 228.695 226.889C228.691 226.891 228.688 226.894 228.685 226.897C228.679 226.903 228.672 226.908 228.666 226.913C228.663 226.916 228.66 226.919 228.657 226.921C228.65 226.926 228.644 226.932 228.637 226.937C228.634 226.94 228.631 226.943 228.627 226.946C228.616 226.954 228.607 226.963 228.596 226.971C228.591 226.975 228.585 226.981 228.58 226.985C228.576 226.988 228.571 226.993 228.565 226.997C228.562 227 228.555 227.004 228.551 227.009C228.546 227.013 228.541 227.018 228.534 227.022C228.53 227.026 228.526 227.03 228.522 227.034C228.516 227.037 228.511 227.043 228.505 227.048C228.501 227.052 228.497 227.055 228.492 227.059C228.487 227.062 228.482 227.067 228.476 227.072C228.47 227.077 228.463 227.082 228.458 227.087C228.449 227.093 228.442 227.099 228.434 227.107C228.428 227.111 228.424 227.114 228.419 227.119C228.414 227.123 228.408 227.127 228.404 227.131C228.398 227.135 228.393 227.14 228.388 227.144C228.384 227.147 228.379 227.152 228.375 227.154C228.369 227.16 228.362 227.165 228.356 227.17C228.352 227.174 228.349 227.176 228.344 227.18C228.337 227.186 228.328 227.193 228.321 227.2C228.318 227.201 228.317 227.202 228.314 227.204C228.304 227.213 228.295 227.22 228.285 227.228C228.28 227.232 228.278 227.235 228.274 227.237C228.266 227.243 228.261 227.248 228.254 227.253C228.25 227.257 228.246 227.261 228.242 227.263C228.236 227.269 228.23 227.274 228.223 227.278C228.218 227.282 228.216 227.285 228.211 227.289C228.204 227.293 228.197 227.3 228.191 227.306C228.187 227.307 228.184 227.31 228.181 227.313C228.171 227.321 228.161 227.329 228.15 227.338Z" fill="#AF733D"/>
			<path id="Vector_59" d="M164.176 230.847L164.139 230.836C152.973 227.477 143.996 223.625 136.835 219.462C135.725 218.816 134.66 218.164 133.635 217.504C121.893 209.942 115.691 201.484 112.912 193.142C112.328 190.633 111.984 188.042 111.929 185.374C111.929 185.374 111.951 179.146 114.72 173.206C114.725 176.935 115.264 180.795 116.561 184.681C121.066 198.203 134.725 212.036 166.883 221.711L166.92 221.722C199.5 231.517 218.605 227.291 229.764 218.273C232.798 215.821 235.248 213.014 237.22 210.039C236.253 216.519 232.838 221.726 232.838 221.726C231.409 223.783 229.837 225.65 228.151 227.338C221.204 232.951 211.236 236.74 196.956 236.558C195.738 236.542 194.487 236.497 193.206 236.423C184.94 235.941 175.335 234.202 164.176 230.847Z" fill="#B3B3D2"/>
			<path id="Vector_60" d="M213.109 131.397C213.087 131.385 213.065 131.37 213.044 131.354C213.065 131.37 213.087 131.385 213.109 131.397ZM212.974 131.31C212.928 131.278 212.883 131.249 212.837 131.221C212.883 131.249 212.928 131.278 212.974 131.31ZM178.523 120.904C178.533 120.904 178.541 120.903 178.55 120.903C178.541 120.903 178.533 120.904 178.523 120.904ZM212.828 131.212C212.779 131.182 212.73 131.15 212.682 131.117C212.73 131.15 212.779 131.182 212.828 131.212ZM178.551 120.904C178.56 120.903 178.57 120.903 178.579 120.903C178.57 120.903 178.56 120.903 178.551 120.904ZM178.71 120.904C178.716 120.905 178.723 120.904 178.729 120.903C178.723 120.904 178.716 120.905 178.71 120.904ZM212.666 131.107C212.62 131.078 212.576 131.05 212.531 131.022C212.576 131.05 212.62 131.078 212.666 131.107ZM178.89 120.907C178.906 120.906 178.924 120.905 178.941 120.907C178.924 120.905 178.906 120.906 178.89 120.907ZM212.53 131.021C212.443 130.965 212.357 130.909 212.27 130.854C212.357 130.909 212.443 130.965 212.53 131.021ZM179.103 120.909C179.131 120.911 179.159 120.911 179.187 120.91C179.159 120.911 179.131 120.911 179.103 120.909ZM212.265 130.849C212.254 130.843 212.242 130.837 212.232 130.831C212.242 130.837 212.254 130.843 212.265 130.849ZM179.245 120.913C179.251 120.911 179.252 120.912 179.257 120.913C179.252 120.912 179.251 120.911 179.245 120.913ZM212.218 130.82C212.193 130.804 212.166 130.79 212.141 130.773C212.166 130.79 212.193 130.804 212.218 130.82ZM179.362 120.915C179.371 120.915 179.379 120.914 179.388 120.914C179.379 120.914 179.371 120.915 179.362 120.915ZM212.11 130.752C212.107 130.751 212.103 130.75 212.102 130.747C212.103 130.75 212.107 130.751 212.11 130.752ZM179.402 120.915C179.412 120.916 179.422 120.915 179.432 120.915C179.422 120.915 179.412 120.916 179.402 120.915ZM212.061 130.722C212.052 130.717 212.045 130.712 212.037 130.706C212.045 130.712 212.052 130.717 212.061 130.722ZM179.482 120.919C179.495 120.916 179.507 120.917 179.52 120.918C179.507 120.917 179.495 120.916 179.482 120.919ZM211.994 130.682C211.978 130.671 211.962 130.66 211.946 130.65C211.962 130.66 211.978 130.671 211.994 130.682ZM179.58 120.921C179.59 120.921 179.599 120.921 179.61 120.921C179.599 120.921 179.59 120.921 179.58 120.921ZM211.928 130.641C211.924 130.637 211.921 130.636 211.916 130.632C211.921 130.636 211.924 130.637 211.928 130.641ZM179.611 120.921C179.696 120.923 179.78 120.925 179.864 120.929C179.78 120.925 179.696 120.923 179.611 120.921ZM211.82 130.573L211.819 130.572L211.82 130.573ZM211.714 130.505C211.704 130.502 211.695 130.496 211.687 130.491C211.695 130.496 211.704 130.502 211.714 130.505ZM179.882 120.929C187.282 121.172 194.06 123.037 195.895 123.58C194.06 123.037 187.28 121.171 179.882 120.929ZM196.382 123.729C196.382 123.729 196.501 123.762 196.724 123.829C196.501 123.762 196.382 123.729 196.382 123.729ZM196.87 123.873C196.817 123.857 196.768 123.842 196.724 123.829C196.768 123.842 196.817 123.857 196.87 123.873ZM247.742 116.718C248.105 116.72 248.464 116.745 248.816 116.794C248.464 116.745 248.105 116.72 247.742 116.718ZM157.404 89.5569C157.277 89.4744 157.149 89.3943 157.019 89.3194C157.149 89.3943 157.277 89.4744 157.404 89.5569ZM157.014 89.3177C157.01 89.3169 157.007 89.3129 157.004 89.3119C157.007 89.3129 157.01 89.3169 157.014 89.3177ZM156.993 89.3053C156.991 89.305 156.99 89.3045 156.988 89.3039C156.99 89.3045 156.991 89.305 156.993 89.3053ZM248.824 116.796C248.827 116.797 248.829 116.798 248.832 116.796C248.829 116.798 248.827 116.797 248.824 116.796Z" fill="#FFEBE4"/>
			<path id="Vector_61" d="M182.707 129.729C179.725 128.832 177.702 127.221 177.882 125.701C177.59 125.669 177.306 125.611 177.031 125.528C175.735 125.139 174.657 124.196 174.134 122.908C171.407 116.173 163.597 98.8875 152.756 91.7776C152.056 91.3171 151.31 90.9741 150.541 90.743C149.597 90.459 148.617 90.3461 147.65 90.3942C149.744 88.4619 152.695 87.7987 155.356 88.5989C155.916 88.7671 156.464 89.0034 156.988 89.3038C156.99 89.3044 156.991 89.3048 156.993 89.3052C156.997 89.3067 157 89.3105 157.004 89.3117C157.007 89.3128 157.01 89.3167 157.014 89.3175C157.016 89.3186 157.017 89.3185 157.019 89.3192C157.149 89.3941 157.277 89.4742 157.404 89.5567C169.994 97.8142 178.165 120.903 178.165 120.903C178.284 120.903 178.404 120.904 178.523 120.904C178.533 120.903 178.542 120.903 178.55 120.903C178.551 120.903 178.551 120.903 178.551 120.903C178.56 120.903 178.57 120.903 178.579 120.903C178.622 120.904 178.667 120.905 178.711 120.903C178.716 120.905 178.723 120.904 178.729 120.903C178.783 120.905 178.836 120.906 178.89 120.907C178.906 120.906 178.924 120.905 178.941 120.907C178.994 120.908 179.049 120.907 179.103 120.908C179.131 120.911 179.159 120.91 179.187 120.91C179.207 120.91 179.226 120.913 179.246 120.913C179.251 120.911 179.253 120.912 179.257 120.913C179.292 120.912 179.328 120.914 179.362 120.915C179.371 120.915 179.379 120.914 179.388 120.914C179.393 120.915 179.396 120.916 179.402 120.915C179.412 120.915 179.422 120.915 179.432 120.915C179.449 120.917 179.465 120.916 179.482 120.918C179.495 120.916 179.507 120.917 179.52 120.918C179.54 120.918 179.56 120.918 179.58 120.921C179.591 120.921 179.599 120.921 179.61 120.921L179.611 120.921C179.696 120.923 179.78 120.925 179.864 120.929C179.871 120.928 179.875 120.929 179.882 120.928C187.28 121.171 194.061 123.037 195.895 123.58C195.948 123.596 195.998 123.61 196.042 123.624C196.264 123.691 196.382 123.729 196.382 123.729C196.382 123.729 196.501 123.762 196.724 123.829C196.768 123.842 196.817 123.857 196.87 123.873C198.7 124.432 205.382 126.613 211.687 130.491C211.695 130.496 211.704 130.502 211.714 130.505C211.748 130.527 211.783 130.55 211.819 130.572L211.82 130.572C211.852 130.591 211.884 130.613 211.917 130.631C211.921 130.636 211.924 130.636 211.928 130.641C211.934 130.643 211.94 130.647 211.946 130.649C211.962 130.66 211.978 130.671 211.994 130.682C212.008 130.689 212.022 130.699 212.037 130.706C212.045 130.712 212.052 130.717 212.061 130.722C212.074 130.729 212.087 130.739 212.102 130.746C212.103 130.75 212.107 130.751 212.11 130.752C212.12 130.758 212.13 130.767 212.141 130.773C212.166 130.789 212.193 130.804 212.218 130.82C212.223 130.825 212.227 130.826 212.232 130.83C212.242 130.836 212.254 130.843 212.265 130.849C212.266 130.852 212.268 130.853 212.27 130.854C212.357 130.909 212.443 130.965 212.53 131.021L212.531 131.021C212.576 131.05 212.62 131.078 212.666 131.107C212.672 131.111 212.676 131.115 212.682 131.117C212.73 131.149 212.779 131.182 212.828 131.212C212.83 131.215 212.834 131.217 212.837 131.22C212.883 131.249 212.928 131.278 212.974 131.309C212.997 131.325 213.019 131.341 213.044 131.354C213.065 131.37 213.087 131.385 213.109 131.397C213.118 131.406 213.128 131.412 213.137 131.418C213.137 131.418 232.686 116.663 247.742 116.718C248.105 116.72 248.464 116.744 248.816 116.793C248.818 116.794 248.822 116.795 248.824 116.796C248.827 116.797 248.829 116.798 248.832 116.796C249.223 116.854 249.607 116.936 249.979 117.048C252.641 117.848 254.736 120.029 255.418 122.795C254.637 122.222 253.758 121.776 252.813 121.492C252.045 121.26 251.233 121.136 250.395 121.133C237.431 121.086 221.383 131.198 215.395 135.313C214.245 136.101 212.82 136.297 211.521 135.907C211.172 135.802 210.831 135.655 210.507 135.465C203.778 131.505 196.901 129.312 195.255 128.818C195.014 128.745 194.885 128.709 194.885 128.709C194.885 128.709 194.76 128.671 194.524 128.601C194.22 128.51 193.73 128.365 193.085 128.189C192.536 129.934 189.03 130.847 184.997 130.239C184.19 130.118 183.422 129.943 182.707 129.729Z" fill="#FDDBA9"/>
			<path id="Vector_62" d="M154.945 90.0166C152.56 89.2996 149.866 90.0163 148.146 91.9837C141.486 99.6041 129.627 117.052 125.024 148.294C124.984 148.562 124.872 148.814 124.7 149.021C124.657 149.073 120.302 154.379 116.834 162.31C113.671 169.542 110.614 180.52 114.011 191.75C118.972 208.156 135.993 220.835 164.601 229.436C193.209 238.037 214.399 236.847 227.586 225.897C236.611 218.401 240.115 207.558 241.465 199.781C242.946 191.252 242.239 184.425 242.231 184.358C242.202 184.09 242.248 183.818 242.362 183.573C255.751 154.972 255.48 133.877 254.127 123.848C253.693 120.634 250.945 118.202 247.737 118.189C233.346 118.138 214.216 132.447 214.025 132.592C213.525 132.969 212.842 132.989 212.321 132.642C204.848 127.67 196.072 125.171 195.985 125.145C195.967 125.14 195.95 125.135 195.933 125.129C195.846 125.103 187.146 122.348 178.171 122.375C177.545 122.377 176.986 121.983 176.777 121.394C176.698 121.167 168.618 98.6743 156.598 90.7876C156.077 90.4464 155.52 90.1897 154.945 90.0166ZM163.752 232.258C147.938 227.503 135.395 221.408 126.469 214.141C118.746 207.855 113.604 200.601 111.184 192.582C109.565 187.219 109.157 181.482 109.969 175.528C110.614 170.798 112.027 165.926 114.171 161.042C117.348 153.806 121.135 148.776 122.168 147.468C124.26 133.505 128.011 120.803 133.319 109.705C137.889 100.15 142.698 93.7405 145.927 90.0459C149.025 86.5023 154.307 85.7603 158.214 88.3248C163.643 91.885 168.89 98.3811 173.806 107.634C176.603 112.894 178.455 117.494 179.194 119.436C188.091 119.597 196.185 122.117 196.807 122.316C197.436 122.493 205.577 124.854 213.088 129.626C214.776 128.414 218.857 125.598 224.09 122.753C233.295 117.745 241.254 115.219 247.746 115.243C252.419 115.259 256.417 118.79 257.046 123.455C257.703 128.318 258.18 136.317 256.724 146.807C255.031 158.992 251.156 171.657 245.2 184.459C245.34 186.119 245.725 192.403 244.385 200.192C243.48 205.449 241.972 210.292 239.903 214.594C237.297 220.008 233.792 224.57 229.485 228.15C223.043 233.504 214.753 236.719 204.845 237.705C193.392 238.845 179.566 237.012 163.752 232.258Z" fill="#390075"/>
			<g id="Group_64">
				<g id="Group_65">
					<path id="Vector_63" d="M164.355 153.439C169.624 155.492 171.948 162.155 169.545 168.323C167.142 174.49 160.923 177.825 155.653 175.772C150.384 173.719 148.061 167.056 150.464 160.888C152.866 154.721 159.086 151.386 164.355 153.439Z" fill="#000072"/>
					<path id="Vector_64" d="M172.519 165.347C166.244 156.952 158.041 154.542 151.419 152.903C157.027 146.871 170.539 153.511 172.519 165.347Z" fill="#000072"/>
					<path id="Vector_65" d="M165.781 161.136C164.478 160.815 163.057 162.03 162.609 163.85C162.161 165.669 162.855 167.406 164.158 167.727C165.463 168.048 166.883 166.832 167.331 165.013C167.779 163.193 167.086 161.458 165.781 161.136Z" fill="white"/>
					<path id="Vector_66" d="M171.75 143.449C174.623 145.189 176.216 147.812 175.31 149.309C174.404 150.806 171.34 150.609 168.468 148.87C165.596 147.131 164.002 144.508 164.909 143.012C165.816 141.513 168.878 141.71 171.75 143.449Z" fill="white"/>
					<path id="Vector_67" d="M153.822 167.439C153.011 167.6 152.528 168.603 152.74 169.684C152.953 170.763 153.782 171.51 154.593 171.35C155.403 171.19 155.887 170.186 155.674 169.105C155.461 168.027 154.632 167.279 153.822 167.439Z" fill="#B199C5"/>
				</g>
				<g id="Group_66">
					<path id="Vector_68" d="M206.716 166.174C201.188 164.981 195.575 169.258 194.178 175.728C192.782 182.198 196.131 188.41 201.658 189.603C207.186 190.797 212.799 186.519 214.196 180.049C215.592 173.58 212.243 167.368 206.716 166.174Z" fill="#000072"/>
					<path id="Vector_69" d="M193.337 171.606C203.201 168.064 211.374 170.577 217.801 172.862C216.45 164.737 201.516 162.825 193.337 171.606Z" fill="#000072"/>
					<path id="Vector_70" d="M201.281 171.809C202.545 172.26 203.06 174.057 202.43 175.822C201.801 177.587 200.265 178.653 199 178.202C197.734 177.751 197.221 175.953 197.85 174.188C198.48 172.423 200.015 171.357 201.281 171.809Z" fill="white"/>
					<path id="Vector_71" d="M206.055 153.763C202.7 153.63 199.923 154.94 199.854 156.688C199.784 158.436 202.449 159.961 205.803 160.095C209.158 160.229 211.935 158.919 212.003 157.171C212.074 155.42 209.41 153.896 206.055 153.763Z" fill="white"/>
					<path id="Vector_72" d="M207.781 183.662C208.369 184.243 208.219 185.347 207.445 186.132C206.672 186.914 205.569 187.08 204.981 186.5C204.393 185.919 204.543 184.815 205.317 184.031C206.09 183.249 207.193 183.082 207.781 183.662Z" fill="#B199C5"/>
				</g>
			</g>
			<g id="Group_67">
				<path id="Vector_73" d="M173.983 190.42C174.333 189.225 175.586 188.541 176.781 188.892C177.975 189.243 178.659 190.496 178.308 191.69L176.574 197.594C176.223 198.789 174.97 199.473 173.776 199.121C172.582 198.771 171.898 197.518 172.248 196.323L173.983 190.42Z" fill="#03036B"/>
				<path id="Vector_74" d="M165.837 201.269C164.629 201.552 163.419 200.803 163.136 199.594C162.852 198.386 163.602 197.176 164.81 196.893L173.898 194.771C175.106 194.487 176.316 195.237 176.599 196.445C176.883 197.654 176.133 198.863 174.925 199.146L165.837 201.269Z" fill="#03036B"/>
				<path id="Vector_75" d="M182.523 202.097C183.385 202.988 183.362 204.412 182.47 205.275C181.578 206.137 180.155 206.114 179.292 205.222L172.796 198.522C171.933 197.63 171.957 196.206 172.849 195.344C173.74 194.48 175.164 194.505 176.027 195.396L182.523 202.097Z" fill="#03036B"/>
			</g>
			<circle id="Ellipse 19" cx="188.6" cy="153.066" r="89.5" transform="rotate(-3.2989 188.6 153.066)" fill="url(#paint0_linear_329_16)"/>
		</g>
	</g>
	<defs>
		<linearGradient id="paint0_linear_329_16" x1="188.6" y1="63.5662" x2="188.6" y2="242.566" gradientUnits="userSpaceOnUse">
			<stop stop-color="white"/>
			<stop offset="1" stop-color="white" stop-opacity="0"/>
		</linearGradient>
	</defs>
</svg>
