<svg width="464" height="484" viewBox="0 0 464 484" fill="none" xmlns="http://www.w3.org/2000/svg">
<g id="mp-merch-img">
<g id="mp-merch-img-layer">
<path id="Polygon 3" opacity="0.1" d="M238.743 80.3423C264.887 73.3369 292.783 80.8116 311.923 99.9508L383.992 172.021C403.132 191.16 410.606 219.056 403.601 245.201L377.221 343.65C370.216 369.794 349.795 390.216 323.65 397.221L225.201 423.6C199.056 430.606 171.16 423.131 152.021 403.992L79.9512 331.922C60.8119 312.783 53.3372 284.887 60.3426 258.742L86.722 160.293C93.7274 134.148 114.149 113.727 140.293 106.722L238.743 80.3423Z" fill="white"/>
<g id="Group 3">
<mask id="mask0_165_619" style="mask-type:alpha" maskUnits="userSpaceOnUse" x="57" y="57" width="350" height="350">
<path id="Polygon 1" d="M238.742 60.3423C264.887 53.3369 292.783 60.8116 311.922 79.9508L383.992 152.021C403.131 171.16 410.606 199.056 403.601 225.201L377.221 323.65C370.216 349.794 349.794 370.216 323.65 377.221L225.201 403.6C199.056 410.606 171.16 403.131 152.021 383.992L79.9509 311.922C60.8117 292.783 53.3369 264.887 60.3424 238.742L86.7217 140.293C93.7272 114.148 114.149 93.7271 140.293 86.7217L238.742 60.3423Z" fill="white"/>
</mask>
<g mask="url(#mask0_165_619)">
<path id="Polygon 2" d="M238.742 60.3423C264.887 53.3369 292.783 60.8116 311.922 79.9508L383.992 152.021C403.131 171.16 410.606 199.056 403.601 225.201L377.221 323.65C370.216 349.794 349.794 370.216 323.65 377.221L225.201 403.6C199.056 410.606 171.16 403.131 152.021 383.992L79.9509 311.922C60.8117 292.783 53.3369 264.887 60.3424 238.742L86.7217 140.293C93.7272 114.148 114.149 93.7271 140.293 86.7217L238.742 60.3423Z" fill="white"/>
<circle id="Ellipse 12" opacity="0.1" cx="254" cy="477" r="228" fill="#6573FC"/>
</g>
</g>
</g>
<g id="mp-merch-img-cloud">
<g id="mp-merch-img-cloud-inner">
<g id="Group 11">
<path id="Vector" d="M135.57 105.284C139.79 99.7451 142.299 92.8308 142.299 85.3277C142.299 67.1184 127.538 52.3552 109.328 52.3552C91.1167 52.3552 76.3552 67.1184 76.3552 85.3277C76.3552 103.54 91.1167 118.301 109.328 118.301C114.393 118.301 119.191 117.155 123.477 115.115L138.307 120.077L135.57 105.284V105.284Z" fill="url(#paint0_linear_165_619)"/>
<path id="Vector_2" d="M123.477 112.761C123.729 112.761 123.982 112.8 124.225 112.882L135.264 116.576L133.253 105.713C133.134 105.061 133.293 104.388 133.697 103.861C137.784 98.493 139.944 92.0833 139.944 85.3278C139.944 68.4469 126.21 54.7124 109.328 54.7124C92.4452 54.7124 78.7106 68.4469 78.7106 85.3278C78.7106 102.211 92.4452 115.946 109.328 115.946C113.922 115.946 118.342 114.952 122.466 112.989C122.786 112.838 123.131 112.761 123.477 112.761V112.761ZM138.307 122.433C138.056 122.433 137.805 122.393 137.56 122.311L123.614 117.644C119.105 119.644 114.304 120.656 109.328 120.656C89.8478 120.656 74 104.807 74 85.3278C74 65.8478 89.8478 50 109.328 50C128.808 50 144.655 65.8478 144.655 85.3278C144.655 92.7697 142.383 99.8472 138.071 105.862L140.622 119.65C140.774 120.469 140.481 121.308 139.853 121.856C139.416 122.233 138.867 122.433 138.307 122.433Z" fill="#000072"/>
<path id="Vector_3" d="M138.307 120.077L123.477 115.115C119.189 117.155 114.393 118.301 109.328 118.301C91.1176 118.301 76.3552 103.54 76.3552 85.3277C76.3552 83.5958 76.49 81.8923 76.7481 80.2305C77.1897 82.7028 77.8734 85.1149 78.7824 87.4374C79.8696 103.339 93.1536 115.946 109.328 115.946C113.922 115.946 118.342 114.952 122.466 112.989C122.786 112.838 123.131 112.76 123.477 112.76C123.729 112.76 123.982 112.8 124.225 112.882L135.264 116.576L133.398 106.498C134.211 106.024 135.009 105.523 135.786 104.989C135.713 105.087 135.644 105.189 135.57 105.284L138.307 120.077V120.077Z" fill="#000072"/>
</g>
<path id="Vector_4" fill-rule="evenodd" clip-rule="evenodd" d="M94.5811 99.2643C90.6739 86.3535 95.1521 76.0198 103.385 72.6678C111.617 69.3157 122.041 73.582 128.263 85.551C120.681 95.0857 115.28 87.2643 110.174 89.3429C105.068 91.4224 106.667 100.791 94.5811 99.2643V99.2643ZM111.984 95.5965L112.021 95.5814L112.72 97.3L110.879 99.6695L111.894 100.458L113.735 98.0884L116.708 98.4981L116.883 97.2247L113.91 96.815L113.211 95.0973L113.247 95.0822C113.755 94.7381 114.171 94.2468 114.424 93.6376L114.853 92.601C115.094 92.0183 115.155 91.4029 115.06 90.8185C116.093 91.0934 117.113 91.3949 118.183 91.5696C122.827 92.3287 126.11 90.2208 128.912 86.8572L128.913 86.859C133.173 95.8741 123.913 101.132 116.245 104.254C108.578 107.376 98.279 110.081 95.0307 100.655L95.0289 100.652C99.3839 101.103 103.206 100.318 105.998 96.5312C106.643 95.6577 107.163 94.7292 107.709 93.8123C108.05 94.2956 108.522 94.6938 109.102 94.943L110.134 95.3846C110.74 95.6435 111.38 95.7047 111.984 95.5965V95.5965ZM103.202 89.1558C103.663 89.0449 104.167 89.4999 104.329 90.172C104.492 90.8442 104.25 91.4792 103.789 91.5909C103.329 91.7018 102.825 91.2468 102.663 90.5746C102.501 89.9025 102.742 89.2675 103.202 89.1558V89.1558ZM115.033 84.3397C114.627 84.5809 114.583 85.2593 114.936 85.8534C115.29 86.4475 115.906 86.734 116.314 86.4919C116.721 86.2489 116.763 85.5714 116.41 84.9773C116.056 84.3831 115.44 84.0976 115.033 84.3397ZM96.892 75.6554C84.2243 73.2433 83.3623 76.676 91.824 90.3467C91.8107 88.8197 91.9225 87.2953 92.177 85.7922C88.3354 79.2814 88.895 77.4121 94.8826 78.3601C95.4696 77.3935 96.1409 76.4872 96.892 75.6554V75.6554ZM110.119 70.2699C117.498 59.6959 120.513 61.5501 124.007 77.2436C122.95 76.1413 121.805 75.1286 120.573 74.2312C118.774 66.8886 117.068 65.9406 113.446 70.802C112.35 70.5209 111.238 70.3408 110.119 70.2699V70.2699ZM108.526 92.514C109.082 91.7 109.737 90.9515 110.674 90.5711C111.612 90.1889 112.603 90.2669 113.57 90.4603C113.815 90.9551 113.854 91.5492 113.628 92.0937L113.199 93.1295C112.788 94.1227 111.643 94.5882 110.655 94.1652L109.624 93.7245C109.083 93.4922 108.696 93.039 108.526 92.514V92.514ZM103.486 84.5817C104.605 84.5755 105.515 84.9914 105.518 85.5102C105.52 86.029 104.616 86.4546 103.497 86.4608C102.378 86.4671 101.468 86.0512 101.465 85.5324C101.463 85.0136 102.367 84.588 103.486 84.5817V84.5817ZM111.635 81.2643C110.83 82.042 110.469 82.974 110.83 83.3473C111.19 83.7207 112.135 83.3935 112.94 82.6157C113.745 81.8389 114.105 80.906 113.745 80.5327C113.384 80.1593 112.44 80.4866 111.635 81.2643V81.2643ZM114.123 85.4446C114.156 85.5483 114.193 85.6521 114.236 85.7559C114.836 87.2297 116.154 88.0854 117.181 87.6678C118.207 87.2501 118.553 85.7159 117.952 84.2421C117.673 83.5566 117.238 83.005 116.75 82.6521C116.959 82.3825 117.168 82.1138 117.377 81.8442C115.758 82.0624 113.765 84.3671 113.579 85.4118C113.76 85.4224 113.942 85.4339 114.123 85.4446V85.4446ZM104.626 89.3119C104.674 89.4085 104.721 89.5087 104.762 89.6125C105.363 91.0863 105.017 92.6205 103.991 93.0381C102.965 93.4558 101.646 92.6001 101.046 91.1262C100.766 90.4399 100.692 89.7411 100.796 89.1478C100.458 89.1017 100.12 89.0547 99.7821 89.0077C101.094 88.0331 104.129 88.2903 104.993 88.9075C104.87 89.0423 104.748 89.1771 104.626 89.3119Z" fill="#AD6F37"/>
<path id="Vector_5" fill-rule="evenodd" clip-rule="evenodd" d="M94.2643 98.4866C90.3571 85.5759 94.8354 75.2413 103.068 71.8892C111.3 68.538 121.725 72.8044 127.946 84.7733C120.364 94.3081 114.964 86.4857 109.858 88.5652C104.751 90.6447 106.35 100.014 94.2643 98.4866V98.4866ZM111.667 94.8188L111.704 94.8038L112.404 96.5224L110.563 98.8919L111.577 99.6802L113.418 97.3107L116.39 97.7204L116.567 96.447L113.594 96.0373L112.894 94.3187L112.93 94.3045C113.438 93.9595 113.854 93.4683 114.107 92.8599L114.536 91.8233C114.778 91.2407 114.839 90.6252 114.744 90.0408C115.776 90.3157 116.796 90.6172 117.866 90.7919C122.51 91.551 125.793 89.4431 128.595 86.0787L128.596 86.0813C132.855 95.0964 123.597 100.354 115.928 103.477C108.261 106.598 97.9622 109.304 94.713 99.8771L94.7121 99.8744C99.0671 100.325 102.889 99.5401 105.682 95.7526C106.325 94.88 106.845 93.9516 107.391 93.0337C107.732 93.5179 108.205 93.9161 108.785 94.1644L109.817 94.606C110.422 94.8658 111.064 94.927 111.667 94.8188V94.8188ZM102.886 88.3781C103.346 88.2673 103.85 88.7222 104.013 89.3944C104.174 90.0666 103.933 90.7015 103.473 90.8123C103.012 90.9232 102.508 90.4683 102.346 89.7961C102.183 89.1239 102.425 88.489 102.886 88.3781ZM114.716 83.5611C114.309 83.8032 114.267 84.4816 114.62 85.0757C114.973 85.6699 115.59 85.9554 115.997 85.7133C116.403 85.4721 116.446 84.7937 116.093 84.1996C115.74 83.6054 115.123 83.319 114.716 83.5611ZM96.5752 74.8777C83.9075 72.4647 83.0447 75.8984 91.5073 89.5691C91.494 88.042 91.6057 86.5176 91.8602 85.0145C88.0186 78.5037 88.5782 76.6344 94.5658 77.5824C95.1537 76.6158 95.8241 75.7095 96.5752 74.8777V74.8777ZM109.803 69.4922C117.182 58.9173 120.197 60.7716 123.691 76.4659C122.633 75.3636 121.489 74.3509 120.256 73.4535C118.458 66.1109 116.751 65.1629 113.129 70.0243C112.033 69.7432 110.92 69.5632 109.803 69.4922V69.4922ZM108.208 91.7355C108.765 90.9223 109.42 90.1747 110.358 89.7925C111.294 89.4112 112.286 89.4893 113.252 89.6817C113.498 90.1774 113.538 90.7716 113.312 91.316L112.882 92.3518C112.471 93.345 111.326 93.8106 110.338 93.3876L109.307 92.9459C108.765 92.7145 108.379 92.2614 108.208 91.7355V91.7355ZM103.169 83.8041C104.289 83.7979 105.198 84.2138 105.201 84.7325C105.204 85.2513 104.299 85.677 103.18 85.6832C102.061 85.6894 101.151 85.2735 101.148 84.7547C101.146 84.2359 102.05 83.8103 103.169 83.8041ZM111.318 80.4866C110.513 81.2634 110.152 82.1963 110.513 82.5697C110.873 82.943 111.817 82.6158 112.623 81.8381C113.428 81.0612 113.789 80.1283 113.428 79.755C113.068 79.3817 112.123 79.7098 111.318 80.4866ZM113.806 84.6669C113.839 84.7707 113.876 84.8744 113.918 84.9773C114.518 86.4511 115.837 87.3078 116.864 86.8901C117.89 86.4724 118.236 84.9383 117.636 83.4644C117.356 82.7789 116.922 82.2265 116.432 81.8744C116.641 81.6048 116.851 81.3361 117.06 81.0666C115.441 81.2847 113.448 83.5895 113.262 84.6341C113.444 84.6447 113.625 84.6554 113.806 84.6669V84.6669ZM104.309 88.5342C104.358 88.6308 104.404 88.7311 104.445 88.8348C105.046 90.3086 104.7 91.8419 103.674 92.2605C102.648 92.6781 101.329 91.8215 100.729 90.3477C100.45 89.6622 100.375 88.9634 100.479 88.3701C100.141 88.3231 99.8032 88.277 99.4653 88.23C100.777 87.2546 103.812 87.5126 104.675 88.1298C104.554 88.2646 104.431 88.3994 104.309 88.5342V88.5342Z" fill="#FFE875"/>
</g>
</g>
<g id="mp-merch-img-dog">
<g id="mp-merch-img-dog-inner">
<path id="Vector_6" d="M151.692 297.094C151.65 297.305 151.608 297.516 151.566 297.727L151.574 297.719L151.692 297.094Z" fill="#F6A428"/>
<path id="Vector_7" d="M151.118 298.526L151.403 297.037L151.981 297.147L151.846 297.871L151.118 298.526Z" fill="#000072"/>
<path id="Vector_8" d="M319.979 302.748C313.316 263.632 293.319 212.07 235.48 192.408V192.292C235.425 192.311 235.37 192.331 235.314 192.35C235.259 192.331 235.205 192.311 235.149 192.292V192.408C180.058 211.136 159.299 258.804 151.692 297.093C151.691 297.1 151.574 297.724 151.408 298.839C150.107 307.525 145.796 345.867 170.009 350.921C171.623 351.256 173.27 351.385 174.916 351.385H296.031C297.441 351.385 298.852 351.295 300.239 351.044C322.42 347.034 321.4 315.762 319.979 302.748Z" fill="#F6A428"/>
<path id="Vector_9" d="M235.315 192.662L235.244 192.686C179.838 211.521 159.383 259.89 151.981 297.151C151.975 297.179 151.862 297.797 151.699 298.881C150.537 306.641 145.966 345.602 170.069 350.631C171.548 350.94 173.135 351.091 174.916 351.091H296.031C297.577 351.091 298.936 350.981 300.187 350.755C322.07 346.798 321.116 315.9 319.69 302.788C312.968 263.347 292.887 212.233 235.385 192.686L235.315 192.662V192.662ZM296.031 351.679H174.916C173.094 351.679 171.468 351.525 169.95 351.208C145.329 346.071 149.942 306.646 151.117 298.794C151.288 297.648 151.403 297.034 151.404 297.031C158.827 259.67 179.335 211.172 234.854 192.197V191.882L235.315 192.039L235.775 191.882V192.197C293.4 211.889 313.532 263.145 320.271 302.699V302.716C321.72 315.986 322.667 347.287 300.291 351.334C299.006 351.566 297.611 351.679 296.031 351.679V351.679Z" fill="#000072"/>
<path id="Vector_10" d="M319.979 302.748C313.316 263.632 293.319 212.07 235.48 192.408V192.292C235.425 192.311 235.37 192.331 235.314 192.35C235.259 192.331 235.205 192.311 235.149 192.292V192.408C180.058 211.136 159.299 258.804 151.692 297.093C151.691 297.1 151.574 297.724 151.408 298.839C150.107 307.525 145.796 345.867 170.009 350.921C171.623 351.256 173.27 351.385 174.916 351.385H296.031C297.441 351.385 298.852 351.295 300.239 351.044C322.42 347.034 321.4 315.762 319.979 302.748Z" fill="#F6A428"/>
<path id="Vector_11" d="M235.315 192.662L235.244 192.686C179.838 211.521 159.383 259.89 151.981 297.151C151.975 297.179 151.862 297.797 151.699 298.881C150.537 306.641 145.966 345.602 170.069 350.631C171.548 350.94 173.135 351.091 174.916 351.091H296.031C297.577 351.091 298.936 350.981 300.187 350.755C322.07 346.798 321.116 315.9 319.69 302.788C312.968 263.347 292.887 212.233 235.385 192.686L235.315 192.662V192.662ZM296.031 351.679H174.916C173.094 351.679 171.468 351.525 169.95 351.208C145.329 346.071 149.942 306.646 151.117 298.794C151.288 297.648 151.403 297.034 151.404 297.031C158.827 259.67 179.335 211.172 234.854 192.197V191.882L235.315 192.039L235.775 191.882V192.197C293.4 211.889 313.532 263.145 320.271 302.699V302.716C321.72 315.986 322.667 347.287 300.291 351.334C299.006 351.566 297.611 351.679 296.031 351.679V351.679Z" fill="#000072"/>
<path id="Vector_12" d="M173.435 348.736H297.452C303.039 348.289 307.366 346.133 310.676 342.147C319.372 331.677 318.254 311.424 317.355 303.113C310.757 264.471 291.155 214.488 235.314 195.151C181.488 213.791 161.542 261.113 154.291 297.609C154.283 297.65 154.177 298.234 154.028 299.23C153.288 304.175 150.097 329.468 159.954 341.831C163.292 346.017 167.703 348.277 173.435 348.736ZM297.554 354.034H173.331C173.264 354.034 173.198 354.031 173.13 354.026C165.904 353.476 160.077 350.484 155.81 345.133C144.866 331.407 147.668 305.928 148.787 298.446C148.956 297.318 149.082 296.625 149.104 296.53C156.617 258.71 177.393 209.583 233.614 190.135C234.115 189.777 234.716 189.613 235.314 189.648C235.914 189.613 236.516 189.777 237.016 190.135C295.373 210.316 315.765 262.227 322.591 302.303C322.601 302.355 322.607 302.408 322.613 302.46C323.825 313.556 324.409 333.905 314.752 345.532C310.517 350.632 304.798 353.49 297.757 354.026C297.688 354.031 297.622 354.034 297.554 354.034V354.034Z" fill="#000072"/>
<path id="Vector_13" d="M151.692 297.388H151.333L151.403 297.035L151.987 297.092V297.386L151.692 297.388Z" fill="#000072"/>
<path id="Vector_14" d="M173.835 284.572C173.835 284.572 139.296 279.047 134.605 305.863C129.913 332.678 147.955 351.385 167.194 351.385L173.835 284.572Z" fill="#F6A428"/>
<path id="Vector_15" d="M142.039 334.268C137.102 326.505 135.39 316.748 137.215 306.319C138.175 300.83 141.504 296.424 145.643 293.153C143.424 296.213 141.755 300.014 140.93 304.729C139.097 315.21 140.433 324.559 143.87 332.249C143.495 332.59 143.135 332.955 142.791 333.34C142.528 333.635 142.276 333.944 142.039 334.268V334.268Z" fill="#FBD294"/>
<path id="Vector_16" d="M167.194 354.034C157.121 354.034 147.426 349.37 140.593 341.239C132.658 331.795 129.604 319.07 131.995 305.405C134.621 290.399 149.54 284.216 154.05 282.679C155.435 282.206 156.94 282.947 157.412 284.332C157.885 285.718 157.144 287.223 155.76 287.695C147.901 290.375 138.903 296.673 137.215 306.32C135.099 318.414 137.74 329.605 144.649 337.83C150.473 344.761 158.689 348.735 167.194 348.735C168.657 348.735 169.843 349.921 169.843 351.385C169.843 352.847 168.657 354.034 167.194 354.034V354.034Z" fill="#000072"/>
<path id="Vector_17" d="M192.374 341.015C192.374 350.391 181.102 357.991 167.194 357.991C153.288 357.991 142.013 350.391 142.013 341.015C142.013 331.64 153.288 324.04 167.194 324.04C181.102 324.04 192.374 331.64 192.374 341.015Z" fill="#FAFBFB"/>
<path id="Vector_18" d="M166.757 354.407C166.424 354.407 166.092 354.403 165.758 354.393C163.794 354.353 161.834 354.149 159.92 353.763C158.001 353.401 156.131 352.84 154.353 352.105C152.576 351.373 150.891 350.452 149.425 349.316C148.806 348.846 148.229 348.337 147.704 347.792C151.025 348.883 154.755 349.495 158.698 349.495C166.942 349.495 174.263 346.824 178.855 342.696C178.995 342.988 179.138 343.278 179.282 343.569C180.417 345.812 181.659 348.004 183.027 350.112C182.839 350.234 182.647 350.352 182.456 350.471C179.256 352.372 175.484 353.543 171.626 354.071C170.02 354.296 168.39 354.407 166.757 354.407Z" fill="#AFAFD2"/>
<path id="Vector_19" d="M176.907 325.349C177.464 325.372 178.018 325.428 178.583 325.472C179.141 325.538 179.689 325.647 180.25 325.737C181.363 325.949 182.465 326.251 183.552 326.636C185.713 327.42 187.84 328.515 189.711 330.086C191.588 331.64 193.241 333.657 194.304 336.102C194.55 336.719 194.778 337.354 194.958 338.004C195.107 338.664 195.294 339.325 195.333 340.009C195.515 341.364 195.465 342.76 195.216 344.113C194.732 346.837 193.453 349.316 191.843 351.363C190.226 353.417 188.282 355.094 186.193 356.436C182.012 359.14 177.311 360.622 172.584 361.26C170.213 361.543 167.832 361.658 165.46 361.516C163.087 361.362 160.721 361.036 158.404 360.445C156.088 359.859 153.82 359.037 151.649 357.97C149.489 356.875 147.423 355.535 145.578 353.862C143.731 352.206 142.109 350.182 140.982 347.829C139.853 345.492 139.302 342.755 139.664 340.151C139.995 337.541 141.178 335.146 142.791 333.34C144.405 331.521 146.401 330.211 148.547 329.444C148.618 329.419 148.696 329.456 148.721 329.528C148.737 329.571 148.727 329.621 148.702 329.655C147.365 331.471 146.219 333.252 145.459 335.074C144.697 336.894 144.337 338.713 144.413 340.445C144.48 342.181 144.958 343.828 145.829 345.336C146.706 346.838 147.945 348.192 149.425 349.315C150.891 350.451 152.576 351.373 154.353 352.104C156.131 352.839 158.001 353.401 159.92 353.763C161.833 354.148 163.794 354.352 165.758 354.393C167.723 354.449 169.692 354.341 171.626 354.071C175.484 353.543 179.256 352.371 182.456 350.471C184.038 349.508 185.489 348.388 186.63 347.083C187.767 345.779 188.587 344.323 189.01 342.79C189.201 342.023 189.365 341.231 189.327 340.423C189.361 340.016 189.282 339.617 189.269 339.203C189.217 338.797 189.132 338.388 189.042 337.975C188.617 336.338 187.77 334.691 186.609 333.151C185.443 331.613 183.966 330.197 182.322 328.91C181.9 328.604 181.488 328.268 181.052 327.964C180.61 327.675 180.178 327.35 179.724 327.056L178.339 326.194C177.867 325.914 177.386 325.647 176.907 325.349V325.349Z" fill="#000072"/>
<path id="Vector_20" d="M187.125 351.385C165.72 320.05 173.834 290.873 173.834 290.873C173.834 290.873 186.744 341.111 224.427 350.738L187.125 351.385V351.385Z" fill="#F6A428"/>
<path id="Vector_21" d="M235.15 354.034H187.127C185.662 354.034 184.477 352.848 184.477 351.385C184.477 349.921 185.662 348.736 187.127 348.736H235.15C236.612 348.736 237.798 349.921 237.798 351.385C237.798 352.848 236.612 354.034 235.15 354.034Z" fill="#000072"/>
<path id="Vector_22" d="M179.208 249.339C179.208 295.094 204.446 332.185 235.576 332.185C266.708 332.185 291.943 295.094 291.943 249.339C291.943 203.586 266.708 166.494 235.576 166.494C204.446 166.494 179.208 203.586 179.208 249.339V249.339Z" fill="#FAFBFB"/>
<path id="Vector_23" d="M248.664 271.838C226.652 271.838 207.287 262.633 196.072 248.697C204.555 252.491 213.889 255.792 224.039 258.585C240.931 263.373 256.608 265.773 270.892 265.772C273.64 265.772 276.339 265.684 278.983 265.505C269.994 269.543 259.66 271.838 248.664 271.838Z" fill="#AFAFD2"/>
<path id="Vector_24" d="M297.572 284.572C297.572 284.572 331.378 279.047 335.973 305.863C340.565 332.678 322.906 351.385 304.071 351.385L297.572 284.572Z" fill="#F6A428"/>
<path id="Vector_25" d="M328.954 333.773C328.82 333.61 328.683 333.45 328.547 333.295C328.156 332.859 327.746 332.452 327.317 332.077C330.265 324.689 331.321 315.883 329.608 306.089C328.06 297.238 323.542 291.607 317.987 288.054C323.284 290.076 331.419 294.98 333.361 306.31C335.112 316.538 333.548 326.094 328.954 333.773V333.773Z" fill="#FBD294"/>
<path id="Vector_26" d="M304.071 354.034C302.609 354.034 301.423 352.847 301.423 351.385C301.423 349.921 302.609 348.735 304.071 348.735C312.226 348.735 320.154 344.88 325.823 338.158C332.786 329.901 335.465 318.59 333.361 306.31C331.054 292.847 319.998 288.458 315.352 287.195C313.941 286.81 313.108 285.355 313.491 283.944C313.875 282.531 315.333 281.698 316.744 282.081C328.461 285.265 336.624 293.989 338.582 305.415C340.953 319.26 337.861 332.103 329.875 341.575C323.195 349.493 313.792 354.034 304.071 354.034Z" fill="#000072"/>
<path id="Vector_27" d="M279.425 341.015C279.425 350.391 290.461 357.991 304.072 357.991C317.685 357.991 328.718 350.391 328.718 341.015C328.718 331.64 317.685 324.04 304.072 324.04C290.461 324.04 279.425 331.64 279.425 341.015Z" fill="#FAFBFB"/>
<path id="Vector_28" d="M295.079 327.899C293.184 328.527 291.364 329.315 289.691 330.287C288.02 331.252 286.48 332.401 285.248 333.734C284.001 335.051 283.053 336.539 282.523 338.082C282.408 338.471 282.297 338.86 282.22 339.251C282.175 339.647 282.077 340.035 282.085 340.432C282.002 341.223 282.095 342.016 282.262 342.789C282.607 344.339 283.402 345.836 284.521 347.179C285.648 348.515 287.065 349.716 288.656 350.717C291.852 352.736 295.681 353.931 299.581 354.511C303.499 355.069 307.57 354.967 311.431 354.136C315.28 353.314 319.029 351.814 321.953 349.447C323.421 348.28 324.638 346.885 325.48 345.358C326.316 343.823 326.755 342.172 326.795 340.448C326.849 338.729 326.488 336.934 325.737 335.12C324.991 333.304 323.865 331.518 322.566 329.655C322.521 329.593 322.534 329.507 322.598 329.464C322.633 329.437 322.681 329.433 322.719 329.444C324.899 330.164 326.92 331.47 328.547 333.295C330.171 335.107 331.349 337.526 331.661 340.148C331.997 342.764 331.407 345.497 330.241 347.807C329.083 350.134 327.437 352.118 325.579 353.73C323.719 355.361 321.65 356.654 319.493 357.702C317.333 358.732 315.083 359.541 312.778 360.072C308.169 361.161 303.429 361.384 298.741 360.821C296.396 360.534 294.068 360.016 291.798 359.252C289.531 358.492 287.317 357.489 285.227 356.189C283.149 354.883 281.171 353.288 279.539 351.267C277.911 349.26 276.607 346.82 276.046 344.113C275.772 342.766 275.651 341.372 275.788 339.999C275.804 339.306 275.968 338.634 276.086 337.958C276.239 337.291 276.443 336.636 276.664 335.997C277.622 333.456 279.175 331.279 280.965 329.504C284.612 325.984 289.099 323.935 293.64 322.799C295.061 322.444 296.499 323.307 296.854 324.727C297.194 326.079 296.427 327.446 295.128 327.882L295.079 327.899Z" fill="#000072"/>
<path id="Vector_29" d="M304.495 354.86C302.848 354.86 301.201 354.742 299.581 354.511C295.681 353.931 291.851 352.736 288.656 350.717C287.965 350.283 287.308 349.811 286.694 349.308C287.422 348.177 288.099 347.024 288.739 345.86C289.513 344.468 290.232 343.058 290.911 341.635C295.381 346.361 303.227 349.495 312.157 349.495C316.43 349.495 320.453 348.775 323.977 347.509C323.377 348.204 322.696 348.855 321.952 349.448C319.029 351.814 315.279 353.314 311.431 354.136C309.166 354.623 306.829 354.86 304.495 354.86V354.86Z" fill="#AFAFD2"/>
<path id="Vector_30" d="M303.662 357.991C296.092 357.991 289.303 355.74 284.688 352.176C285.4 351.241 286.065 350.283 286.694 349.308C287.308 349.811 287.966 350.283 288.656 350.717C291.851 352.736 295.681 353.931 299.581 354.511C301.201 354.742 302.848 354.86 304.495 354.86C306.829 354.86 309.166 354.623 311.431 354.136C315.279 353.314 319.029 351.814 321.953 349.447C322.696 348.855 323.377 348.204 323.977 347.509C325.336 347.02 326.621 346.449 327.819 345.808C324.749 352.849 315.099 357.991 303.662 357.991V357.991Z" fill="#000072"/>
<path id="Vector_31" d="M339.65 167.842C339.65 167.842 369.394 119.067 357.576 103.642C345.757 88.2172 306.54 109.086 306.54 109.086C288.726 93.3401 271.199 89.7424 271.199 89.7424C271.199 89.7424 254.344 83.7398 230.949 87.9795C230.949 87.9795 208.22 49.8069 190.118 56.8781C172.017 63.9485 172.191 121.079 172.191 121.079L172.19 121.078C163.742 129.842 155.402 140.725 147.469 154.203C140.914 165.343 139.125 178.715 142.643 191.153C148.721 212.629 168.682 240.609 224.762 256.036C280.72 271.895 312.289 258.305 328.613 243.086C338.067 234.271 343.466 221.906 343.632 208.981C343.829 193.344 342.334 179.714 339.65 167.84V167.842V167.842Z" fill="#F6A428"/>
<path id="Vector_32" d="M304.664 115.944C299.152 111.071 293.669 107.364 288.722 104.564L288.72 104.57C288.101 106.785 284.894 107.99 280.548 107.99C278.057 107.99 275.193 107.595 272.23 106.766C264.096 104.494 258.289 99.8287 259.262 96.3463C259.461 95.6342 259.931 95.0276 260.615 94.531C256.747 93.8766 251.735 93.3206 245.865 93.3206C240.836 93.3206 235.178 93.7303 229.075 94.8361C229.075 94.8361 210.035 62.8612 192.929 62.8612C191.346 62.8612 189.777 63.1379 188.243 63.7356C186.765 64.3138 185.409 65.2263 184.165 66.411C186.08 62.9313 188.364 60.4084 191.082 59.3469C192.279 58.8796 193.519 58.6641 194.791 58.6641C207.464 58.6641 223.214 80.174 228.672 89.3362C229.156 90.1459 230.025 90.6292 230.947 90.6292C231.104 90.6292 231.263 90.6132 231.422 90.5848C237.313 89.5171 242.787 89.1225 247.662 89.1225C261.276 89.1225 270.192 92.1961 270.309 92.2405C270.427 92.2812 270.544 92.3132 270.666 92.3389C270.835 92.3735 287.699 95.9676 304.785 111.071C305.28 111.51 305.907 111.736 306.54 111.736C306.966 111.736 307.392 111.634 307.783 111.428C315.035 107.573 331.292 100.613 343.339 100.613C348.506 100.613 352.901 101.898 355.472 105.253C357.216 107.525 357.871 110.792 357.738 114.666C357.286 113.099 356.619 111.697 355.701 110.499C352.51 106.337 347.33 104.818 341.458 104.818C325.572 104.818 304.664 115.944 304.664 115.944V115.944Z" fill="#FBD294"/>
<path id="Vector_33" d="M217.131 91.5638C217.131 91.5638 204.724 71.267 195.578 74.8417C186.432 78.4137 186.459 108.241 186.459 108.241C196.971 100.13 207.387 94.8751 217.131 91.5638V91.5638Z" fill="#E34989"/>
<path id="Vector_34" d="M316.502 119.312C316.502 119.312 337.628 108.384 343.6 116.177C349.574 123.971 334.095 149.468 334.095 149.468C329.306 137.086 323.119 127.194 316.502 119.312Z" fill="#E34989"/>
<path id="Vector_35" d="M145.64 158.371C145.536 158.374 145.435 158.371 145.331 158.375C144.322 160.855 143.426 163.282 142.616 165.666C142.422 166.363 142.242 167.063 142.081 167.765C142.391 166.584 142.738 165.411 143.137 164.254C143.834 162.246 144.674 160.283 145.64 158.371V158.371Z" fill="#FAFBFB"/>
<path id="Vector_36" d="M142.081 167.766C141.312 171.119 140.918 174.549 140.889 177.989C141.362 173.593 142.104 169.018 143.137 164.254C142.737 165.411 142.391 166.584 142.081 167.766Z" fill="#FAFBFB"/>
<path id="Vector_37" d="M339.787 168.463C339.459 169.015 339.278 169.311 339.278 169.311C340.746 175.796 341.856 182.81 342.529 190.386C330.745 206.106 306.591 221.605 289.459 205.519C279.596 196.259 283.751 176.601 277.493 169.131C264.491 153.61 246.225 146.982 226.799 153.612C212.412 158.519 202.755 188.198 172.349 171.834C160.658 165.541 155.514 149.484 158.19 138.797C154.427 143.914 150.72 149.52 147.099 155.674C146.579 156.557 146.099 157.459 145.64 158.371C144.674 160.283 143.834 162.246 143.137 164.254C142.104 169.018 141.362 173.593 140.889 177.989C140.855 182.401 141.421 186.833 142.643 191.153C148.722 212.629 168.682 240.609 224.762 256.035C280.72 271.896 312.289 258.306 328.613 243.086C331.524 240.371 334.051 237.319 336.157 234.018C338.544 230.279 340.384 226.215 341.645 221.963L341.652 221.942C341.738 221.654 341.83 221.367 341.909 221.078C342.986 217.168 343.577 213.102 343.632 208.982C343.825 193.614 342.382 180.189 339.787 168.463Z" fill="#FAFBFB"/>
<path id="Vector_38" d="M174.034 122.981C165.299 132.055 157.13 143.013 149.753 155.547C143.56 166.072 141.898 178.787 145.194 190.432C150.929 210.698 169.51 238.089 225.464 253.481C281.317 269.311 311.402 255.511 326.808 241.147C335.661 232.895 340.825 221.159 340.981 208.948C341.166 194.405 339.857 180.801 337.085 168.514C336.91 167.842 336.996 167.101 337.387 166.461C345.396 153.323 364.259 116.718 355.472 105.253C346.908 94.0744 318.146 105.917 307.784 111.428C306.81 111.945 305.614 111.803 304.785 111.071C287.7 95.9677 270.836 92.3736 270.666 92.339C270.545 92.3133 270.427 92.2813 270.31 92.2405C270.15 92.1829 253.769 86.5367 231.422 90.5849C230.334 90.7853 229.239 90.2825 228.672 89.3363C222.664 79.2562 204.201 54.2214 191.082 59.347C177.629 64.603 174.797 105.686 174.841 121.071C174.843 121.805 174.541 122.489 174.034 122.981V122.981ZM270.892 265.772C256.608 265.773 240.931 263.373 224.039 258.585C198.312 251.508 177.827 241.156 163.17 227.822C151.641 217.335 143.877 205.239 140.095 191.875C136.408 178.845 138.263 164.624 145.187 152.859C152.585 140.288 160.777 129.241 169.547 120.006C169.583 116.371 169.847 104.221 171.746 91.2456C174.839 70.1072 180.696 57.7135 189.155 54.412C207.083 47.4046 227.567 77.6414 232.264 85.0647C254.159 81.5122 269.981 86.5296 271.912 87.1876C273.903 87.6266 290.039 91.5285 306.926 105.914C314.79 102 347.973 86.7522 359.679 102.032C365.202 109.238 363.791 122.874 355.485 142.556C350.387 154.634 344.318 165.165 342.465 168.295C345.182 180.735 346.466 194.428 346.279 209.014C346.107 222.666 340.327 235.79 330.421 245.023C320.262 254.495 307.355 260.818 292.06 263.815C285.4 265.12 278.335 265.772 270.892 265.772V265.772Z" fill="#000072"/>
<path id="Vector_39" d="M251.096 167.724L251.105 167.732L251.136 167.624L251.121 167.625L251.096 167.724Z" fill="#E94653"/>
<path id="Vector_40" d="M250.793 167.639L250.821 167.542L250.809 167.534L250.779 167.641L250.793 167.639Z" fill="#E94653"/>
<path id="Vector_41" d="M245.149 183.877L245.097 183.858C245.121 183.843 245.145 183.826 245.168 183.812L245.149 183.877V183.877Z" fill="#000072"/>
<path id="Vector_42" d="M266.173 172.113C264.624 176.304 256.559 179.711 249.173 176.981C241.786 174.252 237.876 166.419 239.424 162.228C240.973 158.039 247.092 159.899 254.477 162.628C261.864 165.358 267.72 167.923 266.173 172.113V172.113Z" fill="#000072"/>
<path id="Vector_43" d="M259.024 168.109C258.685 169.027 255.631 169.3 252.425 168.114C249.218 166.93 247.075 164.736 247.414 163.817C247.753 162.899 250.382 163.782 253.587 164.966C256.794 166.152 259.364 167.188 259.024 168.109Z" fill="white"/>
<path id="Vector_44" d="M248.213 163.712C247.929 163.712 247.738 163.774 247.685 163.918C247.447 164.561 249.326 166.662 252.525 167.843C253.967 168.376 255.481 168.648 256.791 168.611C257.999 168.577 258.655 168.273 258.753 168.008C258.796 167.891 258.761 167.55 257.503 166.893C256.565 166.403 255.22 165.877 253.487 165.236C252.049 164.705 249.362 163.712 248.213 163.712V163.712ZM256.55 169.192C255.23 169.192 253.742 168.909 252.325 168.385C249.201 167.231 246.684 164.962 247.144 163.717C247.58 162.54 250.016 163.339 253.689 164.696C255.441 165.343 256.806 165.877 257.77 166.381C258.562 166.795 259.581 167.433 259.295 168.207C259.079 168.79 258.173 169.149 256.808 169.189C256.723 169.19 256.636 169.192 256.55 169.192Z" fill="#000072"/>
<path id="Vector_45" d="M272.264 256.942C259.147 256.942 243.873 254.873 226.158 249.852C204.142 243.796 187.693 235.805 175.465 227.032C174.923 224.639 174.76 221.921 175.048 218.797C175.11 218.122 175.184 217.432 175.267 216.732C175.356 216.689 175.403 216.664 175.403 216.664L175.495 214.92C175.978 211.245 176.607 207.345 176.904 203.629C189.484 213.641 207.157 222.847 231.805 229.627C249.523 234.649 264.794 236.718 277.912 236.718C306.224 236.718 324.501 227.078 335.658 216.679C337.584 214.883 339.338 212.936 340.915 210.868C340.463 218.965 337.819 226.778 333.374 233.422C332.318 234.634 331.196 235.797 330.012 236.903C318.854 247.303 300.58 256.942 272.264 256.942V256.942Z" fill="#AFAFD2"/>
<path id="Vector_46" d="M333.374 233.422C337.819 226.778 340.463 218.965 340.915 210.869C342.43 208.884 343.777 206.786 344.957 204.6C344.419 215.252 340.339 225.426 333.374 233.422V233.422Z" fill="#000072"/>
<path id="Vector_47" d="M147.203 193.726C145.876 190.723 144.838 187.791 144.04 184.969C144.024 184.918 144.011 184.869 143.997 184.817C142.681 175.775 144.188 166.409 148.331 158.159C148.622 160.371 149.073 162.572 149.686 164.746C151.548 171.321 154.71 178.506 159.814 185.755C159.554 185.788 159.29 185.824 159.023 185.864C158.613 185.846 158.19 185.838 157.755 185.838C156.688 185.838 155.546 185.889 154.328 185.997C152.355 186.169 150.988 186.895 149.107 187.845C150.499 187.916 151.781 188.052 152.957 188.25C150.87 189.623 148.95 191.496 147.203 193.726V193.726Z" fill="#AFAFD2"/>
<path id="Vector_48" d="M143.997 184.818C140.696 173.005 142.19 160.363 147.991 149.596C147.847 152.445 147.957 155.313 148.331 158.159C144.188 166.41 142.681 175.775 143.997 184.818Z" fill="#000072"/>
<path id="Vector_49" d="M303.545 279.687C303.545 279.687 294.75 355.683 270.956 358.558C246.725 361.487 247.758 355.735 249.71 312.366C249.71 312.366 273.98 264.87 303.545 279.687V279.687Z" fill="#F6A428"/>
<path id="Vector_50" d="M292.279 331.295C287.212 345.54 280.284 357.453 271.138 358.558C249.199 361.21 247.971 356.744 249.381 323.69C254.368 320.745 260.178 319.048 266.389 319.048C276.82 319.048 286.135 323.818 292.279 331.295V331.295Z" fill="#FAFBFB"/>
<path id="Vector_51" d="M262.759 356.46C261.535 356.46 260.344 356.406 259.239 356.244C257.889 356.049 256.715 355.672 255.824 355.101C254.929 354.53 254.254 353.736 253.673 352.66C253.105 351.582 252.677 350.283 252.366 348.871C252.355 348.837 252.347 348.803 252.337 348.77C254.811 349.817 257.915 350.442 261.8 350.442C262.264 350.442 262.738 350.432 263.225 350.415C272.585 350.065 280.229 344.967 286.165 338.624C285.473 340.2 284.735 341.747 283.935 343.25C282.491 345.958 280.846 348.529 278.939 350.746C277.987 351.852 276.953 352.844 275.857 353.675C274.757 354.499 273.58 355.124 272.382 355.509L271.475 355.75L270.539 355.896C269.756 355.978 268.966 356.073 268.188 356.144C266.626 356.3 265.08 356.413 263.566 356.452C263.295 356.457 263.026 356.46 262.759 356.46V356.46Z" fill="#AFAFD2"/>
<path id="Vector_52" d="M288.773 276.822C288.773 276.822 279.882 314.427 249.74 310.302C219.597 306.176 245.669 257.785 288.773 276.822Z" fill="#FAFBFB"/>
<path id="Vector_53" d="M303.985 279.737C304.557 292.816 302.216 305.627 299.109 318.243C297.495 324.545 295.54 330.79 293.022 336.878C291.757 339.922 290.367 342.931 288.739 345.86C287.128 348.793 285.276 351.657 282.963 354.286C281.803 355.597 280.502 356.837 279.026 357.93C277.556 359.022 275.894 359.985 274.039 360.6C273.572 360.746 273.095 360.869 272.622 360.995C272.145 361.081 271.63 361.177 271.182 361.243C270.37 361.338 269.567 361.447 268.748 361.532C267.116 361.711 265.462 361.86 263.767 361.954C262.064 362.025 260.318 362.037 258.479 361.817C256.657 361.595 254.659 361.107 252.816 359.972C250.965 358.859 249.485 357.13 248.583 355.368C248.351 354.925 248.12 354.482 247.96 354.038C247.793 353.596 247.58 353.146 247.463 352.708L247.064 351.386L246.776 350.077C246.069 346.604 245.977 343.268 245.964 339.97C245.985 336.676 246.147 333.424 246.465 330.195C246.758 326.967 247.141 323.756 247.626 320.56C248.09 317.363 248.664 314.179 249.361 311.008C249.413 310.768 249.651 310.615 249.892 310.668C250.089 310.711 250.227 310.879 250.242 311.068C250.745 317.537 250.83 323.969 250.972 330.349C251.069 333.538 251.126 336.71 251.301 339.835C251.332 340.619 251.383 341.395 251.449 342.165C251.498 342.943 251.58 343.704 251.667 344.463C251.74 345.231 251.855 345.964 251.954 346.712C251.999 347.087 252.084 347.439 252.145 347.803C252.217 348.162 252.27 348.532 252.366 348.871C252.677 350.284 253.105 351.582 253.673 352.66C254.254 353.736 254.929 354.531 255.824 355.101C256.715 355.672 257.889 356.05 259.239 356.244C260.585 356.441 262.062 356.48 263.566 356.452C265.08 356.413 266.626 356.301 268.188 356.145C268.966 356.074 269.756 355.978 270.539 355.896L271.475 355.75L272.382 355.51C273.58 355.124 274.757 354.5 275.857 353.675C276.953 352.844 277.987 351.853 278.939 350.747C280.846 348.529 282.491 345.958 283.935 343.251C285.378 340.537 286.62 337.677 287.759 334.767C290.005 328.926 291.847 322.875 293.522 316.765C294.363 313.711 295.147 310.634 295.918 307.549L298.14 298.257C299.65 292.057 301.2 285.845 303.107 279.636L303.111 279.626C303.183 279.39 303.432 279.258 303.669 279.33C303.854 279.387 303.976 279.554 303.985 279.737V279.737Z" fill="#000072"/>
<path id="Vector_54" d="M172.657 312.079C173.771 315.516 174.757 318.875 175.904 322.163C176.459 323.808 177.055 325.433 177.648 327.05L178.573 329.461C178.893 330.259 179.239 331.047 179.568 331.838C180.931 334.989 182.444 338.062 184.095 341.055C185.724 344.061 187.508 346.974 189.314 349.891L189.328 349.914C190.1 351.159 189.715 352.793 188.471 353.563C187.289 354.296 185.75 353.978 184.938 352.88C182.787 349.953 180.924 346.815 179.282 343.569C177.661 340.31 176.282 336.931 175.184 333.469C174.928 332.596 174.657 331.73 174.414 330.857C174.189 329.976 173.937 329.107 173.738 328.223C173.333 326.456 173.01 324.674 172.78 322.88C172.353 319.289 172.213 315.666 172.657 312.079Z" fill="#000072"/>
<path id="Vector_55" d="M193.957 244.855C182.496 239.284 173.68 233.663 175.048 218.797C176.415 203.932 183.599 182.245 159.005 185.866C142.517 188.294 133.688 221.019 135.012 235.865C136.815 256.084 154.04 270.17 171.085 278.583L193.957 244.855Z" fill="#F6A428"/>
<path id="Vector_56" d="M175.403 216.665C175.403 216.665 156.427 226.404 137.585 212.863L146.042 198.592L153.818 188.435L169.601 187.423L173.834 190.018L176.514 195.322L175.403 216.665V216.665Z" fill="#FAFBFB"/>
<path id="Vector_57" d="M156.147 270.579C145.014 264.147 139.132 256.942 136.63 243.986C139.926 254.489 147.483 263.038 156.453 269.718C156.35 270.005 156.249 270.293 156.147 270.579Z" fill="#81EDFF"/>
<path id="Vector_58" d="M161.658 273.509C161.397 273.379 161.139 273.251 160.883 273.122C160.909 273.047 160.932 272.976 160.96 272.901C161.191 273.102 161.422 273.305 161.658 273.509V273.509Z" fill="#FBD294"/>
<path id="Vector_59" d="M160.883 273.122C159.208 272.279 157.631 271.436 156.147 270.579C156.249 270.293 156.351 270.005 156.453 269.718C157.848 270.757 159.274 271.749 160.727 272.697C160.804 272.765 160.882 272.834 160.96 272.901C160.933 272.975 160.909 273.046 160.883 273.122Z" fill="#8080B9"/>
<path id="Vector_60" d="M160.727 272.697C159.274 271.749 157.848 270.757 156.453 269.718C147.483 263.038 139.926 254.49 136.63 243.987C136.182 241.669 135.844 239.167 135.601 236.454C135.08 230.615 136.13 222.008 138.598 213.569C140.089 214.574 141.58 215.439 143.058 216.179C141.219 222.713 140.415 229.391 140.897 235.163C142.361 252.656 148.283 261.775 160.727 272.697V272.697ZM140.428 208.065C143.473 199.945 147.868 192.613 153.468 188.89L146.042 198.592L140.428 208.065ZM165.115 186.99C164.199 186.639 163.177 186.363 162.037 186.169C162.942 186.092 163.799 186.055 164.607 186.055C165.95 186.055 167.164 186.157 168.258 186.353C168.007 186.386 167.758 186.417 167.499 186.454C166.693 186.573 165.898 186.753 165.115 186.99V186.99Z" fill="#FBD294"/>
<path id="Vector_61" d="M143.058 216.179C141.58 215.439 140.089 214.575 138.598 213.569C139.142 211.716 139.752 209.872 140.428 208.066L146.042 198.592L153.468 188.891C153.685 188.746 153.903 188.608 154.123 188.475C155.99 188.88 157.57 189.457 158.898 190.188C151.652 195.53 146.018 205.665 143.058 216.179Z" fill="#FDFDFD"/>
<path id="Vector_62" d="M180.232 265.101C185.671 257.992 188.942 251.913 194.088 244.788C187.991 242.319 183.258 239.442 179.994 235.518C179.481 240.013 179.208 244.629 179.208 249.339C179.208 254.729 179.563 259.997 180.232 265.101V265.101Z" fill="#FAFBFB"/>
<path id="Vector_63" d="M152.957 188.25C151.781 188.052 150.499 187.916 149.107 187.845C150.988 186.895 152.355 186.169 154.328 185.997C155.546 185.89 156.688 185.838 157.755 185.838C158.19 185.838 158.613 185.846 159.023 185.864C159.017 185.865 159.01 185.865 159.005 185.867C156.858 186.182 154.84 187.013 152.957 188.25V188.25Z" fill="#7A7AB5"/>
<path id="Vector_64" d="M179.256 245.932C169.384 244.089 160.62 235.785 162.208 225.419C162.492 223.568 162.814 221.717 163.141 219.884C165.972 219.618 168.448 219.077 170.418 218.513C170.391 218.788 170.365 219.061 170.342 219.332C169.422 229.886 173.273 235.544 179.571 239.934C179.418 241.913 179.312 243.913 179.256 245.932V245.932ZM153.907 188.429C153.598 188.365 153.282 188.305 152.957 188.25C154.839 187.013 156.858 186.182 159.005 185.866C159.01 185.865 159.017 185.865 159.023 185.864C160.11 185.908 161.112 186.011 162.037 186.169C161.26 186.234 160.446 186.33 159.593 186.454C157.706 186.733 155.92 187.409 154.236 188.408L153.907 188.429V188.429ZM162.821 187.858C163.572 187.515 164.337 187.224 165.115 186.99C165.609 187.178 166.071 187.389 166.504 187.621L162.821 187.858V187.858Z" fill="#AC723E"/>
<path id="Vector_65" d="M163.141 219.884C165.419 207.079 167.899 195.133 158.898 190.188C160.159 189.258 161.468 188.474 162.821 187.858L166.504 187.622C175.739 192.557 171.576 206.803 170.418 218.513C168.448 219.078 165.972 219.618 163.141 219.884ZM154.123 188.475C154.052 188.46 153.978 188.445 153.906 188.429L154.235 188.408C154.199 188.429 154.16 188.452 154.123 188.475Z" fill="#AFAFD2"/>
<path id="Vector_66" d="M154.236 188.408C155.92 187.409 157.706 186.733 159.593 186.454C160.446 186.33 161.26 186.235 162.037 186.169C163.177 186.363 164.2 186.639 165.115 186.99C164.337 187.224 163.572 187.515 162.821 187.858L154.236 188.408Z" fill="#AF938A"/>
<path id="Vector_67" d="M158.898 190.188C157.57 189.457 155.99 188.88 154.123 188.474C154.16 188.452 154.199 188.429 154.235 188.408L162.821 187.858C161.468 188.474 160.159 189.258 158.898 190.188V190.188Z" fill="#B1B1D3"/>
<path id="Vector_68" d="M183.33 246.313C181.966 246.313 180.602 246.183 179.256 245.932C179.312 243.913 179.419 241.913 179.571 239.934C182.4 241.905 185.721 243.619 189.326 245.404C187.385 246.023 185.361 246.315 183.33 246.313V246.313ZM189.326 245.404C189.326 245.404 189.326 245.404 189.328 245.404C189.328 245.404 189.326 245.404 189.326 245.404ZM189.328 245.404C189.328 245.404 189.328 245.404 189.329 245.403C189.328 245.404 189.328 245.404 189.328 245.404ZM189.329 245.403H189.331H189.329ZM189.331 245.403C189.334 245.4 189.336 245.398 189.339 245.397C189.336 245.398 189.333 245.402 189.331 245.403ZM189.339 245.397C189.34 245.397 189.34 245.396 189.34 245.396C189.34 245.396 189.34 245.397 189.339 245.397ZM189.34 245.396C189.358 245.388 189.37 245.381 189.378 245.376C189.367 245.382 189.352 245.391 189.34 245.396ZM189.378 245.376C189.389 245.371 189.392 245.368 189.392 245.368C189.392 245.368 189.386 245.372 189.378 245.376Z" fill="#AFAFD2"/>
<path id="Vector_69" d="M158.838 274.078C158.313 274.078 157.786 273.923 157.323 273.601C146.812 266.266 133.953 253.805 132.374 236.101C131.056 221.33 139.605 186.045 158.619 183.245C166.443 182.092 171.967 183.241 175.506 186.757C181.3 192.509 179.829 203.01 178.531 212.274C178.197 214.663 177.881 216.919 177.686 219.039C176.463 232.334 184.139 237.137 195.116 242.471C196.432 243.111 196.981 244.696 196.341 246.013C195.701 247.329 194.116 247.877 192.8 247.237C181.183 241.592 170.882 235.15 172.41 218.554C172.615 216.309 172.941 213.992 173.284 211.54C174.408 203.506 175.684 194.401 171.773 190.517C169.53 188.29 165.366 187.607 159.391 188.487C145.377 190.551 136.344 220.973 137.651 235.63C139.049 251.301 150.769 262.565 160.356 269.257C161.556 270.093 161.849 271.744 161.013 272.945C160.497 273.683 159.673 274.078 158.838 274.078V274.078Z" fill="#000072"/>
<path id="Vector_70" d="M156.829 197.795C156.413 196.762 156.396 195.566 156.509 194.42C156.63 193.263 156.909 192.109 157.3 191.005C157.478 190.436 157.719 189.913 157.939 189.358C158.179 188.822 158.436 188.294 158.699 187.762C158.98 187.252 159.258 186.728 159.555 186.218L160.484 184.715C161.295 183.405 163.017 183 164.328 183.812C165.64 184.624 166.043 186.344 165.233 187.655C165.022 187.996 164.751 188.274 164.441 188.486L164.387 188.523L163.123 189.383C162.712 189.681 162.314 189.993 161.902 190.304C161.516 190.627 161.123 190.954 160.742 191.296C160.386 191.647 159.989 191.991 159.659 192.371C158.953 193.113 158.328 193.925 157.811 194.82C157.307 195.715 156.869 196.7 156.829 197.795V197.795Z" fill="#000072"/>
<path id="Vector_71" d="M167.679 202.245C167.561 201.267 167.561 200.26 167.632 199.248C167.703 198.233 167.854 197.211 168.097 196.189C168.336 195.168 168.656 194.141 169.085 193.14C169.491 192.123 170.032 191.152 170.627 190.182L170.666 190.121C171.478 188.797 173.209 188.383 174.532 189.196C175.856 190.008 176.271 191.739 175.458 193.063C175.221 193.451 174.892 193.767 174.53 193.99C173.826 194.42 173.1 194.891 172.446 195.468C171.771 196.025 171.144 196.669 170.555 197.368C169.962 198.066 169.421 198.83 168.935 199.645C168.451 200.461 168.012 201.324 167.679 202.245V202.245Z" fill="#000072"/>
<path id="Vector_72" d="M259.819 344.839C259.309 345.808 259.199 346.882 259.191 347.908C259.195 348.942 259.332 349.957 259.576 350.952C259.673 351.445 259.846 351.941 259.98 352.423C260.141 352.908 260.318 353.388 260.493 353.862C260.696 354.336 260.885 354.804 261.093 355.267L261.763 356.643L261.785 356.689C262.458 358.076 261.88 359.747 260.493 360.42C259.106 361.094 257.436 360.516 256.761 359.129C256.588 358.77 256.497 358.378 256.483 358.003L256.424 356.237C256.42 355.649 256.44 355.055 256.45 354.474C256.487 353.88 256.526 353.294 256.584 352.71C256.669 352.12 256.721 351.545 256.85 350.963C257.06 349.81 257.392 348.67 257.862 347.608C258.336 346.556 258.945 345.528 259.819 344.839V344.839Z" fill="#000072"/>
<path id="Vector_73" d="M271.446 346.377C271.276 347.344 271.227 348.309 271.243 349.259C271.258 350.206 271.345 351.138 271.514 352.039C271.675 352.939 271.901 353.808 272.207 354.628C272.489 355.454 272.883 356.223 273.28 356.947C274.026 358.31 273.527 360.018 272.164 360.764C270.803 361.51 269.093 361.01 268.347 359.647C268.129 359.249 268.017 358.819 268.003 358.395L268.001 358.309C267.968 357.171 267.981 356.061 268.133 354.975C268.259 353.893 268.494 352.844 268.796 351.839C269.092 350.832 269.471 349.869 269.914 348.954C270.356 348.042 270.857 347.168 271.446 346.377V346.377Z" fill="#000072"/>
<path id="Vector_74" d="M157.096 341.859C156.462 342.753 156.211 343.802 156.065 344.818C155.932 345.842 155.934 346.867 156.042 347.885C156.072 348.388 156.177 348.901 156.247 349.398C156.341 349.901 156.453 350.399 156.564 350.891C156.701 351.389 156.827 351.878 156.972 352.364L157.451 353.817L157.467 353.866C157.95 355.331 157.155 356.908 155.691 357.392C154.227 357.876 152.648 357.079 152.164 355.616C152.039 355.237 152.002 354.836 152.038 354.463L152.214 352.706C152.289 352.121 152.388 351.534 152.475 350.959C152.59 350.377 152.707 349.802 152.843 349.23C153.005 348.656 153.133 348.093 153.339 347.533C153.701 346.419 154.181 345.334 154.788 344.343C155.397 343.364 156.137 342.425 157.096 341.859Z" fill="#000072"/>
<path id="Vector_75" d="M168.415 344.932C168.118 345.866 167.941 346.817 167.83 347.759C167.718 348.701 167.682 349.637 167.729 350.552C167.77 351.466 167.877 352.356 168.071 353.212C168.24 354.066 168.53 354.88 168.827 355.651C169.383 357.1 168.661 358.728 167.213 359.285C165.763 359.843 164.135 359.121 163.579 357.671C163.414 357.246 163.36 356.807 163.404 356.382L163.413 356.296C163.531 355.167 163.693 354.066 163.987 353.013C164.257 351.956 164.629 350.947 165.061 349.991C165.489 349.034 165.992 348.129 166.553 347.28C167.113 346.435 167.726 345.636 168.415 344.932V344.932Z" fill="#000072"/>
<path id="Vector_76" d="M246.531 348.736H218.282C212.045 346.249 206.576 342.631 201.808 338.399C202.868 338.311 203.927 338.154 204.979 337.929C209.052 337.062 214.043 336.706 219.899 336.706C227.265 336.706 236 337.27 245.991 338.092C245.976 338.717 245.967 339.343 245.964 339.971C245.975 342.843 246.047 345.741 246.531 348.736V348.736Z" fill="#AC723E"/>
<path id="Vector_77" d="M247.064 351.385H237.798C237.798 349.921 236.612 348.736 235.15 348.736H218.282H246.531C246.603 349.181 246.684 349.628 246.776 350.077L247.064 351.385Z" fill="#000072"/>
<path id="Vector_78" d="M218.282 348.735H188.6C187.039 346.204 185.508 343.664 184.094 341.055C182.444 338.062 180.931 334.988 179.568 331.838C179.239 331.047 178.892 330.259 178.573 329.461L177.647 327.05C177.175 325.758 176.699 324.462 176.244 323.153C177.653 325.565 179.579 328.388 182.055 331C186.688 335.891 193.099 338.487 199.698 338.487C200.4 338.487 201.104 338.457 201.808 338.399C206.576 342.631 212.045 346.249 218.282 348.735V348.735Z" fill="#AC723E"/>
<path id="Vector_79" d="M237.798 351.385H189.724C189.74 350.884 189.613 350.373 189.328 349.914L189.314 349.891C189.076 349.505 188.837 349.12 188.6 348.736H235.15C236.612 348.736 237.798 349.921 237.798 351.385V351.385Z" fill="#000072"/>
<path id="Vector_80" d="M248.111 351.385H247.064L246.776 350.077C246.684 349.628 246.603 349.181 246.531 348.736C246.047 345.741 245.975 342.843 245.964 339.971C245.967 339.343 245.976 338.717 245.991 338.093C246.692 338.149 247.398 338.208 248.111 338.268V351.385V351.385Z" fill="#000072"/>
<path id="Vector_81" d="M189.724 351.385H187.126C187.126 351.385 187.282 350.814 187.763 349.877L186.187 349.982C186.187 349.982 171.022 326.327 173.292 317.137C173.292 317.137 174.247 319.732 176.244 323.153C176.699 324.462 177.175 325.758 177.648 327.05L178.573 329.461C178.893 330.259 179.239 331.047 179.568 331.838C180.931 334.988 182.444 338.062 184.095 341.055C185.508 343.664 187.04 346.204 188.6 348.735C188.837 349.12 189.076 349.505 189.314 349.891L189.328 349.914C189.613 350.372 189.74 350.884 189.724 351.385V351.385Z" fill="#000072"/>
<path id="Vector_82" d="M313.326 341.107C314.306 341.635 315.083 342.544 315.73 343.496C316.376 344.463 316.9 345.528 317.307 346.627C317.535 347.178 317.684 347.735 317.869 348.303C318.028 348.867 318.168 349.438 318.308 350.014C318.419 350.587 318.539 351.167 318.639 351.75L318.883 353.498C319.099 355.024 318.035 356.437 316.509 356.652C314.981 356.867 313.569 355.803 313.355 354.277C313.298 353.881 313.329 353.493 313.431 353.132L313.449 353.069L313.87 351.599C313.995 351.107 314.1 350.614 314.22 350.11C314.309 349.615 314.402 349.111 314.476 348.606C314.525 348.107 314.61 347.59 314.621 347.087C314.688 346.064 314.648 345.04 314.473 344.021C314.288 343.012 313.995 341.974 313.326 341.107V341.107Z" fill="#000072"/>
<path id="Vector_83" d="M302.138 344.629C302.855 345.305 303.5 346.081 304.093 346.903C304.687 347.726 305.227 348.611 305.691 349.551C306.161 350.489 306.574 351.482 306.885 352.527C307.222 353.569 307.429 354.66 307.59 355.786L307.601 355.858C307.823 357.396 306.758 358.822 305.221 359.044C303.684 359.266 302.259 358.2 302.036 356.663C301.971 356.214 302.021 355.761 302.156 355.357C302.421 354.575 302.678 353.75 302.813 352.889C302.974 352.027 303.044 351.133 303.049 350.217C303.058 349.301 302.985 348.368 302.837 347.431C302.687 346.494 302.472 345.551 302.138 344.629V344.629Z" fill="#000072"/>
<g id="Group">
<path id="Vector_84" d="M226.514 122.706C233.371 126.798 235.048 136.622 230.259 144.648C225.469 152.674 216.028 155.864 209.17 151.772C202.313 147.68 200.636 137.856 205.425 129.83C210.215 121.803 219.656 118.614 226.514 122.706Z" fill="#000072"/>
<path id="Vector_85" d="M235.097 141.201C228.323 128.042 217.464 122.765 208.624 118.933C217.847 111.845 235.11 124.254 235.097 141.201Z" fill="#000072"/>
<path id="Vector_86" d="M226.699 133.759C224.959 133.007 222.696 134.366 221.646 136.795C220.597 139.224 221.157 141.806 222.897 142.558C224.638 143.311 226.9 141.949 227.95 139.52C229 137.091 228.442 134.512 226.699 133.759V133.759Z" fill="white"/>
<path id="Vector_87" d="M239.151 110.525C242.744 113.62 244.349 117.646 242.738 119.518C241.125 121.39 236.904 120.399 233.312 117.306C229.719 114.212 228.113 110.185 229.726 108.314C231.339 106.439 235.558 107.43 239.151 110.525Z" fill="white"/>
<path id="Vector_88" d="M208.57 139.738C207.404 139.772 206.495 141.056 206.538 142.612C206.582 144.163 207.561 145.399 208.728 145.365C209.894 145.332 210.802 144.047 210.759 142.493C210.714 140.94 209.736 139.706 208.57 139.738Z" fill="#B199C5"/>
</g>
<g id="Group_2">
<path id="Vector_89" d="M300.529 146.997C292.801 144.985 284.627 150.686 282.272 159.731C279.917 168.776 284.272 177.74 292 179.752C299.727 181.764 307.902 176.063 310.257 167.018C312.612 157.973 308.257 149.009 300.529 146.997V146.997Z" fill="#000072"/>
<path id="Vector_90" d="M281.331 153.866C295.46 149.454 306.84 153.486 315.773 157.092C314.348 145.548 293.392 141.962 281.331 153.866Z" fill="#000072"/>
<path id="Vector_91" d="M292.526 154.623C294.283 155.335 294.903 157.901 293.909 160.354C292.916 162.807 290.685 164.219 288.927 163.507C287.169 162.795 286.552 160.229 287.545 157.776C288.538 155.323 290.767 153.911 292.526 154.623Z" fill="white"/>
<path id="Vector_92" d="M300.336 129.447C295.609 129.059 291.614 130.742 291.412 133.204C291.21 135.667 294.879 137.977 299.604 138.365C304.329 138.753 308.325 137.07 308.525 134.608C308.729 132.142 305.061 129.833 300.336 129.447Z" fill="white"/>
<path id="Vector_93" d="M300.992 171.734C301.788 172.588 301.51 174.137 300.372 175.198C299.236 176.255 297.669 176.425 296.874 175.571C296.079 174.717 296.356 173.168 297.494 172.107C298.632 171.05 300.198 170.88 300.992 171.734Z" fill="#B199C5"/>
</g>
<g id="Group_3">
<path id="Vector_94" d="M246.153 174.581C246.771 172.96 248.589 172.148 250.21 172.767C251.831 173.386 252.644 175.203 252.025 176.824L248.964 184.84C248.345 186.462 246.528 187.274 244.907 186.655C243.285 186.035 242.472 184.219 243.091 182.598L246.153 174.581Z" fill="#03036B"/>
<path id="Vector_95" d="M233.635 188.765C231.924 189.026 230.325 187.851 230.064 186.14C229.803 184.43 230.978 182.831 232.69 182.569L245.555 180.621C247.266 180.36 248.865 181.535 249.126 183.246C249.387 184.957 248.211 186.556 246.5 186.816L233.635 188.765V188.765Z" fill="#03036B"/>
<path id="Vector_96" d="M256.737 191.753C257.838 193.088 257.648 195.063 256.313 196.165C254.979 197.265 253.003 197.076 251.903 195.741L243.61 185.713C242.509 184.378 242.699 182.403 244.033 181.301C245.369 180.2 247.344 180.39 248.445 181.724L256.737 191.753Z" fill="#03036B"/>
</g>
</g>
</g>
</g>
<defs>
<linearGradient id="paint0_linear_165_619" x1="109.329" y1="52.3552" x2="109.329" y2="115.946" gradientUnits="userSpaceOnUse">
<stop stop-color="#FBF46D"/>
<stop offset="1" stop-color="#FF865E"/>
</linearGradient>
</defs>
</svg>
