<svg width="1920" height="589" viewBox="0 0 1920 589" fill="none" xmlns="http://www.w3.org/2000/svg">
<mask id="mask0_165_23" style="mask-type:alpha" maskUnits="userSpaceOnUse" x="0" y="0" width="1920" height="589">
<rect y="0.998047" width="1920" height="588" fill="#C4C4C4"/>
</mask>
<g mask="url(#mask0_165_23)">
<rect y="0.998047" width="1920" height="588" fill="url(#paint0_linear_165_23)"/>
<path opacity="0.05" d="M218.641 210.383C307.195 186.655 401.682 211.972 466.508 276.799L710.614 520.905C775.441 585.731 800.758 680.218 777.03 768.772L687.681 1102.23C663.953 1190.78 594.784 1259.95 506.23 1283.68L172.774 1373.03C84.2196 1396.76 -10.2668 1371.44 -75.0931 1306.61L-319.2 1062.51C-384.026 997.68 -409.343 903.193 -385.615 814.639L-296.266 481.183C-272.538 392.629 -203.369 323.46 -114.815 299.732L218.641 210.383Z" fill="white"/>
<path opacity="0.05" d="M2018.44 -240.141C2068.21 -253.476 2121.31 -239.248 2157.74 -202.817L2294.92 -65.6334C2331.35 -29.2021 2345.58 23.8975 2332.25 73.6635L2282.03 261.06C2268.7 310.826 2229.83 349.697 2180.06 363.032L1992.67 413.245C1942.9 426.579 1889.8 412.351 1853.37 375.92L1716.19 238.737C1679.75 202.305 1665.53 149.206 1678.86 99.4398L1729.07 -87.9564C1742.41 -137.722 1781.28 -176.594 1831.05 -189.929L2018.44 -240.141Z" fill="white"/>
</g>
<defs>
<linearGradient id="paint0_linear_165_23" x1="1920" y1="300.878" x2="3.57485e-06" y2="300.878" gradientUnits="userSpaceOnUse">
<stop stop-color="#9D50F1"/>
<stop offset="1" stop-color="#6573FC"/>
</linearGradient>
</defs>
</svg>
