<svg width="30" height="25" viewBox="0 0 30 25" fill="none" xmlns="http://www.w3.org/2000/svg">
<path d="M27.4556 0.218941C23.4979 1.8581 6.52795 8.88726 1.83916 10.803C-1.30535 12.0302 0.535489 13.1807 0.535489 13.1807C0.535489 13.1807 3.21971 14.101 5.52084 14.7913C7.82165 15.4815 9.04877 14.7147 9.04877 14.7147L19.8629 7.42855C23.6976 4.82088 22.7774 6.96826 21.8568 7.88884C19.8629 9.88311 16.5649 13.0273 13.8038 15.5584C12.5767 16.6321 13.1901 17.5524 13.7273 18.0127C15.7212 19.7001 21.1669 23.1514 21.4734 23.3814C23.0936 24.5284 26.2805 26.1795 26.7653 22.6911L28.6827 10.6499C29.2964 6.58516 29.9098 2.82693 29.9864 1.75324C30.2167 -0.854748 27.4556 0.218941 27.4556 0.218941Z" fill="#1B92D1"/>
</svg>
